<?xml version="1.0" encoding="UTF-8"?>
<svg width="194px" height="53px" viewBox="0 0 194 53" version="1.1" xmlns="http://www.w3.org/2000/svg" xmlns:xlink="http://www.w3.org/1999/xlink">
    <!-- Generator: Sketch 48.2 (47327) - http://www.bohemiancoding.com/sketch -->
    <title>email</title>
    <desc>Created with Sketch.</desc>
    <defs>
        <polygon id="path-1" points="0 53 194 53 194 0 0 0"></polygon>
    </defs>
    <g id="share-widget" stroke="none" stroke-width="1" fill="none" fill-rule="evenodd" transform="translate(-834.000000, -156.000000)">
        <g id="email" transform="translate(834.000000, 156.000000)">
            <polygon id="Fill-1" fill="#848484" points="0 53 194 53 194 0 0 0"></polygon>
            <polygon id="Fill-2" fill="#686868" points="0 53 52.9867841 53 52.9867841 0 0 0"></polygon>
            <g id="Group-25">
                <path d="M61.5852145,30.3451073 C62.1095273,30.6135266 62.9141573,30.881946 63.7452806,30.881946 C64.6396463,30.881946 65.1126815,30.5113734 65.1126815,29.9484621 C65.1126815,29.4116234 64.7037432,29.1051637 63.6683643,28.7341637 C62.2368665,28.2357927 61.30447,27.4433573 61.30447,26.1905911 C61.30447,24.720696 62.531285,23.5957282 64.5631573,23.5957282 C65.5340119,23.5957282 66.2501881,23.8000347 66.7608269,24.0304137 L66.3266771,25.6024621 C65.9814084,25.4366234 65.3682145,25.1934218 64.5246991,25.1934218 C63.6811837,25.1934218 63.2722454,25.5772444 63.2722454,26.0247524 C63.2722454,26.5744137 63.7581,26.8167605 64.8699678,27.2386234 C66.3903467,27.8015347 67.1060956,28.5935427 67.1060956,29.8082685 C67.1060956,31.2525185 65.9942278,32.4796395 63.6299062,32.4796395 C62.6458048,32.4796395 61.6749502,32.2240427 61.1890956,31.9560508 L61.5852145,30.3451073 Z" id="Fill-3" fill="#FFFFFF"></path>
                <polygon id="Fill-5" fill="#FFFFFF" points="70.3759784 23.7363919 70.3759784 27.0471823 73.5838154 27.0471823 73.5838154 23.7363919 75.5263793 23.7363919 75.5263793 32.3518839 73.5838154 32.3518839 73.5838154 28.7474565 70.3759784 28.7474565 70.3759784 32.3518839 68.4205952 32.3518839 68.4205952 23.7363919"></polygon>
                <path d="M81.415604,28.683429 L80.8788991,26.8553565 C80.7254938,26.3437355 80.5720885,25.7047435 80.4447493,25.19355 L80.4191106,25.19355 C80.2909167,25.7047435 80.1631502,26.3569855 80.0225643,26.8553565 L79.5114982,28.683429 L81.415604,28.683429 Z M79.2303264,30.1405016 L78.6167053,32.3519694 L76.5980797,32.3519694 L79.2303264,23.7364774 L81.7860841,23.7364774 L84.4572163,32.3519694 L82.3612471,32.3519694 L81.6967758,30.1405016 L79.2303264,30.1405016 Z" id="Fill-7" fill="#FFFFFF"></path>
                <path d="M87.5352784,27.5585468 L88.3018775,27.5585468 C89.2731595,27.5585468 89.8483225,27.072571 89.8483225,26.3186032 C89.8483225,25.5257403 89.3116176,25.1295226 88.4168247,25.1167 C87.9442167,25.1167 87.6758643,25.1551677 87.5352784,25.1808129 L87.5352784,27.5585468 Z M85.6051066,23.8511113 C86.2315471,23.7489581 87.1643709,23.67245 88.1997498,23.67245 C89.4778423,23.67245 90.3722079,23.8639339 90.9854018,24.3499097 C91.4968952,24.75895 91.778067,25.3594742 91.778067,26.1523371 C91.778067,27.2516597 90.9982211,28.0060548 90.2572608,28.2744742 L90.2572608,28.3125145 C90.8576352,28.5552887 91.1900846,29.1305952 91.4075868,29.9230306 C91.6755119,30.8949823 91.9438643,32.01995 92.110089,32.3520548 L90.1166749,32.3520548 C89.976089,32.1088532 89.7714062,31.4061758 89.5163004,30.345321 C89.2859789,29.2712161 88.9150714,28.9771516 88.1228335,28.964329 L87.5352784,28.964329 L87.5352784,32.3520548 L85.6051066,32.3520548 L85.6051066,23.8511113 Z" id="Fill-9" fill="#FFFFFF"></path>
                <polygon id="Fill-11" fill="#FFFFFF" points="98.3065515 28.7089032 95.1371727 28.7089032 95.1371727 30.7541048 98.6770317 30.7541048 98.6770317 32.3517984 93.1817894 32.3517984 93.1817894 23.7363065 98.4979877 23.7363065 98.4979877 25.334 95.1371727 25.334 95.1371727 27.1236048 98.3065515 27.1236048"></polygon>
                <path d="M104.144969,32.3519694 L101.384528,23.7364774 L103.518528,23.7364774 L104.566299,27.3793726 C104.860718,28.4021871 105.12907,29.3865339 105.333326,30.4602113 L105.371784,30.4602113 C105.588859,29.4245742 105.857211,28.4021871 106.151202,27.4178403 L107.250678,23.7364774 L109.320581,23.7364774 L106.419555,32.3519694 L104.144969,32.3519694 Z" id="Fill-13" fill="#FFFFFF"></path>
                <mask id="mask-2" fill="white">
                    <use xlink:href="#path-1"></use>
                </mask>
                <g id="Clip-16"></g>
                <polygon id="Fill-15" fill="#FFFFFF" mask="url(#mask-2)" points="110.239004 32.3517984 112.194388 32.3517984 112.194388 23.7363065 110.239004 23.7363065"></polygon>
                <path d="M118.071861,28.683429 L117.535156,26.8553565 C117.381751,26.3437355 117.228346,25.7047435 117.101007,25.19355 L117.075368,25.19355 C116.947174,25.7047435 116.819407,26.3569855 116.678822,26.8553565 L116.167756,28.683429 L118.071861,28.683429 Z M115.886584,30.1405016 L115.272963,32.3519694 L113.254337,32.3519694 L115.886584,23.7364774 L118.442341,23.7364774 L121.113474,32.3519694 L119.017504,32.3519694 L118.353033,30.1405016 L115.886584,30.1405016 Z" id="Fill-17" fill="#FFFFFF" mask="url(#mask-2)"></path>
                <polygon id="Fill-18" fill="#FFFFFF" mask="url(#mask-2)" points="129.967352 28.7089032 126.797973 28.7089032 126.797973 30.7541048 130.337832 30.7541048 130.337832 32.3517984 124.842589 32.3517984 124.842589 23.7363065 130.158788 23.7363065 130.158788 25.334 126.797973 25.334 126.797973 27.1236048 129.967352 27.1236048"></polygon>
                <path d="M138.950107,29.0540871 C138.911649,28.01845 138.873191,26.7656839 138.873191,25.5133452 L138.834733,25.5133452 C138.566807,26.6122403 138.208719,27.8393613 137.87627,28.8493532 L136.828499,32.2114339 L135.307693,32.2114339 L134.387261,28.8749984 C134.106517,27.8654339 133.812526,26.6383129 133.607843,25.5133452 L133.582204,25.5133452 C133.530926,26.6763532 133.492896,28.0060548 133.429226,29.0797323 L133.275821,32.3520548 L131.473843,32.3520548 L132.023367,23.7365629 L134.617583,23.7365629 L135.461098,26.6122403 C135.729451,27.6094097 135.997803,28.6835145 136.189239,29.693079 L136.227697,29.693079 C136.470411,28.6959097 136.76483,27.5585468 137.045574,26.5998452 L137.965578,23.7365629 L140.508944,23.7365629 L140.981979,32.3520548 L139.077874,32.3520548 L138.950107,29.0540871 Z" id="Fill-19" fill="#FFFFFF" mask="url(#mask-2)"></path>
                <path d="M146.627935,28.683429 L146.09123,26.8553565 C145.938252,26.3437355 145.784419,25.7047435 145.65708,25.19355 L145.631014,25.19355 C145.503248,25.7047435 145.375481,26.3569855 145.234895,26.8553565 L144.723829,28.683429 L146.627935,28.683429 Z M144.442657,30.1405016 L143.829036,32.3519694 L141.810411,32.3519694 L144.442657,23.7364774 L146.998415,23.7364774 L149.669547,32.3519694 L147.574005,32.3519694 L146.909107,30.1405016 L144.442657,30.1405016 Z" id="Fill-20" fill="#FFFFFF" mask="url(#mask-2)"></path>
                <polygon id="Fill-21" fill="#FFFFFF" mask="url(#mask-2)" points="150.817907 32.3517984 152.773291 32.3517984 152.773291 23.7363065 150.817907 23.7363065"></polygon>
                <polygon id="Fill-22" fill="#FFFFFF" mask="url(#mask-2)" points="154.458954 23.7363919 156.414337 23.7363919 156.414337 30.7157226 159.839249 30.7157226 159.839249 32.3518839 154.458954 32.3518839"></polygon>
                <path d="M41.6938903,37.3023403 C41.6938903,38.5474129 40.681159,39.5603968 39.4363969,39.5603968 L13.7510533,39.5603968 C12.5062912,39.5603968 11.4935599,38.5474129 11.4935599,37.3023403 L11.4935599,19.7503645 C11.4935599,18.5048645 12.5062912,17.4918806 13.7510533,17.4918806 L39.4291326,17.4918806 C40.6738947,17.4918806 41.686626,18.5048645 41.686626,19.7503645 L41.686626,37.3023403 L41.6938903,37.3023403 Z M39.4363969,15.5851629 L13.7510533,15.5851629 C11.458093,15.5851629 9.59458194,17.4495661 9.59458194,19.7430984 L9.59458194,37.3023403 C9.59458194,39.5954452 11.458093,41.4598484 13.7510533,41.4598484 L39.4291326,41.4598484 C41.722093,41.4598484 43.5860313,39.5954452 43.5860313,37.3023403 L43.5860313,19.7503645 C43.5928683,17.4568323 41.7293573,15.5851629 39.4363969,15.5851629 Z" id="Fill-23" fill="#FEFEFE" mask="url(#mask-2)"></path>
                <path d="M31.0314965,28.3048637 L39.3448665,20.8476782 C39.7315846,20.4954847 39.7666242,19.897525 39.4149458,19.5038718 C39.0632674,19.1170573 38.4654568,19.0820089 38.0719018,19.433775 L26.6075273,29.7256056 L24.3709722,27.7274202 C24.3641352,27.7205815 24.3572982,27.7137427 24.3572982,27.706904 C24.30773,27.6573234 24.258589,27.6154363 24.202611,27.5726944 L15.1017035,19.4265089 C14.7077211,19.0747427 14.1094833,19.1097911 13.7582322,19.5038718 C13.4061264,19.897525 13.4415934,20.4954847 13.8351485,20.8476782 L22.2472278,28.3676944 L13.8706154,36.2116944 C13.4907344,36.5707266 13.4693687,37.1686863 13.8283115,37.5555008 C14.0184656,37.7525411 14.2714348,37.8581137 14.5248313,37.8581137 C14.7568621,37.8581137 14.988893,37.7734847 15.1717828,37.604654 L23.6748797,29.6486702 L25.9815141,31.7092589 C26.164404,31.8712508 26.3895978,31.9481863 26.6152189,31.9481863 C26.8395581,31.9481863 27.0720163,31.8644121 27.2480692,31.7024202 L29.6179458,29.578146 L38.0719018,37.6114927 C38.2547916,37.7880169 38.4936595,37.8722185 38.7256903,37.8722185 C38.9790868,37.8722185 39.2252189,37.7734847 39.4149458,37.5764444 C39.7738885,37.196896 39.7597872,36.5916702 39.3799062,36.2330653 L31.0314965,28.3048637 Z" id="Fill-24" fill="#FEFEFE" mask="url(#mask-2)"></path>
            </g>
        </g>
    </g>
</svg>