<?xml version="1.0" encoding="UTF-8"?>
<svg width="134px" height="40px" viewBox="0 0 134 40" version="1.1" xmlns="http://www.w3.org/2000/svg" xmlns:xlink="http://www.w3.org/1999/xlink">
    <!-- Generator: Sketch 48.2 (47327) - http://www.bohemiancoding.com/sketch -->
    <title>facebook-follow</title>
    <desc>Created with Sketch.</desc>
    <defs></defs>
    <g id="main-page-design-1b" stroke="none" stroke-width="1" fill="none" fill-rule="evenodd" transform="translate(-899.000000, -2247.000000)">
        <g id="Group-5" transform="translate(899.000000, 2247.000000)">
            <g id="facebook-follow">
                <polygon id="Fill-1" fill="#2E71CD" points="0 40 134 40 134 0 0 0"></polygon>
                <polygon id="Fill-2" fill="#1C4E95" points="0 40 39.9423077 40 39.9423077 0 0 0"></polygon>
                <polygon id="Fill-3" fill="#FFFFFF" points="47.878812 17.0117097 53.1866293 17.0117097 53.1866293 18.6242903 49.8498361 18.6242903 49.8498361 20.6110645 52.9672687 20.6110645 52.9672687 22.2107419 49.8498361 22.2107419 49.8498361 25.706871 47.878812 25.706871"></polygon>
                <g id="Group-20" transform="translate(12.562500, 8.064516)" fill="#FFFFFF">
                    <path d="M44.747625,13.3206129 C44.747625,15.0235161 45.546149,16.2231935 46.8603798,16.2231935 C48.1871731,16.2231935 48.9473654,14.959 48.9473654,13.269 C48.9473654,11.7080323 48.2000577,10.3660968 46.8474952,10.3660968 C45.5203798,10.3660968 44.747625,11.6306129 44.747625,13.3206129 M51.0214663,13.2044839 C51.0214663,16.0557742 49.2949279,17.7841613 46.7569808,17.7841613 C44.1807019,17.7841613 42.673524,15.8364194 42.673524,13.3593226 C42.673524,10.7531935 44.3353173,8.80512903 46.8990337,8.80512903 C49.5655048,8.80512903 51.0214663,10.8048065 51.0214663,13.2044839" id="Fill-4"></path>
                    <polygon id="Fill-6" points="53.2773692 8.94719355 55.2483933 8.94719355 55.2483933 15.9910645 58.700826 15.9910645 58.700826 17.6423548 53.2773692 17.6423548"></polygon>
                    <polygon id="Fill-8" points="60.8275928 8.94719355 62.7986168 8.94719355 62.7986168 15.9910645 66.2510495 15.9910645 66.2510495 17.6423548 60.8275928 17.6423548"></polygon>
                    <path d="M69.5627822,13.3206129 C69.5627822,15.0235161 70.3613063,16.2231935 71.675537,16.2231935 C73.0023303,16.2231935 73.7625226,14.959 73.7625226,13.269 C73.7625226,11.7080323 73.0152149,10.3660968 71.6626524,10.3660968 C70.335537,10.3660968 69.5627822,11.6306129 69.5627822,13.3206129 M75.8366236,13.2044839 C75.8366236,16.0557742 74.1100851,17.7841613 71.5724601,17.7841613 C68.9958591,17.7841613 67.4886813,15.8364194 67.4886813,13.3593226 C67.4886813,10.7531935 69.1504745,8.80512903 71.7141909,8.80512903 C74.380662,8.80512903 75.8366236,10.8048065 75.8366236,13.2044839" id="Fill-10"></path>
                    <path d="M79.4067894,17.6423871 L77.3455731,8.94722581 L79.4454433,8.94722581 L80.1022365,12.5336774 C80.2958279,13.5656129 80.4758904,14.6881935 80.6176212,15.5656129 L80.6433904,15.5656129 C80.7851212,14.6236774 80.991275,13.5785161 81.2103135,12.507871 L81.9447365,8.94722581 L84.0314,8.94722581 L84.7271692,12.6107742 C84.9204385,13.630129 85.0621692,14.5588387 85.1910154,15.5265806 L85.2167846,15.5265806 C85.3456308,14.5588387 85.5385779,13.5398065 85.7192846,12.507871 L86.4276163,8.94722581 L88.4244096,8.94722581 L86.1828087,17.6423871 L84.0574913,17.6423871 L83.3230683,13.9010968 C83.1555683,13.024 83.0138375,12.2110968 82.9107606,11.2175484 L82.8849913,11.2175484 C82.730376,12.1981935 82.5886452,13.024 82.3824913,13.9010968 L81.5581981,17.6423871 L79.4067894,17.6423871 Z" id="Fill-12"></path>
                    <path d="M95.9375255,8.94719355 L95.9375255,13.9526774 C95.9375255,15.449129 96.5044486,16.2104194 97.5091264,16.2104194 C98.5395736,16.2104194 99.1064966,15.4878387 99.1064966,13.9526774 L99.1064966,8.94719355 L101.064636,8.94719355 L101.064636,13.8236452 C101.064636,16.5071935 99.7120736,17.7842903 97.4447034,17.7842903 C95.2546409,17.7842903 93.9665014,16.5717097 93.9665014,13.7978387 L93.9665014,8.94719355 L95.9375255,8.94719355 Z" id="Fill-14"></path>
                    <path d="M103.79727,15.6168065 C104.325539,15.8877742 105.136948,16.1587419 105.974448,16.1587419 C106.876049,16.1587419 107.352779,15.784871 107.352779,15.217129 C107.352779,14.6751935 106.940472,14.3655161 105.89714,13.9913226 C104.454063,13.4880968 103.513808,12.6884194 103.513808,11.4242258 C103.513808,9.94035484 104.750409,8.80519355 106.798741,8.80519355 C107.77765,8.80519355 108.49951,9.01132258 109.014573,9.24390323 L108.576496,10.8306774 C108.228933,10.6629355 107.610472,10.4177742 106.760087,10.4177742 C105.910025,10.4177742 105.497395,10.804871 105.497395,11.2561613 C105.497395,11.811 105.987332,12.0561613 107.107972,12.4819677 C108.640919,13.0497097 109.362135,13.8493871 109.362135,15.074871 C109.362135,16.5329355 108.241496,17.7716452 105.858164,17.7716452 C104.866371,17.7716452 103.88714,17.5132581 103.397847,17.2422903 L103.79727,15.6168065 Z" id="Fill-16"></path>
                    <path d="M12.8883841,0.295806452 L9.6759274,0.290967742 C6.06726875,0.290967742 3.73450913,2.68741935 3.73450913,6.39580645 L3.73450913,9.21096774 L0.504658173,9.21096774 C0.226350481,9.21096774 -9.66346154e-05,9.43645161 -9.66346154e-05,9.71612903 L-9.66346154e-05,13.7951613 C-9.66346154e-05,14.0735484 0.226350481,14.3003226 0.504658173,14.3003226 L3.73450913,14.3003226 L3.73450913,24.5916129 C3.73450913,24.87 3.96095625,25.0967742 4.24023029,25.0967742 L8.45285529,25.0967742 C8.73245144,25.0967742 8.95857644,24.87 8.95857644,24.5916129 L8.95857644,14.3003226 L12.7347351,14.3003226 C13.0143313,14.3003226 13.2394899,14.0735484 13.2394899,13.7951613 L13.2420668,9.71612903 C13.2420668,9.58258065 13.1879514,9.45419355 13.0935716,9.3583871 C12.9991918,9.26387097 12.8706678,9.21096774 12.7360236,9.21096774 L8.95857644,9.21096774 L8.95857644,6.82451613 C8.95857644,5.67774194 9.23173029,5.09548387 10.7228024,5.09548387 L12.8870957,5.09419355 C13.1663697,5.09419355 13.3915284,4.86741935 13.3915284,4.58903226 L13.3915284,0.802580645 C13.3915284,0.522580645 13.1663697,0.297096774 12.8883841,0.295806452" id="Fill-18"></path>
                </g>
            </g>
        </g>
    </g>
</svg>