<?xml version="1.0" encoding="UTF-8"?>
<svg width="194px" height="53px" viewBox="0 0 194 53" version="1.1" xmlns="http://www.w3.org/2000/svg" xmlns:xlink="http://www.w3.org/1999/xlink">
    <!-- Generator: Sketch 48.2 (47327) - http://www.bohemiancoding.com/sketch -->
    <title>facebook</title>
    <desc>Created with Sketch.</desc>
    <defs></defs>
    <g id="share-widget" stroke="none" stroke-width="1" fill="none" fill-rule="evenodd" transform="translate(-413.000000, -156.000000)">
        <g id="facebook" transform="translate(413.000000, 156.000000)">
            <polygon id="Fill-1" fill="#2E71CD" points="0 53 194 53 194 0 0 0"></polygon>
            <polygon id="Fill-2" fill="#1C4E95" points="0 53 52.9867841 53 52.9867841 0 0 0"></polygon>
            <g id="Group-35" transform="translate(16.665198, 10.685484)" fill="#FFFFFF">
                <path d="M44.9200163,19.6596234 C45.4443291,19.9280427 46.248959,20.1964621 47.0800824,20.1964621 C47.974448,20.1964621 48.4474833,19.8258895 48.4474833,19.2629782 C48.4474833,18.7261395 48.0385449,18.4196798 47.0031661,18.0486798 C45.5716683,17.5503089 44.6392718,16.7578734 44.6392718,15.5051073 C44.6392718,14.0352121 45.8660868,12.9102444 47.897959,12.9102444 C48.8688137,12.9102444 49.5849899,13.1145508 50.0956286,13.3449298 L49.6614789,14.9169782 C49.3162101,14.7511395 48.7030163,14.5079379 47.8595009,14.5079379 C47.0159855,14.5079379 46.6070471,14.8917605 46.6070471,15.3392685 C46.6070471,15.8889298 47.0929018,16.1312766 48.2047696,16.5531395 C49.7251485,17.1160508 50.4408974,17.9080589 50.4408974,19.1227847 C50.4408974,20.5670347 49.3290295,21.7941556 46.9647079,21.7941556 C45.9806066,21.7941556 45.009752,21.5385589 44.5238974,21.2705669 L44.9200163,19.6596234 Z" id="Fill-3"></path>
                <polygon id="Fill-5" points="53.7107802 13.0509081 53.7107802 16.3616984 56.9186172 16.3616984 56.9186172 13.0509081 58.8611811 13.0509081 58.8611811 21.6664 56.9186172 21.6664 56.9186172 18.0619726 53.7107802 18.0619726 53.7107802 21.6664 51.7553969 21.6664 51.7553969 13.0509081"></polygon>
                <path d="M64.7504057,17.9979452 L64.2137009,16.1698726 C64.0602956,15.6582516 63.9068903,15.0192597 63.7795511,14.5080661 L63.7539123,14.5080661 C63.6257185,15.0192597 63.497952,15.6715016 63.3573661,16.1698726 L62.8463,17.9979452 L64.7504057,17.9979452 Z M62.5651282,19.4550177 L61.951507,21.6664855 L59.9328815,21.6664855 L62.5651282,13.0509935 L65.1208859,13.0509935 L67.7920181,21.6664855 L65.6960489,21.6664855 L65.0315775,19.4550177 L62.5651282,19.4550177 Z" id="Fill-7"></path>
                <path d="M70.8700802,16.8730629 L71.6366793,16.8730629 C72.6079612,16.8730629 73.1831242,16.3870871 73.1831242,15.6331194 C73.1831242,14.8402565 72.6464194,14.4440387 71.7516264,14.4312161 C71.2790185,14.4312161 71.0106661,14.4696839 70.8700802,14.495329 L70.8700802,16.8730629 Z M68.9399084,13.1656274 C69.5663489,13.0634742 70.4991727,12.9869661 71.5345515,12.9869661 C72.8126441,12.9869661 73.7070097,13.17845 74.3202035,13.6644258 C74.8316969,14.0734661 75.1128687,14.6739903 75.1128687,15.4668532 C75.1128687,16.5661758 74.3330229,17.320571 73.5920626,17.5889903 L73.5920626,17.6270306 C74.192437,17.8698048 74.5248863,18.4451113 74.7423885,19.2375468 C75.0103137,20.2094984 75.2786661,21.3344661 75.4448907,21.666571 L73.4514767,21.666571 C73.3108907,21.4233694 73.1062079,20.7206919 72.8511022,19.6598371 C72.6207806,18.5857323 72.2498731,18.2916677 71.4576352,18.2788452 L70.8700802,18.2788452 L70.8700802,21.666571 L68.9399084,21.666571 L68.9399084,13.1656274 Z" id="Fill-9"></path>
                <polygon id="Fill-11" points="81.6413533 18.0234194 78.4719744 18.0234194 78.4719744 20.068621 82.0118335 20.068621 82.0118335 21.6663145 76.5165912 21.6663145 76.5165912 13.0508226 81.8327894 13.0508226 81.8327894 14.6485161 78.4719744 14.6485161 78.4719744 16.438121 81.6413533 16.438121"></polygon>
                <path d="M87.5815991,17.3843847 C87.5815991,19.0714089 88.373837,20.2604895 89.6775683,20.2604895 C90.9936916,20.2604895 91.7478987,19.0077234 91.7478987,17.3330944 C91.7478987,15.7862637 91.0069383,14.4569895 89.6647489,14.4569895 C88.3486256,14.4569895 87.5815991,15.7097556 87.5815991,17.3843847 M93.8054097,17.2689815 C93.8054097,20.0942234 92.0931674,21.8073202 89.5754405,21.8073202 C87.0196828,21.8073202 85.5245154,19.8766669 85.5245154,17.422425 C85.5245154,14.8403847 87.1726608,12.9101589 89.7160264,12.9101589 C92.3615198,12.9101589 93.8054097,14.891675 93.8054097,17.2689815" id="Fill-13"></path>
                <path d="M95.0812802,21.6664855 L95.0812802,13.0509935 L97.3562934,13.0509935 L99.145452,16.2079129 C99.6565181,17.116179 100.167584,18.189429 100.551311,19.1613806 L100.589769,19.1613806 C100.461575,18.0235903 100.423544,16.8601548 100.423544,15.568921 L100.423544,13.0509935 L102.212276,13.0509935 L102.212276,21.6664855 L100.167584,21.6664855 L98.3275753,18.3433 C97.8160819,17.4222113 97.2537383,16.3104935 96.8324079,15.3005016 L96.7939498,15.3133242 C96.8448,16.4511145 96.8704388,17.6654129 96.8704388,19.0716226 L96.8704388,21.6664855 L95.0812802,21.6664855 Z" id="Fill-15"></path>
                <polygon id="Fill-17" points="106.478096 13.0509081 111.743444 13.0509081 111.743444 14.6486016 108.43348 14.6486016 108.43348 16.6172952 111.525942 16.6172952 111.525942 18.2025935 108.43348 18.2025935 108.43348 21.6664 106.478096 21.6664"></polygon>
                <path d="M116.547038,17.9979452 L116.010333,16.1698726 C115.856928,15.6582516 115.703523,15.0192597 115.576184,14.5080661 L115.550545,14.5080661 C115.422351,15.0192597 115.294585,15.6715016 115.153999,16.1698726 L114.642933,17.9979452 L116.547038,17.9979452 Z M114.361761,19.4550177 L113.74814,21.6664855 L111.729514,21.6664855 L114.361761,13.0509935 L116.917519,13.0509935 L119.588651,21.6664855 L117.492681,21.6664855 L116.82821,19.4550177 L114.361761,19.4550177 Z" id="Fill-19"></path>
                <path d="M126.743704,21.4235403 C126.385616,21.602629 125.580559,21.7941129 124.53236,21.7941129 C121.554845,21.7941129 120.021647,19.9408226 120.021647,17.4865806 C120.021647,14.5463629 122.117189,12.9102016 124.724224,12.9102016 C125.733964,12.9102016 126.50099,13.1149355 126.845832,13.2935968 L126.449713,14.8404274 C126.053594,14.6741613 125.50407,14.5211452 124.813532,14.5211452 C123.267515,14.5211452 122.066338,15.4537742 122.066338,17.3716048 C122.066338,19.0970968 123.08847,20.1840242 124.826779,20.1840242 C125.414761,20.1840242 126.066413,20.0557984 126.449713,19.9023548 L126.743704,21.4235403 Z" id="Fill-21"></path>
                <polygon id="Fill-23" points="133.144251 18.0234194 129.974872 18.0234194 129.974872 20.068621 133.514731 20.068621 133.514731 21.6663145 128.019489 21.6663145 128.019489 13.0508226 133.335687 13.0508226 133.335687 14.6485161 129.974872 14.6485161 129.974872 16.438121 133.144251 16.438121"></polygon>
                <path d="M136.772222,20.2857073 C136.963658,20.3117798 137.193552,20.3117798 137.526429,20.3117798 C138.407975,20.3117798 139.187394,19.9792476 139.187394,19.0714089 C139.187394,18.2024653 138.407975,17.8571105 137.436693,17.8571105 L136.772222,17.8571105 L136.772222,20.2857073 Z M136.772222,16.4641508 L137.411055,16.4641508 C138.433614,16.4641508 138.983138,16.0418605 138.983138,15.4028685 C138.983138,14.751054 138.484464,14.4056992 137.602491,14.4056992 C137.18116,14.4056992 136.938447,14.4313444 136.772222,14.4569895 L136.772222,16.4641508 Z M134.84205,13.1657556 C135.353544,13.0636024 136.388922,12.9870944 137.359777,12.9870944 C138.548561,12.9870944 139.276702,13.1016427 139.903143,13.4726427 C140.503517,13.7923524 140.938094,14.3804815 140.938094,15.1600944 C140.938094,15.9268847 140.490698,16.6428121 139.519843,17.0005621 L139.519843,17.0262073 C140.503517,17.2946266 141.232513,18.0357718 141.232513,19.1483444 C141.232513,19.9279573 140.874425,20.5417315 140.33772,20.9759895 C139.711279,21.4747879 138.663508,21.7556024 136.950839,21.7556024 C135.992376,21.7556024 135.277055,21.6919169 134.84205,21.6282315 L134.84205,13.1657556 Z" id="Fill-25"></path>
                <path d="M144.220583,17.3843847 C144.220583,19.0714089 145.012821,20.2604895 146.316552,20.2604895 C147.632675,20.2604895 148.386882,19.0077234 148.386882,17.3330944 C148.386882,15.7862637 147.645922,14.4569895 146.303733,14.4569895 C144.987609,14.4569895 144.220583,15.7097556 144.220583,17.3843847 M150.444393,17.2689815 C150.444393,20.0942234 148.732151,21.8073202 146.214424,21.8073202 C143.658667,21.8073202 142.163499,19.8766669 142.163499,17.422425 C142.163499,14.8403847 143.811644,12.9101589 146.35501,12.9101589 C149.000504,12.9101589 150.444393,14.891675 150.444393,17.2689815" id="Fill-27"></path>
                <path d="M153.381912,17.3843847 C153.381912,19.0714089 154.17415,20.2604895 155.477454,20.2604895 C156.793578,20.2604895 157.547785,19.0077234 157.547785,17.3330944 C157.547785,15.7862637 156.806824,14.4569895 155.464635,14.4569895 C154.148511,14.4569895 153.381912,15.7097556 153.381912,17.3843847 M159.605296,17.2689815 C159.605296,20.0942234 157.893053,21.8073202 155.375326,21.8073202 C152.819569,21.8073202 151.324401,19.8766669 151.324401,17.422425 C151.324401,14.8403847 152.972974,12.9101589 155.515912,12.9101589 C158.161406,12.9101589 159.605296,14.891675 159.605296,17.2689815" id="Fill-29"></path>
                <path d="M160.881166,13.0509081 L162.811338,13.0509081 L162.811338,16.8600694 L162.849369,16.8600694 C163.041232,16.5279645 163.245488,16.2210774 163.436924,15.9141903 L165.392734,13.0509081 L167.782267,13.0509081 L164.932091,16.7194484 L167.935673,21.6664 L165.661087,21.6664 L163.552298,17.9465694 L162.811338,18.8539806 L162.811338,21.6664 L160.881166,21.6664 L160.881166,13.0509081 Z" id="Fill-31"></path>
                <path d="M17.0977242,0.391943548 L12.8361339,0.385532258 C8.0489489,0.385532258 4.95434978,3.56083065 4.95434978,8.47444355 L4.95434978,12.2045323 L0.669257269,12.2045323 C0.300486344,12.2045323 8.54625551e-05,12.5032984 8.54625551e-05,12.873871 L8.54625551e-05,18.2785887 C8.54625551e-05,18.6474516 0.300486344,18.9479274 0.669257269,18.9479274 L4.95434978,18.9479274 L4.95434978,32.5838871 C4.95434978,32.95275 5.25475066,33.2532258 5.62523084,33.2532258 L11.2136273,33.2532258 C11.5841075,33.2532258 11.8845084,32.95275 11.8845084,32.5838871 L11.8845084,18.9479274 L16.893896,18.9479274 C17.2643762,18.9479274 17.5634952,18.6474516 17.5634952,18.2785887 L17.5664863,12.873871 C17.5664863,12.6969194 17.4946978,12.5268065 17.3694952,12.3998629 C17.2442925,12.274629 17.074222,12.2045323 16.8956053,12.2045323 L11.8845084,12.2045323 L11.8845084,9.04248387 C11.8845084,7.52300806 12.2468696,6.75151613 14.2249004,6.75151613 L17.096015,6.74980645 C17.4664952,6.74980645 17.7651868,6.44933065 17.7651868,6.08046774 L17.7651868,1.06341935 C17.7651868,0.692419355 17.4664952,0.393653226 17.0977242,0.391943548" id="Fill-33"></path>
            </g>
        </g>
    </g>
</svg>