<?xml version="1.0" encoding="utf-8"?>
<!-- Generator: Adobe Illustrator 22.0.1, SVG Export Plug-In . SVG Version: 6.00 Build 0)  -->
<svg version="1.1" id="year-of-open-2018-logo" xmlns="http://www.w3.org/2000/svg" xmlns:xlink="http://www.w3.org/1999/xlink"
	 x="0px" y="0px" viewBox="0 0 791.9 303.3" style="enable-background:new 0 0 791.9 303.3;" xml:space="preserve">
<style type="text/css">
	.st0{fill:#7CC142;}
	.st1{fill:#F0B33E;}
	.st2{fill:#F3883B;}
	.st3{fill:#7D5DA7;}
	.st4{fill:#EEE045;}
</style>
<g id="logo_concept">
	<path class="st0" d="M228.6,191.1c-3.7-1-7.4-2-11.2-2.7c-4,6.3-8.7,12-14,17.2c-2.6,2.5-5.7,4.4-9.1,5.5
		c-4.1,2.7-8.4,3.8-12.9,5.1c-0.2,0.1-0.3,0.2-0.5,0.3l-0.9,0.6l-2,0.9c0.2-0.2,0.5-0.3,0.7-0.5l1.4-0.8c-2.7,0.8-5.2,1.8-7.7,3
		c-1,0.5-2,1-2.9,1.5l8.7-2.9l-7.9,8.9c-1.3,1.4-5.4,4.7-16.4,5.8c10.4-0.3,20.6-3,29.8-7.9c3.5-1.9,6.9-4,9.7-5.9l4.1-2.7l1,4.7
		c0.1,0.9-0.1,1.9-0.7,2.6C209.1,215.5,222,201.8,228.6,191.1z"/>
	<path class="st0" d="M234.7,193.3c-6.8,11.5-21.1,26.7-33.3,35.5c-1.1,0.8-2.3,1.8-3.7,2.9c-3.2,2.6-6.8,5.5-9.9,6.8l-1.9,0.8
		l-1.8-1.5c-1.2-1.1-1.7-3.4-1.7-5.3c-9.9,4.5-20.7,6.7-31.6,6.7c-6.7,0-14.7-0.4-22.6-2.4c-0.4-0.1-9.1-2.9-10.4-3.4
		c-1.5-0.5-2.6-1.9-2.5-3.5c0-0.7,0.3-1.4,0.7-1.9c-10.9-2.5-21.6-3-28.5-7.8c-3.4-2.4-6.6-8.1-9.8-10.6c-0.5,0.1-0.7-0.2-0.9-0.4
		c-1-0.9-2-1.8-3-2.8c-2.8-2.5-5.3-5.2-7.5-8.2c-4.1-6-7.1-12.8-8.8-19.9c-1.8-7.4-1.9-15.1-0.2-22.5c0.5-2.1,1.2-4.2,1.8-6.4
		c0-0.2,0.2-0.4,0-0.5s-0.3-0.3-0.2-0.5c1.4-2.7,2.6-5.5,3.9-8.3c0.9-1.9,1.9-3.9,3-5.9c-10.6-3.3-21.2-6.8-31.6-11.1
		c-2,6.1-1.9,13.1-4,19.1c-9,26.5-3.3,52.4,0.6,60.5c6.2,12.6,10.7,22.8,21.6,31.9c0.6,0.5,1.2,1,1.9,1.5l0,0
		c73.7,60.7,153.6,4.9,172.5-16.7l1.3-1.2l3.6-4.2c2.6-3.2,5.1-6.5,7.3-10c2.1-3,3.2-4.9,3.2-4.9l-0.4,0.2c0.7-1.1,1.3-2.3,1.9-3.4
		c0-0.1,0.1-0.1,0.1-0.2c-2.9-0.9-5.9-1.8-8.8-2.7L234.7,193.3z M78.2,210.2l0.4,0.3C78.3,210.6,78.3,210.4,78.2,210.2z"/>
	<path class="st1" d="M213.3,192.3c3.7-5.2,6.7-10.9,9-16.8c0.3-0.5,0.4-1,0.3-1.6c-0.7,0.8-1.2,1.7-1.5,2.7
		c-4,9.3-9.7,17.9-16.8,25.3C207.8,199.2,210.8,195.9,213.3,192.3z"/>
	<path class="st1" d="M194.4,211.1c1.1-0.7,2.1-1.4,3-2.3c2.5-2.2,4.8-4.5,7-6.9c-7,5.8-15.2,9.3-24.2,14.6l1.4-0.4
		C186,213.6,190.3,212.6,194.4,211.1z"/>
	<path class="st2" d="M26.5,144.8l-0.1-0.1C26.6,144.7,26.5,144.8,26.5,144.8z"/>
	<polygon class="st2" points="26.5,144.3 26.5,144.3 26.5,144.2 	"/>
	<polygon class="st2" points="26.5,143.9 26.5,143.8 26.6,143.8 	"/>
	<path class="st2" d="M74.7,98.6c-0.9,0.8-1.8,1.7-2.7,2.7c-2.1,2.5-4.1,5.1-6,7.7c6.2-6.6,13.8-11.2,22.1-17.7l-1.3,0.6
		C82.7,95,78.6,96.6,74.7,98.6z"/>
	<path class="st3" d="M195.2,221.7c-1.5,1.4-3.2,2.7-4.7,4c-1,0.9-4.1,3.7-4.7,5.4c-0.4,1.1,0.1,4.8,0.9,4.4
		c3.9-1.6,9.4-6.9,12.9-9.3c11.3-8.1,25.5-22.8,32.4-34.5c4.6-7.8,8.8-14,12-22.4c2.8-7.4,1-16,2.5-23.6c5.4-27.4-3.5-52.4-8.5-59.9
		c-7.8-11.7-13.6-21.2-25.5-28.8c-0.6-0.4-1.3-0.8-2.1-1.2l0,0c-5.9-3.7-12.1-6.9-18.5-9.6C191.2,59,189.7,71,190,83.9
		c0.1,0.1,3.9,3,4.9,3.8c3,2.1,5.9,4.5,8.4,7.2c4.9,5.4,8.7,11.7,11.3,18.6c2.8,7.1,3.8,14.7,3.2,22.3c-0.2,2.2-0.6,4.4-0.9,6.5
		c0,0.2-0.2,0.4,0,0.5c0.3,0.2,0.4,0.2,0.3,0.5c-1,2.9-1.9,5.8-2.8,8.7c-3.3,9.8-7.7,19.3-13.1,28.1c0,0-7.9,0.4-11.9,2.1
		c-7.9,3.3-18,11.3-27.4,16.8s-24.4,3.7-29.3,3.9s-8.6,0-8.6,2.9c3.2,0.9,16.7,3.6,23.5,3.6s8.1,0.7,8.1,0.7l-0.3,0.2
		c-2.6,0.4-5.2,1.2-7.7,1.4c-4.6,0.3-9.2,0.3-13.8,0c-6.6-0.3-13-1.2-19.4-2c-1.6-0.3-3.2-0.4-4.8-0.3c-4.5,0.3-4.2,3.6-4.2,3.8
		c0.2,0.8,1.8,0.8,2.5,1c12.5,4.2,27.5,6.4,35.9,6.1c0.2-0.1,0.4,0.1,0.5,0.3c-6.2,0.5-12-0.2-18-0.7c-2.3-0.2-4.5-0.5-6.8-0.9
		c-3.5-0.6-7-1.7-10.3-3c-2.7-0.5-6.3,2.3-6,2.4c2.6,1.8,5.4,3.4,8.3,4.8c5.1,1.8,4,1.3,14.3,3.5c0.6,0.1,22.4,4.7,42-1.8
		c-0.5,0.6-7.5,8.5-42,3.4c-1.2,0.1-2.5,0.2-3.7,0.3c-1,0.1-2,0.3-3,0.6c-0.3,0.1-0.7,0.3-0.7,0.7s0.4,0.4,0.6,0.5
		c1.1,0.5,9.8,3.3,9.9,3.3c7.1,1.8,14.4,2.2,21.8,2.3c11.9,0.2,23.7-2.7,34.2-8.3c3.4-1.8,6.7-3.9,10-6l0.3-0.2
		C195.4,221.6,195.3,221.7,195.2,221.7z"/>
	<path class="st2" d="M51.7,137.5c-0.2,0.5-0.2,1.1-0.1,1.6c0.5-0.9,0.9-1.9,1.1-2.9c2.8-9.8,7.3-19,13.3-27.2
		c-3,3.2-5.6,6.8-7.6,10.7C55.5,125.3,53.2,131.3,51.7,137.5z"/>
	<path class="st2" d="M26.5,144.8c0-0.1,0.1-0.2-0.1-0.1L26.5,144.8z"/>
	<polygon class="st2" points="26.5,144.3 26.5,144.2 26.5,144.3 	"/>
	<polygon class="st2" points="26.5,143.9 26.6,143.8 26.5,143.8 	"/>
	<path class="st3" d="M88.5,71.2c-12.2,6.6-24.6,19.3-32.2,29.1c-3.3,4.2-6.3,14.7-7.5,25.6c1.4,1,2.7,2.2,3.9,3.4
		c3.4-8.6,8-16.7,13.8-24c2.2-2.8,5.1-5,8.3-6.6c3.7-3.2,7.8-4.8,12.1-6.7c0.2-0.1,0.3-0.2,0.4-0.3l0.8-0.7c0.6-0.4,1.3-0.7,1.9-1.1
		c-0.2,0.2-0.4,0.4-0.7,0.5l-1.2,1c2.5-1.1,5-2.5,7.3-4c0.9-0.6,1.8-1.3,2.8-1.9c4.9-2.4,9.4-5,14-7.3l-4.9,0.9l9-7.8
		c1.4-1.2,6-4,17.1-3.6c-10.4-1-20.8,0.3-30.6,4c-3.7,1.4-7.4,3.1-10.4,4.6l-4.9,2.3v-5C87.5,72.7,87.9,71.8,88.5,71.2z"/>
	<path class="st3" d="M243.8,206.8c-1.8,2-3.6,4.1-5.5,6c-10.9,11.5-23.3,21.6-36.8,30c-2.7,1.7-5.6,3.3-8.5,4.8
		c-2.8,1.3-5.3,3.3-8.5,3.5c-0.7,0.1-1.3,0.3-1.9,0.7c-2.9,1.2-5.9,2.3-9,3.1l-0.3,0.1l-0.3,0.2c0,0,0-0.1,0-0.1s0.1-0.2,0.3-0.1
		l0.3-0.2c0.3-0.2,0.5-0.3,0.8-0.5s1-0.4,1-0.8s-0.7-0.1-1.1-0.2c0,0-0.1-0.1-0.2-0.3c15.7-5.6,29.7-14.2,42.4-25
		c-0.1-0.1-0.2-0.1-0.3,0c-0.4,0.2-0.7,0.5-1.1,0.8c-13.3,10.4-27.5,19-43.6,24c-7.1,2.3-14.6,3.7-22.1,4
		c-14.7,0.3-28.1-3.4-40.5-9.8c-5.1-2.6-9.9-5.6-14.6-9c-4.2-3-8.2-6.3-12-9.8c-3.2-2.7-6.2-5.7-9.1-8.8c-5.7-5.9-11-12.3-15.7-19.1
		c-8.6-12.5-14-26.3-14.6-42c0-0.3,0-0.6,0-1.1c0.5,0.4,0.9,1,0.9,1.6c0.7,12.1,4.2,24,10.2,34.6c6.1,11.1,14.2,20.6,23.2,29.5
		c1.7,1.7,3.5,3.4,5.2,5c0.3,0.2,0.6,0.4,0.8,0.7c8.2,7.4,17.4,13.5,27.3,18.1c6.2,2.9,12.8,5.1,19.6,6.4
		c16.5,3.1,32.8,0.9,48.9-5.7c10.6-4.4,20.5-10.1,29.6-17.1c8.7-6.5,16.7-13.8,24-21.8c0.9-0.9,1.7-1.9,2.1-3.1
		c-0.7,0.3-1.4,0.8-1.9,1.3c-2.3,2.2-4.6,4.4-6.9,6.6c-10.9,10.6-23.1,19.7-36.4,27c-9.9,5.5-20.7,9.2-31.9,11.2
		c-18.8,3.1-35.8-0.6-51.6-8.9c-7.9-4.2-15.2-9.3-21.8-15.2c-11-9.7-20.7-20.4-28.2-33c-4.5-7.5-7.8-15.8-9.7-24.3
		c-2.6-11.5,0.6-21.6,3.9-33.4c-1.6-2.6-3.8-4.7-6.4-6.2l-1.7-1l0.2-2c0.9-10.8,4.1-24.5,9-30.8C59.4,86,72.7,72.5,85.8,65.5
		c1.2-0.6,2.5-1.5,4-2.4c3.5-2.2,7.4-4.6,10.7-5.5l2-0.5l1.6,1.7c1,1.3,1.2,3.6,1,5.5c10.4-3.2,21.4-4,32.2-2.5
		c6.7,0.9,14.5,2.3,22.1,5.3c0.1,0,8.6,4,9.9,4.8c0.6,0.3,1.2,0.8,1.5,1.3c3.1,0.4,6.1,1.2,8.9,2.5c3.6,1.8,11.9,9.8,15.4,11.9
		c-0.3-12.9-2.2-28-1.6-40.9c-73.2-31-137.2,25.9-151.9,47.9c-0.3,0.5-0.7,0.9-1,1.4l-3.1,4.6c-2.2,3.5-4.2,7.1-5.9,10.8
		c-1.7,3.3-2.6,5.3-2.6,5.3l0.4-0.3c-0.5,1.2-1,2.4-1.4,3.6c-5.8,14.9-7.7,31-5.7,46.8c1.8,12.9,6.2,25.4,12.9,36.6
		c8.2,13.6,18.4,25.8,30.5,36.1c5.5,4.8,11.3,9.1,17.4,13c0.9,0.4,1.8,1,2.6,1.6l4.5,2.6c1,0.3,1.9,0.8,2.8,1.4
		c3.6,1.9,7.4,3.5,11.2,5c9.2,3.5,18.9,5.7,28.8,6.5c0.2,0,0.4,0.1,0.6-0.1c-0.1,0-0.1-0.1-0.1-0.1c-0.5-0.1-1-0.2-1.5-0.2
		c-12.1-1.4-23.9-5-34.8-10.6c-7.9-4-15.3-8.9-22.1-14.4c-7.8-6.3-15-13.3-21.6-20.9c-5.5-6.2-10.4-12.9-14.5-20.1
		c-7.6-13.3-12.5-27.6-13.2-43.5c-0.2-4.5,0-8.9,0.6-13.4v-0.3c-0.1-0.4,0-0.9,0.2-1.3c0.1,0.4,0.1,0.9,0,1.4c0,0.1,0,0.1,0,0.2
		c-0.2,0.8,0.5,1.4,0.5,2.1c-0.1,3.1-0.2,6.2,0,9.2c0.3,7.1,1.5,14,3.6,20.8c2.7,8.6,6.4,16.9,10.9,24.6c6,10.3,13.2,19.9,21.4,28.5
		c3.2,3.6,6.8,6.9,10.5,9.9c1.3,1,2.8,1.7,4.1,2.6c3.9,2.9,7.8,5.8,11.9,8.4c4.7,2.9,9.5,5.5,14.6,7.8c6.3,2.8,13,5,19.8,6.4
		c12.2,2.6,24.8,2.7,37,0.3c5.6-1.1,11.2-2.6,16.6-4.6c0.6-0.2,1.2-0.3,1.5-1c-0.1,0-0.2,0-0.3,0c-4.5,1.5-9.1,2.8-13.7,3.8
		c-13.2,3-26.9,3.1-40.2,0.4c-6.7-1.4-13.2-3.4-19.4-6.2c-3.7-1.6-7.4-3.4-10.9-5.5c-2.4-1.3-4.8-2.7-7-4.3l7.1,4.1
		c5.4,3,11,5.6,16.8,7.7c8.6,3.1,17.6,4.9,26.7,5.4c13.7,0.6,27.4-1.6,40.2-6.4c3-1,6-2.2,8.9-3.6l-0.1-0.2
		c-2.8,1.1-5.6,2.3-8.5,3.4c-11.3,4.2-23.2,6.4-35.2,6.5c-17.4,0.1-33.1-4.6-47.6-12.5c-4.2-2.3-8.2-4.9-12-7.7
		c-5.7-4.2-11.1-8.8-16.1-13.8l-2-1.9c0.8,0.4,1.5,1,2.1,1.7c0.2,0.2,0.5,0.4,0.8,0.6c5.2,4.6,10.7,8.8,16.4,12.6
		c3.6,2.4,7.4,4.5,11.2,6.6c6,3.4,12.2,6.3,18.7,8.5c18.7,6.4,38,6.6,57.9,0.6c16.7-5,31.6-13.6,45.4-24.3c0.6-0.3,1.1-0.9,1.3-1.5
		c-7.9,5.8-16.3,11-25,15.5c-8.8,4.4-18,7.8-27.6,10c0.2-0.3,0.5-0.5,0.9-0.6c1.8-0.5,3.6-0.9,5.3-1.5c10-3.1,19.7-7.4,28.6-12.9
		c3.1-1.8,6.1-3.8,8.8-6.1c0.4-0.3,0.7-0.8,0.9-1.3c-2.5,1.1-4.9,2.3-7.2,3.6c-4.9,3.1-9.9,6-15.1,8.6c-12.5,5.7-25.4,9.4-38.9,10.1
		c-0.4,0-0.8,0.2-1.1-0.2c0.3-0.3,0.6-0.2,1-0.2c7.8-0.5,15.5-2,23-4.4c7.7-2.4,15.1-5.6,22.2-9.5c0.4-0.2,0.8-0.6,1.2-0.6
		c1.2-0.1,2.3-0.6,3-1.5c0.6-0.6,1.2-1.1,2-1.4c1.1-0.4,2.1-1,2.9-1.7c1.1-0.9,2.3-1.7,3.5-2.5c12.5-8.5,24-18.5,34.2-29.7
		c1.1-1,2-2.1,2.7-3.4C244.4,206.2,244.1,206.5,243.8,206.8z"/>
	<path class="st0" d="M79.4,113.8c0,0,7.9,0.6,12-0.5c8.2-2.2,19.3-8.9,29.3-13.1s24.7-0.5,29.6,0s8.5,1.1,8.9-1.8
		c-3.1-1.3-16.1-5.8-22.8-6.6s-8-1.8-8-1.8l0.3-0.2c2.6-0.1,5.3-0.5,7.9-0.4c4.6,0.3,9.2,0.9,13.7,1.8c6.4,1.2,12.7,2.8,19,4.5
		c1.5,0.5,3.1,0.8,4.7,1c4.4,0.3,4.7-3,4.7-3.2c-0.1-0.8-1.7-1-2.4-1.3c-11.9-5.8-26.5-9.9-34.8-10.7c-0.2,0-0.4,0-0.5-0.3
		c6.2,0.3,11.9,1.8,17.8,3c2.2,0.5,4.4,1.1,6.6,1.8c3.4,1.1,6.7,2.5,9.8,4.3c2.6,0.8,6.5-1.4,6.3-1.7c-2.4-2.2-4.9-4.1-7.6-5.8
		c-4.8-2.4-3.7-1.8-13.8-5.3c-0.6-0.2-21.6-7.6-41.8-3.7c0.6-0.5,8.6-7.4,42.1,2.1c1.2,0.1,2.5,0.1,3.7,0.2c1,0,2,0,3-0.2
		c0.3-0.1,0.7-0.2,0.8-0.6s-0.3-0.4-0.6-0.6c-1-0.6-9.3-4.5-9.4-4.6c-6.8-2.7-14-4-21.4-5.1c-11.8-1.7-23.8-0.4-35,3.8
		c-3.7,1.4-7.2,3-10.7,4.7l-0.3,0.1c0-0.2,0.1-0.3,0.3-0.3c1.7-1.3,3.5-2.2,5.2-3.4c1.1-0.8,4.5-3.2,5.3-4.7
		c0.5-1.1,0.5-4.7-0.3-4.5c-4.1,1.1-10.2,5.6-14,7.6C75,74.8,59,87.6,50.6,98.3c-5.6,7.2-9.7,28-8.4,40.9c3.2,31.7,9.9,36.6,9.5,38
		c10.3,4.3,3.5-46.5,14.1-43.2C69.8,126.9,74.3,120.1,79.4,113.8z M127,82.2c1.9-0.2,3.9-0.4,5.8-0.7c2.6-0.5,4.9,0.3,7.4,0.5
		c4.3,0.4,8.5,1.2,12.6,2.4c-9.5-1.8-19.2-2.3-28.8-1.6C124.9,82.4,125.9,82.2,127,82.2z M108.6,89.9L108.6,89.9L108.6,89.9
		L108.6,89.9z M108.1,90.1L108.1,90.1C108.2,90.1,108.2,90.2,108.1,90.1L108.1,90.1C108.1,90.2,108.1,90.1,108.1,90.1L108.1,90.1z
		 M107.9,85.7c0,0,0.1,0,0.2,0s0,0.1-0.1,0.2s-0.1,0-0.2,0S107.8,85.8,107.9,85.7L107.9,85.7z M107.7,90.3
		C107.7,90.3,107.8,90.3,107.7,90.3C107.8,90.3,107.8,90.4,107.7,90.3L107.7,90.3C107.7,90.4,107.6,90.3,107.7,90.3L107.7,90.3z"/>
	<path class="st1" d="M202.3,60.4c1.9,1,3.2,2.8,4.8,4.2L202.3,60.4z M129.6,37.9c-0.3,0.1-0.6,0.1-0.9,0h-0.4
		c-0.5,0.1-1,0.1-1.4,0.1h-0.4c-0.7,0.2-1.5,0.2-2.3,0.1c0.7-0.3,1.5-0.4,2.3-0.3h0.4c0.5-0.1,1-0.2,1.4-0.1h0.4
		c0.3-0.1,0.6-0.1,0.9,0c0.1,0,0.3-0.1,0.2,0.1S129.7,37.9,129.6,37.9z M130.9,37.9h-0.6c-0.1,0-0.2,0-0.2,0s0.1-0.2,0.2-0.2h0.6
		c0.1,0,0.3-0.1,0.2,0.1S131,37.8,130.9,37.9L130.9,37.9z M134.3,37.8h-1.6h-0.4h-0.6c-0.1,0-0.2,0.1-0.2-0.1s0.1-0.1,0.2-0.1h0.6
		h0.4h0.3h0.3h1c0.5-0.1,1-0.1,1.4,0.1C135.2,37.8,134.8,37.9,134.3,37.8L134.3,37.8z M135.5,37.8c0.5-0.2,1.1-0.2,1.7,0
		C136.6,37.9,136,37.9,135.5,37.8L135.5,37.8z M137.6,37.9L137.6,37.9L137.6,37.9C137.6,37.8,137.6,37.8,137.6,37.9L137.6,37.9z
		 M163.5,45c0,0,0.1,0.1,0.1,0.1s-0.1,0-0.2,0s-0.1-0.1-0.1-0.1S163.4,45,163.5,45z M162.9,44.9c-0.3,0-0.6-0.1-0.9-0.2
		C162.4,44.5,162.7,44.6,162.9,44.9L162.9,44.9z M161.5,44.4c0.1,0,0.1,0,0.1,0.1c0,0,0,0,0,0.1h-0.2
		C161.5,44.4,161.5,44.4,161.5,44.4L161.5,44.4z M161,44.2c0,0,0.1,0.1,0.1,0.1c0,0-0.1,0-0.1,0S161,44.2,161,44.2
		C160.9,44.1,161,44.1,161,44.2L161,44.2z M160.4,44c0.1,0,0.1,0.1,0.1,0.2h-0.2c0,0-0.1,0-0.1,0S160.3,43.9,160.4,44L160.4,44z
		 M159.8,43.8c0.1,0,0.1,0.1,0.1,0.2c-0.1,0-0.1,0-0.2,0C159.8,44,159.7,43.9,159.8,43.8C159.7,43.8,159.7,43.7,159.8,43.8
		L159.8,43.8z M159.4,43.7C159.4,43.7,159.4,43.8,159.4,43.7l-0.3-0.1C159.1,43.6,159.3,43.6,159.4,43.7
		C159.3,43.7,159.3,43.7,159.4,43.7L159.4,43.7z M159,43.6c-0.4,0.1-0.6-0.1-1.1-0.3C158.3,43.2,158.7,43.3,159,43.6L159,43.6z
		 M157.1,43l0.3,0.2c0.1-0.1,0.2-0.1,0.3,0c0,0,0,0,0,0c0,0,0,0.1,0,0.1l-0.3-0.2c-0.1,0.1-0.2,0.1-0.3,0c0,0,0,0,0,0
		C157.1,43.1,157.1,43,157.1,43z M154.9,42.4c0.5,0,1,0.1,1.5,0.4c0.1-0.1,0.2-0.1,0.3,0c0,0,0,0.1,0,0.1l-0.3-0.1
		c-0.5,0-1-0.1-1.5-0.3c-3.1-0.6-6.2-1.2-9.4-1.8C148.7,41,151.8,41.6,154.9,42.4L154.9,42.4z M144.7,40.6c0.2,0,0.6-0.1,0.6,0.1
		s-0.3,0.2-0.5,0.1s-0.3,0-0.3-0.1S144.6,40.6,144.7,40.6L144.7,40.6z M143.1,40.5c0.5-0.2,1-0.1,1.4,0.1
		C144,40.9,143.5,40.8,143.1,40.5c-0.4,0.2-0.9,0.2-1.2-0.1C142.2,40.2,142.7,40.2,143.1,40.5L143.1,40.5z M124.4,41.4
		c0-0.2,0.1-0.1,0.1-0.1L124.4,41.4z M124.5,41.3h0.2H124.5z M124.8,41.3l0.2,0C124.9,41.4,124.9,41.3,124.8,41.3L124.8,41.3z
		 M125.4,41.4C125.4,41.4,125.4,41.3,125.4,41.4l0.2-0.2c0,0,0,0.1,0,0.1L125.4,41.4z M125.9,41.3c0-0.2,0.1-0.1,0.2,0L125.9,41.3z
		 M126.1,41.3c0.1-0.1,0.2-0.1,0.2,0c0,0,0,0,0,0C126.3,41.2,126.2,41.2,126.1,41.3C126.1,41.2,126.1,41.2,126.1,41.3L126.1,41.3z
		 M126.4,41.3l0.1-0.1v0.1L126.4,41.3z M130.4,41.1c-0.1,0-0.2,0-0.2-0.1s0.1-0.1,0.2-0.1s0.2-0.1,0.2,0L130.4,41.1z M133,41
		c-0.3,0.1-0.7,0.1-1,0h-0.3c-0.2,0-0.5,0.2-0.5-0.1s0.3-0.1,0.5-0.1h0.3c0.3-0.1,0.7-0.1,1,0c0.1,0,0.2-0.1,0.2,0.1
		S133.1,41,133,41z M197,67c-3.5-3.3-7.3-6.3-11.2-9.1c-7.4-5.2-15.4-9.3-24-12.2c-7.1-2.4-14.5-3.9-22-4.5l-0.7-0.1l-4-0.2h-1
		c-0.2,0-0.5,0.2-0.5-0.2c0-0.1,0.3-0.1,0.5-0.1c0.3-0.1,0.7-0.1,1,0c1.4-0.1,2.7,0,4.1,0.1c6.5,0.3,13,1.3,19.3,3.1
		c8.4,2.4,16.5,5.9,23.9,10.6c6,3.7,11.6,8,16.6,12.9c0.9,1.1,1.8,2.2,2.4,3.5C199.9,69.7,198.4,68.3,197,67z M248,172.5L248,172.5
		L248,172.5L248,172.5z M248.1,172.1L248.1,172.1L248.1,172.1L248.1,172.1z M248.2,171.5v0.1C248.1,171.7,248.2,171.6,248.2,171.5
		L248.2,171.5z M247.2,112.2c-6.3-14.5-14.9-27.9-25.5-39.7c-4.8-5.5-10-10.5-15.6-15.2c-0.9-0.6-1.7-1.2-2.4-2l-4.1-3.1
		c-0.9-0.5-1.8-1.1-2.6-1.7c-3.4-2.3-6.8-4.4-10.4-6.4c-8.7-4.7-18-8.1-27.7-10.2c-0.2,0-0.4-0.2-0.6,0c0,0,0.1,0.1,0.1,0.1
		c0.5,0.2,0.9,0.3,1.4,0.4c11.8,3,23,8,33.1,15c7.3,5,14,10.8,20.1,17.2c6.9,7.3,13.2,15.1,18.7,23.5c4.7,6.9,8.6,14.3,11.9,21.9
		c5.8,14.2,8.9,29,7.5,44.8c-0.4,4.5-1.1,8.9-2.4,13.1l-0.1,0.3c0,0.4-0.1,0.9-0.4,1.2c0-0.5,0-0.9,0.2-1.4c0-0.1,0-0.1,0.1-0.2
		c0.3-0.8-0.4-1.4-0.2-2.2c0.5-3,1-6.1,1.3-9.2c0.6-7,0.3-14.1-0.8-21.1c-1.6-8.9-4.1-17.6-7.6-25.9c-4.6-11-10.5-21.5-17.5-31.1
		c-2.7-4-5.8-7.7-9.2-11.2c-1.1-1.2-2.5-2-3.7-3.2c-3.4-3.4-6.9-6.8-10.7-9.9c-4.2-3.5-8.7-6.7-13.4-9.6c-5.9-3.6-12.2-6.6-18.8-8.9
		c-11.7-4.1-24.2-5.9-36.6-5.1c-5.7,0.3-11.4,1.1-17,2.4c-0.6,0.1-1.2,0.2-1.7,0.8c0.1,0,0.2,0.1,0.3,0.1c4.7-0.9,9.4-1.6,14.1-2
		c20.4-1.9,40.9,2.8,58.4,13.5c3.5,2.1,6.9,4.4,10.1,6.9c2.2,1.6,4.3,3.3,6.3,5.2l-6.5-5c-5-3.7-10.2-7-15.7-9.8
		c-8.1-4.2-16.8-7.2-25.8-8.9c-13.5-2.4-27.4-2-40.7,1.1c-3.1,0.6-6.2,1.4-9.3,2.5v0.2c3-0.7,5.9-1.6,8.9-2.2
		c11.7-2.7,23.8-3.3,35.8-1.9c17.3,2.2,32.2,8.8,45.6,18.6c3.8,2.8,7.4,5.9,10.9,9.2c5.1,4.9,9.9,10.1,14.2,15.8l1.7,2.1
		c-0.8-0.5-1.4-1.2-1.8-2c-0.2-0.2-0.5-0.4-0.7-0.7c-4.5-5.2-9.4-10.1-14.6-14.6c-3.3-2.8-6.7-5.5-10.2-8c-5.5-4.2-11.3-7.8-17.5-11
		c-17.7-8.7-36.8-11.5-57.3-8.1c-17.2,2.8-33.1,9.4-48.2,18.2c-0.6,0.3-1.2,0.7-1.5,1.3c8.6-4.7,17.5-8.7,26.8-12
		c9.3-3.3,18.9-5.4,28.7-6.3c-0.3,0.3-0.6,0.5-1,0.5c-1.8,0.2-3.7,0.5-5.5,0.8c-10.4,1.7-20.5,4.8-30.1,9c-3.3,1.4-6.5,3-9.6,5
		c-0.5,0.3-0.8,0.7-1,1.2c2.6-0.7,5.1-1.6,7.6-2.7C90,49.2,95.4,47,101,45.1c13.2-4.1,26.4-6,39.8-5c0.4,0,0.8-0.1,1.1,0.3
		c-0.3,0.2-0.7,0.1-1,0.1c-7.8-0.5-15.7-0.1-23.4,1.3c-7.9,1.4-15.7,3.6-23.2,6.5c-0.4,0.2-0.9,0.5-1.2,0.4
		c-1.2-0.1-2.3,0.3-3.2,1.1c-0.6,0.5-1.4,0.9-2.2,1.2c-1.1,0.2-2.2,0.7-3.1,1.3c-1.2,0.7-2.5,1.4-3.8,2C67.2,61.2,54.5,69.6,43,79.5
		c-1.2,0.8-2.2,1.9-3.1,3c0.3-0.2,0.6-0.4,0.9-0.6c2.1-1.8,4.1-3.6,6.2-5.3c12.3-10,25.9-18.4,40.4-25c2.9-1.4,5.9-2.6,9-3.6
		c2.9-0.9,5.7-2.6,8.8-2.3c0.7,0,1.4-0.2,2-0.4c3.1-0.8,6.2-1.5,9.3-1.9h0.3l0.3-0.2c0,0,0,0.1,0,0.1s-0.2,0.2-0.3,0.1l-0.3,0.2
		c-0.3,0.1-0.6,0.2-0.8,0.4c-0.4,0.2-1.1,0.3-1,0.7s0.7,0.2,1.1,0.4c0,0,0,0.1,0.1,0.3c-16.3,3.5-31.3,10.3-45.3,19.3
		c0.1,0.1,0.2,0.1,0.3,0c0.4-0.2,0.8-0.4,1.2-0.7c14.5-8.6,29.8-15.2,46.4-18.1c7.4-1.4,14.9-1.8,22.4-1.1c14.6,1.6,27.4,7,38.9,15
		c4.7,3.3,9.1,6.9,13.3,10.8c3.8,3.5,7.3,7.3,10.6,11.2c2.8,3.2,5.4,6.5,7.9,9.9c4.9,6.6,9.3,13.6,13.1,21
		c6.9,13.5,10.4,27.9,9.1,43.5c0,0.3-0.1,0.6-0.1,1.1c-0.5-0.4-0.7-1.1-0.7-1.7c0.8-12.1-1.1-24.3-5.8-35.6
		c-4.6-11.8-11.4-22.3-19.1-32.3c-1.5-1.9-3-3.8-4.6-5.7c-0.2-0.2-0.5-0.5-0.7-0.8c-7.1-8.4-15.5-15.6-24.7-21.5
		c-5.8-3.7-12-6.7-18.6-8.8c-15.9-5.2-32.4-5.1-49.2-0.7c-11.1,3-21.7,7.4-31.6,13c-9.5,5.3-18.4,11.5-26.6,18.5
		c-1.1,0.7-1.9,1.7-2.5,2.8c0.8-0.2,1.5-0.6,2.1-1.1c2.6-1.9,5.1-3.7,7.7-5.6c12.2-9.1,25.5-16.5,39.7-22c10.5-4.1,21.7-6.5,33-6.9
		c19.1-0.6,35.5,5.3,50,15.6c7.2,5.2,13.9,11.2,19.7,17.9c9.6,11,17.9,22.9,23.6,36.3c3.5,8.1,5.7,16.6,6.5,25.4
		c1.1,11.8,3,17.4,1.2,32.9c-0.8,6.6-17.5,37.8-19.8,41.4c8.9,1.8,21.8-25.5,30.5-22.8c7.6-14,11.6-29.6,11.6-45.5
		C255.3,137.1,252.5,124.2,247.2,112.2L247.2,112.2z"/>
	<path class="st1" d="M60.8,248.1c0.8,0.6,1.6,1.2,2.5,1.8c-7.1-5-13.7-10.8-19.6-17.1c-5.7-6.1-10.4-13.1-14-20.7
		c-0.4-0.9-1.1-2.8-1.5-3.7c-3.5-7.9-6.4-16.1-8.5-24.5c-0.6-2.3-1.4-4.5-2.4-6.7c-0.4-1-0.9-1.9-0.9-0.9c0.2,2,1.2,7,0.9,7.1
		c-0.3-0.6-0.4-1.3-0.5-2c-0.4,0.1-1.7-2.8-1.8-3.8c-0.4-1-1.8-7-1.9-8.1c-0.5-3.1-1.2,6.4-0.5,10.6c0.2,2.1-0.5,0.1-0.7,0.1
		c0.5,2.1,0.4,3.2,1,5.2c0,0,0.2,1.6,0.7,3.5s1.1,4.2,1.6,5.8l1.4,4c0.4,1,0.5,1,0.5,0.9l-0.2,0.1c0.5,0.9,1,3,1.6,4l-0.2,0.1
		c1,1.9,1.6,3.9,2.6,5.8l-0.2,0.1c0.4,0.6,0.6,1.3,0.8,2l-0.2,0.1c0.5,1,0.9,1.9,1.3,2.9l0.2-0.1c2,3.8,3.5,6.6,5.3,9.3
		c4.3,7.5,11.7,15.6,19.1,21.6c0.8,0.7,1.7,1.3,1,0.4c0.8,0.7,1.6,1.4,2.5,2c1.7,1.3,1,0.4,2.7,1.8c13.7,10,28.6,18.3,45.5,22.2
		c-4.3-1.1-7.2-2.2-11.2-3.6c0-0.1,0.1-0.2-0.9-0.6c-5.9-2.3-12.6-5.4-15.2-7.3c-0.9-0.6-1.7-1.3-4.4-2.9l2.7,1.6l0.1-0.2
		c-3.9-2.3-7.7-4.8-11.3-7.5l0.2-0.2l-1.7-1.2c-0.7-0.9,1.3,0.4,4,2.2s6.2,4,8.5,5.2l0.2-0.3l-1.8-1l0.1-0.2c5,3,10.2,5.7,15.6,7.9
		l-3.8-1.7c0-0.1,0.1-0.2-0.8-0.6c4,2,8.2,3.6,12.4,4.9c1,0.2,0.1-0.3-2.8-1.5s-4.8-1.9-7.6-3.1l0.1-0.2c1.9,0.9,4.7,2.1,6.6,2.8
		c1,0.3-1.8-1-0.8-0.7c0.9,0.4,1.9,0.7,2.9,1c-3.2-1.1-6.4-2.4-9.4-3.8c-0.9-0.5-1.8-1-1.7-1.2c-3.7-1.7-7.2-3.8-10.4-6.4
		C67.6,252.6,63.2,250,60.8,248.1z"/>
	<path class="st1" d="M111.4,284.6l4.6,0.9c-13.3-2.5-26.2-6.6-38.5-12.2c-12.3-5.4-23.6-12.4-32.4-21.1c-1-1.1-3.1-3.4-4.1-4.6
		c-8.4-8.9-16.1-22.3-20-33.9c-1-2.9-2-5.4-2.6-7.2c-0.6-1.5-1.2-2.9-1.2-2.9c-0.5-1.5-1.1-2.9-1-1.4c0.3,3.1,2.4,10.6,2.1,10.7
		c-0.4-1-0.7-2-1-3c-0.3,0.1-2.2-4.3-2.5-5.9c-1.1-4.1-1.9-8.3-2.4-12.6c-0.1-2.4-0.7,0-0.8,3.9c-0.1,4.2,0.2,8.3,1,12.4
		c0.6,3.2-0.4,0.1-0.7,0.2c0.8,3.2,1.1,4.8,2.1,8c0.1,0.5,0.3,1,0.4,1.6l1.4,3.7c1,2.9,2.7,6.2,3.7,8.5c0,0,0.2,0.4,0.7,1.3
		s1.4,2.3,2.6,4.5c0.8,1.4,0.9,1.4,1,1.3l-0.2,0.1c1,1.3,2.8,4.1,3.8,5.4l-0.1,0.1c1.9,2.7,4,5.2,6.2,7.7l-0.1,0.1l1.4,1.7
		c0.4,0.4,0.7,0.8,0.7,0.8l-0.1,0.1c1.1,1.2,3.6,3.4,3.5,3.5l0.1-0.1c2.1,2.1,4.3,4.1,6.6,5.9c1.9,1.7,3.9,3.3,6,4.7
		c2.7,1.8,5.5,4,8.7,5.8s6.5,3.5,9.9,5.2l10.5,4.4c3.5,1.4,7.1,2.5,10.6,3.7c1.5,0.5,3.1,0.9,1.6,0.2c1.5,0.6,3.1,0.9,4.7,1.4
		c3.1,0.9,1.6,0.2,4.8,1c12.7,3.1,25.6,4.6,38.7,4.6c6.5-0.1,13.1-0.8,19.5-2c6.6-1.2,13-3.2,19-6c-6.4,2.9-11,3.9-17.4,5.4
		c0-0.1-0.1-0.3-1.7,0c-9.6,1.9-21,2.2-25.9,1.7c-1.6-0.1-3.2-0.6-8-0.9l4.8,0.3c0-0.1,0-0.3,0-0.3c-3.2-0.2-6.8-0.5-10.4-1.1
		l-5.3-0.8l-4.9-1.1c0,0,0-0.2,0-0.3l-3.1-0.6c-1.5-0.6,2.1,0,7,0.9c5.1,0.8,10.1,1.4,15.3,1.7c0-0.1,0-0.3,0-0.4l-3.2-0.2v-0.2
		c9,0.9,18,0.7,27-0.4c-1.6,0.2-4.7,0.6-6.3,0.6c0-0.1,0-0.2-1.6-0.1c6.9-0.3,13.7-1.4,20.3-3.2c1.5-0.5-0.1-0.3-4.7,0.6
		c-4.1,0.8-8.3,1.4-12.5,1.8v-0.2c3.7-0.3,7.3-0.8,10.9-1.5c1.5-0.4-3.1,0.3-1.6-0.1c1.6-0.2,3.1-0.6,4.6-1
		c-5.1,1.2-10.3,1.9-15.5,2.3c-1.6,0-3.1,0-3.2-0.2c-3.5,0.2-7.1,0.2-10.6-0.1c-3.1-0.3-5.8-0.7-8.2-1.1
		C123.8,286.4,116,285.7,111.4,284.6z"/>
	<path class="st4" d="M193,38.4c-0.9-0.4-1.8-0.9-2.8-1.3c8,3.6,15.6,8,22.6,13.1c6.8,5,12.8,10.9,17.9,17.7
		c0.6,0.8,1.7,2.5,2.2,3.4c5,7.1,9.4,14.7,13,22.6c1,2.2,2.2,4.2,3.5,6.2c0.5,0.9,1.1,1.8,0.9,0.8c-0.6-1.9-2.5-6.7-2.3-6.8
		c0.4,0.6,0.7,1.2,0.9,1.8c0.3-0.1,2,2.5,2.3,3.5c0.6,0.9,2.9,6.6,3.3,7.6c0.5,1.5,0.5-0.1,0.1-2.6c-0.4-2.6-1.1-5.2-1.9-7.8
		c-0.6-2,0.4-0.1,0.6-0.2c-0.9-1.9-1-3-2-4.9c0,0-0.5-1.5-1.4-3.3s-1.9-3.9-2.6-5.3l-2.1-3.7c-0.5-0.9-0.6-0.9-0.7-0.8l0.1-0.1
		c-0.7-0.8-1.6-2.7-2.3-3.6l0.1-0.1c-1.3-1.7-2.3-3.6-3.6-5.2l0.1-0.1c-0.4-0.5-0.9-1.1-1.2-1.8l0.1-0.1c-0.6-0.9-1.9-2.5-1.8-2.6
		l-0.1,0.1l-3.6-4.4c-1.1-1.3-2.2-2.5-3.3-3.7c-5.6-6.4-14.4-12.9-22.7-17.5c-0.9-0.5-1.9-1-1.1-0.3c-0.9-0.6-1.9-1-2.8-1.5
		c-1.9-1-1-0.3-2.9-1.3c-15.2-7.2-31.4-12.5-48.6-13.1c3.9,0.3,7.8,0.7,11.6,1.4c0,0.1,0,0.2,1,0.4c6.2,1.1,13.3,2.9,16.2,4.2
		c1,0.4,1.9,0.9,4.9,2l-3-1l-0.1,0.2c4.3,1.5,8.4,3.2,12.5,5.2l-0.1,0.2l1.9,0.9c0.8,0.7-1.3-0.2-4.3-1.5s-6.9-2.7-9.3-3.5
		c0,0.1-0.1,0.2-0.1,0.3l2,0.7l-0.1,0.1c-5.5-2-11.1-3.6-16.9-4.8l4,0.9c0,0.1,0,0.1,1,0.4c-4.3-1.2-8.7-2-13.1-2.5
		c-1,0,0,0.3,3,0.8s5.1,0.9,8.1,1.6v0.1c-2-0.5-5-1.2-7-1.4c-1-0.1,2,0.6,0.9,0.5c-1-0.2-2-0.4-3-0.4c3.4,0.5,6.7,1.2,10,2
		c1,0.3,1.9,0.7,1.9,0.8c4,0.9,7.8,2.3,11.5,4.2C185.5,35.3,190.3,37,193,38.4z"/>
	<path class="st4" d="M134.7,16.4l-4.7,0.1c13.5-0.6,27.1,0.4,40.4,3c13.3,2.4,26,6.7,36.6,13.1l5.1,3.5c10.3,6.8,21,18.1,27.4,28.6
		c1.6,2.6,3.1,4.9,4.1,6.5l1.7,2.6c0.8,1.4,1.7,2.7,1.2,1.2c-1-3-4.8-9.8-4.6-9.9c0.6,0.9,1.2,1.8,1.6,2.7c0.2-0.1,3,3.8,3.6,5.3
		c0.4,0.7,1.7,3.2,2.8,5.7c0.9,2,1.6,4,2.3,6c0.6,2.3,0.6-0.1-0.3-3.9c-1-4-2.3-7.9-4-11.7c-1.3-3,0.3-0.2,0.5-0.3
		c-1.5-2.9-2.1-4.4-3.9-7.2c0,0-0.3-0.5-0.8-1.4l-2.1-3.3c-1.7-2.6-3.5-5-5.5-7.4c-0.3-0.4-0.6-0.7-0.9-1.1l-3.5-3.7
		c-1.1-1.2-1.2-1.1-1.2-1.1l0.1-0.1c-1.2-1.1-3.6-3.3-4.9-4.4l0.1-0.1c-2.4-2.2-5.1-4.1-7.7-6.1l0.1-0.1l-1.8-1.4
		c-0.3-0.2-0.6-0.4-0.8-0.6l0.1-0.1c-1.4-0.9-4.2-2.5-4.2-2.6l-0.1,0.1c-2.5-1.6-5.1-3-7.7-4.2c-2.2-1.2-4.5-2.3-6.9-3.2
		c-3.1-1.1-6.3-2.5-9.7-3.6s-7.1-1.9-10.8-2.8l-11.2-1.8c-3.7-0.6-7.5-0.8-11.1-1.2c-1.6-0.2-3.2-0.2-1.6,0.1
		c-1.6-0.2-3.2-0.2-4.9-0.2c-3.2-0.1-1.6,0.2-4.9,0c-13-0.1-25.9,1.3-38.6,4.4c-6.3,1.6-12.5,3.7-18.4,6.4c-6.1,2.6-11.8,6-17,10.1
		c2.4-1.9,5-3.6,7.7-5.1c2.5-1.4,5-2.7,8-4.2c0,0.1,0.1,0.2,1.6-0.4c7.9-3.5,16.2-6,24.7-7.6c1.6-0.3,3.2-0.2,8-1l-4.8,0.8V15
		c3.2-0.5,6.8-1.1,10.4-1.3l5.3-0.5l5.1-0.1c0,0,0,0.2,0,0.2l3.2-0.1c1.6,0.2-2,0.4-7,0.6c-5.1,0.3-10.2,0.9-15.2,1.8
		c0,0.1,0,0.2,0,0.3l3.2-0.5v0.1c-8.9,1.2-17.7,3.4-26.2,6.6c1.5-0.5,4.5-1.7,6-2.1c0,0.1,0,0.1,1.6-0.3c-6.6,1.9-13,4.5-19,7.8
		c-1.4,0.8,0.1,0.2,4.4-1.8c2.2-0.9,4-1.8,5.8-2.5l6-2.2v0.1c-3.5,1.1-6.9,2.5-10.3,4c-1.4,0.7,3-1,1.6-0.4c-1.5,0.6-2.9,1.2-4.3,2
		c4.7-2.3,9.6-4.2,14.6-5.8c1-0.3,2-0.5,3.1-0.6c3.4-1,6.8-1.8,10.3-2.4c3.1-0.4,5.9-0.7,8.2-0.9C122.2,17.4,130,16.3,134.7,16.4z"
		/>
	<polygon class="st3" points="309.4,131.6 312.4,131.8 304,148.4 295.7,131.8 298.6,131.6 298.6,122.8 279.9,122.8 279.9,131.6 
		284.9,132 299.1,159.5 299.1,171.9 293.8,172.4 293.8,181.1 314.1,181.1 314.1,172.4 308.8,171.9 308.8,159.7 323.1,132 
		328.2,131.6 328.2,122.8 309.4,122.8 	"/>
	<polygon class="st3" points="359.9,171.6 343.2,171.6 343.2,155.7 362.6,155.7 362.6,146.2 343.2,146.2 343.2,132.3 359.8,132.3 
		360.1,140.1 369.2,140.1 369.2,122.8 328.3,122.8 328.3,131.6 333.6,132 333.6,171.9 328.3,172.4 328.3,181.1 369.3,181.1 
		369.3,163.8 360.2,163.8 	"/>
	<path class="st3" d="M388.6,172.4l-3.1-0.3l2.1-6.3h17.1l2.1,6.3l-3.1,0.3v8.7h17.4v-8.7l-4.3-0.4l-16.7-49.1h-7.8L375.5,172
		l-4.2,0.4v8.7h17.4L388.6,172.4z M390.9,156.2l5.4-16l5.3,16H390.9z"/>
	<path class="st3" d="M462.8,169.3v-4.8c0.1-3.3-0.7-6.6-2.4-9.4c-0.7-1.2-1.7-2.2-2.8-3.1c1-0.9,1.8-1.8,2.5-2.9
		c1.8-2.7,2.7-5.8,2.7-9c0-5.5-1.7-9.8-5-12.8c-3.3-3-7.9-4.4-13.7-4.4h-22.5v8.7l5.3,0.5v39.8l-5.3,0.5v8.6h20.2v-8.6l-5.3-0.5V157
		h9c2.1-0.1,4.1,0.6,5.7,2c1.4,1.5,2,3.5,1.9,5.5v4.6c-0.1,2.7,0.5,5.3,1.7,7.7c1.4,2.7,4.3,4.3,7.4,4.1h5.4v-8.8l-4.4-0.3
		C462.9,171.1,462.8,170.2,462.8,169.3z M436.6,147.6v-15.3h7.6c3.2,0,5.5,0.7,6.9,2s2,3.2,2,5.7c0.1,2.1-0.6,4.1-2.1,5.5
		c-1.4,1.4-3.9,2-7.4,2L436.6,147.6z"/>
	<path class="st3" d="M510,122.1c-6.7-0.1-13,3.1-16.9,8.6c-4.1,5.4-6.2,12.5-6.2,20.9v0.7c0,8.5,2.1,15.5,6.2,20.9
		c3.9,5.5,10.2,8.7,16.9,8.6c6.7,0.1,13.1-3.1,17.1-8.5c4.2-5.4,6.3-12.5,6.3-21v-0.7c0-8.5-2.1-15.5-6.3-21
		C523.1,125.1,516.8,121.9,510,122.1z M510,172.3c-3.8,0.1-7.5-1.8-9.5-5.1c-2.6-3.7-3.9-8.7-3.9-14.9v-0.8c0-6.2,1.3-11.2,3.9-14.8
		c2.1-3.2,5.7-5.2,9.5-5.1c3.9-0.1,7.6,1.8,9.8,5.1c2.6,3.7,4,8.7,4,14.8v0.8c0,6.2-1.3,11.2-3.9,14.9
		C517.6,170.5,514,172.4,510,172.3L510,172.3z"/>
	<polygon class="st3" points="535.2,131.6 540.5,132 540.5,171.9 535.2,172.4 535.2,181.1 555.5,181.1 555.5,172.4 550.2,171.9 
		550.2,156.5 570,156.5 570,147 550.2,147 550.2,132.3 567.1,132.3 567.4,140.1 576.5,140.1 576.5,122.8 535.2,122.8 	"/>
	<path class="st3" d="M619.8,122.1c-6.7-0.1-13,3.1-16.8,8.6c-4.1,5.4-6.2,12.5-6.2,21v0.7c0,8.4,2.1,15.5,6.2,20.9
		c3.9,5.5,10.2,8.7,16.9,8.6c6.7,0.1,13.1-3.1,17.1-8.5c4.2-5.4,6.3-12.5,6.3-21v-0.7c0-8.5-2.1-15.5-6.3-21
		C633,125.1,626.6,121.9,619.8,122.1z M619.8,172.3c-3.8,0.1-7.5-1.8-9.5-5.1c-2.6-3.7-3.9-8.7-3.9-14.9v-0.8
		c0-6.2,1.3-11.2,3.9-14.8c2.1-3.2,5.7-5.2,9.5-5.1c3.9-0.1,7.6,1.8,9.8,5.1c2.6,3.7,4,8.7,4,14.8v0.8c0,6.2-1.3,11.2-3.9,14.9
		C627.5,170.5,623.8,172.4,619.8,172.3L619.8,172.3z"/>
	<path class="st3" d="M667.9,122.9H645v8.7l5.3,0.5v39.8l-5.3,0.5v8.7h20.2v-8.7l-5.2-0.5v-12.6h7.9c5.7,0,10.3-1.7,13.6-5
		s4.9-7.8,4.9-13.2c0-5.4-1.7-9.8-4.9-13.1C678.2,124.6,673.6,122.9,667.9,122.9z M660,132.3h7.9c3.1,0,5.2,0.8,6.6,2.3
		c1.5,1.8,2.3,4.1,2.2,6.5c0.1,2.3-0.7,4.6-2.2,6.4c-1.4,1.6-3.6,2.3-6.6,2.3H660L660,132.3z"/>
	<polygon class="st3" points="719.8,171.6 703.1,171.6 703.1,155.7 722.5,155.7 722.5,146.2 703.1,146.2 703.1,132.3 719.7,132.3 
		719.9,140.1 729,140.1 729,122.8 688.2,122.8 688.2,131.6 693.5,132 693.5,171.9 688.2,172.4 688.2,181.1 729.2,181.1 729.2,163.8 
		720.1,163.8 	"/>
	<polygon class="st3" points="762.6,122.8 762.6,131.6 767.9,132 767.9,160.6 745.4,122.8 731.6,122.8 731.6,131.6 736.9,132 
		736.9,171.9 731.6,172.4 731.6,181.1 751.9,181.1 751.9,172.4 746.6,171.9 746.6,143.2 769.2,181.1 777.6,181.1 777.6,132 
		782.8,131.6 782.8,122.8 	"/>
</g>
</svg>
