<?xml version="1.0" encoding="utf-8"?>
<!-- Generator: Adobe Illustrator 15.0.0, SVG Export Plug-In . SVG Version: 6.00 Build 0)  -->
<!DOCTYPE svg PUBLIC "-//W3C//DTD SVG 1.1//EN" "http://www.w3.org/Graphics/SVG/1.1/DTD/svg11.dtd">
<svg version="1.1" id="Layer_1" xmlns="http://www.w3.org/2000/svg" xmlns:xlink="http://www.w3.org/1999/xlink" x="0px" y="0px"
	 width="500px" height="239.234px" viewBox="0 0 500 239.234" enable-background="new 0 0 500 239.234" xml:space="preserve">
<g>
	<path fill="#C4AD97" d="M99.922,57.203c-0.013-0.004-0.035-0.01-0.045-0.013c0.562,0.118,0.562,0.118,1.03,0.32l-0.191-0.073
		C100.478,57.355,100.32,57.305,99.922,57.203"/>
	<path fill="#C4AD97" d="M91.012,54.612c-0.122-0.022-0.284-0.042-0.409-0.063c0.593,0.097,1.387,0.216,1.976,0.331l0.584,0.121
		c1.298,0.319,2.771,0.682,5.693,1.841C97.812,56.437,94.636,55.209,91.012,54.612 M79.578,55.456
		c-0.03,0.009-0.069,0.02-0.098,0.027c4.36-1.283,4.548-1.283,6.344-1.291l0.575,0.008h-0.147
		C85.075,54.255,83.36,54.442,79.578,55.456"/>
	<path fill="#C4AD97" d="M72.994,56.293c-0.014,0.004-0.035,0.013-0.053,0.018c0.42-0.138,0.979-0.322,1.403-0.46l0.041-0.008
		c0.544-0.076,0.544-0.076,3.652-0.125C76.938,55.77,74.356,55.888,72.994,56.293"/>
	<path fill="#C4AD97" d="M107.536,61.329c1.235,0.946,4.049,3.25,4.07,3.27c-2.772-2.396-2.878-2.492-4.798-3.808l-0.107-0.071
		C106.847,60.82,107.061,60.967,107.536,61.329"/>
	<path fill="#775A49" d="M100.058,57.358c-0.111-0.048-0.26-0.107-0.367-0.152c2.899,1.096,10.171,4.375,15.756,11.753
		c5.074,6.709,7.375,12.893,8.174,20.556c-0.951-9.139-5.046-13.345-8.396-14.171c-2.328-0.575-4.465,0.25-7.379,0.796
		c11.771-4.458,0.715-14.619-6.083-17.995C101.621,58.077,100.895,57.718,100.058,57.358 M99.325,57.058L99.325,57.058
		c0.107,0.039,0.218,0.082,0.329,0.125C99.54,57.152,99.432,57.1,99.325,57.058"/>
	<path fill="#C4AD97" d="M87.728,55.994c0.839,1.205,5.314,1.784,5.634,0.728c0.173-0.578-1.35-1.409-3.583-1.613
		C87.87,54.996,87.376,55.489,87.728,55.994"/>
	<path fill="#C4AD97" d="M79.027,55.746c-0.095,0-0.219,0.004-0.314,0.007c1.418-0.152,8.715-0.693,13.099,3.424
		c1.674-3.679,7.42-2.119,8.069-1.927c-3.872-0.885-5.787,2.111-2.557,7.449c2.449,4.042,9.384,10.38,10.522,11.442
		C96.62,67.349,94.023,64.699,92.844,63.226c-0.677,1.382-3.018,4.587-14.068,10.932c11.968-8.06,12.181-16.138,3.858-18.034
		C82.124,56.008,80.75,55.741,79.027,55.746 M78.438,55.762L78.438,55.762c0.094-0.01,0.186-0.017,0.28-0.026
		C78.633,55.756,78.633,55.756,78.438,55.762"/>
	<path fill="#775A49" d="M64.974,60.976c-0.308,0.449-0.15,0.67,0.425,0.589c1.768-0.253,5.34-2.847,4.61-3.344
		c-0.288-0.199-1.17,0.168-1.5,0.305C66.752,59.319,65.399,60.357,64.974,60.976"/>
	<path fill="#775A49" d="M60.433,63.536l0.129-0.11l0.014-0.011c0.159-0.128,3.889-3.117,4.928,0.038
		c3.974-5.194,10.764-7.171,13.498-7.78c-8.899,2.446-15.665,10.091-6.763,15.635c1.527,0.95,4.49,2.399,6.27,2.946
		c-11.338-2.525-13.325-5.287-13.967-6.426c-2.984,5.64-7.446,11.503-10.713,16.943c5.659-11.134,6.631-12.951,7.449-15.488
		c2.226-6.912-0.256-6.098-0.282-6.091C60.748,63.281,60.509,63.473,60.433,63.536"/>
	<path fill="#C4AD97" d="M47.682,103.825c-2.807-11.646-0.445-18.637,0.758-22.764c-0.239,1.586-0.777,4.537,4.734,3.812
		c-8.292-0.86-1.228-11.533,1.137-14.783l-0.206,0.276c-1.882,2.76-2.448,3.594-4.273,7.259c-1.412,3.388-1.423,4.295-2.41,8.022
		C46.512,89.577,47.106,99.475,47.682,103.825c0,0-0.594-5.482-0.6-5.602"/>
	<path fill="#775A49" d="M115.867,83.376c0.101,3.14,2.292,6.065,3.553,4.736c1.108-1.167,0.536-5.129-1.402-6.875
		C116.447,80.096,115.815,81.802,115.867,83.376"/>
	<path fill="#775A49" d="M107.943,76.294C107.831,76.193,108.092,76.294,107.943,76.294c0.673,0,8.638,4.925,9.098,15.879
		c3.444-6.099,5.966-3.572,6.577-2.5c-0.003-0.006,0.006,0.007,0,0c-0.223-0.19-1.843-1.439-4.807,5.706
		c-0.809,1.948-1.022,2.691-5.323,20.221c0.801-5.318,1.042-11.452,1.64-16.787c-1.195,1.542-3.786,4.737-12.379,7.709
		c17-8.671,11.991-24.197,5.293-30.208"/>
	<path fill="#C4AD97" d="M90.832,76.631c0.517,3.235,4.784,4.588,6.525,2.072c1.395-2.014-0.008-5.3-3.167-5.698
		C91.46,72.935,90.582,75.082,90.832,76.631"/>
	<path fill="#C4AD97" d="M79.374,74.45c-0.137-0.035-0.322-0.079-0.46-0.113c0.113-0.003,11.696,0.231,15.523,10.084
		c3.641-8.858,13.104-8.16,13.506-8.127c-6.062,0.783-15.373,9.924-5.343,30.14c-2.712-3.899-6.856-10.14-8.343-14.783
		c-0.847,1.938-2.846,6.014-11.052,13.342C96.865,88.959,89.165,77.101,79.374,74.45 M78.512,74.253h-0.003
		c0.132,0.003,0.267,0.012,0.4,0.024c-0.024,0.008-0.046,0.017-0.07,0.028c-0.006,0.003-0.017,0.009-0.027,0.009
		c-0.053-0.004-0.101-0.024-0.155-0.034C78.609,74.27,78.56,74.26,78.512,74.253"/>
	<path fill="#775A49" d="M62.073,82.929c0.706,2.735,3.977,2.61,5.554-0.215c1.574-2.814-0.071-5.898-2.707-5.071
		c-0.098,0.032-0.229,0.084-0.322,0.12C62.235,78.93,61.7,81.486,62.073,82.929"/>
	<path fill="#775A49" d="M54.118,85.077c-0.087,0.005-0.203,0.02-0.29,0.03c0.064-0.041,7.366-3.526,12.604,3.866
		c1.089-9.992,10.269-13.969,12.224-14.693C68,80.129,66.023,95.708,82.985,105.061c-2.824-1.087-10.731-4.423-14.586-9.2
		c-0.027,2.139-0.509,2.988-2.895,16.676C66.46,87.613,58.005,84.773,54.118,85.077"/>
	<path fill="#C4AD97" d="M46.975,99.459c0.326,1.228,0.866,1.577,1.282,0.837c0.93-1.655,0.416-6.723-0.656-6.456
		c-0.226,0.056-0.376,0.362-0.468,0.544C46.513,95.963,46.67,98.302,46.975,99.459"/>
	<path fill="#C4AD97" d="M60.455,122.666c-2.075-3.196-2.055-2.493-7.75-13.02c0.858,1.589,4.946,2.851,12.799,3.093
		c-16.446-3.02-16.824-19.545-11.973-27.579c-0.643,0.78-6.825,14.474-4.033,19.484c-1.437-2.584-2.072-3.519-2.075-3.488
		c-0.022,0.17,0.388,5.509,2.66,10.138C53.073,117.392,58.674,121.368,60.455,122.666"/>
	<path fill="#C4AD97" d="M64.95,124.541c0.838,0.723,1.32,0.736,1.145,0.038c-0.39-1.563-3.4-4.903-3.836-4.256
		c-0.095,0.138-0.012,0.418,0.041,0.583C62.812,122.285,64.156,123.859,64.95,124.541"/>
	<path fill="#C4AD97" d="M86.474,133.046c-2.741-0.237-6.812,0.099-11.24-3.076c1.231,0.887,7.717,2.504,12.101-0.697
		c-10.532,4.943-20.125-8.807-21.83-16.533c0.071,0.822-1.612,8.857,5.292,15.093c-4.308-1.671-8.768-2.679-8.75-2.662
		c0.577,0.468,0.135,0.077,0.239,0.191l0.724,0.588c0.648,0.538,5.254,3.951,9.565,5.221
		C78.525,132.925,84.866,133.34,86.474,133.046"/>
	<path fill="#C4AD97" d="M89.662,132.58c2.469-0.354,6.098-0.805,10.638-3.518c-1.27,0.755-8.31,2.532-11.553,0.359
		c8.333,3.108,21.704-7.513,24.734-13.544c-0.225,0.632-1.512,6.036-8.841,11.264c4.139-1.559,7.722-5.705,7.704-5.339
		c-0.017,0.277,0.113-0.092,0,0l0,0c-0.523,0.804-4.401,4.923-10.049,7.626C96.531,132.186,91.022,132.706,89.662,132.58"/>
	<path fill="#C4AD97" d="M113.481,120.546c2.113-2.125,3.187-3.154,6.91-11.268c-0.556,1.212-2.811,4.327-6.903,6.321
		c7.72-3.762,11.178-19.658,10.129-25.927c0.12,0.705,1.745,9.317-2.924,20.035C118.801,114.046,114.926,119.732,113.481,120.546"/>
	<path fill="#775A49" d="M106.097,112.283c-1.045,1.765-1.607,4.101,0.113,3.708c2.268-0.523,5-4.618,3.53-6.097
		C108.561,109.127,106.916,110.904,106.097,112.283"/>
	<path fill="#775A49" d="M102.756,106.771c-0.048-0.088,0,0-0.052-0.088c0.06,0.043,5.194,4.563-0.329,12.514
		c6.492-5.107,9.752-4.286,11.113-3.336c0,0.006-0.004,0.014-0.006,0.017c-3.494-0.79-9.009,3.481-12.656,6.313
		c-4.324,3.349-8.057,6.239-12.678,7.388c0.17-0.045,0.394-0.106,0.564-0.157c3.27-1.065,5.246-2.544,8.432-5.463
		c-2.966,1.926-6.166,3.454-8.996,5.62l0.166-0.135c2.707-2.104,5.642-3.868,8.244-6.122c2.796-2.419,4.09-4.251,4.519-4.929
		C104.418,113.1,103.978,109.013,102.756,106.771"/>
	<path fill="#C4AD97" d="M90.69,108.133c0.006,2.311,1.416,4.393,3.135,2.591c1.77-1.844,2.163-6.079-0.446-6.485
		C91.629,104.243,90.686,106.25,90.69,108.133"/>
	<path fill="#C4AD97" d="M83.304,105.252c-0.1-0.048,0,0-0.1-0.045c0.082,0.009,8.088,1.135,8.498,10.331
		c3.226-8.094,9.647-8.806,10.897-8.868c-7.244,2.122-9.949,11.451-10.97,14.963c-1.003,3.465-1.728,5.96-3.483,7.945
		c0.079-0.101,0.191-0.236,0.274-0.335c1.478-2.09,1.662-3.924,2.026-7.58c-2.424,6.318-2.424,6.318-2.3,7.916
		c-0.007-0.047-0.018-0.109-0.021-0.157c-0.402-5.167,2.449-10.005,1.392-15.238C88.679,110.038,86.591,106.836,83.304,105.252"/>
	<path fill="#775A49" d="M72.994,112.01c1.317,1.949,3.731,3.108,4.105,0.799c0.379-2.328-1.704-6.091-4.041-5.303
		C71.63,108.271,71.904,110.396,72.994,112.01"/>
	<path fill="#775A49" d="M66.399,112.689c-0.095-0.005-0.626,0.056-0.72,0.051c0.056-0.024,6.276-2.156,12.798,4.95
		c-2.952-8.072,3.418-11.816,4.727-12.483c-1.395,1.14-4.5,4.446-3.266,10.532c1.144,5.65,5.942,8.921,8.208,13.839
		c-0.056-0.101-0.124-0.234-0.174-0.332c-0.509-0.835-0.509-0.835-5.822-6.237c1.777,2.96,3.061,5.101,5.996,6.568l-0.203-0.092
		C79.754,125.306,76.979,113.5,66.399,112.689"/>
	<g>
		<g>
			<path fill="#C4AD97" d="M60.424,63.544l-0.085,0.076c0.076-0.064,0.146-0.13,0.223-0.194
				C60.52,63.463,60.465,63.51,60.424,63.544 M60.241,63.708L60.241,63.708c0.05-0.042,0.092-0.084,0.141-0.125
				C60.333,63.625,60.285,63.665,60.241,63.708"/>
			<path fill="#C4AD97" d="M53.265,73.201c-0.726,0.806-1.157,1.123-1.183,0.875c-0.112-1.058,3.728-6,4.192-5.394
				c0.075,0.099-0.026,0.35-0.089,0.504C55.537,70.553,53.717,72.702,53.265,73.201"/>
			<g>
				<path fill="#C4AD97" d="M55.11,76.278c-2.336-0.917-5.624-0.056-8.012,9.269c1.044-3.759,1.232-4.44,2.733-7.922
					c1.611-3.195,1.997-3.954,4.273-7.259l0.206-0.276c1.892-2.517,3.961-4.715,6.329-6.726
					c-5.977,5.091-9.133,11.053-10.318,13.299c0.823-1.319,2.069-3.321,4.83-0.366C55.142,76.294,55.121,76.286,55.11,76.278"/>
			</g>
		</g>
	</g>
	<path fill="#C4AD97" d="M91.604,130.915"/>
	<g>
		<g>
			<path fill="#967964" d="M140.784,78.486c0-3.708,1.356-6.894,4.069-9.556c2.702-2.663,5.949-3.993,9.741-3.993
				c3.746,0,6.959,1.342,9.642,4.028c2.688,2.685,4.034,5.91,4.034,9.673c0,3.789-1.353,7.003-4.051,9.642
				c-2.717,2.65-5.992,3.978-9.828,3.978c-3.395,0-6.444-1.18-9.147-3.534C142.271,86.121,140.784,82.705,140.784,78.486z
				 M144.787,78.528c0,2.909,0.975,5.303,2.927,7.179c1.942,1.875,4.188,2.812,6.727,2.812c2.758,0,5.086-0.956,6.984-2.864
				c1.894-1.932,2.843-4.285,2.843-7.058c0-2.809-0.938-5.161-2.81-7.059c-1.863-1.909-4.168-2.865-6.914-2.865
				c-2.738,0-5.047,0.956-6.93,2.865C145.726,73.427,144.787,75.757,144.787,78.528z"/>
			<path fill="#967964" d="M176.53,81.08v10.697h-3.964V65.434h4.493c2.203,0,3.868,0.153,4.991,0.46
				c1.136,0.308,2.132,0.888,2.995,1.739c1.509,1.48,2.265,3.345,2.265,5.597c0,2.412-0.805,4.324-2.417,5.733
				c-1.613,1.41-3.787,2.117-6.521,2.117H176.53z M176.53,77.395h1.482c3.646,0,5.468-1.405,5.468-4.214
				c0-2.72-1.88-4.081-5.639-4.081h-1.312V77.395z"/>
			<path fill="#967964" d="M205.211,69.171h-10.542V75.5h10.233v3.737h-10.233v8.806h10.542v3.734h-14.512V65.434h14.512V69.171z"/>
			<path fill="#967964" d="M209.722,91.777V63.642l19.174,20.099V65.434h3.969v27.951l-19.173-20.051v18.444H209.722z"/>
			<path fill="#967964" d="M263.045,69.171h-10.54V75.5h10.234v3.737h-10.234v8.806h10.54v3.734h-14.509V65.434h14.509V69.171z"/>
			<path fill="#967964" d="M267.558,91.777V65.434h5.52c2.643,0,4.732,0.261,6.266,0.784c1.644,0.511,3.136,1.38,4.478,2.612
				c2.713,2.479,4.071,5.738,4.071,9.777c0,4.049-1.414,7.326-4.241,9.826c-1.418,1.253-2.904,2.124-4.46,2.612
				c-1.455,0.49-3.519,0.732-6.183,0.732H267.558z M271.524,88.043h1.79c1.783,0,3.265-0.189,4.445-0.563
				c1.182-0.399,2.247-1.031,3.202-1.896c1.953-1.785,2.932-4.113,2.932-6.978c0-2.891-0.969-5.233-2.897-7.031
				c-1.739-1.604-4.299-2.405-7.681-2.405h-1.79V88.043z"/>
			<path fill="#967964" d="M296.153,65.434V81.29c0,2.263,0.367,3.918,1.106,4.963c1.1,1.512,2.65,2.267,4.649,2.267
				c2.009,0,3.565-0.755,4.666-2.267c0.736-1.013,1.106-2.667,1.106-4.963V65.434h3.969v16.959c0,2.778-0.864,5.063-2.588,6.861
				c-1.943,2.001-4.326,3.004-7.153,3.004s-5.207-1.003-7.137-3.004c-1.724-1.798-2.588-4.083-2.588-6.861V65.434H296.153z"/>
			<path fill="#967964" d="M336.687,66.841v4.7c-2.296-1.922-4.669-2.883-7.122-2.883c-2.703,0-4.981,0.974-6.828,2.918
				c-1.863,1.934-2.792,4.3-2.792,7.096c0,2.765,0.93,5.1,2.792,6.998c1.86,1.9,4.143,2.85,6.845,2.85
				c1.396,0,2.586-0.226,3.56-0.683c0.545-0.225,1.111-0.535,1.693-0.921c0.585-0.386,1.2-0.853,1.852-1.398v4.802
				c-2.274,1.292-4.658,1.939-7.157,1.939c-3.757,0-6.965-1.315-9.62-3.945c-2.647-2.649-3.968-5.846-3.968-9.588
				c0-3.355,1.106-6.348,3.323-8.976c2.72-3.219,6.248-4.829,10.575-4.829C332.198,64.92,334.482,65.56,336.687,66.841z"/>
			<path fill="#967964" d="M357.07,85.379h-11.257l-2.928,6.398h-4.274l13.01-28l12.553,28h-4.341L357.07,85.379z M355.45,81.644
				l-3.897-8.96l-4.086,8.96H355.45z"/>
			<path fill="#967964" d="M372.553,69.171v22.606h-3.972V69.171h-6.043v-3.737h16.042v3.737H372.553z"/>
			<path fill="#967964" d="M385.389,65.434v26.344h-3.965V65.434H385.389z"/>
			<path fill="#967964" d="M389.699,78.486c0-3.708,1.361-6.894,4.074-9.556c2.699-2.663,5.949-3.993,9.741-3.993
				c3.746,0,6.957,1.342,9.638,4.028c2.689,2.685,4.035,5.91,4.035,9.673c0,3.789-1.354,7.003-4.053,9.642
				c-2.712,2.65-5.987,3.978-9.825,3.978c-3.396,0-6.446-1.18-9.149-3.534C391.191,86.121,389.699,82.705,389.699,78.486z
				 M393.702,78.528c0,2.909,0.978,5.303,2.927,7.179c1.944,1.875,4.185,2.812,6.731,2.812c2.753,0,5.082-0.956,6.98-2.864
				c1.898-1.932,2.845-4.285,2.845-7.058c0-2.809-0.937-5.161-2.813-7.059c-1.859-1.909-4.163-2.865-6.912-2.865
				c-2.735,0-5.047,0.956-6.931,2.865C394.646,73.427,393.702,75.757,393.702,78.528z"/>
			<path fill="#967964" d="M421.481,91.777V63.642l19.174,20.099V65.434h3.966v27.951l-19.176-20.051v18.444H421.481z"/>
		</g>
	</g>
	<g>
		<g>
			<path fill="#967964" d="M157.356,100.667v3.614c-1.768-1.48-3.587-2.218-5.475-2.218c-2.078,0-3.831,0.748-5.253,2.245
				c-1.432,1.487-2.146,3.307-2.146,5.458c0,2.126,0.714,3.921,2.146,5.384c1.431,1.46,3.187,2.19,5.267,2.19
				c1.073,0,1.985-0.177,2.738-0.526c0.416-0.174,0.854-0.411,1.303-0.708c0.45-0.297,0.921-0.656,1.421-1.076v3.694
				c-1.747,0.993-3.581,1.489-5.502,1.489c-2.887,0-5.357-1.012-7.397-3.031c-2.038-2.041-3.056-4.497-3.056-7.376
				c0-2.581,0.853-4.88,2.556-6.904c2.096-2.474,4.805-3.713,8.135-3.713C153.908,99.189,155.661,99.681,157.356,100.667z"/>
			<path fill="#967964" d="M173.477,109.623c0-2.853,1.048-5.302,3.132-7.349c2.078-2.048,4.574-3.072,7.494-3.072
				c2.881,0,5.352,1.034,7.411,3.098c2.069,2.064,3.107,4.544,3.107,7.441c0,2.913-1.042,5.384-3.118,7.414
				c-2.086,2.038-4.604,3.058-7.557,3.058c-2.609,0-4.954-0.906-7.033-2.718C174.623,115.496,173.477,112.869,173.477,109.623z
				 M176.559,109.655c0,2.238,0.75,4.079,2.251,5.521c1.495,1.444,3.218,2.164,5.177,2.164c2.119,0,3.909-0.735,5.367-2.202
				c1.46-1.486,2.188-3.296,2.188-5.43c0-2.16-0.721-3.969-2.161-5.43c-1.433-1.467-3.207-2.201-5.315-2.201
				c-2.109,0-3.885,0.734-5.333,2.201C177.28,105.731,176.559,107.524,176.559,109.655z"/>
			<path fill="#967964" d="M211.87,119.846V98.207l14.748,15.458V99.583h3.053v21.499l-14.752-15.423v14.187H211.87z"/>
			<path fill="#967964" d="M259.364,102.587l-2.478,1.47c-0.461-0.804-0.905-1.328-1.325-1.573c-0.433-0.281-0.999-0.42-1.687-0.42
				c-0.849,0-1.55,0.242-2.109,0.722c-0.558,0.474-0.84,1.067-0.84,1.785c0,0.991,0.733,1.787,2.204,2.393l2.016,0.824
				c1.641,0.669,2.841,1.479,3.601,2.439c0.759,0.958,1.142,2.133,1.142,3.527c0,1.864-0.623,3.405-1.864,4.622
				c-1.249,1.225-2.796,1.839-4.646,1.839c-1.758,0-3.205-0.523-4.35-1.567c-1.129-1.045-1.832-2.516-2.112-4.401l3.093-0.686
				c0.14,1.19,0.383,2.013,0.732,2.469c0.628,0.872,1.547,1.312,2.751,1.312c0.951,0,1.745-0.32,2.37-0.957
				c0.631-0.639,0.944-1.45,0.944-2.427c0-0.395-0.051-0.754-0.164-1.082c-0.107-0.329-0.281-0.631-0.513-0.906
				c-0.23-0.276-0.528-0.535-0.892-0.773c-0.371-0.24-0.808-0.472-1.311-0.69l-1.953-0.812c-2.769-1.17-4.15-2.886-4.15-5.141
				c0-1.522,0.576-2.795,1.742-3.816c1.162-1.032,2.604-1.549,4.332-1.549C256.231,99.189,258.052,100.323,259.364,102.587z"/>
			<path fill="#967964" d="M275.972,109.623c0-2.853,1.04-5.302,3.129-7.349c2.075-2.048,4.576-3.072,7.493-3.072
				c2.883,0,5.35,1.034,7.411,3.098c2.068,2.064,3.104,4.544,3.104,7.441c0,2.913-1.04,5.384-3.114,7.414
				c-2.09,2.038-4.607,3.058-7.561,3.058c-2.613,0-4.954-0.906-7.035-2.718C277.112,115.496,275.972,112.869,275.972,109.623z
				 M279.045,109.655c0,2.238,0.757,4.079,2.255,5.521c1.496,1.444,3.22,2.164,5.174,2.164c2.123,0,3.913-0.735,5.373-2.202
				c1.454-1.486,2.186-3.296,2.186-5.43c0-2.16-0.722-3.969-2.162-5.43c-1.434-1.467-3.206-2.201-5.318-2.201
				c-2.106,0-3.883,0.734-5.332,2.201C279.771,105.731,279.045,107.524,279.045,109.655z"/>
			<path fill="#967964" d="M321.21,111.211l6.263,8.635h-3.733l-5.777-8.294h-0.551v8.294h-3.053V99.583h3.577
				c2.672,0,4.6,0.501,5.79,1.509c1.308,1.121,1.964,2.598,1.964,4.436c0,1.435-0.409,2.669-1.232,3.7
				C323.637,110.265,322.558,110.92,321.21,111.211z M317.412,108.889h0.969c2.893,0,4.336-1.106,4.336-3.32
				c0-2.075-1.406-3.109-4.216-3.109h-1.089V108.889z"/>
			<path fill="#967964" d="M349.267,102.459v17.387h-3.052v-17.387h-4.649v-2.875h12.336v2.875H349.267z"/>
			<path fill="#967964" d="M373.091,99.583v20.262h-3.053V99.583H373.091z"/>
			<path fill="#967964" d="M394.414,99.583v12.197c0,1.738,0.285,3.013,0.854,3.817c0.845,1.161,2.036,1.743,3.572,1.743
				c1.548,0,2.746-0.582,3.587-1.743c0.57-0.779,0.855-2.05,0.855-3.817V99.583h3.048v13.044c0,2.135-0.664,3.895-1.988,5.278
				c-1.491,1.538-3.327,2.308-5.502,2.308c-2.175,0-4.003-0.77-5.488-2.308c-1.326-1.384-1.988-3.143-1.988-5.278V99.583H394.414z"
				/>
			<path fill="#967964" d="M423.885,119.846l4.257-21.787l6.943,15.751l7.188-15.751l3.827,21.787h-3.132l-1.954-12.231
				l-5.984,13.165l-5.815-13.178l-2.176,12.244H423.885z"/>
		</g>
	</g>
	<g>
		<g>
			<path fill="#967964" d="M50.209,150.082v9.431h-1.656v-9.431H46.03v-1.56h6.692v1.56H50.209z"/>
			<path fill="#967964" d="M57.534,147.489h1.597v5.667c0.571-0.513,1.196-0.77,1.884-0.77c0.781,0,1.408,0.255,1.875,0.763
				c0.399,0.441,0.597,1.146,0.597,2.113v4.25h-1.599v-4.1c0-0.556-0.098-0.956-0.295-1.207c-0.196-0.249-0.514-0.374-0.948-0.374
				c-0.559,0-0.951,0.174-1.179,0.52c-0.223,0.353-0.335,0.954-0.335,1.81v3.351h-1.597V147.489z"/>
			<path fill="#967964" d="M75.452,156.423h-4.959c0.042,0.571,0.227,1.024,0.554,1.362c0.328,0.331,0.746,0.497,1.26,0.497
				c0.395,0,0.725-0.094,0.986-0.283c0.255-0.191,0.547-0.541,0.875-1.055l1.35,0.754c-0.209,0.355-0.429,0.66-0.661,0.915
				c-0.231,0.254-0.482,0.462-0.746,0.627c-0.266,0.162-0.551,0.283-0.861,0.359c-0.309,0.074-0.641,0.114-1.002,0.114
				c-1.031,0-1.859-0.333-2.486-0.997c-0.626-0.669-0.938-1.557-0.938-2.662c0-1.097,0.304-1.984,0.909-2.663
				c0.611-0.668,1.423-1.004,2.431-1.004c1.018,0,1.824,0.327,2.416,0.976c0.587,0.647,0.881,1.542,0.881,2.685L75.452,156.423z
				 M73.812,155.114c-0.224-0.854-0.76-1.282-1.615-1.282c-0.194,0-0.376,0.031-0.546,0.09c-0.171,0.059-0.327,0.143-0.466,0.256
				c-0.138,0.11-0.258,0.244-0.357,0.402c-0.101,0.155-0.177,0.335-0.229,0.533H73.812z"/>
			<path fill="#967964" d="M94.914,153.79h4.532v0.362c0,0.826-0.097,1.558-0.291,2.192c-0.191,0.59-0.509,1.14-0.959,1.654
				c-1.018,1.148-2.313,1.722-3.887,1.722c-1.533,0-2.848-0.555-3.94-1.667c-1.096-1.114-1.642-2.452-1.642-4.014
				c0-1.597,0.555-2.949,1.669-4.06c1.113-1.112,2.466-1.672,4.062-1.672c0.86,0,1.659,0.176,2.404,0.526
				c0.709,0.349,1.41,0.917,2.098,1.704l-1.183,1.13c-0.9-1.2-1.996-1.802-3.29-1.802c-1.16,0-2.134,0.403-2.919,1.204
				c-0.785,0.788-1.178,1.776-1.178,2.962c0,1.223,0.438,2.232,1.312,3.025c0.821,0.735,1.709,1.104,2.666,1.104
				c0.813,0,1.545-0.275,2.195-0.824c0.647-0.553,1.013-1.217,1.088-1.989h-2.736V153.79z"/>
			<path fill="#967964" d="M106.458,147.489v12.023h-1.6v-12.023H106.458z"/>
			<path fill="#967964" d="M111.794,155.997c0-1.001,0.357-1.853,1.071-2.555c0.718-0.703,1.589-1.055,2.616-1.055
				c1.033,0,1.909,0.356,2.628,1.062c0.713,0.708,1.067,1.575,1.067,2.605c0,1.04-0.357,1.91-1.075,2.611
				c-0.72,0.7-1.601,1.048-2.648,1.048c-1.037,0-1.907-0.355-2.608-1.068C112.143,157.943,111.794,157.06,111.794,155.997z
				 M113.428,156.025c0,0.693,0.183,1.242,0.555,1.646c0.379,0.407,0.877,0.611,1.499,0.611c0.625,0,1.124-0.2,1.5-0.604
				c0.375-0.404,0.562-0.941,0.562-1.617c0-0.673-0.187-1.212-0.562-1.615c-0.378-0.41-0.877-0.614-1.5-0.614
				c-0.61,0-1.106,0.204-1.485,0.614C113.618,154.854,113.428,155.378,113.428,156.025z"/>
			<path fill="#967964" d="M126.102,147.489v5.896c0.641-0.665,1.367-0.999,2.174-0.999c0.933,0,1.71,0.351,2.331,1.046
				c0.621,0.693,0.932,1.559,0.932,2.592c0,1.069-0.314,1.951-0.938,2.648c-0.622,0.693-1.406,1.04-2.353,1.04
				c-0.8,0-1.517-0.308-2.146-0.926v0.725h-1.597v-12.023H126.102z M129.904,156.096c0-0.663-0.18-1.207-0.54-1.623
				c-0.364-0.428-0.821-0.642-1.372-0.642c-0.586,0-1.065,0.208-1.433,0.621c-0.366,0.408-0.548,0.94-0.548,1.594
				c0,0.673,0.18,1.212,0.541,1.616c0.359,0.414,0.833,0.619,1.421,0.619c0.553,0,1.013-0.206,1.377-0.619
				C129.719,157.246,129.904,156.723,129.904,156.096z"/>
			<path fill="#967964" d="M141.969,152.579h1.608v6.934h-1.608v-0.725c-0.658,0.618-1.366,0.926-2.125,0.926
				c-0.956,0-1.747-0.347-2.373-1.04c-0.619-0.706-0.931-1.589-0.931-2.648c0-1.038,0.312-1.906,0.931-2.599
				c0.619-0.692,1.397-1.039,2.332-1.039c0.803,0,1.527,0.333,2.165,0.999V152.579z M138.176,156.025
				c0,0.667,0.177,1.207,0.533,1.623c0.364,0.423,0.823,0.634,1.377,0.634c0.592,0,1.072-0.204,1.436-0.611
				c0.364-0.423,0.546-0.959,0.546-1.61c0-0.65-0.182-1.187-0.546-1.607c-0.364-0.413-0.839-0.621-1.422-0.621
				c-0.548,0-1.01,0.208-1.377,0.627C138.358,154.882,138.176,155.403,138.176,156.025z"/>
			<path fill="#967964" d="M150.829,147.489v12.023h-1.598v-12.023H150.829z"/>
			<path fill="#967964" d="M164.924,159.513v-11.739l8.002,8.388v-7.64h1.654v11.662l-7.999-8.365v7.694H164.924z"/>
			<path fill="#967964" d="M187.009,156.423h-4.961c0.043,0.571,0.229,1.024,0.556,1.362c0.325,0.331,0.745,0.497,1.254,0.497
				c0.4,0,0.729-0.094,0.99-0.283c0.256-0.191,0.546-0.541,0.874-1.055l1.349,0.754c-0.208,0.355-0.428,0.66-0.661,0.915
				c-0.23,0.254-0.479,0.462-0.745,0.627c-0.265,0.162-0.551,0.283-0.858,0.359c-0.309,0.074-0.643,0.114-1.003,0.114
				c-1.034,0-1.861-0.333-2.488-0.997c-0.625-0.669-0.937-1.557-0.937-2.662c0-1.097,0.304-1.984,0.909-2.663
				c0.61-0.668,1.422-1.004,2.43-1.004c1.019,0,1.824,0.327,2.417,0.976c0.586,0.647,0.879,1.542,0.879,2.685L187.009,156.423z
				 M185.367,155.114c-0.225-0.854-0.761-1.282-1.613-1.282c-0.194,0-0.379,0.031-0.548,0.09c-0.169,0.059-0.326,0.143-0.465,0.256
				c-0.141,0.11-0.26,0.244-0.359,0.402c-0.098,0.155-0.175,0.335-0.226,0.533H185.367z"/>
			<path fill="#967964" d="M194.168,154.075v5.438h-1.599v-5.438h-0.68v-1.496h0.68v-2.542h1.599v2.542h1.244v1.496H194.168z"/>
			<path fill="#967964" d="M201.002,152.579l1.812,3.959l1.957-4.592l1.967,4.592l1.79-3.959h1.79l-3.621,7.454l-1.926-4.463
				l-1.949,4.463l-3.617-7.454H201.002z"/>
			<path fill="#967964" d="M214.447,155.997c0-1.001,0.357-1.853,1.072-2.555c0.714-0.703,1.589-1.055,2.616-1.055
				c1.03,0,1.909,0.356,2.628,1.062c0.708,0.708,1.066,1.575,1.066,2.605c0,1.04-0.357,1.91-1.072,2.611
				c-0.721,0.7-1.606,1.048-2.651,1.048c-1.037,0-1.908-0.355-2.609-1.068C214.797,157.943,214.447,157.06,214.447,155.997z
				 M216.081,156.025c0,0.693,0.183,1.242,0.555,1.646c0.378,0.407,0.878,0.611,1.5,0.611c0.625,0,1.123-0.2,1.498-0.604
				c0.375-0.404,0.562-0.941,0.562-1.617c0-0.673-0.187-1.212-0.562-1.615c-0.377-0.41-0.878-0.614-1.498-0.614
				c-0.611,0-1.108,0.204-1.484,0.614C216.272,154.854,216.081,155.378,216.081,156.025z"/>
			<path fill="#967964" d="M227.159,152.579h1.595v0.621c0.295-0.31,0.555-0.521,0.784-0.635c0.233-0.117,0.506-0.178,0.823-0.178
				c0.424,0,0.864,0.139,1.322,0.415l-0.733,1.465c-0.301-0.219-0.595-0.327-0.887-0.327c-0.871,0-1.308,0.659-1.308,1.978v3.594
				h-1.595V152.579z"/>
			<path fill="#967964" d="M238.055,147.489v7.333l2.251-2.243h2.149l-3.005,2.913l3.226,4.021h-2.075l-2.29-2.925l-0.257,0.256
				v2.669h-1.599v-12.023H238.055z"/>
			<path fill="#967964" d="M257.126,154.075v5.438h-1.606v-5.438h-0.569v-1.496h0.569v-2.676c0-0.874,0.152-1.491,0.454-1.852
				c0.417-0.503,1.023-0.754,1.822-0.754c0.281,0,0.642,0.084,1.072,0.25v1.638l-0.163-0.086c-0.347-0.174-0.632-0.264-0.853-0.264
				c-0.285,0-0.476,0.102-0.577,0.306c-0.102,0.199-0.149,0.584-0.149,1.153v2.285h1.742v1.496H257.126z"/>
			<path fill="#967964" d="M263.277,155.997c0-1.001,0.357-1.853,1.076-2.555c0.714-0.703,1.584-1.055,2.612-1.055
				c1.033,0,1.911,0.356,2.629,1.062c0.712,0.708,1.065,1.575,1.065,2.605c0,1.04-0.356,1.91-1.072,2.611
				c-0.72,0.7-1.603,1.048-2.65,1.048c-1.037,0-1.904-0.355-2.608-1.068C263.628,157.943,263.277,157.06,263.277,155.997z
				 M264.916,156.025c0,0.693,0.183,1.242,0.551,1.646c0.378,0.407,0.881,0.611,1.499,0.611c0.627,0,1.127-0.2,1.499-0.604
				c0.378-0.404,0.562-0.941,0.562-1.617c0-0.673-0.184-1.212-0.562-1.615c-0.379-0.41-0.877-0.614-1.499-0.614
				c-0.611,0-1.107,0.204-1.485,0.614C265.103,154.854,264.916,155.378,264.916,156.025z"/>
			<path fill="#967964" d="M275.989,152.579h1.6v0.621c0.295-0.31,0.554-0.521,0.783-0.635c0.232-0.117,0.506-0.178,0.823-0.178
				c0.423,0,0.863,0.139,1.322,0.415l-0.731,1.465c-0.303-0.219-0.601-0.327-0.889-0.327c-0.872,0-1.308,0.659-1.308,1.978v3.594
				h-1.6V152.579z"/>
			<path fill="#967964" d="M292.958,153.969c0-1.548,0.565-2.878,1.696-3.989c1.127-1.109,2.483-1.665,4.066-1.665
				c1.562,0,2.905,0.56,4.021,1.682c1.121,1.119,1.683,2.464,1.683,4.036c0,1.579-0.562,2.921-1.689,4.021
				c-1.135,1.106-2.498,1.66-4.102,1.66c-1.415,0-2.685-0.493-3.816-1.474C293.578,157.151,292.958,155.729,292.958,153.969z
				 M294.626,153.987c0,1.214,0.406,2.211,1.221,2.992c0.812,0.783,1.75,1.175,2.808,1.175c1.151,0,2.124-0.398,2.914-1.194
				c0.79-0.807,1.187-1.789,1.187-2.944c0-1.173-0.393-2.155-1.173-2.945c-0.778-0.798-1.739-1.197-2.883-1.197
				c-1.142,0-2.106,0.399-2.893,1.197C295.022,151.856,294.626,152.829,294.626,153.987z"/>
			<path fill="#967964" d="M311.438,163.287h-1.599v-10.708h1.599v0.754c0.628-0.63,1.343-0.947,2.144-0.947
				c0.954,0,1.739,0.352,2.353,1.055c0.625,0.697,0.937,1.578,0.937,2.642c0,1.038-0.309,1.904-0.929,2.596
				c-0.614,0.688-1.392,1.034-2.328,1.034c-0.812,0-1.537-0.326-2.176-0.977V163.287z M315.237,156.091
				c0-0.665-0.177-1.208-0.537-1.624c-0.365-0.423-0.826-0.635-1.382-0.635c-0.586,0-1.062,0.204-1.426,0.614
				c-0.364,0.408-0.548,0.945-0.548,1.608c0,0.65,0.184,1.185,0.548,1.608c0.356,0.414,0.833,0.619,1.419,0.619
				c0.555,0,1.013-0.206,1.374-0.627C315.053,157.239,315.237,156.716,315.237,156.091z"/>
			<path fill="#967964" d="M328.504,156.423h-4.961c0.045,0.571,0.229,1.024,0.555,1.362c0.327,0.331,0.746,0.497,1.26,0.497
				c0.396,0,0.725-0.094,0.984-0.283c0.257-0.191,0.548-0.541,0.875-1.055l1.35,0.754c-0.208,0.355-0.427,0.66-0.659,0.915
				c-0.233,0.254-0.482,0.462-0.745,0.627c-0.268,0.162-0.553,0.283-0.861,0.359c-0.31,0.074-0.643,0.114-1.003,0.114
				c-1.03,0-1.86-0.333-2.488-0.997c-0.624-0.669-0.937-1.557-0.937-2.662c0-1.097,0.302-1.984,0.91-2.663
				c0.61-0.668,1.422-1.004,2.427-1.004c1.021,0,1.826,0.327,2.418,0.976c0.585,0.647,0.881,1.542,0.881,2.685L328.504,156.423z
				 M326.862,155.114c-0.222-0.854-0.76-1.282-1.613-1.282c-0.194,0-0.377,0.031-0.548,0.09c-0.17,0.059-0.327,0.143-0.465,0.256
				c-0.139,0.11-0.259,0.244-0.361,0.402c-0.096,0.155-0.173,0.335-0.226,0.533H326.862z"/>
			<path fill="#967964" d="M333.888,152.579h1.606v0.642c0.559-0.555,1.19-0.834,1.891-0.834c0.806,0,1.433,0.255,1.88,0.763
				c0.392,0.432,0.587,1.137,0.587,2.113v4.25h-1.606v-3.867c0-0.683-0.097-1.155-0.285-1.416c-0.188-0.265-0.52-0.398-1.01-0.398
				c-0.53,0-0.906,0.174-1.13,0.527c-0.215,0.346-0.326,0.95-0.326,1.813v3.341h-1.606V152.579z"/>
			<path fill="#967964" d="M359.995,150.082h-4.399v2.642h4.271v1.558h-4.271v3.674h4.399v1.558h-6.058v-10.991h6.058V150.082z"/>
			<path fill="#967964" d="M370.6,147.489h1.607v12.023H370.6v-0.725c-0.63,0.618-1.342,0.926-2.137,0.926
				c-0.95,0-1.735-0.347-2.358-1.04c-0.621-0.706-0.93-1.589-0.93-2.648c0-1.033,0.309-1.898,0.93-2.592
				c0.613-0.695,1.392-1.046,2.324-1.046c0.809,0,1.534,0.333,2.171,0.999V147.489z M366.808,156.025
				c0,0.667,0.177,1.207,0.532,1.623c0.363,0.423,0.826,0.634,1.376,0.634c0.594,0,1.072-0.204,1.436-0.611
				c0.365-0.423,0.549-0.959,0.549-1.61c0-0.65-0.184-1.187-0.549-1.607c-0.364-0.413-0.839-0.621-1.419-0.621
				c-0.551,0-1.009,0.208-1.38,0.627C366.989,154.882,366.808,155.403,366.808,156.025z"/>
			<path fill="#967964" d="M379.461,152.579v3.979c0,1.151,0.45,1.724,1.356,1.724s1.356-0.573,1.356-1.724v-3.979h1.6v4.016
				c0,0.555-0.07,1.033-0.208,1.438c-0.133,0.36-0.362,0.687-0.687,0.974c-0.542,0.471-1.229,0.706-2.062,0.706
				c-0.83,0-1.513-0.235-2.053-0.706c-0.333-0.287-0.567-0.614-0.706-0.974c-0.131-0.323-0.198-0.801-0.198-1.438v-4.016H379.461z"
				/>
			<path fill="#967964" d="M394.812,152.88v2.128c-0.364-0.448-0.69-0.751-0.979-0.919c-0.285-0.17-0.617-0.256-1.003-0.256
				c-0.6,0-1.099,0.211-1.498,0.635c-0.396,0.421-0.597,0.953-0.597,1.587c0,0.65,0.19,1.185,0.575,1.6
				c0.389,0.421,0.885,0.627,1.485,0.627c0.383,0,0.722-0.083,1.017-0.249c0.285-0.162,0.618-0.476,0.999-0.939v2.115
				c-0.649,0.334-1.297,0.504-1.947,0.504c-1.068,0-1.962-0.347-2.685-1.04c-0.717-0.697-1.079-1.564-1.079-2.597
				c0-1.035,0.364-1.91,1.093-2.621c0.731-0.71,1.627-1.068,2.688-1.068C393.564,152.387,394.208,152.551,394.812,152.88z"/>
			<path fill="#967964" d="M405.102,152.579h1.607v6.934h-1.607v-0.725c-0.658,0.618-1.366,0.926-2.122,0.926
				c-0.958,0-1.748-0.347-2.377-1.04c-0.617-0.706-0.929-1.589-0.929-2.648c0-1.038,0.312-1.906,0.929-2.599
				c0.622-0.692,1.399-1.039,2.331-1.039c0.805,0,1.531,0.333,2.168,0.999V152.579z M401.307,156.025
				c0,0.667,0.18,1.207,0.535,1.623c0.364,0.423,0.826,0.634,1.377,0.634c0.594,0,1.072-0.204,1.436-0.611
				c0.365-0.423,0.549-0.959,0.549-1.61c0-0.65-0.184-1.187-0.549-1.607c-0.364-0.413-0.839-0.621-1.422-0.621
				c-0.547,0-1.01,0.208-1.376,0.627C401.491,154.882,401.307,155.403,401.307,156.025z"/>
			<path fill="#967964" d="M414.011,154.075v5.438h-1.598v-5.438h-0.684v-1.496h0.684v-2.542h1.598v2.542h1.242v1.496H414.011z"/>
			<path fill="#967964" d="M419.739,149.696c0-0.28,0.101-0.522,0.306-0.727c0.201-0.203,0.447-0.304,0.729-0.304
				c0.291,0,0.537,0.101,0.743,0.304c0.2,0.202,0.305,0.445,0.305,0.735c0,0.288-0.105,0.536-0.305,0.741
				c-0.202,0.203-0.445,0.303-0.736,0.303c-0.288,0-0.534-0.101-0.735-0.303C419.84,150.24,419.739,149.992,419.739,149.696z
				 M421.578,152.579v6.934h-1.6v-6.934H421.578z"/>
			<path fill="#967964" d="M426.913,155.997c0-1.001,0.358-1.853,1.073-2.555c0.718-0.703,1.589-1.055,2.616-1.055
				c1.034,0,1.908,0.356,2.63,1.062c0.711,0.708,1.065,1.575,1.065,2.605c0,1.04-0.357,1.91-1.073,2.611
				c-0.721,0.7-1.603,1.048-2.65,1.048c-1.037,0-1.908-0.355-2.609-1.068C427.265,157.943,426.913,157.06,426.913,155.997z
				 M428.548,156.025c0,0.693,0.187,1.242,0.555,1.646c0.379,0.407,0.878,0.611,1.499,0.611c0.624,0,1.125-0.2,1.499-0.604
				c0.375-0.404,0.562-0.941,0.562-1.617c0-0.673-0.187-1.212-0.562-1.615c-0.378-0.41-0.878-0.614-1.499-0.614
				c-0.611,0-1.107,0.204-1.485,0.614C428.739,154.854,428.548,155.378,428.548,156.025z"/>
			<path fill="#967964" d="M439.626,152.579h1.605v0.642c0.559-0.555,1.19-0.834,1.891-0.834c0.807,0,1.431,0.255,1.88,0.763
				c0.389,0.432,0.583,1.137,0.583,2.113v4.25h-1.606v-3.867c0-0.683-0.094-1.155-0.285-1.416c-0.185-0.265-0.521-0.398-1.006-0.398
				c-0.531,0-0.91,0.174-1.131,0.527c-0.219,0.346-0.327,0.95-0.327,1.813v3.341h-1.605V152.579z"/>
		</g>
	</g>
</g>
</svg>
