<?xml version="1.0" encoding="utf-8"?>
<!-- Generator: Adobe Illustrator 15.0.0, SVG Export Plug-In . SVG Version: 6.00 Build 0)  -->
<!DOCTYPE svg PUBLIC "-//W3C//DTD SVG 1.1//EN" "http://www.w3.org/Graphics/SVG/1.1/DTD/svg11.dtd">
<svg version="1.1" id="Layer_1" xmlns="http://www.w3.org/2000/svg" xmlns:xlink="http://www.w3.org/1999/xlink" x="0px" y="0px"
	 width="209px" height="100px" viewBox="0 0 209 100" enable-background="new 0 0 209 100" xml:space="preserve">
<g>
	<path fill="#C4AD97" d="M33.667,24.785c-0.006-0.002-0.017-0.004-0.021-0.006c0.27,0.057,0.27,0.057,0.495,0.154l-0.092-0.036
		C33.934,24.858,33.858,24.834,33.667,24.785"/>
	<path fill="#C4AD97" d="M29.389,23.541c-0.058-0.01-0.137-0.02-0.196-0.03c0.285,0.047,0.666,0.104,0.948,0.159l0.281,0.058
		c0.623,0.153,1.33,0.328,2.733,0.884C32.654,24.417,31.129,23.828,29.389,23.541 M23.899,23.946
		c-0.014,0.004-0.033,0.009-0.047,0.013c2.093-0.616,2.184-0.616,3.046-0.62l0.276,0.004h-0.071
		C26.539,23.37,25.715,23.46,23.899,23.946"/>
	<path fill="#C4AD97" d="M20.738,24.349c-0.007,0.001-0.017,0.006-0.025,0.008c0.202-0.066,0.47-0.155,0.674-0.221l0.02-0.004
		c0.261-0.037,0.261-0.037,1.753-0.06C22.632,24.097,21.393,24.154,20.738,24.349"/>
	<path fill="#C4AD97" d="M37.322,26.766c0.593,0.455,1.944,1.561,1.954,1.57c-1.331-1.15-1.382-1.196-2.304-1.828l-0.052-0.034
		C36.991,26.521,37.094,26.592,37.322,26.766"/>
	<path fill="#775A49" d="M33.731,24.86c-0.053-0.023-0.124-0.051-0.176-0.073c1.392,0.526,4.883,2.101,7.564,5.643
		c2.436,3.221,3.541,6.189,3.924,9.869c-0.457-4.388-2.423-6.407-4.031-6.804c-1.118-0.276-2.144,0.121-3.543,0.383
		c5.651-2.141,0.343-7.019-2.92-8.639C34.482,25.205,34.134,25.032,33.731,24.86 M33.38,24.716L33.38,24.716
		c0.052,0.019,0.105,0.039,0.158,0.06C33.483,24.761,33.432,24.736,33.38,24.716"/>
	<path fill="#C4AD97" d="M27.812,24.205c0.403,0.579,2.552,0.857,2.705,0.35c0.083-0.277-0.647-0.676-1.72-0.774
		C27.88,23.726,27.644,23.962,27.812,24.205"/>
	<path fill="#C4AD97" d="M23.635,24.085c-0.045,0-0.105,0.002-0.151,0.003c0.681-0.073,4.185-0.333,6.289,1.644
		c0.804-1.767,3.562-1.017,3.874-0.925c-1.859-0.425-2.778,1.014-1.228,3.576c1.176,1.94,4.505,4.983,5.052,5.494
		c-5.389-4.221-6.636-5.494-7.202-6.201c-0.325,0.664-1.449,2.203-6.754,5.248c5.746-3.869,5.848-7.748,1.852-8.658
		C25.122,24.211,24.462,24.083,23.635,24.085 M23.352,24.094L23.352,24.094c0.045-0.005,0.089-0.008,0.134-0.013
		C23.446,24.09,23.446,24.09,23.352,24.094"/>
	<path fill="#775A49" d="M16.889,26.596c-0.148,0.216-0.072,0.322,0.204,0.283c0.849-0.122,2.564-1.367,2.213-1.605
		c-0.138-0.096-0.562,0.081-0.72,0.146C17.742,25.801,17.092,26.299,16.889,26.596"/>
	<path fill="#775A49" d="M14.708,27.826l0.062-0.053l0.007-0.006c0.076-0.062,1.867-1.496,2.366,0.019
		c1.908-2.494,5.167-3.443,6.48-3.735c-4.272,1.174-7.521,4.845-3.247,7.506c0.733,0.456,2.156,1.152,3.01,1.414
		c-5.443-1.212-6.397-2.539-6.706-3.085c-1.433,2.708-3.575,5.522-5.144,8.134c2.717-5.346,3.184-6.218,3.576-7.436
		c1.068-3.318-0.123-2.927-0.136-2.924C14.859,27.703,14.745,27.795,14.708,27.826"/>
	<path fill="#C4AD97" d="M8.586,47.168c-1.347-5.592-0.213-8.948,0.364-10.929C8.835,37,8.578,38.417,11.223,38.07
		c-3.981-0.413-0.589-5.537,0.545-7.098l-0.099,0.133c-0.904,1.325-1.175,1.726-2.051,3.485c-0.678,1.626-0.684,2.062-1.157,3.852
		C8.024,40.328,8.31,45.08,8.586,47.168c0,0-0.285-2.632-0.288-2.69"/>
	<path fill="#775A49" d="M41.322,37.351c0.048,1.507,1.101,2.912,1.706,2.274c0.532-0.56,0.258-2.462-0.673-3.3
		C41.601,35.776,41.297,36.595,41.322,37.351"/>
	<path fill="#775A49" d="M37.518,33.951C37.464,33.902,37.589,33.951,37.518,33.951c0.323,0,4.147,2.365,4.368,7.624
		c1.653-2.928,2.864-1.715,3.157-1.2c-0.001-0.003,0.003,0.003,0,0c-0.106-0.091-0.884-0.691-2.308,2.739
		c-0.388,0.935-0.491,1.292-2.556,9.708c0.385-2.553,0.501-5.498,0.788-8.059c-0.574,0.74-1.817,2.274-5.943,3.702
		c8.162-4.164,5.756-11.617,2.541-14.503"/>
	<path fill="#C4AD97" d="M29.303,34.112c0.248,1.553,2.297,2.203,3.133,0.995c0.669-0.967-0.004-2.545-1.521-2.735
		C29.604,32.338,29.183,33.369,29.303,34.112"/>
	<path fill="#C4AD97" d="M23.802,33.065c-0.066-0.017-0.155-0.038-0.221-0.054c0.055-0.001,5.615,0.111,7.453,4.841
		c1.748-4.253,6.291-3.917,6.484-3.902c-2.91,0.376-7.38,4.765-2.565,14.47c-1.302-1.872-3.292-4.869-4.005-7.097
		c-0.407,0.93-1.366,2.887-5.306,6.406C32.199,40.031,28.502,34.338,23.802,33.065 M23.388,32.971h-0.002
		c0.063,0.001,0.128,0.006,0.192,0.012c-0.011,0.003-0.022,0.008-0.034,0.013C23.542,32.997,23.536,33,23.531,33
		c-0.025-0.002-0.048-0.011-0.074-0.017C23.435,32.979,23.411,32.974,23.388,32.971"/>
	<path fill="#775A49" d="M15.496,37.136c0.338,1.313,1.909,1.253,2.667-0.103c0.755-1.352-0.034-2.832-1.3-2.435
		c-0.047,0.016-0.11,0.041-0.155,0.058C15.573,35.216,15.316,36.443,15.496,37.136"/>
	<path fill="#775A49" d="M11.676,38.167c-0.042,0.002-0.097,0.01-0.139,0.015c0.031-0.02,3.537-1.693,6.051,1.855
		c0.523-4.797,4.93-6.707,5.869-7.054c-5.116,2.808-6.065,10.288,2.078,14.778c-1.356-0.522-5.152-2.124-7.002-4.417
		c-0.013,1.027-0.245,1.435-1.39,8.006C17.602,39.385,13.542,38.021,11.676,38.167"/>
	<path fill="#C4AD97" d="M8.247,45.072c0.156,0.589,0.416,0.757,0.615,0.402c0.446-0.794,0.2-3.228-0.314-3.1
		c-0.108,0.027-0.181,0.174-0.225,0.262C8.025,43.394,8.101,44.517,8.247,45.072"/>
	<path fill="#C4AD97" d="M14.719,56.214c-0.996-1.535-0.987-1.197-3.721-6.251c0.412,0.763,2.375,1.369,6.146,1.485
		c-7.896-1.45-8.077-9.383-5.749-13.241c-0.308,0.375-3.276,6.949-1.936,9.354c-0.69-1.24-0.995-1.689-0.996-1.674
		c-0.011,0.082,0.186,2.645,1.277,4.868C11.175,53.682,13.864,55.59,14.719,56.214"/>
	<path fill="#C4AD97" d="M16.876,57.114c0.402,0.347,0.634,0.354,0.55,0.018c-0.188-0.75-1.632-2.354-1.842-2.043
		c-0.045,0.066-0.006,0.201,0.02,0.28C15.851,56.031,16.496,56.786,16.876,57.114"/>
	<path fill="#C4AD97" d="M27.21,61.197c-1.316-0.113-3.271,0.047-5.396-1.477c0.591,0.426,3.705,1.203,5.81-0.335
		c-5.057,2.374-9.662-4.228-10.48-7.937c0.034,0.395-0.774,4.252,2.541,7.246c-2.068-0.802-4.209-1.286-4.201-1.278
		c0.277,0.225,0.065,0.037,0.115,0.092l0.348,0.282c0.312,0.258,2.522,1.897,4.592,2.507C23.395,61.139,26.438,61.338,27.21,61.197"
		/>
	<path fill="#C4AD97" d="M28.741,60.974c1.185-0.17,2.927-0.387,5.107-1.689c-0.61,0.362-3.989,1.216-5.546,0.172
		c4,1.492,10.42-3.607,11.875-6.502c-0.108,0.303-0.727,2.898-4.245,5.408c1.987-0.749,3.708-2.739,3.699-2.563
		c-0.008,0.133,0.054-0.044,0,0l0,0c-0.251,0.386-2.113,2.364-4.825,3.661C32.039,60.785,29.394,61.034,28.741,60.974"/>
	<path fill="#C4AD97" d="M40.177,55.196c1.014-1.021,1.53-1.515,3.317-5.41c-0.267,0.582-1.35,2.077-3.315,3.035
		c3.707-1.806,5.367-9.438,4.863-12.447c0.058,0.338,0.838,4.473-1.404,9.619C42.73,52.075,40.87,54.805,40.177,55.196"/>
	<path fill="#775A49" d="M36.631,51.229c-0.501,0.847-0.772,1.969,0.054,1.78c1.089-0.251,2.401-2.217,1.695-2.927
		C37.814,49.714,37.024,50.567,36.631,51.229"/>
	<path fill="#775A49" d="M35.027,48.583c-0.023-0.042,0,0-0.025-0.042c0.028,0.021,2.493,2.191-0.158,6.008
		c3.116-2.453,4.682-2.058,5.335-1.602c0,0.003-0.002,0.007-0.002,0.008c-1.678-0.379-4.325,1.671-6.076,3.031
		c-2.076,1.608-3.869,2.995-6.087,3.547c0.082-0.022,0.189-0.051,0.271-0.075c1.57-0.511,2.519-1.222,4.048-2.623
		c-1.424,0.925-2.96,1.659-4.319,2.698l0.08-0.064c1.299-1.011,2.708-1.857,3.958-2.939c1.343-1.162,1.964-2.041,2.169-2.367
		C35.825,51.621,35.614,49.659,35.027,48.583"/>
	<path fill="#C4AD97" d="M29.234,49.236c0.003,1.11,0.68,2.109,1.505,1.244c0.85-0.885,1.039-2.919-0.214-3.113
		C29.685,47.369,29.232,48.333,29.234,49.236"/>
	<path fill="#C4AD97" d="M25.688,47.854c-0.048-0.023,0,0-0.048-0.022c0.04,0.004,3.883,0.545,4.08,4.96
		c1.549-3.886,4.631-4.228,5.231-4.257c-3.478,1.019-4.777,5.497-5.267,7.184c-0.481,1.663-0.829,2.861-1.672,3.814
		c0.038-0.048,0.091-0.113,0.131-0.161c0.709-1.003,0.798-1.884,0.973-3.639c-1.164,3.034-1.164,3.034-1.104,3.8
		c-0.003-0.022-0.009-0.052-0.01-0.075c-0.193-2.481,1.176-4.804,0.668-7.315C28.269,50.151,27.267,48.614,25.688,47.854"/>
	<path fill="#775A49" d="M20.738,51.098c0.633,0.936,1.792,1.492,1.971,0.384c0.182-1.118-0.818-2.924-1.94-2.546
		C20.083,49.303,20.216,50.323,20.738,51.098"/>
	<path fill="#775A49" d="M17.573,51.424c-0.046-0.002-0.301,0.027-0.346,0.024c0.027-0.012,3.013-1.035,6.145,2.376
		c-1.417-3.875,1.641-5.673,2.269-5.994c-0.669,0.547-2.16,2.135-1.568,5.057c0.549,2.713,2.853,4.283,3.941,6.645
		c-0.027-0.048-0.06-0.113-0.083-0.159c-0.245-0.401-0.245-0.401-2.795-2.994c0.853,1.421,1.469,2.449,2.878,3.153l-0.098-0.044
		C23.984,57.481,22.652,51.813,17.573,51.424"/>
	<g>
		<g>
			<path fill="#C4AD97" d="M14.704,27.83l-0.041,0.036c0.036-0.031,0.07-0.062,0.107-0.093C14.75,27.791,14.724,27.813,14.704,27.83
				 M14.616,27.908L14.616,27.908c0.023-0.02,0.044-0.04,0.067-0.06C14.66,27.868,14.637,27.887,14.616,27.908"/>
			<path fill="#C4AD97" d="M11.267,32.466c-0.349,0.387-0.556,0.539-0.568,0.42c-0.054-0.508,1.79-2.881,2.013-2.589
				c0.036,0.047-0.012,0.167-0.042,0.242C12.358,31.194,11.484,32.226,11.267,32.466"/>
			<g>
				<path fill="#C4AD97" d="M12.153,33.943c-1.122-0.44-2.7-0.027-3.846,4.45c0.501-1.805,0.591-2.131,1.312-3.803
					c0.773-1.534,0.958-1.898,2.051-3.485l0.099-0.133c0.909-1.208,1.902-2.264,3.039-3.229c-2.869,2.444-4.385,5.307-4.954,6.385
					c0.395-0.634,0.993-1.594,2.319-0.176C12.167,33.951,12.158,33.947,12.153,33.943"/>
			</g>
		</g>
	</g>
	<path fill="#C4AD97" d="M29.673,60.174"/>
	<g>
		<g>
			<path fill="#967964" d="M53.284,35.003c0-1.78,0.651-3.31,1.954-4.588c1.297-1.278,2.856-1.917,4.677-1.917
				c1.799,0,3.341,0.645,4.629,1.934c1.291,1.29,1.937,2.837,1.937,4.645c0,1.819-0.649,3.362-1.945,4.629
				c-1.304,1.272-2.876,1.91-4.718,1.91c-1.63,0-3.094-0.566-4.392-1.696C53.999,38.668,53.284,37.029,53.284,35.003z
				 M55.206,35.023c0,1.396,0.468,2.546,1.406,3.446c0.932,0.9,2.01,1.351,3.229,1.351c1.324,0,2.442-0.459,3.353-1.375
				c0.909-0.928,1.365-2.058,1.365-3.389c0-1.348-0.45-2.478-1.349-3.389c-0.894-0.917-2.001-1.375-3.319-1.375
				c-1.314,0-2.423,0.459-3.327,1.375C55.657,32.574,55.206,33.693,55.206,35.023z"/>
			<path fill="#967964" d="M70.446,36.249v5.136h-1.904V28.737H70.7c1.058,0,1.857,0.073,2.396,0.221
				c0.545,0.147,1.023,0.426,1.438,0.835c0.725,0.71,1.087,1.606,1.087,2.688c0,1.158-0.386,2.076-1.161,2.752
				c-0.774,0.677-1.818,1.016-3.13,1.016H70.446z M70.446,34.479h0.711c1.75,0,2.625-0.675,2.625-2.023
				c0-1.306-0.902-1.959-2.707-1.959h-0.629V34.479z"/>
			<path fill="#967964" d="M84.216,30.531h-5.062v3.039h4.913v1.794h-4.913v4.228h5.062v1.793h-6.967V28.737h6.967V30.531z"/>
			<path fill="#967964" d="M86.381,41.384V27.876l9.206,9.649v-8.789h1.905v13.419l-9.206-9.626v8.855H86.381z"/>
			<path fill="#967964" d="M111.981,30.531h-5.06v3.039h4.914v1.794h-4.914v4.228h5.06v1.793h-6.966V28.737h6.966V30.531z"/>
			<path fill="#967964" d="M114.148,41.384V28.737h2.65c1.269,0,2.272,0.125,3.008,0.376c0.789,0.246,1.505,0.663,2.15,1.254
				c1.303,1.19,1.954,2.755,1.954,4.694c0,1.944-0.678,3.517-2.036,4.718c-0.681,0.601-1.394,1.02-2.142,1.253
				c-0.698,0.236-1.689,0.352-2.968,0.352H114.148z M116.052,39.591h0.859c0.856,0,1.567-0.091,2.134-0.271
				c0.568-0.191,1.079-0.495,1.537-0.91c0.938-0.857,1.408-1.975,1.408-3.35c0-1.388-0.465-2.513-1.391-3.375
				c-0.834-0.77-2.063-1.155-3.688-1.155h-0.859V39.591z"/>
			<path fill="#967964" d="M127.876,28.737v7.612c0,1.086,0.176,1.881,0.531,2.383c0.528,0.726,1.272,1.088,2.232,1.088
				c0.964,0,1.712-0.363,2.24-1.088c0.353-0.486,0.531-1.281,0.531-2.383v-7.612h1.905v8.142c0,1.333-0.415,2.431-1.242,3.294
				c-0.933,0.961-2.077,1.442-3.435,1.442s-2.5-0.481-3.426-1.442c-0.828-0.863-1.243-1.96-1.243-3.294v-8.142H127.876z"/>
			<path fill="#967964" d="M147.337,29.412v2.257c-1.103-0.923-2.242-1.384-3.419-1.384c-1.297,0-2.392,0.467-3.278,1.401
				c-0.895,0.929-1.341,2.064-1.341,3.407c0,1.327,0.446,2.448,1.341,3.359c0.893,0.912,1.989,1.368,3.286,1.368
				c0.67,0,1.241-0.109,1.709-0.328c0.262-0.108,0.533-0.256,0.813-0.442c0.281-0.185,0.576-0.409,0.889-0.671v2.305
				c-1.092,0.621-2.237,0.931-3.436,0.931c-1.804,0-3.344-0.631-4.619-1.894c-1.271-1.271-1.905-2.806-1.905-4.604
				c0-1.611,0.531-3.047,1.596-4.309c1.306-1.545,3-2.318,5.077-2.318C145.182,28.49,146.278,28.797,147.337,29.412z"/>
			<path fill="#967964" d="M157.123,38.313h-5.405l-1.406,3.071h-2.052l6.246-13.443l6.026,13.443h-2.084L157.123,38.313z
				 M156.345,36.519l-1.871-4.301l-1.962,4.301H156.345z"/>
			<path fill="#967964" d="M164.556,30.531v10.854h-1.907V30.531h-2.901v-1.794h7.702v1.794H164.556z"/>
			<path fill="#967964" d="M170.719,28.737v12.647h-1.904V28.737H170.719z"/>
			<path fill="#967964" d="M172.788,35.003c0-1.78,0.653-3.31,1.956-4.588c1.296-1.278,2.856-1.917,4.677-1.917
				c1.799,0,3.34,0.645,4.627,1.934c1.291,1.29,1.938,2.837,1.938,4.645c0,1.819-0.65,3.362-1.946,4.629
				c-1.302,1.272-2.875,1.91-4.717,1.91c-1.631,0-3.095-0.566-4.392-1.696C173.504,38.668,172.788,37.029,172.788,35.003z
				 M174.709,35.023c0,1.396,0.47,2.546,1.406,3.446c0.933,0.9,2.009,1.351,3.231,1.351c1.322,0,2.44-0.459,3.351-1.375
				c0.911-0.928,1.366-2.058,1.366-3.389c0-1.348-0.45-2.478-1.351-3.389c-0.893-0.917-1.999-1.375-3.318-1.375
				c-1.314,0-2.423,0.459-3.328,1.375C175.163,32.574,174.709,33.693,174.709,35.023z"/>
			<path fill="#967964" d="M188.046,41.384V27.876l9.206,9.649v-8.789h1.904v13.419l-9.206-9.626v8.855H188.046z"/>
		</g>
	</g>
	<g>
		<g>
			<path fill="#967964" d="M61.241,45.652v1.735c-0.848-0.71-1.722-1.064-2.628-1.064c-0.998,0-1.839,0.359-2.522,1.078
				c-0.688,0.714-1.031,1.587-1.031,2.62c0,1.021,0.343,1.882,1.031,2.584c0.687,0.701,1.53,1.052,2.528,1.052
				c0.515,0,0.953-0.084,1.314-0.252c0.2-0.083,0.41-0.197,0.625-0.34S61,52.75,61.241,52.548v1.773
				c-0.839,0.477-1.719,0.715-2.642,0.715c-1.386,0-2.572-0.486-3.551-1.455c-0.979-0.979-1.467-2.159-1.467-3.542
				c0-1.238,0.41-2.342,1.227-3.314c1.007-1.188,2.308-1.783,3.906-1.783C59.585,44.942,60.427,45.179,61.241,45.652z"/>
			<path fill="#967964" d="M68.98,49.952c0-1.37,0.503-2.546,1.503-3.528c0.998-0.983,2.196-1.475,3.598-1.475
				c1.383,0,2.569,0.497,3.558,1.487c0.994,0.991,1.492,2.182,1.492,3.573c0,1.398-0.5,2.585-1.497,3.56
				c-1.002,0.979-2.211,1.468-3.628,1.468c-1.253,0-2.378-0.435-3.376-1.305C69.53,52.771,68.98,51.51,68.98,49.952z M70.459,49.967
				c0,1.074,0.361,1.958,1.081,2.651c0.718,0.693,1.545,1.039,2.485,1.039c1.018,0,1.877-0.353,2.577-1.057
				c0.701-0.713,1.051-1.582,1.051-2.606c0-1.038-0.346-1.905-1.038-2.607c-0.688-0.705-1.539-1.057-2.552-1.057
				s-1.865,0.352-2.56,1.057C70.806,48.083,70.459,48.944,70.459,49.967z"/>
			<path fill="#967964" d="M87.412,54.86V44.471l7.081,7.421v-6.76h1.466v10.321l-7.083-7.405v6.812H87.412z"/>
			<path fill="#967964" d="M110.214,46.574l-1.189,0.706c-0.221-0.386-0.435-0.638-0.636-0.755c-0.208-0.135-0.479-0.202-0.81-0.202
				c-0.408,0-0.744,0.116-1.013,0.347c-0.268,0.228-0.403,0.512-0.403,0.857c0,0.476,0.352,0.858,1.058,1.148l0.968,0.396
				c0.788,0.321,1.364,0.71,1.729,1.171c0.365,0.46,0.548,1.024,0.548,1.693c0,0.895-0.298,1.635-0.895,2.219
				c-0.6,0.588-1.342,0.883-2.23,0.883c-0.844,0-1.539-0.251-2.088-0.753c-0.542-0.501-0.879-1.208-1.014-2.113l1.485-0.329
				c0.067,0.571,0.184,0.966,0.352,1.185c0.301,0.419,0.743,0.63,1.321,0.63c0.457,0,0.838-0.153,1.138-0.459
				c0.303-0.307,0.453-0.696,0.453-1.165c0-0.19-0.025-0.362-0.079-0.52c-0.051-0.158-0.135-0.303-0.246-0.435
				c-0.11-0.132-0.253-0.256-0.428-0.371c-0.178-0.116-0.388-0.227-0.629-0.332l-0.938-0.39c-1.329-0.562-1.992-1.386-1.992-2.468
				c0-0.73,0.277-1.342,0.836-1.832c0.558-0.496,1.25-0.744,2.08-0.744C108.71,44.942,109.584,45.487,110.214,46.574z"/>
			<path fill="#967964" d="M118.188,49.952c0-1.37,0.5-2.546,1.502-3.528c0.996-0.983,2.197-1.475,3.598-1.475
				c1.384,0,2.568,0.497,3.558,1.487c0.993,0.991,1.491,2.182,1.491,3.573c0,1.398-0.5,2.585-1.496,3.56
				c-1.003,0.979-2.212,1.468-3.629,1.468c-1.254,0-2.378-0.435-3.378-1.305C118.735,52.771,118.188,51.51,118.188,49.952z
				 M119.663,49.967c0,1.074,0.363,1.958,1.083,2.651c0.718,0.693,1.546,1.039,2.484,1.039c1.019,0,1.878-0.353,2.58-1.057
				c0.698-0.713,1.049-1.582,1.049-2.606c0-1.038-0.346-1.905-1.038-2.607c-0.688-0.705-1.539-1.057-2.553-1.057
				c-1.011,0-1.864,0.352-2.56,1.057C120.011,48.083,119.663,48.944,119.663,49.967z"/>
			<path fill="#967964" d="M139.907,50.714l3.006,4.146h-1.792l-2.773-3.982h-0.265v3.982h-1.466v-9.728h1.717
				c1.283,0,2.208,0.241,2.78,0.725c0.628,0.538,0.943,1.247,0.943,2.129c0,0.689-0.196,1.282-0.591,1.776
				C141.071,50.26,140.553,50.575,139.907,50.714z M138.083,49.599h0.465c1.389,0,2.082-0.531,2.082-1.594
				c0-0.996-0.675-1.493-2.024-1.493h-0.523V49.599z"/>
			<path fill="#967964" d="M153.376,46.512v8.348h-1.465v-8.348h-2.232v-1.38h5.923v1.38H153.376z"/>
			<path fill="#967964" d="M164.814,45.132v9.728h-1.466v-9.728H164.814z"/>
			<path fill="#967964" d="M175.051,45.132v5.855c0,0.834,0.136,1.447,0.41,1.833c0.406,0.558,0.978,0.837,1.715,0.837
				c0.743,0,1.318-0.279,1.722-0.837c0.273-0.374,0.41-0.984,0.41-1.833v-5.855h1.464v6.263c0,1.025-0.318,1.87-0.955,2.534
				c-0.716,0.739-1.597,1.108-2.642,1.108s-1.922-0.37-2.635-1.108c-0.636-0.664-0.955-1.508-0.955-2.534v-6.263H175.051z"/>
			<path fill="#967964" d="M189.2,54.86l2.044-10.46l3.333,7.562l3.451-7.562l1.837,10.46h-1.504l-0.938-5.872l-2.873,6.32
				l-2.792-6.327l-1.044,5.878H189.2z"/>
		</g>
	</g>
	<g>
		<g>
			<path fill="#967964" d="M9.799,69.376v4.528H9.004v-4.528H7.793v-0.749h3.213v0.749H9.799z"/>
			<path fill="#967964" d="M13.316,68.131h0.767v2.721c0.274-0.246,0.574-0.37,0.904-0.37c0.375,0,0.676,0.123,0.9,0.367
				c0.192,0.211,0.287,0.55,0.287,1.014v2.041h-0.768v-1.968c0-0.267-0.047-0.459-0.142-0.58c-0.094-0.12-0.246-0.18-0.455-0.18
				c-0.269,0-0.457,0.083-0.566,0.25c-0.107,0.169-0.161,0.458-0.161,0.869v1.609h-0.767V68.131z"/>
			<path fill="#967964" d="M21.919,72.42h-2.381c0.02,0.274,0.109,0.491,0.266,0.654c0.157,0.159,0.358,0.239,0.604,0.239
				c0.19,0,0.348-0.045,0.474-0.136c0.122-0.092,0.262-0.26,0.419-0.506l0.648,0.362c-0.101,0.17-0.206,0.317-0.317,0.439
				c-0.111,0.122-0.231,0.222-0.358,0.301c-0.127,0.078-0.265,0.136-0.413,0.172C20.713,73.981,20.553,74,20.38,74
				c-0.495,0-0.893-0.16-1.193-0.479c-0.301-0.321-0.451-0.748-0.451-1.278c0-0.526,0.146-0.953,0.437-1.278
				c0.293-0.321,0.683-0.482,1.167-0.482c0.489,0,0.876,0.157,1.16,0.469c0.281,0.31,0.423,0.74,0.423,1.289L21.919,72.42z
				 M21.131,71.792c-0.107-0.41-0.365-0.615-0.775-0.615c-0.093,0-0.181,0.015-0.263,0.043s-0.157,0.069-0.224,0.123
				c-0.066,0.053-0.124,0.117-0.171,0.193c-0.048,0.074-0.085,0.161-0.11,0.255H21.131z"/>
			<path fill="#967964" d="M31.262,71.156h2.176v0.174c0,0.396-0.047,0.748-0.14,1.053c-0.091,0.283-0.245,0.547-0.46,0.794
				c-0.489,0.551-1.111,0.827-1.866,0.827c-0.736,0-1.368-0.266-1.892-0.8c-0.526-0.535-0.788-1.177-0.788-1.927
				c0-0.767,0.267-1.416,0.801-1.949c0.535-0.534,1.184-0.803,1.95-0.803c0.413,0,0.796,0.084,1.154,0.252
				c0.34,0.167,0.677,0.44,1.007,0.818l-0.567,0.543c-0.432-0.576-0.958-0.865-1.58-0.865c-0.557,0-1.024,0.193-1.402,0.578
				c-0.377,0.378-0.565,0.853-0.565,1.422c0,0.587,0.21,1.072,0.63,1.452c0.394,0.353,0.82,0.53,1.279,0.53
				c0.391,0,0.742-0.132,1.054-0.396c0.311-0.266,0.486-0.584,0.523-0.955h-1.313V71.156z"/>
			<path fill="#967964" d="M36.805,68.131v5.772h-0.768v-5.772H36.805z"/>
			<path fill="#967964" d="M39.366,72.216c0-0.481,0.171-0.89,0.515-1.227c0.345-0.337,0.763-0.506,1.256-0.506
				c0.496,0,0.916,0.171,1.262,0.51c0.342,0.34,0.512,0.757,0.512,1.251c0,0.5-0.171,0.917-0.516,1.254
				C42.049,73.833,41.626,74,41.124,74c-0.498,0-0.916-0.17-1.252-0.513C39.534,73.15,39.366,72.726,39.366,72.216z M40.151,72.229
				c0,0.333,0.088,0.596,0.266,0.79c0.182,0.196,0.421,0.294,0.72,0.294c0.3,0,0.54-0.096,0.72-0.291
				c0.18-0.194,0.27-0.452,0.27-0.776c0-0.323-0.09-0.583-0.27-0.775c-0.182-0.197-0.421-0.295-0.72-0.295
				c-0.293,0-0.531,0.098-0.713,0.295C40.242,71.667,40.151,71.919,40.151,72.229z"/>
			<path fill="#967964" d="M46.236,68.131v2.83c0.308-0.319,0.656-0.479,1.043-0.479c0.448,0,0.821,0.168,1.12,0.502
				c0.298,0.333,0.447,0.749,0.447,1.244c0,0.514-0.151,0.937-0.451,1.271c-0.298,0.333-0.675,0.5-1.129,0.5
				c-0.384,0-0.728-0.148-1.03-0.444v0.348h-0.767v-5.772H46.236z M48.061,72.264c0-0.319-0.086-0.58-0.259-0.779
				c-0.175-0.205-0.394-0.308-0.659-0.308c-0.282,0-0.512,0.1-0.688,0.298c-0.176,0.195-0.263,0.451-0.263,0.765
				c0,0.323,0.086,0.582,0.26,0.776c0.172,0.198,0.4,0.297,0.682,0.297c0.266,0,0.486-0.099,0.661-0.297
				C47.972,72.815,48.061,72.564,48.061,72.264z"/>
			<path fill="#967964" d="M53.854,70.575h0.771v3.329h-0.771v-0.348C53.537,73.852,53.197,74,52.833,74
				c-0.459,0-0.839-0.167-1.139-0.5c-0.297-0.339-0.447-0.763-0.447-1.271c0-0.498,0.15-0.915,0.447-1.248
				c0.297-0.333,0.67-0.499,1.119-0.499c0.386,0,0.733,0.16,1.04,0.479V70.575z M52.032,72.229c0,0.32,0.085,0.58,0.256,0.779
				c0.175,0.203,0.396,0.305,0.661,0.305c0.285,0,0.515-0.098,0.689-0.294c0.175-0.203,0.262-0.46,0.262-0.772
				c0-0.312-0.087-0.57-0.262-0.772c-0.175-0.198-0.403-0.298-0.683-0.298c-0.263,0-0.485,0.101-0.662,0.301
				C52.12,71.68,52.032,71.931,52.032,72.229z"/>
			<path fill="#967964" d="M58.107,68.131v5.772H57.34v-5.772H58.107z"/>
			<path fill="#967964" d="M64.874,73.904v-5.636l3.842,4.027v-3.668h0.794v5.599l-3.841-4.017v3.694H64.874z"/>
			<path fill="#967964" d="M75.477,72.42h-2.382c0.021,0.274,0.11,0.491,0.267,0.654c0.156,0.159,0.358,0.239,0.603,0.239
				c0.192,0,0.35-0.045,0.475-0.136c0.123-0.092,0.262-0.26,0.419-0.506l0.648,0.362c-0.1,0.17-0.206,0.317-0.317,0.439
				c-0.111,0.122-0.23,0.222-0.358,0.301c-0.127,0.078-0.265,0.136-0.412,0.172C74.271,73.981,74.111,74,73.938,74
				c-0.497,0-0.894-0.16-1.194-0.479c-0.3-0.321-0.45-0.748-0.45-1.278c0-0.526,0.146-0.953,0.437-1.278
				c0.293-0.321,0.682-0.482,1.167-0.482c0.489,0,0.875,0.157,1.16,0.469c0.282,0.31,0.422,0.74,0.422,1.289L75.477,72.42z
				 M74.688,71.792c-0.108-0.41-0.365-0.615-0.774-0.615c-0.093,0-0.182,0.015-0.263,0.043s-0.157,0.069-0.223,0.123
				c-0.067,0.053-0.125,0.117-0.172,0.193c-0.047,0.074-0.084,0.161-0.109,0.255H74.688z"/>
			<path fill="#967964" d="M78.914,71.293v2.611h-0.768v-2.611H77.82v-0.718h0.327v-1.22h0.768v1.22h0.597v0.718H78.914z"/>
			<path fill="#967964" d="M82.195,70.575l0.87,1.9l0.939-2.205l0.944,2.205l0.859-1.9h0.859l-1.739,3.578l-0.924-2.143
				l-0.936,2.143l-1.736-3.578H82.195z"/>
			<path fill="#967964" d="M88.65,72.216c0-0.481,0.171-0.89,0.515-1.227c0.343-0.337,0.763-0.506,1.256-0.506
				c0.495,0,0.916,0.171,1.262,0.51c0.34,0.34,0.512,0.757,0.512,1.251c0,0.5-0.172,0.917-0.515,1.254
				C91.333,73.833,90.908,74,90.407,74c-0.498,0-0.916-0.17-1.252-0.513C88.818,73.15,88.65,72.726,88.65,72.216z M89.434,72.229
				c0,0.333,0.088,0.596,0.267,0.79c0.182,0.196,0.421,0.294,0.72,0.294c0.3,0,0.54-0.096,0.719-0.291
				c0.18-0.194,0.27-0.452,0.27-0.776c0-0.323-0.09-0.583-0.27-0.775c-0.182-0.197-0.421-0.295-0.719-0.295
				c-0.293,0-0.532,0.098-0.713,0.295C89.526,71.667,89.434,71.919,89.434,72.229z"/>
			<path fill="#967964" d="M94.752,70.575h0.766v0.298c0.142-0.148,0.267-0.25,0.376-0.305c0.112-0.057,0.243-0.086,0.395-0.086
				c0.203,0,0.415,0.067,0.634,0.199l-0.352,0.704c-0.145-0.105-0.286-0.157-0.426-0.157c-0.418,0-0.628,0.316-0.628,0.95v1.726
				h-0.766V70.575z"/>
			<path fill="#967964" d="M99.984,68.131v3.521l1.081-1.077h1.031l-1.442,1.398l1.549,1.931h-0.996l-1.099-1.404l-0.124,0.123
				v1.282h-0.768v-5.772H99.984z"/>
			<path fill="#967964" d="M109.14,71.293v2.611h-0.771v-2.611h-0.273v-0.718h0.273V69.29c0-0.419,0.073-0.715,0.218-0.889
				c0.2-0.242,0.491-0.362,0.875-0.362c0.135,0,0.308,0.04,0.515,0.12v0.786l-0.078-0.041c-0.167-0.084-0.303-0.126-0.41-0.126
				c-0.137,0-0.229,0.048-0.277,0.146c-0.048,0.096-0.072,0.281-0.072,0.554v1.097h0.836v0.718H109.14z"/>
			<path fill="#967964" d="M112.093,72.216c0-0.481,0.172-0.89,0.517-1.227c0.343-0.337,0.761-0.506,1.254-0.506
				c0.496,0,0.917,0.171,1.262,0.51c0.342,0.34,0.511,0.757,0.511,1.251c0,0.5-0.171,0.917-0.515,1.254
				c-0.346,0.336-0.77,0.503-1.272,0.503c-0.498,0-0.914-0.17-1.252-0.513C112.261,73.15,112.093,72.726,112.093,72.216z
				 M112.879,72.229c0,0.333,0.088,0.596,0.265,0.79c0.182,0.196,0.423,0.294,0.72,0.294c0.301,0,0.541-0.096,0.719-0.291
				c0.182-0.194,0.27-0.452,0.27-0.776c0-0.323-0.088-0.583-0.27-0.775c-0.182-0.197-0.421-0.295-0.719-0.295
				c-0.293,0-0.532,0.098-0.713,0.295C112.969,71.667,112.879,71.919,112.879,72.229z"/>
			<path fill="#967964" d="M118.196,70.575h0.768v0.298c0.142-0.148,0.266-0.25,0.376-0.305c0.112-0.057,0.243-0.086,0.395-0.086
				c0.203,0,0.415,0.067,0.635,0.199l-0.352,0.704c-0.145-0.105-0.288-0.157-0.426-0.157c-0.418,0-0.628,0.316-0.628,0.95v1.726
				h-0.768V70.575z"/>
			<path fill="#967964" d="M126.342,71.242c0-0.743,0.271-1.382,0.814-1.915c0.542-0.533,1.192-0.799,1.952-0.799
				c0.75,0,1.394,0.269,1.93,0.807c0.538,0.537,0.808,1.184,0.808,1.938c0,0.758-0.27,1.402-0.811,1.93
				c-0.545,0.531-1.199,0.797-1.969,0.797c-0.68,0-1.29-0.236-1.833-0.708C126.641,72.77,126.342,72.087,126.342,71.242z
				 M127.144,71.25c0,0.583,0.195,1.062,0.586,1.437c0.39,0.376,0.84,0.564,1.348,0.564c0.553,0,1.02-0.191,1.399-0.574
				c0.38-0.387,0.57-0.858,0.57-1.413c0-0.563-0.188-1.035-0.563-1.414c-0.373-0.383-0.834-0.575-1.384-0.575
				c-0.548,0-1.011,0.191-1.389,0.575C127.333,70.228,127.144,70.695,127.144,71.25z"/>
			<path fill="#967964" d="M135.215,75.716h-0.768v-5.141h0.768v0.362c0.302-0.303,0.645-0.455,1.029-0.455
				c0.458,0,0.834,0.169,1.129,0.506c0.3,0.335,0.45,0.758,0.45,1.269c0,0.499-0.148,0.915-0.446,1.247
				c-0.295,0.331-0.668,0.496-1.118,0.496c-0.39,0-0.738-0.156-1.044-0.469V75.716z M137.039,72.261c0-0.319-0.085-0.58-0.258-0.78
				c-0.175-0.203-0.396-0.305-0.663-0.305c-0.282,0-0.51,0.098-0.685,0.295c-0.175,0.196-0.263,0.454-0.263,0.772
				c0,0.312,0.088,0.569,0.263,0.772c0.171,0.198,0.4,0.297,0.681,0.297c0.267,0,0.486-0.1,0.66-0.301
				C136.951,72.812,137.039,72.561,137.039,72.261z"/>
			<path fill="#967964" d="M143.408,72.42h-2.382c0.021,0.274,0.11,0.491,0.266,0.654c0.157,0.159,0.358,0.239,0.605,0.239
				c0.19,0,0.348-0.045,0.473-0.136c0.124-0.092,0.263-0.26,0.42-0.506l0.648,0.362c-0.1,0.17-0.205,0.317-0.316,0.439
				c-0.112,0.122-0.231,0.222-0.358,0.301c-0.128,0.078-0.265,0.136-0.413,0.172c-0.148,0.036-0.309,0.055-0.481,0.055
				c-0.495,0-0.893-0.16-1.194-0.479c-0.3-0.321-0.45-0.748-0.45-1.278c0-0.526,0.145-0.953,0.437-1.278
				c0.293-0.321,0.683-0.482,1.166-0.482c0.49,0,0.876,0.157,1.161,0.469c0.281,0.31,0.423,0.74,0.423,1.289L143.408,72.42z
				 M142.62,71.792c-0.106-0.41-0.365-0.615-0.774-0.615c-0.093,0-0.182,0.015-0.263,0.043s-0.157,0.069-0.223,0.123
				c-0.067,0.053-0.125,0.117-0.173,0.193c-0.046,0.074-0.083,0.161-0.108,0.255H142.62z"/>
			<path fill="#967964" d="M145.993,70.575h0.771v0.308c0.268-0.267,0.571-0.401,0.908-0.401c0.387,0,0.688,0.123,0.903,0.367
				c0.188,0.207,0.282,0.545,0.282,1.014v2.041h-0.771v-1.856c0-0.328-0.046-0.555-0.137-0.68c-0.09-0.127-0.25-0.191-0.484-0.191
				c-0.255,0-0.435,0.084-0.543,0.253c-0.104,0.166-0.157,0.457-0.157,0.871v1.604h-0.771V70.575z"/>
			<path fill="#967964" d="M158.527,69.376h-2.112v1.268h2.05v0.748h-2.05v1.764h2.112v0.748h-2.908v-5.277h2.908V69.376z"/>
			<path fill="#967964" d="M163.618,68.131h0.771v5.772h-0.771v-0.348c-0.303,0.296-0.645,0.444-1.026,0.444
				c-0.456,0-0.833-0.167-1.132-0.5c-0.298-0.339-0.446-0.763-0.446-1.271c0-0.496,0.148-0.911,0.446-1.244
				c0.294-0.334,0.668-0.502,1.116-0.502c0.388,0,0.736,0.16,1.042,0.479V68.131z M161.798,72.229c0,0.32,0.085,0.58,0.255,0.779
				c0.175,0.203,0.396,0.305,0.661,0.305c0.285,0,0.515-0.098,0.689-0.294c0.175-0.203,0.263-0.46,0.263-0.772
				c0-0.312-0.088-0.57-0.263-0.772c-0.175-0.198-0.403-0.298-0.681-0.298c-0.265,0-0.484,0.101-0.663,0.301
				C161.885,71.68,161.798,71.931,161.798,72.229z"/>
			<path fill="#967964" d="M167.873,70.575v1.91c0,0.552,0.216,0.828,0.651,0.828c0.435,0,0.651-0.275,0.651-0.828v-1.91h0.768
				v1.928c0,0.267-0.034,0.496-0.1,0.69c-0.063,0.173-0.173,0.33-0.33,0.468c-0.26,0.226-0.59,0.339-0.99,0.339
				c-0.398,0-0.726-0.113-0.986-0.339c-0.16-0.138-0.271-0.294-0.338-0.468c-0.063-0.155-0.095-0.385-0.095-0.69v-1.928H167.873z"/>
			<path fill="#967964" d="M175.243,70.719v1.021c-0.175-0.215-0.332-0.36-0.47-0.441c-0.137-0.082-0.296-0.123-0.481-0.123
				c-0.288,0-0.528,0.102-0.719,0.305c-0.19,0.203-0.287,0.458-0.287,0.762c0,0.312,0.091,0.569,0.276,0.769
				c0.187,0.202,0.425,0.301,0.713,0.301c0.183,0,0.347-0.04,0.488-0.12c0.136-0.078,0.296-0.229,0.479-0.451v1.015
				C174.931,73.918,174.62,74,174.308,74c-0.513,0-0.942-0.167-1.289-0.5c-0.345-0.334-0.518-0.75-0.518-1.247
				c0-0.497,0.175-0.917,0.525-1.258c0.351-0.341,0.781-0.513,1.291-0.513C174.643,70.482,174.953,70.562,175.243,70.719z"/>
			<path fill="#967964" d="M180.183,70.575h0.771v3.329h-0.771v-0.348c-0.316,0.296-0.656,0.444-1.019,0.444
				c-0.46,0-0.839-0.167-1.141-0.5c-0.296-0.339-0.446-0.763-0.446-1.271c0-0.498,0.15-0.915,0.446-1.248
				c0.298-0.333,0.671-0.499,1.119-0.499c0.387,0,0.735,0.16,1.041,0.479V70.575z M178.361,72.229c0,0.32,0.086,0.58,0.256,0.779
				c0.175,0.203,0.396,0.305,0.661,0.305c0.285,0,0.515-0.098,0.689-0.294c0.175-0.203,0.263-0.46,0.263-0.772
				c0-0.312-0.088-0.57-0.263-0.772c-0.175-0.198-0.403-0.298-0.683-0.298c-0.263,0-0.485,0.101-0.661,0.301
				C178.449,71.68,178.361,71.931,178.361,72.229z"/>
			<path fill="#967964" d="M184.46,71.293v2.611h-0.768v-2.611h-0.328v-0.718h0.328v-1.22h0.768v1.22h0.596v0.718H184.46z"/>
			<path fill="#967964" d="M187.21,69.191c0-0.134,0.048-0.251,0.146-0.349c0.097-0.097,0.215-0.146,0.35-0.146
				c0.14,0,0.258,0.048,0.356,0.146c0.096,0.097,0.146,0.214,0.146,0.353s-0.05,0.257-0.146,0.356
				c-0.097,0.097-0.213,0.146-0.354,0.146c-0.138,0-0.256-0.048-0.353-0.146C187.258,69.452,187.21,69.333,187.21,69.191z
				 M188.093,70.575v3.329h-0.768v-3.329H188.093z"/>
			<path fill="#967964" d="M190.654,72.216c0-0.481,0.172-0.89,0.515-1.227c0.345-0.337,0.763-0.506,1.256-0.506
				c0.497,0,0.916,0.171,1.263,0.51c0.341,0.34,0.511,0.757,0.511,1.251c0,0.5-0.171,0.917-0.515,1.254
				c-0.346,0.336-0.77,0.503-1.272,0.503c-0.498,0-0.916-0.17-1.252-0.513C190.823,73.15,190.654,72.726,190.654,72.216z
				 M191.439,72.229c0,0.333,0.09,0.596,0.267,0.79c0.182,0.196,0.421,0.294,0.719,0.294c0.3,0,0.54-0.096,0.72-0.291
				c0.18-0.194,0.27-0.452,0.27-0.776c0-0.323-0.09-0.583-0.27-0.775c-0.182-0.197-0.421-0.295-0.72-0.295
				c-0.293,0-0.531,0.098-0.713,0.295C191.531,71.667,191.439,71.919,191.439,72.229z"/>
			<path fill="#967964" d="M196.757,70.575h0.771v0.308c0.268-0.267,0.571-0.401,0.908-0.401c0.387,0,0.687,0.123,0.903,0.367
				c0.187,0.207,0.28,0.545,0.28,1.014v2.041h-0.771v-1.856c0-0.328-0.045-0.555-0.137-0.68c-0.088-0.127-0.25-0.191-0.483-0.191
				c-0.255,0-0.437,0.084-0.543,0.253c-0.105,0.166-0.157,0.457-0.157,0.871v1.604h-0.771V70.575z"/>
		</g>
	</g>
</g>
</svg>
