<?xml version="1.0" encoding="utf-8"?>
<!-- Generator: Adobe Illustrator 21.1.0, SVG Export Plug-In . SVG Version: 6.00 Build 0)  -->
<svg version="1.1" id="Layer_1" xmlns="http://www.w3.org/2000/svg" xmlns:xlink="http://www.w3.org/1999/xlink" x="0px" y="0px"
	 viewBox="0 0 312 140" style="enable-background:new 0 0 312 140;" xml:space="preserve">
<style type="text/css">
	.st0{fill:#7F6C5E;}
</style>
<g>
	<path class="st0" d="M119.3,26.2c-0.2,0-0.4-0.1-0.5-0.1c-3.8-1.2-7.9-2.6-11.9-3.9c-2.3-0.8-4.6-1.5-6.8-2.2
		c-0.2-2.3-0.3-4.6-0.4-6.9c-0.2-3.8-0.4-7.7-0.9-11.3l0-0.3h-0.5l-0.1,0c-0.6,0.2-0.6,1.1-0.6,1.8c0,0.1,0,0.2,0,0.3
		c-0.1,2.4-0.1,5-0.2,7.5c0,2.6,0,5.4-0.2,7.9c0,0-0.1,0.1-0.1,0.1c-0.4,0.3-0.9,0.7-0.6,1.7c-1.6,1.5-3.2,3-4.8,4.5
		c-3.4,3.2-6.8,6.4-10.3,9.6c-0.1,0.1-0.3,0.3-0.4,0.4c-0.6,0.5-1.2,1-1.5,1.7l-0.3,0.5l0.5-0.1c0.9-0.1,1.5-0.7,2.1-1.2
		c0.2-0.2,0.4-0.4,0.6-0.5c4.9-4,9.8-7.9,14.9-12.1c0.1-0.1,0.3-0.2,0.5-0.4c0.2-0.2,0.4-0.3,0.5-0.4c0.3,0.3,1.1,1.3,1.6,1.8
		c0.3,0.4,0.5,0.6,0.6,0.7c1.3,1.2,2.9,2.1,4.2,2.9c0,6.8-0.1,13.7-0.2,21c-0.1,7-0.2,14.1-0.2,21.1c-0.4,0-0.7,0.2-1.1,0.2
		c-0.1-0.2-0.1-0.2-0.3-0.2c-0.4-0.1-0.4,0.4-0.6,0.7c0.1,1.1,0.2,2.2,1.2,2.3c0,1.3,0,2.5,0,3.8c-0.2-0.2-0.4-0.4-0.6-0.6
		c0,0,0,0,0,0c0,0,0,0,0,0c0-0.1-0.1-0.1-0.1-0.2c0,0,0,0.1,0,0.2c-0.1,0-0.1,0-0.2,0c-0.1,0-0.1-0.1-0.2-0.1c0-0.1,0-0.1-0.1-0.2
		c-0.1,0-0.1,0-0.2,0c0.2-0.6,0.7-1.1,0.9-1.5c-0.4,0.4-0.7,1-1.1,1.4c0-0.2-0.1-0.4-0.2-0.6c0.1,0.2,0.1,0.5,0.2,0.7
		c-0.2,0-0.4,0.1-0.6,0.1c0,0.1,0,0.1-0.1,0.1c0-0.1,0-0.2,0-0.3c0,0.1,0,0.2-0.1,0.3c0,0,0,0-0.1,0c0,0.1,0,0.1,0,0.2c0,0,0,0,0,0
		c0-0.3,0-0.6-0.1-0.8c0-0.2,0-0.4,0-0.6c-0.1,0-0.1,0-0.1,0.1c0-0.2,0-0.4-0.1-0.6c0.8-0.1,0.7-1.1,1-1.7c-0.3,0-0.4,0-0.6,0.1
		c0-0.2-0.1-0.3-0.2-0.4c-0.7,0-1.6,0-1.8,0.8c0-0.2-0.1-0.5-0.2-0.7c-0.2,0-0.1,0.2-0.1,0.4c-0.3-0.4-0.8-0.3-1.1,0
		c-0.3-0.2-0.4,0.1-0.6,0.1c-0.2,1,0.3,2.1,1.3,1.9c0,0.3,0.1,0.6,0.2,0.8c-0.1,0-0.2,0.1-0.2,0.1c0,0,0,0,0,0
		c-0.1-0.3-0.4,0-0.6-0.2c-0.3,0.2-0.5,0.8-0.4,1.3c0,0-0.1-0.1-0.1-0.1c0.1,0,0.1,0.1,0.1,0.1c0,0.1-0.1,0.2-0.1,0.3
		c0,0,0-0.1,0-0.1c0,0.2,0,0.5,0.1,0.7c0,0-0.1-0.1-0.1-0.1c0,0,0,0,0-0.1c0,0,0,0-0.1,0c-0.1-0.1-0.2-0.2-0.3-0.3
		c0,0,0.2-0.2,0.1-0.2c-0.1,0.1-0.1,0.3-0.2,0.2c0.1-0.4,0.3-0.7,0.4-0.9c-0.2,0.2-0.4,0.9-0.7,0.8c0.1,0,0.2,0,0.2,0.1
		c-0.1,0-0.1,0.2-0.1,0.2c0,0-0.1,0-0.1,0c-0.1-0.2-0.1-0.5-0.1-0.8c0.3,0,0.4-0.3,0.5-0.6c0,0,0.1-0.1,0.1-0.1
		c0.2-0.3,0-0.8,0.2-1.2c-0.1,0-0.2-0.1-0.2-0.3c-0.3-0.1-0.5-0.1-0.8-0.1c0-0.2-0.1-0.2-0.2-0.2c-0.2,0-0.4,0.3-0.4,0.6
		c-0.1,0.1-0.2,0.3-0.3,0.4c0,0.7,0.1,1.4,0.7,1.5c-0.2,0.4-0.4,0.7-0.6,1.1c0-0.3-0.1-0.6-0.2-0.9c0,0.3,0.1,0.9,0,1.1
		c-0.2-0.1-0.1-0.4-0.1-0.6c0-1.2,0-2.7,0.3-3.8c1,0,0.9-1,1.4-1.4c-0.1-0.1-0.5-0.1-0.6-0.1c0-0.2,0-0.3,0-0.4
		c-0.2-0.1-0.6-0.3-1-0.3c-0.2,0-0.4,0.1-0.5,0c-0.1,0.1-0.1,0.2-0.4,0.2c-0.1,0.2-0.2,0.5-0.1,0.8c-0.3,0-0.5,0.1-0.7,0.2
		c-0.4,0.1-0.5-0.1-0.7-0.1c0.1-0.3,0-0.7,0-1.1c0-0.1,0.2-0.2,0-0.2c-0.1,0-0.5,0.1-0.6,0.2c-0.1-0.2-0.2-0.3-0.3-0.4
		c-0.5,0-1.1,0.4-1.5,0.6c0.1,0.2-0.1,0.2-0.2,0.3c0,0.6,0.4,0.7,0.6,1.1c-0.3,0.3-0.7-0.1-1,0c-0.4,0.5,0,1.4-0.1,1.8
		c-0.1-0.5-0.2-0.9-0.3-1.3c0,0.4,0.1,0.7,0.1,1.1c-0.2-0.1-0.4,0-0.5,0c-0.1-0.5-0.7-0.7-0.8-1.2c0.9-0.2,0.9-1.4,1-2.3
		c-0.2,0.1-0.2,0.3-0.3,0.4c0-0.2-0.2-0.3-0.2-0.5c-0.4,0-0.6-0.1-0.8,0.1c-0.2-0.3-0.5-0.1-0.7-0.2c-0.7,0.5-0.6,2.4,0.4,2.6
		c-0.2,0.8-0.4,1.4-0.6,2.2c0,0-0.1-0.1-0.1-0.1c0-0.1,0-0.1,0-0.2c0,0-0.1,0.1-0.1,0.1c-0.3-0.3-0.6-0.8-0.7-1
		c0.1,0.4,0.4,0.7,0.6,1.1c0,0,0,0,0,0c0-0.1-0.1-0.2-0.2-0.3c-0.2,0-0.4-0.1-0.5,0.1c0-0.1-0.1-0.1-0.2-0.1c0-0.1,0-0.2-0.1-0.3
		c0,0.1,0,0.2,0,0.3c-0.1,0-0.2,0-0.2,0c-0.2,0.2-0.3,0.7-0.3,1.1c-0.1-0.1-0.2-0.1-0.4-0.1c0.1,0.2,0.2,0.4,0.4,0.7
		c-0.1,0-0.3-0.1-0.4-0.1c0-0.1-0.1-0.1-0.1-0.2c-0.2-0.8,0.2-1.9,0-2.7c0.8-0.1,0.7-1.2,1.1-1.7c-0.2,0-0.4-0.1-0.6,0
		c-0.2-0.6-1-0.9-1.7-0.6c0-0.1,0.1-0.1,0-0.1c-0.1,0-0.1,0-0.2,0.1c0-1.2-0.1-2.3-0.1-3.5c-0.2-5.5-0.5-11.3-0.6-16.9
		c0-0.3,0-0.6,0-1c0-1.5,0-3.1-0.4-4.3c7.3-0.2,12.7-0.6,17.3-1.4l2-0.4l-2-0.2c-2.3-0.2-4.9-0.4-7.5-0.4c-2.9,0-5.8,0.2-8.3,0.4
		c-0.3,0-0.5,0.1-0.8,0.1c-0.5,0.1-0.9,0.2-1.2,0.1c-0.1,0-0.2-0.1-0.4-0.3c-0.2-0.2-0.4-0.4-0.7-0.4c-0.5-1-1.1-2-1.6-3.1
		c-2.3-4.6-4.8-9.3-7.9-13.2L70.1,26l0.7,1.7c2.2,5.7,5.7,11.9,8.6,16.7c-0.3,0.6-0.7,1.4-0.2,2.1c-0.7,1.4-1.3,2.8-2,4.2
		c-1.4,2.8-2.8,5.7-4,8.7c-2.7-1-5.7-1.9-8.8-2.5c-0.3-1.4-0.5-2.8-0.7-4.1C63,49.5,62.4,46,61.4,43l-0.1-0.2l-0.2,0l-0.2,0L60.8,43
		c-0.1,0.1-0.2,0.3-0.1,0.4c0.1,0.9,0.2,1.8,0.4,2.8c0.5,3.7,1,8,2.1,10.9c-0.2,0.2-0.5,0.6-0.4,1.1c-4,3.8-6.8,7.1-9.1,10.5
		L53.5,69l0.4,0.1c0.4,0.1,0.7-0.2,0.8-0.4c0,0,0.1-0.1,0.1-0.1c0.8-0.8,1.6-1.6,2.4-2.3c2-1.9,4.1-3.9,5.9-6.2
		c0.1-0.1,0.1-0.2,0.2-0.3c0.3-0.4,0.5-0.7,0.7-0.7c-0.1,4.4-0.2,9.1-0.4,13.7c-0.1,2.3-0.1,4.7-0.2,7c0,0,0,0,0,0
		c0-0.1-0.1-0.2-0.2-0.3c-0.4,0-0.7,0.3-1,0.4c0,0.2-0.1,0.1-0.2,0.2c0,0.4,0.3,0.5,0.4,0.8c-0.2,0.2-0.5-0.1-0.7,0
		c-0.3,0.3,0,1-0.1,1.3c0-0.3-0.1-0.6-0.2-0.9c0,0.3,0.1,0.5,0.1,0.8c-0.2,0-0.3,0-0.4,0c0-0.4-0.5-0.5-0.5-0.8
		c0.6-0.1,0.6-1,0.7-1.6c-0.1,0-0.1,0.2-0.2,0.3c0-0.1-0.1-0.2-0.2-0.3c-0.2,0-0.4-0.1-0.6,0.1c-0.1-0.2-0.3-0.1-0.5-0.1
		c-0.5,0.4-0.4,1.7,0.2,1.8c-0.2,0.5-0.3,1-0.4,1.5c-0.2-0.2-0.5-0.7-0.6-0.8c0.1,0.3,0.5,0.6,0.5,1c0,0.3-0.2,0.7-0.3,1
		c0-0.2-0.2-0.5-0.1-0.6c0,0-0.1,0.1-0.1,0.1c-0.1-0.1,0.1-0.3,0-0.3c0,0,0,0.1-0.1,0.1c-0.1-0.3-0.2-0.7-0.2-1
		c0,0.3,0.1,0.9,0.1,1.3c-0.2-0.2-0.3-0.5-0.7-0.5c0.1,0.2,0.4,0.7,0.4,1c-0.1-0.2-0.4-0.3-0.4-0.6c-0.1-0.6,0.1-1.3,0-1.9
		c0.6-0.1,0.5-0.8,0.7-1.2c-0.2,0-0.3,0-0.4,0c-0.1-0.4-0.7-0.6-1.1-0.4c0,0,0,0,0-0.1c-0.1,0-0.1,0.1-0.2,0.3c0,0-0.2,0-0.2,0
		c0,0.2-0.1,0.3-0.1,0.5c0.3,0.4,0.4,1.1,1.1,1c0,0.5,0.1,1,0,1.4c0-0.1,0-0.1-0.1-0.1c0.2,0.2,0,0.5-0.1,0.6
		c-0.1-0.1-0.1-0.3-0.1-0.4c0,0,0,0.1,0,0.1c0-0.1-0.1-0.3-0.1-0.2c0.1,0.4-0.1,0.8-0.2,1.1c-0.2-0.6-0.6-1.1-0.9-1.6
		c0.4-0.1,0.2-0.8,0.3-1.2C57,81.2,57,81.1,56.8,81c-0.1,0-0.3,0-0.4,0c0-0.1-0.1-0.1-0.1-0.2c-0.1,0-0.2,0-0.2,0.1v1.3
		c0.1,0.1,0.2,0.4,0.6,0.3c0,0.3,0.3,0.7,0.2,0.9c0,0-0.1,0-0.1-0.1c0.1,0.4,0.4,0.9,0.1,1.3c-0.4-0.4-0.5-1.1-0.8-1.6v0.1
		c0.2,0.3,0.2,0.6,0.3,0.9c0,0,0,0.1-0.1,0.1c0.2,0.2,0.2,0.7,0.3,1c0,0.1,0,0.1,0,0.2l-0.1,0c-0.1-0.4-0.3-0.7-0.5-1v0.1
		c0.1,0.3,0.2,0.6,0.3,0.9L54.9,85L73,96.2l9.8-7.9l24,13.1l7-18.3c0,0,0,0,0.1,0c0-2,0-4,0-6c-0.1,0.1-0.1-0.3-0.2-0.4
		c0,0.2,0.2,0.6,0,0.8c0-0.1,0-0.4,0-0.3c0.1,0.3-0.1,0.6-0.3,0.7c0-0.4,0-0.8,0-1.1c0-0.5,0,0,0,0.2c0,0.4-0.1,1.1-0.2,1.3
		c-0.1-0.2-0.1-0.3-0.2-0.4c0,0.2,0.2,0.4,0.1,0.6c-0.1-0.4-0.3-0.7-0.4-1.1c0.1-0.2,0.3-0.4,0.3-0.6c-0.1,0.1-0.2,0.3-0.3,0.4
		c-0.1-0.8,0-1.5,0-2.4c1,0,0.9-1.1,1.4-1.7c0,0,0-0.1,0-0.1c-0.2-0.1-0.4,0-0.6,0c0-0.2-0.1-0.4-0.2-0.5c-0.1,0.1-0.2-0.1-0.4-0.1
		c-0.4,0-0.9,0.1-1.2,0.1c0,0.2-0.2,0.2-0.3,0.2c0,0.2-0.1,0.3-0.1,0.4c0.2,0.3,0.3,0.7,0.4,1c-0.2,0.6-0.3,1.4-0.4,2.2
		c-0.1,0-0.2,0.1-0.3,0.2c-0.2-0.4-0.5-0.9-0.8-1.1c0-0.6,0-1.1-0.1-1.7c0-0.2,0-0.5,0-0.7c1,0,1.1-1.4,1.1-2.3
		c-0.2,0-0.1,0.3-0.3,0.3c-0.1-0.5-0.5-0.6-0.9-0.4c-0.2-4.8-0.4-9.5-0.6-14.2c-0.3-8.6-0.7-17.5-1.1-26.2c0.3,0.1,0.7,0.2,1.1,0.4
		c0.7,0.3,1.6,0.6,2.3,0.6c0.6,0,1.1-0.2,1.5-0.5l0.1-0.1l0-0.2c-0.2-2.1-1.3-3.2-2.4-4.2c-0.2-0.2-0.5-0.5-0.7-0.7
		c1.6,0.4,3.2,0.8,4.8,1.2c1.1,0.3,2.2,0.6,3.3,0.9c0.2,0,0.4,0.1,0.6,0.1c0.8,0.2,1.6,0.4,2.3,0.3l0.2,0l0-0.2
		C121.3,26.8,120.1,26.5,119.3,26.2z M110.5,81c-0.1-0.7,0.2-1.4,0.3-2.1C110.9,79.5,110.6,80.3,110.5,81z M111.4,80.6
		c0.1,0.2,0,0.4,0,0.6C111.3,81.1,111.4,80.8,111.4,80.6z M111.7,79.8c-0.2-0.2,0-0.4,0-0.7C111.8,79.4,111.7,79.6,111.7,79.8z
		 M112.6,80.1c0,0.3-0.2,0.7-0.3,1.1C112.2,80.8,112.5,80.4,112.6,80.1z M59.9,85.4c0.2,0.2,0.2,0.5,0.2,0.8l-0.1,0
		C59.9,85.8,59.9,85.6,59.9,85.4z M60.9,83.6c0.1,0.4,0.1,0.8,0.1,1.4C60.8,84.5,60.6,84,60.9,83.6z M60.8,83.6
		c0.1-0.1,0.1-0.3,0.1-0.5C60.9,83.2,61,83.5,60.8,83.6z M61.1,85.2c-0.1-0.3,0-0.7,0.1-0.9c0.1,0.1,0.2,0.3,0.3,0.4
		C61.4,84.9,61.3,85,61.1,85.2z M90.3,77c0.1,0,0.1,0.1,0.2,0.1c0,0.4,0,0.8,0,1.2c0,0,0,0-0.1,0c0-0.2-0.1-0.2-0.2-0.4
		c-0.1,0-0.2,0-0.2,0c0,0,0,0,0-0.1C90.4,77.7,90.4,77.3,90.3,77z M92,74.9c0.1,0.3,0.1,0.6,0.1,0.9c0,0,0,0-0.1,0
		c-0.2,0-0.3,0.1-0.4,0.2C91.6,75.6,91.9,75.2,92,74.9z M102.6,76.8c0,0.1,0.1,0.2,0,0.4c0,0-0.1-0.1-0.1-0.1
		C102.5,77,102.5,76.9,102.6,76.8z M103.2,78.9c-0.2-0.5-0.2-1-0.5-1.4c0.1-0.1,0.1-0.2,0.2-0.2c0.1,0.3,0.4,0.4,0.4,0.8
		c-0.1-0.1-0.1-0.3-0.2-0.4C103,78,103.4,78.6,103.2,78.9z M103.6,78.7c0.1,0.1,0.1,0.3,0,0.4C103.5,79.1,103.6,78.8,103.6,78.7z
		 M103.7,80.8c0-0.2,0-0.4,0-0.6C103.8,80.4,103.8,80.6,103.7,80.8z M103.8,80.1c0-0.1,0-0.2,0-0.2c0,0,0,0,0,0
		C103.8,80,103.8,80,103.8,80.1z M103.8,78.6c-0.1-0.2-0.2-0.3-0.2-0.5C103.7,78.3,103.8,78.4,103.8,78.6z M102.9,81.2
		c-0.2-0.4-0.2-0.9,0-1.3C103,80.3,103.1,80.8,102.9,81.2L102.9,81.2z M78.3,84.6c0-0.2,0-0.6,0-0.8c0.1,0.1,0.2,0.4,0.2,0.6
		L78.3,84.6z M71.5,83.2c-0.1,0.3,0,0.7-0.1,1c-0.2-0.3-0.1-1.1-0.1-1.7v-1.4c0.6,0.1,0.7-0.4,0.7-0.9c0.2,0.2,0.3,0.5,0.8,0.4
		c0,0.1,0,0.3,0.1,0.5c-0.1,0-0.1,0.2-0.2,0.3c-0.2,0.4,0,1.4,0.5,1.4c0,0.2,0,0.4,0,0.6c-0.1,0-0.2-0.2-0.3-0.2
		c0.1,0.1,0.2,0.2,0.3,0.4c0,0,0,0,0,0.1c-0.1-0.1-0.2-0.2-0.3-0.4c-0.1-0.2-0.1-0.3-0.2-0.4c-0.2-0.5-0.3-1-0.6-1.4
		c0,0,0,0.1,0,0.1c0.2,0.4,0.3,0.8,0.4,1.3c0,0.1,0,0.1,0,0.1c-0.1-0.2-0.1-0.4-0.2-0.5c0.2,0.3,0.1,0.8,0,1.2
		c-0.1-0.1-0.1-0.3-0.2-0.4c0-0.1,0.2-0.2,0.1-0.2c0,0.1-0.1,0.1-0.1,0.2c0,0,0,0,0,0c0,0,0,0,0,0c-0.2,0.2-0.3,0.5-0.4,0.8
		C71.5,83.7,71.5,83.5,71.5,83.2l0-0.3C71.4,82.9,71.5,83.1,71.5,83.2z M70.7,83.9c0,0,0.1-0.1,0.1-0.1c0.1,0.2,0.3,0.3,0.3,0.6
		C71,84.3,71,84.1,71,84c0,0.2,0.2,0.6,0.1,0.8C70.9,84.5,70.9,84.2,70.7,83.9z M69.7,84.8c-0.2-0.2-0.1-0.6,0-0.8
		C69.9,84.3,69.8,84.6,69.7,84.8z M70.1,83.3c0.1,0.3,0,0.5-0.1,0.7C69.7,83.8,70,83.5,70.1,83.3z M70.2,84.8c0.1,0.2,0,0.6-0.1,0.8
		C69.9,85.3,70.1,84.9,70.2,84.8z M70.2,83.1c0.2,0.1,0.6,0.3,0.4,0.6c0-0.1-0.2-0.2-0.2-0.3c0-0.1,0,0.1-0.1,0
		C70.3,83.3,70.2,83.3,70.2,83.1z M70.3,83.6c0.1,0.1,0.1,0.3,0.2,0.4c-0.1,0,0,0.1-0.1,0.1C70.4,84,70.3,83.8,70.3,83.6z
		 M70.5,84.1c0.1,0.2-0.1,0.5-0.1,0.8C70.3,84.8,70.4,84.3,70.5,84.1z M70.4,85.6c0.1,0.2,0,0.6-0.1,0.9
		C70.2,86.2,70.4,85.9,70.4,85.6z M70.5,86.2c0,0.3,0.1,0.7,0,1C70.4,87,70.5,86.5,70.5,86.2z M70.6,85.4c-0.1-0.2,0.1-0.6,0.1-0.8
		C70.8,84.9,70.6,85.1,70.6,85.4z M70.7,85c0.1,0.2,0,0.4-0.1,0.6C70.6,85.5,70.7,85.2,70.7,85z M70.8,85.5c0.1,0.3,0.1,0.6,0,0.9
		C70.7,86.1,70.6,85.8,70.8,85.5z M70.7,83.5c0.2,0.2,0.3,0.3,0.4,0.6c-0.1-0.1-0.2-0.4-0.4-0.3C70.7,83.7,70.7,83.6,70.7,83.5z
		 M71.1,81.1v2.6c-0.2-0.2-0.4-0.3-0.4-0.6c0,0,0,0.2,0,0.2c-0.1-0.1-0.3-0.2-0.4-0.2c0.2-0.4,0.5-0.8,0.6-1.1
		c-0.3,0.3-0.5,0.7-0.7,0.9c0-0.2-0.1-0.3-0.2-0.4C70,82.7,70,83,70,83c-0.2,0.4-0.3,0.6-0.5,0.9c-0.1-0.3,0-0.8,0-1
		c0,0.1,0,0.3-0.1,0.3c0-0.5-0.1-0.9-0.1-1.3c0.6-0.1,0.5-0.8,0.7-1.2c-0.2,0-0.3,0-0.4,0.1c0-0.1-0.1-0.2-0.1-0.3
		c-0.5,0-1.1,0-1.2,0.5c0-0.2-0.1-0.3-0.1-0.5c-0.1,0-0.1,0.2-0.1,0.2c-0.2-0.2-0.5-0.2-0.7,0c-0.2-0.1-0.2,0.1-0.4,0.1
		c-0.2,0.7,0.2,1.4,0.9,1.3c0,0.4,0.2,0.7,0.2,1c-0.1-0.1-0.2-0.4-0.3-0.4c0.2,0.2,0.3,0.6,0.4,0.9C68,83.9,68,84,67.9,84.1
		c0-0.3-0.1-0.6-0.2-0.8c0,0.4,0.2,0.9,0,1.1c-0.3-0.2-0.4-0.7-0.7-0.9c0.1,0.1,0.2,0.3,0.3,0.4c-0.1,0-0.1,0.2-0.2,0.2
		c0-0.1,0-0.3-0.1-0.4c0,0.2,0,0.3,0.1,0.5c-0.1-0.1-0.1-0.1-0.2-0.2c0-0.1,0.1-0.1,0.1-0.2c0-0.2,0-0.3,0-0.5c0,0,0-0.1,0-0.1
		c0,0,0,0,0,0.1c0-0.1-0.1-0.2-0.2-0.3c0,0,0,0,0,0c0.1-0.2,0-0.6,0.2-0.8c-0.1,0-0.2-0.1-0.2-0.2c-0.2-0.1-0.3-0.1-0.6-0.1
		c0-0.1-0.1-0.2-0.2-0.2c0-0.1,0-0.3,0-0.4c0.3-0.2,0.4-0.7,0.6-0.9c-0.1-0.1-0.3-0.1-0.4-0.1c0-0.1,0-0.2,0-0.3c0,0-0.1,0-0.1-0.1
		c0-0.2,0-0.3,0-0.4c0-2.9,0-6.2-0.1-9.4c-0.1-3.8-0.1-7.7-0.1-11c1.1,0.3,2.2,0.6,3.2,0.9c1.1,0.3,2.2,0.6,3.3,0.9
		c-0.5,1.2-0.9,2.3-1.3,3.5l-0.1,0.2l0.2,0.1c0.1,0,0.2,0.1,0.3,0.1h0c0.4,0,0.6-0.4,0.8-0.6c0-0.1,0.1-0.1,0.1-0.2
		c0.7-0.8,1.3-1.8,1.9-2.8c1,0.2,2.1,0.4,3.2,0.6l0.6,0.1l-0.3-0.5c-0.3-0.5-0.8-0.6-1.3-0.7c-0.1,0-0.3-0.1-0.4-0.1
		c-0.4-0.1-0.8-0.3-1.2-0.4c0.7-1.2,1.3-2.4,1.9-3.6c1.2-2.3,2.2-5.1,3.4-8.6c0,0,0-0.1,0-0.2c0.1-0.6,0.2-0.6,0.3-0.6
		c0.2,0.2,0.1,1.2,0.1,1.7l0,0.1c-0.3,6.2-0.3,12.6-0.4,18.7c0,3.5-0.1,7.1-0.1,10.7c0,0-0.1,0-0.1,0c-0.4,0.4,0,1.3-0.1,1.7
		c-0.1-0.4-0.1-0.8-0.3-1.2c0,0.4,0.1,0.7,0.1,1.1c-0.2-0.1-0.4,0-0.5,0c-0.1-0.5-0.6-0.7-0.7-1.1c0.9-0.2,0.9-1.4,0.9-2.2
		c-0.2,0-0.2,0.3-0.3,0.3c0-0.2-0.2-0.3-0.2-0.5c-0.3,0-0.5-0.1-0.8,0.1c-0.2-0.3-0.4-0.1-0.6-0.2c-0.6,0.5-0.5,2.3,0.3,2.4
		c-0.2,0.6-0.3,1-0.4,1.5c0,0-0.1,0-0.1,0c-0.1,0-0.3,0-0.4,0c-0.2-0.2-0.3-0.5-0.4-0.6c0,0.2,0.2,0.4,0.3,0.6c-0.1,0-0.2,0-0.3,0
		c0,0.2-0.1,0.1-0.2,0.1c0-0.1,0-0.2-0.1-0.4c0,0.1,0,0.3,0,0.5c0,0,0,0.1,0,0.1c0,0,0.1,0.1,0.1,0.2c0,0.3,0.1,0.7,0,1
		c-0.2-0.3-0.4-0.6-0.9-0.7c0-0.2,0-0.4,0-0.5c0.7,0,0.7-0.9,0.7-1.6c-0.1,0-0.1,0.2-0.2,0.2c0-0.2-0.2-0.3-0.4-0.3
		c0.4-0.3,0.3-1,0.6-1.4c-0.2,0-0.4-0.1-0.6,0c-0.1-0.6-0.9-0.8-1.6-0.6c0,0,0-0.1,0-0.1c-0.2,0-0.2,0.2-0.2,0.3
		c-0.1-0.1-0.2-0.1-0.3,0c0,0.2-0.1,0.4-0.1,0.6c0.3,0.5,0.5,1.2,1.1,1.4c-0.3,0.5-0.1,1.4,0.4,1.5c0,0.2,0,0.3-0.1,0.5
		c0-0.1,0-0.1-0.1-0.2c0.2,0.3,0.1,0.7-0.2,0.8c-0.1-0.1-0.1-0.3-0.1-0.4c0.1-0.3,0.1-0.6,0.2-0.8c-0.2,0-0.3,0-0.4,0
		c0-0.1-0.1-0.1-0.1-0.3c-0.2-0.1-0.5-0.1-0.7-0.1c-0.1,0-0.3,0.2-0.3,0.1c0,0.1-0.1,0.1-0.1,0.2c-0.1,0-0.1,0-0.1,0
		c0,0,0-0.1-0.1-0.1c0.6-0.2,0.2-1,0.4-1.6c-0.2-0.1-0.3-0.3-0.6-0.3c-0.2,0-0.4,0.1-0.6,0c0-0.1-0.1-0.2-0.2-0.3
		c-0.2,0-0.2,0.1-0.3,0.1c0,0.3,0,0.5,0,0.8c-0.1,0-0.1,0.1-0.1,0c0-0.1-0.1-0.2-0.1-0.3c-0.4-0.1-0.6,0.1-0.9,0.1
		C70.8,79,70.8,79,70.7,79c-0.3,0-0.3,0.3-0.4,0.5C70.3,80.3,70.4,81,71.1,81.1z M69,83.3c-0.1,0.2,0.1,0.5,0.1,0.7
		c-0.1-0.8-0.3-1.5-0.8-1.9c0.3,0.3,0.6,0.9,0.5,1.4c-0.1-0.1-0.2-0.3-0.2-0.5c0,0.2,0.2,0.5,0.1,0.7c-0.1-0.1,0-0.2,0-0.3
		c-0.1,0.2-0.1,0.5-0.2,0.6c-0.2-0.6-0.3-1.2-0.4-1.8c0.3-0.2,0.5-0.6,0.3-1c0.3,0.2,0.3,0.8,0.9,0.8c0,0.7,0.3,1.5,0.1,2.1
		C69.1,83.8,69,83.5,69,83.3z M68.5,84.3c0-0.3,0-0.5,0.2-0.7c0.1,0.2,0.1,0.5,0.1,0.7C68.6,84.4,68.6,84.3,68.5,84.3z M68.7,84.6
		c0,0.2-0.1,0.3-0.1,0.5c-0.1-0.2-0.1-0.5-0.2-0.7C68.6,84.4,68.7,84.5,68.7,84.6z M68.4,86.9c-0.1-0.2-0.1-0.5-0.1-0.8
		C68.5,86.2,68.4,86.6,68.4,86.9z M68,85.2c0.4,0.3,0.1,0.9,0.1,1.4C67.9,86.4,68,85.7,68,85.2z M68.1,83.8c0.2,0.3,0.1,0.6-0.1,0.8
		C67.8,84.4,68,84,68.1,83.8z M69.3,85.4c0.3,0.4,0,1-0.1,1.4C69.2,86.4,69.2,85.9,69.3,85.4z M69.4,84c0,0.1,0.1,0.3,0,0.4
		C69.2,84.3,69.4,84.1,69.4,84z M66.5,86.2c0.2,0.1,0,0.4,0,0.6C66.4,86.7,66.5,86.4,66.5,86.2z M65.9,86.1c-0.2-0.2,0-0.6,0.1-0.9
		C66.1,85.5,65.9,85.8,65.9,86.1z M65.9,85c0,0.2-0.1,0.3-0.1,0.6c-0.1-0.1-0.1-0.4-0.1-0.6C65.7,85,65.8,84.9,65.9,85
		C65.8,85,65.9,85,65.9,85z M64.3,86.5c-0.1-0.4-0.1-1-0.1-1.5c0,0,0,0,0.1,0C64.5,85.5,64.4,86.1,64.3,86.5z M64.1,86.4
		c-0.2-0.2-0.1-0.6,0-0.8C64.1,85.8,64,86.1,64.1,86.4z M63.9,85.9c0-0.2,0-0.5,0-0.8c0,0,0.1,0,0.1,0c0,0,0,0,0.1,0
		C64.1,85.4,64,85.7,63.9,85.9z M63.2,86.8c0-0.4,0.1-0.8,0.1-1.2C63.4,86,63.2,86.4,63.2,86.8z M63.1,86c-0.2-0.3,0-0.7,0-1l0,0
		l0.1,0c0,0,0,0,0,0C63.3,85.4,63.2,85.7,63.1,86z M88.7,77.6c0,0,0,0.1,0,0.1c-0.1-0.2-0.1-0.4,0-0.7
		C88.7,77.2,88.7,77.5,88.7,77.6z M89.5,77.8c0,0,0,0.1,0,0.1c-0.2,0-0.4,0.1-0.5,0.2c-0.1-0.1-0.1-0.2,0-0.4
		c-0.1,0.1-0.1,0.1-0.1,0.2c0,0,0,0-0.1,0c0-0.4,0-0.7,0.2-1C89.2,77.3,89.2,77.6,89.5,77.8z M94.8,77.8c-0.2-0.3-0.2-0.5,0-0.8
		C95,77.3,94.8,77.6,94.8,77.8z M99.9,77.4c-0.1-0.2-0.2-0.4,0-0.6c0,0,0,0.1,0.1,0.2C100,77.2,99.9,77.3,99.9,77.4z M101.5,77.6
		c0,0,0,0.1,0,0.1C101.5,77.7,101.5,77.7,101.5,77.6c-0.1,0-0.1,0-0.1,0C101.4,77.6,101.5,77.6,101.5,77.6z M101.9,77.8
		c0.1,0.1,0,0.2,0,0.4c0,0,0,0-0.1,0C101.9,78.1,101.9,77.9,101.9,77.8z M102.2,77.6c0,0,0.1-0.1,0.1-0.1c0,0.1,0.1,0.2,0.1,0.3
		c-0.1,0-0.1,0.2-0.2,0.2C102.2,77.8,102.2,77.7,102.2,77.6z M102.4,77.9c0.2,0.3-0.1,0.8-0.1,1.2c0,0,0-0.1-0.1-0.1
		c0-0.1,0-0.1,0-0.1c0-0.1,0-0.2,0-0.3c0.1-0.1,0.1-0.2,0.2-0.3c0,0,0-0.1,0-0.1c0,0-0.1,0-0.1,0C102.3,78,102.4,77.9,102.4,77.9z
		 M102.6,79c0,0.2,0.1,0.3,0,0.4c0-0.1,0-0.2,0-0.2c0,0.1,0,0.2,0,0.3C102.5,79.4,102.5,79.2,102.6,79z M102.6,78.6
		c0.1,0.2,0.1,0.4,0.1,0.6c0,0-0.1-0.1-0.1-0.2C102.6,78.9,102.7,78.7,102.6,78.6z M102.6,80C102.6,80,102.6,80,102.6,80
		c0-0.1,0-0.2,0-0.2C102.6,79.9,102.6,79.9,102.6,80C102.6,80,102.6,80,102.6,80z M78.6,82c0,0.1,0,0.3,0.1,0.4
		c-0.1,0.2-0.1,0.3-0.2,0.5c0,0,0,0.1,0,0.1C78.4,82.7,78.4,82.3,78.6,82z M78,84.9L78,84.9c-0.1,0-0.1-0.1,0-0.2c0,0,0,0,0.1,0.1
		L78,84.9z M72.8,84.3c0,0.1-0.1,0.2-0.1,0.2c-0.1-0.1-0.1-0.3-0.1-0.5c0-0.3-0.1-0.7-0.2-1C72.6,83.5,72.7,84,72.8,84.3z M72.4,85
		c0,0.3-0.1,0.7-0.1,0.9c0-0.3,0-0.8,0.1-1.2C72.4,84.8,72.4,84.9,72.4,85z M72.6,84.9c0-0.1,0-0.1,0-0.2c0,0,0,0.1,0,0.1
		C72.6,84.8,72.6,84.9,72.6,84.9C72.6,84.9,72.6,84.9,72.6,84.9z M72.8,84.8C72.8,84.8,72.8,84.8,72.8,84.8
		C72.8,84.8,72.8,84.8,72.8,84.8C72.8,84.8,72.8,84.8,72.8,84.8z M72.4,84.1c0-0.1-0.1-0.2-0.1-0.4c0-0.2,0-0.4,0-0.6
		C72.4,83.4,72.4,83.8,72.4,84.1z M72.4,84.6c0,0.1,0,0.2-0.1,0.2c-0.1-0.2-0.1-0.4,0-0.7C72.3,84.3,72.3,84.4,72.4,84.6z
		 M72.1,83.8c0-0.1,0-0.1,0-0.1C72.1,83.7,72.1,83.7,72.1,83.8C72.1,83.8,72.1,83.8,72.1,83.8z M72.6,85.5c0-0.1,0.1-0.1,0.1-0.2
		c0.1,0.3,0,0.5-0.1,0.8C72.7,85.9,72.6,85.7,72.6,85.5z M75.1,81.7c0,0.2,0,0.5,0,0.7c0,0,0,0.1,0,0.1c0-0.1-0.1-0.1-0.1-0.1
		C75,82.1,75,81.8,75.1,81.7z M75.9,83c-0.1-0.1-0.1-0.2-0.2-0.4c0.1,0.1,0.1,0.2,0.2,0.2C75.9,82.9,75.9,82.9,75.9,83z M75.5,82.4
		c0.1,0.2,0.1,0.5,0.2,0.7c0,0-0.1,0.1-0.1,0.1C75.5,83,75.5,82.7,75.5,82.4z M76.2,83.6C76.2,83.6,76.2,83.6,76.2,83.6
		c0,0.1,0,0.1,0,0.1C76.2,83.7,76.2,83.7,76.2,83.6z M75.7,82.5c0,0,0-0.1-0.1-0.1c0.1,0,0.1,0.1,0.2,0.3
		C75.8,82.6,75.7,82.5,75.7,82.5z M75.5,82c0-0.2,0-0.4,0-0.6c0.2,0.3,0.5,0.9,0.5,1.3C75.9,82.4,75.6,82.3,75.5,82z M73.3,83.4
		C73.3,83.4,73.3,83.4,73.3,83.4c0,0,0,0.1,0,0.2C73.3,83.5,73.3,83.4,73.3,83.4z M73.7,83.1C73.7,83.1,73.7,83.1,73.7,83.1
		C73.7,83.1,73.7,83.1,73.7,83.1C73.7,83.1,73.7,83.1,73.7,83.1z M73.9,83.5c-0.1,0-0.1-0.1-0.1-0.2C73.8,83.3,73.8,83.4,73.9,83.5z
		 M73.8,83.1c0,0,0.1,0.1,0.1,0.1C73.8,83.2,73.8,83.1,73.8,83.1z M74.1,83.1C74.1,83.1,74.1,83.1,74.1,83.1
		C74.1,83.1,74.1,83.1,74.1,83.1C74.1,83.1,74.1,83.1,74.1,83.1z M74.6,83c0,0,0-0.1,0.1-0.1c0,0.1,0,0.2,0,0.3c0,0,0,0,0,0
		C74.6,83.1,74.6,83.1,74.6,83z M74.7,82.6C74.8,82.6,74.8,82.6,74.7,82.6c0.1,0,0.1,0.1,0.1,0.2C74.8,82.8,74.8,82.7,74.7,82.6z
		 M74.5,82C74.6,82,74.6,82.1,74.5,82c0.1,0.1,0,0.1,0,0.1C74.6,82.1,74.5,82.1,74.5,82z M74.7,82.1C74.7,82.1,74.7,82.2,74.7,82.1
		c0,0.1,0,0.2,0,0.2C74.6,82.3,74.7,82.2,74.7,82.1z M74.8,82.1C74.7,82.1,74.7,82.1,74.8,82.1c-0.1-0.2,0-0.3-0.1-0.4
		C74.8,81.8,74.8,82,74.8,82.1z M74.7,81.8c0,0.1,0,0.2-0.1,0.3c-0.1,0-0.1-0.1-0.2-0.1C74.5,81.9,74.6,81.8,74.7,81.8z M74.5,82.3
		c0,0.1-0.1,0.3-0.1,0.4c0-0.1-0.1-0.1-0.1-0.2c0-0.2,0-0.3,0-0.5C74.4,82,74.5,82.1,74.5,82.3z M74.2,82.1c0-0.1-0.1-0.1-0.1-0.2
		c0,0,0.1,0,0.1,0C74.2,82,74.2,82.1,74.2,82.1z M74.1,82.6c-0.1,0.1-0.1,0.2-0.1,0.3h-0.1c0,0,0,0,0.1,0.1c0,0,0,0.1,0,0.1
		c-0.1,0-0.2-0.1-0.3-0.1c0-0.1-0.1-0.2-0.1-0.3c0.2-0.1,0.3-0.3,0.4-0.6C74,82.3,74,82.4,74.1,82.6z M73.2,81.2
		c-0.1,0-0.1,0-0.2-0.1c0-0.2-0.1-0.4-0.1-0.6c0,0,0.1,0,0.2,0c0,0,0.1,0.1,0.1,0.1c0,0,0,0,0,0C73.2,80.9,73.2,81.1,73.2,81.2z
		 M73.3,83.2c0,0,0-0.1,0-0.1C73.3,83.1,73.3,83.2,73.3,83.2z M73.3,85.6C73.3,85.6,73.3,85.6,73.3,85.6c0,0.1,0,0.2,0,0.2
		C73.2,85.8,73.2,85.7,73.3,85.6z M73.6,83.9c0,0,0-0.1,0-0.1c0,0,0-0.1,0.1-0.1c0,0,0,0-0.1,0.1c0-0.1,0-0.2-0.1-0.4
		c0.1,0,0.1,0.2,0.2,0.4C73.7,83.8,73.7,83.8,73.6,83.9C73.7,83.8,73.6,83.9,73.6,83.9z M74,84.2C73.9,84.2,73.9,84.2,74,84.2
		C73.9,84.2,73.9,84.2,74,84.2c-0.1,0,0-0.2,0-0.2c0,0,0,0.1,0,0.1C74,84.1,74,84.1,74,84.2z M74,84.2C74,84.2,73.9,84.2,74,84.2
		C73.9,84.2,73.9,84.2,74,84.2C73.9,84.2,73.9,84.2,74,84.2z M74.8,85c0,0,0,0.1,0,0.1C74.8,85.1,74.8,85.1,74.8,85z M75,82.4
		c0,0,0.1,0.1,0.1,0.1c0,0.1,0,0.2-0.1,0.2C75,82.7,75,82.5,75,82.4z M75,83c0-0.1,0.1-0.2,0.1-0.4c0,0,0,0,0.1,0.1
		c0,0.2,0,0.4,0,0.5c0,0.1-0.1,0.1-0.1,0.2C75.1,83.3,75.1,83.2,75,83z M75.1,83.6c0-0.1,0.1-0.2,0.1-0.2c0,0.1,0,0.2,0,0.3
		c0,0-0.1,0.1-0.1,0.1C75.1,83.7,75.1,83.6,75.1,83.6z M75.4,80.8C75.4,80.8,75.4,80.8,75.4,80.8c0,0.2,0,0.5,0,0.7
		C75.3,81.3,75.3,81,75.4,80.8z M75.6,83.3c0,0,0.1-0.1,0.1-0.1c0,0.1,0,0.2,0,0.3C75.6,83.5,75.6,83.4,75.6,83.3z M76,84.6
		c0,0.1,0,0.2,0.1,0.4c0,0.3-0.1,0.6-0.2,0.8C75.9,85.4,75.9,85,76,84.6z M76.2,83.9c0,0,0.1-0.1,0.1-0.1c0.1,0.1,0,0.3-0.1,0.5
		C76.2,84.2,76.2,84,76.2,83.9z M79.8,80c0.2,0.3,0,0.9,0,1.3C79.6,80.9,79.5,80.4,79.8,80z M80.1,80.1
		C80.1,80.1,80.1,80.1,80.1,80.1C80.1,80.1,80.1,80.1,80.1,80.1C80.1,80.1,80.1,80.1,80.1,80.1z M85.8,79c0,0.1,0.1,0.2,0.1,0.3
		l-0.1,0.1C85.8,79.3,85.8,79.2,85.8,79z M85.8,78.8C85.8,78.8,85.8,78.8,85.8,78.8C85.8,78.8,85.8,78.8,85.8,78.8
		C85.8,78.8,85.8,78.8,85.8,78.8z M88.7,77.9C88.7,77.9,88.7,77.9,88.7,77.9c0.1,0.2,0.1,0.3,0.1,0.4c0,0,0,0.1,0,0.1
		C88.6,78.3,88.7,78.1,88.7,77.9C88.7,77.9,88.7,77.9,88.7,77.9z M93.8,78.2C93.8,78.1,93.7,78.1,93.8,78.2c0-0.1,0-0.1,0-0.2
		C93.8,78,93.8,78.1,93.8,78.2z M97.2,80c0,0.1,0,0.1,0,0.2l-0.1,0c0-0.1,0-0.2,0-0.4C97.1,79.9,97.1,80,97.2,80z M98.1,78.6
		c0.1,0.1,0.1,0.3,0,0.5c0,0,0,0,0,0C98,78.9,98,78.8,98.1,78.6z M99,78.2c0,0.1,0,0.1-0.1,0.2C99,78.3,99,78.2,99,78.2
		C99,78.2,99,78.2,99,78.2z M102.6,79.7C102.6,79.7,102.6,79.7,102.6,79.7C102.6,79.7,102.6,79.7,102.6,79.7z M101.7,80.5
		C101.8,80.5,101.8,80.6,101.7,80.5c0,0.1,0,0.1,0,0.1C101.7,80.6,101.7,80.6,101.7,80.5z M101.8,79.9
		C101.8,79.9,101.8,79.9,101.8,79.9c0-0.1,0-0.2,0-0.3C101.8,79.6,101.9,79.7,101.8,79.9C101.9,79.8,101.8,79.8,101.8,79.9z
		 M102.1,81c0-0.1,0-0.3,0.1-0.4c0,0.1,0.1,0.2,0.1,0.3c0,0.1,0,0.1,0,0.2L102.1,81z M102.4,80.7c0-0.2,0-0.3,0-0.5
		C102.4,80.4,102.4,80.5,102.4,80.7z M101.9,79.7c0-0.1,0-0.1-0.1-0.2c0.1-0.1,0.1-0.2,0.2-0.3C102,79.3,102,79.5,101.9,79.7z
		 M100.6,79.8c0,0,0.1,0.1,0.1,0.1c0,0.1,0,0.1,0,0.2c0,0-0.1,0-0.1,0C100.6,80,100.6,79.9,100.6,79.8
		C100.6,79.8,100.6,79.8,100.6,79.8z M100.8,80.6c0,0.1,0,0.1,0,0.2l-0.1,0c0-0.1,0.1-0.3,0.1-0.4C100.8,80.5,100.8,80.5,100.8,80.6
		z M100.6,80.8L100.6,80.8c0-0.2,0-0.4,0-0.6C100.7,80.3,100.6,80.6,100.6,80.8z M93.3,78.9c0.1,0.2,0.2,0.4,0.2,0.6
		c0,0,0,0.1-0.1,0.1c-0.1-0.2-0.1-0.4-0.1-0.5C93.3,79,93.3,79,93.3,78.9z M92.9,79.4c0,0.1,0,0.1,0,0.2l0,0c0,0,0,0,0,0
		C92.8,79.5,92.9,79.4,92.9,79.4z M93.6,78.4c0.1,0.1,0.1,0.3,0.1,0.5C93.6,78.7,93.6,78.6,93.6,78.4C93.5,78.4,93.6,78.4,93.6,78.4
		z M93,79.6L93,79.6c-0.1-0.1-0.1-0.3-0.2-0.4c0-0.2,0-0.3,0-0.5c0.1,0.1,0.1,0.2,0.1,0.3C93.1,79.2,93.1,79.4,93,79.6z M93,78.7
		c0,0.1,0,0.1,0,0.2C93,78.8,93,78.7,93,78.7C93,78.7,93,78.7,93,78.7z M91.9,79.4L91.9,79.4c0-0.1,0-0.1,0-0.1
		C91.9,79.3,91.9,79.3,91.9,79.4z M88.8,78.9C88.8,78.9,88.8,78.9,88.8,78.9L88.8,78.9C88.7,78.9,88.7,78.8,88.8,78.9
		C88.7,78.8,88.7,78.8,88.8,78.9C88.7,78.8,88.8,78.8,88.8,78.9z M97.2,80.2c0,0,0-0.1,0-0.1C97.2,80.2,97.2,80.2,97.2,80.2
		L97.2,80.2z M97.9,79.8c0-0.1,0-0.2,0-0.3c0,0,0.1,0.1,0.1,0.2C97.9,79.7,97.9,79.8,97.9,79.8z M99.5,78.2c0.1,0,0.2,0.1,0.2,0.1
		c0,0.1-0.1,0.2-0.1,0.3C99.5,78.5,99.5,78.4,99.5,78.2z M98.2,79.5C98.2,79.5,98.2,79.5,98.2,79.5C98.2,79.5,98.2,79.5,98.2,79.5
		C98.2,79.5,98.2,79.5,98.2,79.5z M98.4,79.1C98.4,79.1,98.4,79.1,98.4,79.1C98.4,79.1,98.4,79.1,98.4,79.1
		C98.4,79.1,98.4,79.1,98.4,79.1z M98.9,80.4C98.9,80.5,98.9,80.5,98.9,80.4L98.9,80.4C98.9,80.5,98.9,80.5,98.9,80.4z M99.1,80.3
		C99.1,80.3,99,80.3,99.1,80.3C99,80.2,99,80,98.9,79.8c0,0.1,0.1,0.2,0.1,0.2C99.1,80.2,99.1,80.2,99.1,80.3z M98.1,80.4
		C98.1,80.4,98.1,80.4,98.1,80.4L98.1,80.4C98.1,80.4,98.1,80.4,98.1,80.4z M99.7,79.1c0-0.1,0-0.2-0.1-0.2c0-0.2,0.1-0.3,0.1-0.5
		c0,0,0.1,0.1,0.1,0.2C99.8,78.7,99.8,78.9,99.7,79.1C99.7,79.1,99.7,79.1,99.7,79.1z M99.8,78.2c0-0.1,0-0.1,0-0.1
		C99.8,78.1,99.8,78.1,99.8,78.2z M99.5,78.2c0-0.1,0-0.1,0-0.2c0.1,0.1,0.1,0.1,0.2,0.2C99.6,78.2,99.5,78.2,99.5,78.2z M99.1,78.7
		c0,0-0.1-0.1,0-0.1C99.1,78.6,99.1,78.6,99.1,78.7c-0.1-0.2,0-0.3,0-0.3C99.2,78.5,99.1,78.6,99.1,78.7z M98.8,78.5
		c-0.1-0.1-0.1-0.1-0.1-0.2c0,0,0-0.1,0-0.1c0,0,0.1,0,0.1,0C98.8,78.3,98.8,78.4,98.8,78.5z M97.7,79c0.1,0.1,0.2,0.3,0.2,0.4
		c0,0,0,0,0,0c-0.1-0.1-0.1-0.1-0.2-0.2C97.7,79.2,97.7,79.1,97.7,79C97.7,79.1,97.7,79,97.7,79z M97.6,80c0,0,0,0.1,0,0.1
		c0,0,0,0-0.1,0c0-0.1,0-0.1,0-0.2C97.6,79.9,97.6,79.9,97.6,80z M97.6,80.2c0,0,0,0.1,0,0.1l0,0C97.6,80.3,97.6,80.3,97.6,80.2
		C97.6,80.2,97.6,80.2,97.6,80.2C97.6,80.2,97.6,80.2,97.6,80.2z M96.5,80.1C96.5,80.1,96.5,80.1,96.5,80.1c0-0.1,0-0.1,0-0.2
		C96.6,79.9,96.6,80,96.5,80.1z M94.4,79.6C94.4,79.6,94.4,79.7,94.4,79.6c0,0.1,0,0.1,0.1,0.1c0,0,0,0,0,0c0,0,0,0,0,0l-0.1,0
		C94.3,79.7,94.3,79.7,94.4,79.6C94.3,79.7,94.4,79.6,94.4,79.6z M94.1,79C94,78.8,94,78.6,94,78.3C94.1,78.4,94.2,78.7,94.1,79z
		 M92.2,78.7c0-0.1-0.1-0.2-0.1-0.2c0,0,0,0,0.1,0C92.1,78.6,92.1,78.6,92.2,78.7z M91.7,78.8c0.1,0.1,0.2,0.3,0.2,0.4
		c0,0.1-0.1,0.1-0.1,0.2l-0.1,0C91.7,79.2,91.7,79,91.7,78.8C91.7,78.8,91.7,78.8,91.7,78.8z M91.2,79.1c0,0,0,0.1-0.1,0.1l-0.2,0
		c0-0.2,0.1-0.4,0.1-0.6c0,0,0,0.1,0.1,0.1C91.2,78.9,91.2,79,91.2,79.1z M91,78.4C91,78.4,91,78.4,91,78.4
		C91,78.5,90.9,78.5,91,78.4C90.9,78.5,90.9,78.5,91,78.4C90.9,78.5,91,78.4,91,78.4z M88.9,78.2C88.9,78.2,88.9,78.2,88.9,78.2
		C88.9,78.1,88.9,78.1,88.9,78.2C88.9,78.1,88.9,78.1,88.9,78.2C88.9,78.2,88.9,78.2,88.9,78.2z M84.3,80.5L84.3,80.5
		c-0.1-0.1-0.1-0.3-0.1-0.5C84.3,80.1,84.3,80.3,84.3,80.5z M84.1,80.6L84.1,80.6C84,80.6,84,80.6,84.1,80.6
		C84,80.4,84,80.3,84,80.2c0-0.1,0-0.1,0-0.2c0,0,0,0,0,0c0,0,0.1,0,0.1,0C84,80.2,84.1,80.4,84.1,80.6z M78.8,82.2
		c0-0.3,0-0.7,0-0.9c0.3,0,0.4-0.1,0.5-0.3c0.1,0.2,0.1,0.4,0.2,0.6C79.2,81.8,79,82,78.8,82.2z M78,79.6c0-0.2,0.1-0.5,0.2-0.8
		c0.4,0,0.4,0.4,0.6,0.6C78.6,79.5,78.3,79.4,78,79.6z M78.5,82c0.1-0.2,0.1-0.5,0.1-0.7C78.6,81.5,78.8,82,78.5,82z M77.8,80.6
		c0,0,0.1,0.1,0.1,0.2c0,0-0.1,0-0.1,0C77.8,80.7,77.8,80.6,77.8,80.6z M77.1,82c-0.1,0.2-0.1,0.3-0.1,0.5c0-0.3-0.2-0.5-0.1-0.7
		c0.1,0.1,0.1,0.1,0.3,0.1C77.1,82,77.1,82,77.1,82z M76.8,81.8C76.7,81.8,76.7,81.7,76.8,81.8C76.7,81.7,76.8,81.8,76.8,81.8
		C76.8,81.8,76.8,81.8,76.8,81.8z M77.3,82.3c0-0.1,0.1-0.2,0.1-0.3c0.1,0,0.2,0,0.3-0.1c0.1,0.2,0.1,0.3,0.2,0.5
		c-0.2,0.2-0.5,0.5-0.6,0.8C77.3,82.8,77.3,82.6,77.3,82.3z M78.1,83.9C78.1,83.8,78.1,83.8,78.1,83.9
		C78.1,83.8,78.1,83.8,78.1,83.9C78.1,83.9,78.1,83.9,78.1,83.9z M78.1,83.5c0,0,0,0.1,0,0.2c0,0,0,0,0,0
		C78.1,83.6,78.1,83.5,78.1,83.5z M78.1,83.7c0,0.1,0,0.3-0.1,0.4C78,83.9,78.1,83.8,78.1,83.7z M77.9,83.6c0-0.1,0-0.2,0-0.3
		c0-0.3,0,0,0,0.2c0,0.1,0,0.4-0.1,0.6c0,0,0,0,0,0c0,0.1,0,0.2-0.1,0.2c0,0-0.1,0-0.1,0c0-0.1-0.1-0.2-0.1-0.2c0,0.1,0,0.2,0.1,0.2
		c0,0,0,0,0,0c0,0,0,0,0,0c0,0.1,0,0.1,0,0.1c0-0.1-0.1-0.3-0.1-0.4c0.1-0.5,0.4-0.9,0.6-1.3C78.1,83,78,83.3,77.9,83.6z M77.3,84.6
		C77.3,84.6,77.3,84.5,77.3,84.6c0.1,0,0.1,0.1,0.1,0.2c0,0.1-0.1,0.2-0.1,0.2C77.3,84.8,77.3,84.7,77.3,84.6z M78.2,82.2
		c-0.1-0.1-0.2-0.3-0.3-0.5c0.1-0.2,0.2-0.4,0.3-0.6c0.1,0.1,0.2,0.2,0.3,0.2C78.4,81.5,78.3,81.9,78.2,82.2z M78.4,83.5
		c0.1,0,0,0.2,0.1,0.3C78.4,83.9,78.3,83.6,78.4,83.5z M102.5,81.1C102.5,81.1,102.5,81.1,102.5,81.1
		C102.5,81.1,102.5,81.1,102.5,81.1L102.5,81.1z M102.7,79.3c0-0.1,0-0.1,0-0.2c0.2,0.3,0.1,0.5,0,0.7
		C102.7,79.7,102.7,79.5,102.7,79.3z M99.7,78.2c-0.1-0.1-0.2-0.2-0.3-0.2c0-0.3,0.1-0.6,0.2-0.7c0.1,0.2,0.1,0.5,0.1,0.8
		C99.8,78,99.8,78.1,99.7,78.2z M99.6,77.2C99.6,77.2,99.6,77.2,99.6,77.2c0-0.1,0-0.3,0-0.4C99.7,76.9,99.7,77.1,99.6,77.2z
		 M97.9,78.5c0,0.1,0,0.3,0,0.4c0-0.1-0.1-0.1-0.1-0.2C97.8,78.6,97.8,78.5,97.9,78.5C97.9,78.4,97.9,78.5,97.9,78.5z M97.5,79.6
		c0,0.1,0,0.3-0.1,0.4c0,0,0,0,0,0c0-0.1,0-0.2,0-0.3c0,0,0,0,0,0C97.4,79.6,97.5,79.6,97.5,79.6z M97.2,79.8
		C97.2,79.8,97.2,79.8,97.2,79.8C97.2,79.8,97.2,79.7,97.2,79.8C97.2,79.8,97.2,79.8,97.2,79.8z M96.6,79.8c0,0.1-0.1,0.1-0.1,0.2
		C96.5,79.9,96.5,79.8,96.6,79.8C96.5,79.8,96.5,79.8,96.6,79.8z M94.8,79C94.8,79,94.8,79,94.8,79c-0.1-0.1-0.1-0.4,0-0.5
		C94.8,78.6,94.8,78.8,94.8,79C94.8,79,94.8,79,94.8,79z M94.6,77.6c0.1,0,0.1,0.2,0.1,0.3c-0.1,0-0.1-0.1-0.2-0.1
		C94.5,77.7,94.6,77.7,94.6,77.6z M94.6,78.6c-0.2-0.2-0.3-0.4-0.1-0.7C94.8,77.9,94.9,78.4,94.6,78.6z M94.3,78
		C94.3,78,94.3,78,94.3,78c0-0.1,0-0.2,0-0.3c0,0,0.1,0.1,0.1,0.1C94.4,77.9,94.3,77.9,94.3,78z M94.2,77.7c0,0.1,0,0.1,0,0.2
		C94.1,77.8,94.1,77.7,94.2,77.7C94.1,77.7,94.1,77.7,94.2,77.7z M88.8,77.3c0-0.1-0.1-0.3-0.1-0.5c0.1,0,0.2-0.1,0.3-0.1
		C89.1,76.9,88.9,77.1,88.8,77.3z M88.4,77.3c0,0.2,0,0.4,0,0.6c-0.1,0-0.1,0.2-0.1,0.3c0,0,0,0,0,0c0,0-0.1-0.1-0.1-0.1
		c0-0.1,0-0.1,0-0.2C88.4,77.9,88.4,77.6,88.4,77.3z M87.8,78C87.8,78,87.8,78.1,87.8,78c-0.1,0-0.2,0.1-0.3,0.1
		c0-0.1,0.1-0.1,0.1-0.2C87.7,78,87.7,78,87.8,78z M66.8,84.1c0.2,0.2-0.1,0.5-0.2,0.8c-0.1-0.1-0.1-0.2-0.1-0.3
		C66.7,84.4,66.8,84.3,66.8,84.1z M67,84.5C67,84.4,67.1,84.5,67,84.5c0.2,0.8,0,1.5-0.1,2.2c-0.2-0.2-0.1-0.5-0.1-0.8
		c0-0.2-0.1-0.4-0.1-0.6C66.7,85,67,84.7,67,84.5z M67.2,85.5c0.2,0.5-0.1,0.9-0.2,1.3C67,86.4,67.2,86,67.2,85.5z M67.2,84.4
		c0.2,0,0.5,0.3,0.4,0.6C67.3,84.9,67.3,84.6,67.2,84.4z M67.3,84c0.1,0.1,0.1,0.2,0.1,0.3c-0.1,0-0.2,0-0.2,0
		C67.1,84.2,67.3,84.1,67.3,84z M67.3,85.5c0-0.2-0.1-0.4-0.1-0.6C67.4,85.1,67.5,85.3,67.3,85.5z M67.5,85.5c0.3,0.3,0,0.6-0.1,0.9
		C67.3,86.1,67.4,85.7,67.5,85.5z M71.7,85c0.4,0.5,0.1,1.1,0,1.8C71.5,86.2,71.7,85.6,71.7,85z M71.7,84.5c0-0.3,0.3-0.6,0.4-0.8
		c-0.1,0.2-0.3,0.4-0.4,0.6c0-0.3,0.2-0.7,0.3-1.1c0.2,0.6,0,1.3,0,2C71.9,85,71.7,84.8,71.7,84.5z M76.1,85.6c0,0.2,0,0.4,0,0.7
		l0,0C76,86,76,85.8,76.1,85.6z M100.8,77.7c0,0,0-0.1,0-0.1C100.8,77.6,100.8,77.7,100.8,77.7C100.8,77.7,100.8,77.7,100.8,77.7z
		 M99.9,76.9c-0.1-0.1-0.1-0.2-0.2-0.3c0,0,0,0,0-0.1c0.1,0,0.1,0.1,0.2,0.1C99.9,76.7,99.9,76.8,99.9,76.9z M96.1,77.7
		c0-0.2,0-0.4,0-0.6C96.2,77.3,96.2,77.5,96.1,77.7C96.2,77.7,96.2,77.7,96.1,77.7z M95.7,78c0-0.1,0-0.1,0.1-0.2
		C95.8,77.9,95.8,78,95.7,78C95.7,78,95.7,78,95.7,78z M94.7,77.2c0.1-0.2,0.1-0.4,0.2-0.6C94.9,76.8,94.8,77,94.7,77.2z M94.5,77.7
		c-0.1,0-0.1,0-0.2,0c0,0,0,0,0,0c0.1,0,0.2,0,0.2-0.1C94.5,77.6,94.5,77.7,94.5,77.7z M91.6,76.2C91.6,76.2,91.5,76.2,91.6,76.2
		C91.5,76.1,91.5,76.1,91.6,76.2C91.6,76.1,91.6,76.1,91.6,76.2C91.6,76.1,91.6,76.1,91.6,76.2z M91.5,76.8c0,0.2,0,0.4,0.1,0.6
		c0,0.1,0,0.1-0.1,0.2c-0.2-0.1-0.2-0.3-0.2-0.5C91.3,77,91.4,76.9,91.5,76.8z M90.9,77.1C90.9,77.1,90.9,77.1,90.9,77.1
		C90.9,77.1,90.9,77.1,90.9,77.1C90.9,77.1,90.9,77.1,90.9,77.1z M89.2,76.4c0-0.1,0-0.2,0-0.2C89.2,76.2,89.3,76.3,89.2,76.4
		C89.3,76.4,89.2,76.3,89.2,76.4z M87.1,78c0-0.1,0-0.1,0.1-0.2c0,0,0,0,0,0.1C87.2,77.9,87.1,77.9,87.1,78z M84.6,76.9
		c0-0.1,0.1-0.2,0.1-0.3c0,0.1,0,0.2,0,0.3C84.6,76.9,84.6,76.9,84.6,76.9z M84,77.4c0,0.1-0.1,0.2-0.1,0.3c0-0.1-0.1-0.2-0.1-0.3
		c0,0,0-0.1,0-0.1c0.1,0,0.2,0,0.2,0C84,77.3,84,77.4,84,77.4z M63.2,82.5c0-0.1,0.1-0.3,0.1-0.4c0,0.1,0,0.2,0,0.3
		C63.3,82.4,63.2,82.4,63.2,82.5z M62.7,84.7C62.7,84.8,62.7,84.8,62.7,84.7c0.1,0.5,0.2,1.1,0,1.5C62.4,85.9,62.6,85.2,62.7,84.7z
		 M60.7,84.9c0.2,0.1,0.1,0.5,0.1,0.8C60.6,85.6,60.6,85.1,60.7,84.9z M60.3,86.2c-0.1-0.2-0.1-0.5,0-0.7
		C60.5,85.6,60.4,85.9,60.3,86.2L60.3,86.2z M60.4,85.3c-0.1-0.2,0.1-0.5,0.1-0.7C60.5,84.8,60.5,85.2,60.4,85.3z M60.2,85.2h-0.1
		c0.1,0.1,0.1,0.2,0.1,0.4c-0.4-0.5,0.1-1.1,0.3-1.5C60.5,84.4,60.2,84.8,60.2,85.2z M98.1,22.5C98.1,22.5,98.1,22.5,98.1,22.5
		L98.1,22.5L98.1,22.5z M103.6,75.5c0-0.7,0-1.4,0-2.1c0.2,0,0.4,0,0.5,0c0,1,0,2.1,0,3.1c0,0.3,0,0.7,0,1.1c-0.1-0.3-0.1-0.7-0.1-1
		c0-0.2,0-0.3,0-0.5c-0.1,0.1,0,0.3,0,0.4c-0.1,0.4,0,1-0.1,1.4C103.4,77.5,103.6,76.4,103.6,75.5z M103.3,79.5
		C103.3,79.8,103.2,79.6,103.3,79.5c-0.1-0.2-0.1-0.4,0-0.5C103.3,79.1,103.2,79.4,103.3,79.5z M103.3,77.8
		c-0.2-0.1-0.4-0.6-0.5-0.4c-0.1-0.2,0-0.2,0-0.4C102.9,77.2,103.2,77.4,103.3,77.8z M102.3,76.6C102.3,76.6,102.3,76.6,102.3,76.6
		C102.3,76.5,102.3,76.5,102.3,76.6C102.3,76.5,102.3,76.5,102.3,76.6z M101.1,77.3c0,0.1,0,0.1,0,0.2c0,0,0,0.1-0.1,0.1
		c-0.1-0.2-0.1-0.5-0.1-0.7C101,77.1,101.1,77.2,101.1,77.3z M100.6,77.7c-0.1-0.3-0.2-0.7-0.3-1.1c-0.1,0.3,0.2,0.7,0.1,1
		c0-0.3-0.1-0.6-0.2-0.9c0,0,0-0.1,0-0.1c0.3,0,0.4-0.1,0.5-0.3C100.7,76.8,100.8,77.3,100.6,77.7z M99.1,73.5
		c0.4,0.3,0.5,1.2,1.3,1.1c0,0.1,0,0.3,0,0.4c-0.1-0.1-0.4-0.1-0.5,0c-0.1-0.2-0.3,0-0.4-0.2c-0.1,0.1-0.1,0.1-0.2,0.2
		c-0.1-0.1-0.2-0.2-0.3-0.3c0.1,0.1,0.2,0.2,0.2,0.3c-0.1,0.3-0.1,0.8,0.1,1.1c0,0,0,0,0,0c-0.1-0.3-0.3-0.5-0.5-0.5
		c-0.1-0.3-0.1-0.6-0.2-0.8C99.1,74.8,99.5,74.1,99.1,73.5z M97.6,78.1C97.6,78.1,97.5,78.1,97.6,78.1
		C97.5,78.1,97.6,78.1,97.6,78.1z M96.9,77.7c0.1,0,0.1,0.1,0.2,0.1C97,77.8,96.9,77.8,96.9,77.7C96.9,77.7,96.9,77.7,96.9,77.7z
		 M96.7,77.6c0.1,0,0.1,0,0.1,0c0,0.1,0,0.1-0.1,0.1c0,0-0.1,0-0.1,0C96.7,77.7,96.7,77.6,96.7,77.6z M96,77.8c-0.1,0-0.1,0-0.1-0.1
		c0,0,0,0,0,0c0,0,0-0.1,0.1-0.1C95.9,77.7,95.9,77.8,96,77.8z M95,78.3c0,0,0.1,0.1,0.1,0.2c0,0,0,0.1-0.1,0.1
		C95,78.5,95.1,78.4,95,78.3z M94.5,73.5c0.2,0.1,0.3,0.2,0.6,0.2c-0.1,0.8-0.1,1.7-0.2,2.6c0,0.1,0,0.1,0,0.2c-0.2,0-0.3,0-0.4,0.1
		c0-0.1-0.1-0.2-0.1-0.3c0,0,0,0,0,0c0-0.1,0-0.2,0.1-0.3c-0.1,0.1-0.1,0.2-0.1,0.3c-0.1,0-0.3,0-0.4,0c0-0.1,0-0.1,0-0.2
		c0,0,0,0,0,0c0-0.4,0-0.9,0-1.3C94.5,74.9,94.6,74.2,94.5,73.5z M93.6,74.9c-0.1,0.4,0.1,0.7,0,0.9c0,0.1,0,0.1-0.1,0.2
		c0,0,0-0.1-0.1-0.2C93,75.7,92.8,76,92.4,76c-0.3-0.8-0.3-1.9,0.1-2.5C92.7,74.1,92.8,74.9,93.6,74.9z M92.5,73.2
		c0.2,0.3-0.2,0.7-0.3,1c-0.1-0.2-0.1-0.5-0.1-0.8C92.3,73.4,92.4,73.3,92.5,73.2z M90.7,75.2c1,0.2,0.7-1.1,0.9-1.8
		c0.2,0,0.3,0.8,0.3,1.1c0,0.5-0.4,0.9-0.7,1.4c-0.1-0.1-0.3-0.2-0.5-0.2C90.7,75.5,90.7,75.4,90.7,75.2z M90.6,75.2
		c0,0.1,0,0.3,0,0.5c-0.1,0-0.1,0-0.2,0c-0.1,0.1-0.1,0.1-0.2,0.1c-0.1,0.2-0.1,0.3-0.1,0.5c0,0-0.1,0-0.1,0c0-0.5,0-0.9,0-1.4
		C90.1,75.1,90.3,75.2,90.6,75.2z M89.6,74.8c0.2,0.3,0,0.9,0,1.3C89.4,75.8,89.4,75.2,89.6,74.8z M88,73.6c0.4,0,0.4,0.4,0.6,0.6
		c-0.3,0.1-0.6,0-0.9,0.2C87.8,74.2,87.9,73.9,88,73.6z M87.5,75.4c0.1,0.1,0.2,0.3,0.3,0.4c0,0.1-0.1,0.1-0.2,0.1
		c0,0.4,0.3,0.5,0.4,0.7c-0.1,0.1-0.3,0.1-0.4,0c-0.1-0.2-0.2-0.4-0.3-0.6C87.3,75.9,87.4,75.7,87.5,75.4z M87.2,76.5
		c0.1,0.1,0.1,0.1,0.2,0.2c-0.2,0.3,0,0.7,0,1c0,0,0,0,0,0c0-0.3-0.1-0.5-0.2-0.7c0,0.3,0.1,0.5,0.1,0.7c-0.1,0-0.2,0-0.3,0
		C87,77.3,87.1,76.9,87.2,76.5z M87,76C87,76,87,76,87,76c0.1,0.5-0.2,1-0.3,1.4c0,0-0.1-0.1-0.1-0.1c0-0.1-0.1-0.2-0.1-0.3
		C86.8,76.8,86.9,76.4,87,76z M84.7,74.1c0,0.7,0.2,1.5,0,2.1c0,0,0,0,0,0c0-0.1,0-0.1-0.1-0.1c0,0,0.1,0.1,0.1,0.1
		c-0.1,0-0.1,0-0.2,0c-0.1-0.3-0.4-0.5-0.7-0.5c0-0.7-0.1-1.4-0.1-2.1C83.8,73.9,84.1,74.1,84.7,74.1z M63.5,81c0,0.2,0,0.3,0,0.5
		c0,0,0,0,0,0c0-0.2-0.1-0.3-0.1-0.5C63.4,81.1,63.4,81,63.5,81z M63.1,81.1c0.2,0,0.2,0.6,0.2,0.7c0,0.2-0.2,0.5-0.3,0.7
		c-0.2,0.1-0.3,0.2-0.4,0.3c-0.1-0.1-0.1-0.3-0.1-0.6C63.1,82.5,63,81.6,63.1,81.1z M62.5,82.9C62.5,82.9,62.5,83,62.5,82.9
		c-0.1,0-0.1-0.1-0.1-0.1C62.5,82.8,62.5,82.9,62.5,82.9z M62.4,82.3c0,0.3,0,0.6,0,1c0,0,0,0.1,0,0.1c-0.1,0.3,0,0.5,0,0.8
		c0,0.3,0,0.5,0,0.8c-0.4-0.6-0.3-1.9-0.4-2.8C62.1,82.2,62.2,82.3,62.4,82.3z M61.7,82.1c0.1,0.2,0,0.6,0,0.9
		C61.6,82.7,61.5,82.3,61.7,82.1z M61.4,82.8c0.2,0.5,0.3,1.1,0.3,1.8c-0.2-0.1-0.5-0.3-0.3-0.6c0,0-0.1,0.1-0.1,0.2
		c-0.4-0.1-0.1-0.8-0.2-1.2C61.2,83,61.3,82.9,61.4,82.8z M60.6,81.2c0.3,0,0.3,0.3,0.4,0.4c-0.2,0.1-0.4,0-0.6,0.1
		C60.4,81.6,60.5,81.4,60.6,81.2z M60.2,82.4c0.2,0.2,0.2,0.5,0.5,0.5c-0.1,0.2-0.1,0.5-0.2,0.7c-0.2-0.2-0.3-0.5-0.4-0.8
		C60.2,82.8,60.2,82.6,60.2,82.4z M60,83.2c0.2,0.2,0.2,0.4,0.3,0.6c-0.2,0.2-0.4,0.4-0.6,0.8C59.8,84.1,60,83.6,60,83.2z
		 M59.1,84.7c0.1,0.3,0.2,0.9,0.1,1.2l0,0C59.1,85.5,59,85.1,59.1,84.7z M59,85.9l-0.1,0c0-0.2,0-0.3,0.1-0.5
		C59,85.6,59,85.7,59,85.9z M58.5,85.2c0-0.5,0-1,0-1.5C58.7,84.1,58.8,84.7,58.5,85.2z M58.3,83.3c0.1,0.7,0,1.5,0.1,2.1
		c-0.2-0.1-0.1-0.4-0.1-0.7C58.3,84.1,58.1,83.6,58.3,83.3z M58.1,84c0,0.2,0,0.5,0.1,0.8c-0.1-0.1-0.1-0.3-0.2-0.4
		C58,84.2,58,84.1,58.1,84z M58,85.7l-0.2,0c0-0.1,0-0.2,0-0.3C58,85.5,58,85.6,58,85.7z M57.7,85.6l-0.2,0c0-0.2,0.1-0.3,0.1-0.5
		C57.7,85.3,57.7,85.4,57.7,85.6z M57.2,85.5c0-0.3,0-0.7-0.1-1c0.1,0,0.1,0.2,0.1,0.3C57.3,85,57.3,85.3,57.2,85.5L57.2,85.5z
		 M56.7,82.5c0,0,0.1,0,0.1,0c0.3,0.4,0.5,1,0.7,1.5c-0.1,0.1-0.1,0.2-0.1,0.3c-0.1,0-0.1-0.1-0.2-0.1C57,83.7,56.8,83.1,56.7,82.5z
		 M57,84.5c0.1,0.3,0.1,0.6,0.1,1C57,85.2,56.8,84.8,57,84.5z M56.8,85.4c0.1,0.1,0.1,0,0.1,0.1L56.8,85.4
		C56.9,85.4,56.9,85.4,56.8,85.4c0,0-0.1-0.1-0.1-0.2C56.7,85,56.8,85.1,56.8,85.4z M56.7,85.4C56.7,85.4,56.7,85.4,56.7,85.4
		L56.7,85.4C56.7,85.4,56.7,85.4,56.7,85.4z M113.6,77.7c0.1,0,0.1,0.2,0,0.2C113.5,77.9,113.6,77.7,113.6,77.7z M113.7,78
		c0.1,0.7,0.1,1.6-0.2,2C113.5,79.5,113.6,78.7,113.7,78z M113.4,78.4c0.1,0.3-0.1,0.8-0.1,1.2C113.1,79.2,113.1,78.8,113.4,78.4z
		 M113,79.3c0.5,0.8,0,1.8-0.2,2.6C112.8,81.1,112.8,80,113,79.3z M112.4,77.6c0.1,0.3,0.2,0.7,0.2,1c-0.1,0.3-0.2,0.5-0.3,0.7
		C112.3,79,112.4,78.2,112.4,77.6z M112.1,74.6c0.1,0,0.1,0.1,0.1,0.2C112.1,74.9,112.1,74.7,112.1,74.6z M111.3,76.5
		c-0.1-0.7,0-1.6,0.1-2.2c0.2,0.2,0.3,0.4,0.6,0.4c0.1,1-0.1,2.1-0.1,3.2c-0.2-0.4-0.2-1-0.4-1.4c0,0.4,0.2,0.9,0.2,1.4
		c-0.1-0.1-0.1-0.3-0.2-0.4c0.2,0.5,0.2,1.2,0,1.8c-0.2-0.3-0.3-0.9-0.3-1.4c0-0.8,0.3-1.7,0.5-2.2
		C111.5,75.8,111.4,76.1,111.3,76.5z M110.9,76.3c0.1,0.1,0,0.3,0,0.4C110.7,76.7,110.8,76.5,110.9,76.3z M110.7,78.4
		c-0.1,0-0.1-0.1-0.2,0c0.4,0.5-0.1,1.5-0.2,2.1c0-0.7-0.2-1.4-0.1-1.9c0.1-0.5,0.5-0.8,0.6-1.1C111,77.7,110.6,78,110.7,78.4z
		 M110.1,78c0.1-0.5,0.3-0.8,0.6-1.1C111,77.4,110.3,77.7,110.1,78z M110.6,76.5c-0.3,0.1-0.4,0.4-0.6,0.6c0,0,0-0.1,0-0.2
		c0-0.2,0-0.3,0-0.5c0.1-0.2,0.3-0.3,0.3-0.4c-0.1,0.1-0.2,0.2-0.3,0.3c0-0.4,0-0.7,0-1.1C110.2,75.7,110.4,76.1,110.6,76.5z"/>
	<path class="st0" d="M19.9,21.9c-1-1.4,0.7-1.6,0.3-2.7c-1.1,1.3-2.9,2.2-4,3.5C17.6,22.1,18.3,22.9,19.9,21.9z"/>
	<path class="st0" d="M25.5,21.1c-1.2-2,1.7-2.1,1.2-3.7c-1.4,1.3-5.4,3.9-4.1,4.8C22.5,20.3,24.4,22.4,25.5,21.1z"/>
	<path class="st0" d="M41.8,24.5c-0.9-2.2,2-2.6,1.6-4.5c-1.5,3.2-5.8,2.2-7.2,5.3C38.7,23.7,40,24.7,41.8,24.5z"/>
	<path class="st0" d="M28.2,24.7c-2.7,0.5-1.7,2.7-3.2,3.8c-0.9-0.5-4.3-1-4.5,0.4c2.3-0.2,4,0.9,5.9,1.7
		C26.5,28.4,26.9,26.3,28.2,24.7z"/>
	<path class="st0" d="M50.3,38.2c0.4-3.4,2.8-4.1,4-6.2c-2.8-0.2-3.4,2.7-5.5,3.5c-0.9-1-4.5-3.1-5.5-0.8
		C47.6,34.4,47,37.7,50.3,38.2z"/>
	<path class="st0" d="M28.5,57.4c1.1-3.6,5.4-1.4,8.3-2.4c-0.2-3.4,1.5-6,3.4-8.5c-4.7,1-4,4.6-6,6.8C31.8,51.5,26.6,56,28.5,57.4z"
		/>
	<path class="st0" d="M53.1,42.3c-3.6,1.4-2.9,4.8-4.6,7c-2.2-1.2-8.5-0.1-8.6,3.2c4.1-3.5,7.4-1.5,10.5,0
		C50.7,48.9,51.2,45.3,53.1,42.3z"/>
	<path class="st0" d="M37.1,63.4c-2.8-1.6-9.8-2.6-12,1.2c6.5-3,9.5,1.6,14.5,1.8c0.2-4.5,2.5-8.1,5.6-11.3
		C39.7,56.6,39.4,60.4,37.1,63.4z"/>
	<path class="st0" d="M36.8,75.8c-2.2-4.7-11.3-4.5-14.1-1.5c6.3-1.8,10.3,1.7,14.2,5.2c2.2-4.4,5.4-8.3,11.3-11
		C42.7,68.4,38,71.5,36.8,75.8z"/>
	<path class="st0" d="M14.4,37.1c1.4-1.3,3.3-2,5.2-1.9c-0.8-2.1,0.4-3.3,0.8-4.9C19.3,32.9,15.1,34.2,14.4,37.1z"/>
	<path class="st0" d="M64.3,25.9c-0.4-2,0.1-3.5,0.9-4.9c-2.1,0.6-1.2,2.6-2.7,3.6c-0.8-0.2-3.5-1.3-3.7,0.7
		C61.2,24.2,61.7,27.4,64.3,25.9z"/>
	<path class="st0" d="M24.7,46.3c0.2-4.8,8.9-2.7,8.8-4.6c-4-1.1-1.7-8.3-2.9-9.4c-1.9,2.3-0.3,6.3-1.2,9
		C26.7,40.4,22.5,44.9,24.7,46.3z"/>
	<polygon class="st0" points="69.2,99.6 54.3,86 66.9,106.6 78.9,103 96.3,124.1 109.7,109.6 86.4,95.5 	"/>
	<polygon class="st0" points="59.6,108.3 54.1,86.5 55.7,114.7 68.3,114.1 80,138.8 96.5,128 77.4,108.6 	"/>
	<polygon class="st0" points="45.6,123 53.6,88.5 41.5,121.6 	"/>
	<path class="st0" d="M153.9,117.7h-9.1l0-0.1l6.7-7.3c1.5-1.6,2.7-3.1,3.5-4.5c0.8-1.4,1.2-2.8,1.2-4.2c0-2.1-0.7-3.8-2-5.1
		c-1.4-1.3-3.2-2-5.5-2c-2.7,0-4.8,0.7-6.3,2.2c-1.5,1.5-2.2,3.3-2.2,5.5l0,0.1h3.3c0-1.7,0.4-2.9,1.2-3.8c0.8-0.9,2.1-1.4,3.9-1.4
		c1.2,0,2.2,0.4,3,1.3c0.7,0.9,1.1,1.9,1.1,3.2c0,1-0.3,2-0.8,3c-0.5,1-1.5,2.3-3,4l-8.4,9.3v2.4h16.5v-5.6h-2.9L153.9,117.7z"/>
	<path class="st0" d="M200.7,118.2c1.4-1.7,2.2-4.2,2.2-7.5v-6.1c0-3.3-0.7-5.8-2.2-7.5c-1.5-1.7-3.4-2.6-6-2.6
		c-2.5,0-4.5,0.9-5.9,2.6c-1.4,1.7-2.2,4.3-2.2,7.5v6.1c0,3.3,0.7,5.8,2.2,7.5c1.5,1.7,3.4,2.6,5.9,2.6
		C197.2,120.8,199.2,119.9,200.7,118.2z M191.2,116.4c-0.8-1.1-1.2-2.8-1.2-5v-7.5c0-2.2,0.4-3.9,1.2-5c0.8-1.1,1.9-1.7,3.5-1.7
		c1.5,0,2.7,0.6,3.5,1.7c0.8,1.1,1.2,2.8,1.2,5v7.5c0,2.2-0.4,3.9-1.2,5c-0.8,1.1-1.9,1.7-3.5,1.7
		C193.2,118.1,192,117.5,191.2,116.4z"/>
	<polygon class="st0" points="239.5,94.9 232,96.5 232,98.7 236.1,98.6 236.1,117.7 232.1,118.2 232.1,120.4 243.4,120.4 
		243.4,118.2 239.5,117.7 	"/>
	<path class="st0" d="M290.8,118.9c1.5-1.2,2.3-3.1,2.3-5.4c0-1.4-0.4-2.7-1.3-3.8c-0.9-1.1-2.1-1.9-3.5-2.4c1.3-0.5,2.3-1.2,3-2.2
		c0.7-1,1.1-2.2,1.1-3.5c0-2.2-0.7-4-2.1-5.2c-1.4-1.2-3.3-1.8-5.5-1.8c-2.3,0-4.1,0.6-5.5,1.8c-1.4,1.2-2.1,3-2.1,5.2
		c0,1.3,0.4,2.5,1.1,3.5c0.7,1,1.7,1.7,3,2.2c-1.5,0.5-2.6,1.3-3.5,2.4c-0.9,1.1-1.3,2.4-1.3,3.8c0,2.4,0.8,4.2,2.3,5.4
		c1.5,1.2,3.5,1.9,6,1.9C287.3,120.8,289.3,120.2,290.8,118.9z M280.7,101.6c0-1.3,0.4-2.4,1.1-3.2c0.8-0.8,1.7-1.2,3-1.2
		c1.2,0,2.2,0.4,3,1.2c0.8,0.8,1.2,1.9,1.2,3.1c0,1.3-0.4,2.3-1.2,3.1c-0.8,0.8-1.8,1.2-3,1.2c-1.2,0-2.2-0.4-3-1.2
		C281.1,104,280.7,102.9,280.7,101.6z M280,113.5c0-1.4,0.4-2.6,1.3-3.5c0.9-0.9,2.1-1.3,3.5-1.3c1.4,0,2.6,0.5,3.5,1.4
		c0.9,0.9,1.4,2.1,1.4,3.5c0,1.4-0.4,2.6-1.4,3.4c-0.9,0.8-2.1,1.2-3.5,1.2c-1.5,0-2.7-0.4-3.5-1.2C280.4,116,280,114.9,280,113.5z"
		/>
	<path class="st0" d="M145.3,89.9c1.9,0,3.4-0.6,4.6-1.7c1-0.9,1.6-2.2,2-3.8c0.1-0.3,0-0.5-0.1-0.7c-0.1-0.2-0.3-0.3-0.5-0.3
		c-0.2,0-0.4,0-0.5,0.1c-0.2,0.1-0.3,0.3-0.3,0.6c-0.3,1.6-1,2.8-1.9,3.6c-0.8,0.7-1.9,1-3.2,1c-1.7,0-3.1-0.6-4.2-1.9
		c-1.1-1.4-1.7-3.4-1.7-6c0-2.5,0.6-4.5,1.7-5.9c1.1-1.3,2.4-2,4.2-2c1.3,0,2.4,0.3,3.2,1c0.9,0.7,1.5,1.8,1.8,3.1
		c0,0.3,0.2,0.5,0.3,0.6c0.1,0.1,0.3,0.1,0.5,0.1c0.2,0,0.3-0.2,0.4-0.3c0.1-0.2,0.2-0.4,0.1-0.6c-0.3-1.5-0.9-2.8-1.9-3.7
		c-1.1-1-2.7-1.6-4.6-1.6c-2.1,0-3.9,0.8-5.2,2.5c-1.3,1.7-2,3.9-2,6.7c0,2.8,0.7,5.1,2,6.8C141.4,89,143.2,89.9,145.3,89.9z"/>
	<path class="st0" d="M162.6,71.4c-2.5,0-4.4,0.9-5.7,2.8c-1.2,1.7-1.8,3.8-1.8,6.4s0.6,4.7,1.8,6.4c1.3,1.9,3.3,2.9,5.7,2.9
		c2.5,0,4.4-1,5.7-2.9c1.2-1.7,1.8-3.8,1.8-6.4s-0.6-4.7-1.8-6.4C167,72.3,165.1,71.4,162.6,71.4z M167.3,86.2
		c-1.1,1.6-2.6,2.4-4.7,2.4c-2.1,0-3.6-0.8-4.7-2.4c-0.9-1.4-1.4-3.3-1.4-5.5c0-2.3,0.5-4.2,1.4-5.5c1.1-1.6,2.6-2.4,4.7-2.4
		c2,0,3.6,0.8,4.7,2.4c1,1.4,1.4,3.3,1.4,5.5C168.7,82.9,168.3,84.7,167.3,86.2z"/>
	<path class="st0" d="M184.5,89.5c0.2,0.3,0.5,0.4,0.9,0.3c0.4-0.1,0.6-0.4,0.6-1V72c0-0.2-0.1-0.4-0.2-0.5
		c-0.1-0.1-0.3-0.2-0.5-0.2s-0.4,0-0.5,0.1c-0.1,0.1-0.2,0.3-0.2,0.5v15.1l-7.9-14l-0.8-1.2c-0.2-0.4-0.6-0.6-1-0.5
		c-0.4,0.1-0.7,0.4-0.7,1V89c0,0.3,0.1,0.5,0.2,0.6c0.1,0.1,0.3,0.2,0.5,0.2c0.2,0,0.4-0.1,0.5-0.2c0.1-0.2,0.2-0.4,0.2-0.6V74.1
		l7.6,13.4L184.5,89.5z"/>
	<path class="st0" d="M191.4,72.5c-0.3,0.4-0.5,1-0.5,1.6v15c0,0.2,0.1,0.4,0.2,0.6c0.1,0.1,0.3,0.2,0.5,0.2c0.2,0,0.3-0.1,0.5-0.2
		c0.1-0.1,0.2-0.3,0.2-0.6V81h7.7c0.2,0,0.4-0.1,0.5-0.2c0.1-0.1,0.2-0.3,0.2-0.5c0-0.2-0.1-0.3-0.2-0.5c-0.1-0.1-0.3-0.2-0.5-0.2
		h-7.7v-5.5c0-0.3,0.1-0.6,0.2-0.7c0.2-0.2,0.4-0.3,0.8-0.3h7.6c0.2,0,0.4-0.1,0.5-0.2c0.1-0.1,0.2-0.3,0.2-0.5
		c0-0.2-0.1-0.4-0.2-0.5c-0.1-0.1-0.3-0.2-0.5-0.2H193C192.3,71.8,191.8,72,191.4,72.5z"/>
	<path class="st0" d="M216.3,89.2c0.1-0.1,0.2-0.3,0.2-0.5c0-0.2-0.1-0.4-0.2-0.5c-0.1-0.1-0.3-0.2-0.5-0.2h-8.2
		c-0.3,0-0.6-0.1-0.8-0.3c-0.1-0.2-0.2-0.4-0.2-0.7V81h8.2c0.2,0,0.4-0.1,0.5-0.2c0.1-0.1,0.2-0.3,0.2-0.5c0-0.2-0.1-0.4-0.2-0.5
		c-0.1-0.1-0.3-0.2-0.5-0.2h-8.2v-5.4c0-0.3,0.1-0.6,0.2-0.7c0.2-0.2,0.4-0.3,0.8-0.3h8c0.2,0,0.4-0.1,0.5-0.2
		c0.1-0.1,0.2-0.3,0.2-0.5c0-0.2-0.1-0.4-0.2-0.5c-0.1-0.1-0.3-0.2-0.5-0.2h-8.2c-0.7,0-1.2,0.2-1.6,0.7c-0.3,0.4-0.5,1-0.5,1.6v13
		c0,0.6,0.2,1.2,0.5,1.6c0.4,0.5,0.9,0.7,1.6,0.7h8.5C216,89.5,216.2,89.4,216.3,89.2z"/>
	<path class="st0" d="M232,89.4c0.1-0.2,0.1-0.4,0-0.7c-0.2-0.6-0.3-1.3-0.4-2.1c-0.1-0.9-0.2-2-0.2-3.2c0-0.8-0.2-1.4-0.7-1.9
		c-0.4-0.4-0.8-0.6-1.3-0.7c0.8-0.3,1.5-0.8,1.9-1.6c0.5-0.8,0.7-1.6,0.7-2.6c0-1.3-0.4-2.4-1.2-3.3c-0.9-1-2-1.5-3.5-1.5h-5.1
		c-0.7,0-1.2,0.2-1.6,0.7c-0.3,0.4-0.5,1-0.5,1.6V89c0,0.3,0.1,0.5,0.2,0.6c0.1,0.1,0.3,0.2,0.5,0.2c0.2,0,0.3-0.1,0.5-0.2
		c0.1-0.1,0.2-0.3,0.2-0.6v-7.6h5.8c0.7,0,1.3,0.2,1.8,0.6c0.5,0.4,0.8,0.9,0.8,1.6c0,1.2,0,2.3,0.1,3.2c0.1,1.1,0.3,1.9,0.5,2.6
		c0.1,0.2,0.2,0.4,0.4,0.4c0.2,0.1,0.4,0.1,0.5,0C231.8,89.7,231.9,89.6,232,89.4z M227.2,80.1h-5.7v-5.9c0-0.3,0.1-0.6,0.2-0.7
		c0.2-0.2,0.4-0.3,0.8-0.3h4.7c1,0,1.9,0.4,2.5,1.1c0.6,0.7,0.9,1.5,0.9,2.4c0,0.9-0.3,1.7-0.9,2.4
		C229.1,79.8,228.2,80.1,227.2,80.1z"/>
	<path class="st0" d="M236.6,72.5c-0.3,0.4-0.5,1-0.5,1.6v13c0,0.6,0.2,1.2,0.5,1.6c0.4,0.5,0.9,0.7,1.6,0.7h8.5
		c0.2,0,0.4-0.1,0.5-0.2c0.1-0.1,0.2-0.3,0.2-0.5c0-0.2-0.1-0.4-0.2-0.5c-0.1-0.1-0.3-0.2-0.5-0.2h-8.2c-0.3,0-0.6-0.1-0.8-0.3
		c-0.1-0.2-0.2-0.4-0.2-0.7V81h8.2c0.2,0,0.4-0.1,0.5-0.2c0.1-0.1,0.2-0.3,0.2-0.5c0-0.2-0.1-0.4-0.2-0.5c-0.1-0.1-0.3-0.2-0.5-0.2
		h-8.2v-5.4c0-0.3,0.1-0.6,0.2-0.7c0.2-0.2,0.4-0.3,0.8-0.3h8c0.2,0,0.4-0.1,0.5-0.2c0.1-0.1,0.2-0.3,0.2-0.5c0-0.2-0.1-0.4-0.2-0.5
		c-0.1-0.1-0.3-0.2-0.5-0.2h-8.2C237.5,71.8,236.9,72,236.6,72.5z"/>
	<path class="st0" d="M262.1,71.4c-0.2,0-0.4,0-0.5,0.1c-0.1,0.1-0.2,0.3-0.2,0.5v15.1l-7.9-14l-0.8-1.2c-0.2-0.4-0.6-0.6-1-0.5
		c-0.4,0.1-0.7,0.4-0.7,1V89c0,0.3,0.1,0.5,0.2,0.6c0.1,0.1,0.3,0.2,0.5,0.2c0.2,0,0.4-0.1,0.5-0.2c0.1-0.2,0.2-0.4,0.2-0.6V74.1
		l7.6,13.4l1.3,2c0.2,0.3,0.5,0.4,0.9,0.3c0.4-0.1,0.6-0.4,0.6-1V72c0-0.2-0.1-0.4-0.2-0.5C262.4,71.4,262.2,71.4,262.1,71.4z"/>
	<path class="st0" d="M274.1,72.7c1.3,0,2.4,0.3,3.2,1c0.9,0.7,1.5,1.8,1.8,3.1c0,0.3,0.2,0.5,0.3,0.6c0.1,0.1,0.3,0.1,0.5,0.1
		c0.2,0,0.3-0.2,0.4-0.3c0.1-0.2,0.2-0.4,0.1-0.6c-0.3-1.5-0.9-2.8-1.9-3.7c-1.1-1-2.7-1.6-4.6-1.6c-2.1,0-3.9,0.8-5.2,2.5
		c-1.3,1.7-2,3.9-2,6.7c0,2.8,0.7,5.1,2,6.8c1.3,1.6,3,2.5,5.2,2.5c1.9,0,3.4-0.6,4.6-1.7c1-0.9,1.6-2.2,2-3.8
		c0.1-0.3,0-0.5-0.1-0.7c-0.1-0.2-0.3-0.3-0.5-0.3c-0.2,0-0.4,0-0.5,0.1c-0.2,0.1-0.3,0.3-0.3,0.6c-0.3,1.6-1,2.8-1.9,3.6
		c-0.8,0.7-1.9,1-3.2,1c-1.7,0-3.1-0.6-4.2-1.9c-1.1-1.4-1.7-3.4-1.7-6c0-2.5,0.6-4.5,1.7-5.9C271,73.4,272.4,72.7,274.1,72.7z"/>
	<path class="st0" d="M295.4,88.1h-8.2c-0.3,0-0.6-0.1-0.8-0.3c-0.1-0.2-0.2-0.4-0.2-0.7V81h8.2c0.2,0,0.4-0.1,0.5-0.2
		c0.1-0.1,0.2-0.3,0.2-0.5c0-0.2-0.1-0.4-0.2-0.5c-0.1-0.1-0.3-0.2-0.5-0.2h-8.2v-5.4c0-0.3,0.1-0.6,0.2-0.7
		c0.2-0.2,0.4-0.3,0.8-0.3h8c0.2,0,0.4-0.1,0.5-0.2c0.1-0.1,0.2-0.3,0.2-0.5c0-0.2-0.1-0.4-0.2-0.5c-0.1-0.1-0.3-0.2-0.5-0.2h-8.2
		c-0.7,0-1.2,0.2-1.6,0.7c-0.3,0.4-0.5,1-0.5,1.6v13c0,0.6,0.2,1.2,0.5,1.6c0.4,0.5,0.9,0.7,1.6,0.7h8.5c0.2,0,0.4-0.1,0.5-0.2
		c0.1-0.1,0.2-0.3,0.2-0.5c0-0.2-0.1-0.4-0.2-0.5C295.8,88.2,295.6,88.1,295.4,88.1z"/>
	<path class="st0" d="M145.6,65.3c2.8,0,4.9-1.1,6.4-3.2c1.4-1.9,2-4.3,2-7.2c0-2.9-0.7-5.3-2-7.2c-1.5-2.1-3.7-3.2-6.4-3.2
		c-2.8,0-4.9,1.1-6.5,3.2c-1.3,1.9-2,4.3-2,7.2c0,2.9,0.7,5.3,2,7.2C140.7,64.2,142.8,65.3,145.6,65.3z M140.3,48.7
		c1.2-1.8,3-2.7,5.3-2.7c2.3,0,4.1,0.9,5.3,2.7c1.1,1.6,1.6,3.7,1.6,6.2c0,2.6-0.5,4.6-1.6,6.2c-1.2,1.8-3,2.7-5.3,2.7
		c-2.3,0-4.1-0.9-5.3-2.7c-1.1-1.6-1.6-3.7-1.6-6.2C138.7,52.3,139.3,50.2,140.3,48.7z"/>
	<path class="st0" d="M170.6,63.3h-9.3c-0.4,0-0.7-0.1-0.9-0.4c-0.2-0.2-0.3-0.5-0.3-0.8v-6.8h9.2c0.3,0,0.5-0.1,0.6-0.2
		c0.1-0.1,0.2-0.3,0.2-0.5c0-0.2-0.1-0.4-0.2-0.5c-0.2-0.1-0.4-0.2-0.6-0.2h-9.2v-6.1c0-0.3,0.1-0.6,0.3-0.8
		c0.2-0.3,0.5-0.4,0.9-0.4h9c0.2,0,0.4-0.1,0.6-0.2c0.1-0.1,0.2-0.3,0.2-0.5c0-0.2-0.1-0.4-0.2-0.5c-0.2-0.1-0.3-0.2-0.6-0.2h-9.2
		c-0.8,0-1.4,0.3-1.8,0.8c-0.4,0.5-0.6,1.1-0.6,1.8v14.7c0,0.7,0.2,1.3,0.6,1.8c0.4,0.5,1,0.8,1.8,0.8h9.6c0.3,0,0.5-0.1,0.6-0.2
		c0.1-0.1,0.2-0.3,0.2-0.5c0-0.2-0.1-0.4-0.2-0.5C171.1,63.4,170.9,63.3,170.6,63.3z"/>
	<path class="st0" d="M192.5,65.3c1.5,0,2.9-0.3,4-1c1.1-0.6,1.9-1.6,2.4-2.8v2.6c0,0.3,0.1,0.5,0.2,0.6c0.2,0.1,0.3,0.2,0.6,0.2
		c0.2,0,0.4-0.1,0.5-0.2c0.2-0.2,0.3-0.4,0.3-0.6v-8.4c0-0.3-0.1-0.6-0.3-0.9c-0.2-0.3-0.5-0.4-0.8-0.4h-6.1c-0.5,0-0.7,0.3-0.7,0.8
		c0,0.5,0.2,0.8,0.7,0.8h5.6c0,2.7-0.7,4.8-2,6.1c-1.1,1.1-2.6,1.7-4.4,1.7c-2.1,0-3.8-0.7-5-2.2c-1.3-1.5-1.9-3.8-1.9-6.7
		c0-2.9,0.6-5.1,1.9-6.7c1.2-1.5,2.9-2.2,5-2.2c1.6,0,3,0.4,4,1.1c1,0.7,1.7,1.8,2,3.2c0,0.3,0.2,0.5,0.4,0.6
		c0.2,0.1,0.4,0.2,0.6,0.1c0.2,0,0.4-0.1,0.6-0.3c0.1-0.2,0.2-0.4,0.1-0.7c-0.3-1.6-1.1-2.8-2.2-3.7c-1.4-1.2-3.2-1.7-5.5-1.7
		c-2.6,0-4.7,0.9-6.2,2.8c-1.5,1.9-2.3,4.4-2.3,7.6c0,3.2,0.8,5.8,2.3,7.6C187.8,64.4,189.9,65.3,192.5,65.3z"/>
	<path class="st0" d="M207.8,64.9h8.1c0.3,0,0.5-0.1,0.6-0.2c0.1-0.1,0.2-0.3,0.2-0.5c0-0.2-0.1-0.4-0.2-0.5
		c-0.2-0.1-0.4-0.2-0.6-0.2h-7.8c-0.4,0-0.7-0.1-0.9-0.4c-0.2-0.2-0.3-0.5-0.3-0.8V45.4c0-0.3-0.1-0.5-0.3-0.7
		c-0.2-0.1-0.3-0.2-0.5-0.2c-0.2,0-0.4,0.1-0.6,0.2c-0.2,0.2-0.2,0.4-0.2,0.7v16.9c0,0.7,0.2,1.3,0.6,1.8
		C206.4,64.6,207,64.9,207.8,64.9z"/>
	<path class="st0" d="M260.2,54.3c0.7-0.5,1.2-1,1.6-1.8c0.4-0.7,0.6-1.5,0.6-2.4c0-1.4-0.4-2.6-1.2-3.5c-0.9-1.1-2.1-1.6-3.6-1.6
		H252c-0.8,0-1.4,0.3-1.8,0.8c-0.4,0.5-0.6,1.1-0.6,1.8v14.7c0,0.7,0.2,1.3,0.6,1.8c0.4,0.5,1,0.8,1.8,0.8h6c1.7,0,3-0.6,4-1.8
		c0.9-1,1.3-2.3,1.3-3.8c0-1.2-0.3-2.2-0.9-3.1C261.9,55.4,261.1,54.7,260.2,54.3z M251.2,47.7c0-0.3,0.1-0.6,0.3-0.8
		c0.2-0.3,0.5-0.4,0.9-0.4h5.2c1.1,0,1.9,0.4,2.5,1.1c0.6,0.7,0.9,1.5,0.9,2.5c0,1-0.3,1.8-0.9,2.5c-0.6,0.8-1.5,1.1-2.5,1.1h-6.3
		V47.7z M260.8,62.1c-0.7,0.8-1.6,1.3-2.8,1.3h-5.7c-0.4,0-0.7-0.1-0.9-0.4c-0.2-0.2-0.3-0.5-0.3-0.8v-7h6.7c1.2,0,2.1,0.4,2.9,1.3
		c0.7,0.8,1,1.7,1,2.8C261.7,60.4,261.4,61.3,260.8,62.1z"/>
	<path class="st0" d="M266.5,65.3c0.2,0.1,0.4,0.1,0.6-0.1c0.2-0.1,0.4-0.3,0.5-0.6l2.2-6.3h8.1l2.1,6.3c0.1,0.3,0.3,0.5,0.5,0.6
		c0.2,0.1,0.4,0.1,0.6,0c0.2-0.1,0.3-0.2,0.4-0.4c0.1-0.2,0.1-0.5,0-0.8l-6.3-18.3c-0.1-0.4-0.3-0.7-0.6-0.9
		c-0.3-0.2-0.5-0.3-0.8-0.3c-0.3,0-0.6,0.1-0.9,0.3c-0.3,0.2-0.5,0.5-0.6,0.9L266,64.1c-0.1,0.3-0.1,0.5,0,0.8
		C266.1,65.1,266.3,65.2,266.5,65.3z M273.7,46.6L273.7,46.6l3.6,10.3h-7.1L273.7,46.6z"/>
	<path class="st0" d="M296.3,63.6c-0.2-0.1-0.4-0.2-0.6-0.2h-7.8c-0.4,0-0.7-0.1-0.9-0.4c-0.2-0.2-0.3-0.5-0.3-0.8V45.4
		c0-0.3-0.1-0.5-0.3-0.7c-0.2-0.1-0.3-0.2-0.5-0.2c-0.2,0-0.4,0.1-0.6,0.2c-0.2,0.2-0.2,0.4-0.2,0.7v16.9c0,0.7,0.2,1.3,0.6,1.8
		c0.4,0.5,1,0.8,1.8,0.8h8.1c0.3,0,0.5-0.1,0.6-0.2c0.1-0.1,0.2-0.3,0.2-0.5C296.5,63.9,296.4,63.7,296.3,63.6z"/>
	<path class="st0" d="M241.1,51.3c-0.5-0.4-0.8,0.4-1,0.8c0.3,0.1,0.3-0.1,0.5-0.1C240.5,51.6,240.8,51.3,241.1,51.3z"/>
	<path class="st0" d="M239,53.1c0.2,0.1,0.5,0,0.5-0.3C239.4,53,239.1,52.9,239,53.1z"/>
	<path class="st0" d="M240,52.1c-0.2,0.1-0.4,0.2-0.6,0.4c0,0-0.1-0.1-0.1,0c0.2,0,0.2,0.3,0.3,0.4c0.1-0.2-0.2-0.3-0.1-0.3
		c0.2,0,0.2,0,0.3,0.1c-0.1-0.3,0.4-0.1,0.4-0.3C240,52.5,240.1,52.3,240,52.1z"/>
	<path class="st0" d="M239,52.8c0,0.1,0.4,0,0.4-0.1c-0.1-0.1-0.2,0-0.3,0C239.1,52.9,238.8,52.6,239,52.8z"/>
	<g>
		<path class="st0" d="M232.1,41.2c-7.4,0-13.5,6.1-13.5,13.5c0,7.4,6.1,13.5,13.5,13.5c7.4,0,13.5-6.1,13.5-13.5
			C245.6,47.3,239.5,41.2,232.1,41.2z M232.1,66.8c-6.6,0-12-5.4-12-12.1c0-6.7,5.4-12.1,12-12.1s12,5.4,12,12.1
			C244.1,61.4,238.7,66.8,232.1,66.8z"/>
		<path class="st0" d="M233.1,47.5c-0.1,0.1-0.2,0.3-0.1,0.5C233.3,48,233.3,47.6,233.1,47.5z"/>
		<path class="st0" d="M237.8,54c0.2,0,0.2-0.3,0.4-0.3c0.4,0.2,0.4,0.8,1,0.9c-0.1-0.4-0.4-0.6-0.5-0.9c0.1,0,0.2,0,0.2-0.1
			c-0.4-0.6-1.1-0.9-1.7-1.2c-0.3,0-0.4,0.3-0.7,0.3c0-0.2-0.2-0.2-0.1-0.5c-0.2-0.1-0.4-0.1-0.6,0c0.2,0.3,0.3,0.2,0.3,0.7
			c0.5-0.1,1.4,0.4,0.9,0.9C237.4,53.6,237.4,54,237.8,54z"/>
		<path class="st0" d="M235.7,52.6c-0.1-0.1-0.6-0.3-0.7-0.1C235.3,52.5,235.6,52.8,235.7,52.6z"/>
		<path class="st0" d="M230.4,53.2c0.6,0.2,1.5,0.2,2.2,0.3C232.1,53.2,231,52.9,230.4,53.2z"/>
		<path class="st0" d="M232.7,53.5c0.2,0.1,0.3,0.1,0.5-0.1C233,53.4,232.7,53.3,232.7,53.5z"/>
		<path class="st0" d="M234.2,53.4c-0.3,0.1-0.5,0.1-0.8,0C233.5,53.8,234.1,53.5,234.2,53.4z"/>
		<path class="st0" d="M241.5,54.6c0,0,0-0.1,0.1-0.1c0,0,0-0.1-0.1-0.1c0,0,0,0,0,0c-0.4-0.1-0.3,0.2-0.6,0.3
			c-0.1-0.3-0.5-0.3-0.7-0.5c0,0.1,0.1,0.3-0.1,0.3c0-0.2,0-0.4-0.1-0.4c0.2,0.3-0.2,0.4-0.3,0.7c-0.2,0-0.8,0.2-0.7,0.3
			c-0.2,0.2-0.2-0.1-0.4-0.1c0.2,0.4-0.4,0.9-0.8,1.1c0.1-0.4,0-1-0.1-1.6c-0.5,0.2-0.3,1-0.8,1.1c-0.2-0.2-0.5-0.3-0.6-0.6
			c0-0.2,0.2-0.2,0.2-0.5c-0.4,0-0.7-0.5-1-0.1c0.2,0.1,0.3-0.2,0.3,0.1c-0.5-0.1-0.5,0.3-0.7,0.5c-0.2-0.1-0.3-0.2-0.5-0.3
			c-0.3,0.1-0.6,0.6-0.8,0.5c-0.3,0.7-1.3,0.7-2,1c-0.2,0.6,0.1,1.8-0.1,2.2c0.9,0.2,1.9-0.8,2.8-0.3c-0.3,0.2-0.5,0.5-1,0.5
			c-0.2,0.9,0.5,0.9,0.7,1.4c-0.2,0.4,0.1,0.9,0.2,1.2c0.4,0.1,1,0.1,1.2,0.4c-0.3,0.3,0,1,0.5,0.9c0,0.1-0.2,0.1-0.1,0.3
			c0.2,0.1,0.3-0.1,0.4,0.1c-0.2,0.1-0.1,0.2,0.1,0.1c-0.2,0.3-0.7,0.4-0.9,0.7c0.9-0.3,1.7-0.7,2.3-1.2c0.8-0.6,1-1.5,1.6-2.3
			c0.3-0.4,0.8-0.6,1.1-1c0.6-0.7,1.1-1.9,1.2-2.7c-0.3-0.4-0.6-1.3-0.3-1.8C241.5,54.4,241.3,54.7,241.5,54.6z"/>
		<path class="st0" d="M229.8,54.4c-0.5-0.6,0.3-1.3-0.2-1.8c0.2,0.2,0.4,0.4,0.8,0.5c0.2-0.4,0-0.6,0.3-0.7c-0.1-0.1-0.2-0.2-0.3,0
			c-0.4-0.9-1.6-1-1.8-2c-0.3,0.1-0.4,0.1-0.6,0.1c-0.1-0.6-1-0.6-1.3-0.8c0,0.3-0.2,0.3-0.2,0.5c-0.3,0.1-0.7,0.1-0.8,0.3
			c0-0.1,0-0.1,0-0.1c0.1-0.5,0.4-0.8,0.7-1c0.1,0.1,0,0.2,0,0.3c0.1,0,0.3,0,0.3-0.1c-0.1-0.1-0.2,0-0.2-0.2c0.2-0.3,0.7-0.3,1-0.5
			c0,0.1,0,0.2,0.1,0.2c0-0.1,0.1-0.1,0.1-0.2c0.1,0.1,0.1,0.3,0.4,0.2c-0.3,0.3,0.3,0.6-0.1,1c0.1,0.2,0.4,0.2,0.5,0.4
			c0.2,0,0.2-0.1,0.4-0.1c0,0.1-0.1,0.1-0.1,0.3c0.7,0.1,0.4,1.2,1.3,1.1c-0.1-0.3-0.2-0.5-0.3-0.8c-0.7-0.1-0.8-0.9-0.5-1.3
			c0.3,0.3,0.9,0.3,0.9,0.7c0.4-0.1,0.6-0.4,0.9-0.6c0-0.7-0.6-0.7-0.8-1.2c0.1-0.2,0.3-0.4,0.7-0.3c0,0.2,0.1,0.1,0.1,0.3
			c-0.2,0-0.3,0-0.3,0.2c0.2,0.1,0.5-0.1,0.3-0.4c0.5-0.3,1.5-0.1,1.6-1c0.2,0.1,0.2-0.2,0.4-0.1c0-0.3,0-0.6-0.3-0.7
			c0.3,0,0-0.1,0.1-0.3c0.1,0.1,0.2,0.2,0.4,0.3c0,0.1-0.1,0.2-0.1,0.2c0.2,0.1,0.4,0.1,0.5,0.3c0.3,0,0.2-0.4,0.5-0.4
			c0.1,0.2,0.3,0,0.4,0.1c0,0.2-0.3,0.1-0.5,0.2c-0.1,0.2,0.2,0.2,0.1,0.4c-0.2,0-0.4-0.2-0.5-0.1c0.2,0.1,0.1,0.3,0.2,0.5
			c-0.1,0.1-0.2,0.2-0.2,0.3c0.2,0.2,0.2,0.2,0.3,0.5c-0.2-0.1-0.1,0.4-0.1,0.5c0.4-0.1,0.2-0.1,0.7-0.3c-0.3-0.1-0.5-0.3-0.7-0.5
			c0.5,0.3,1.3-0.1,1.7,0.3c-0.3,0.1-0.6-0.2-0.6,0.1c0.2,0.1,0.3-0.1,0.3,0.2c-0.1-0.1-0.2-0.1-0.2,0.1c0.1,0,0.2-0.1,0.2,0
			c-0.1,0.2-0.4-0.3-0.5,0.1c0.3,0.1,0.8,0.3,1,0.2c0-0.1-0.4-0.2-0.2-0.2c0.3,0.1,0.9,0.1,0.9,0.5c1.1,0,1.3,0.9,2.3,1
			c0.4,0.2,0.3,0.9,0.7,1.1c0.1-0.4-0.2-0.4-0.2-0.8c0.1-0.1,0.1-0.3,0.3-0.3c0.1,0,0.2,0.1,0.3,0.1c0.1,0,0-0.3,0.1-0.3
			c0.8,0.1,1.2,1.2,1,1.8c-0.3,0-0.2-0.3-0.5-0.3c-0.2,0.4,0.3,0.7,0.5,1c-0.1,0.1-0.3,0.1-0.5,0.3c0.1,0.4,0.4,0.9,0.1,1.4
			c0,0,0,0.1,0.1,0.1c0.4-0.7,0.3-1.6,0.7-2.3c0-1.3-0.4-2-0.8-2.7c0,0.1-0.1-0.1-0.1-0.1c-0.7-1.8-2.6-2.7-4.3-3.7
			c0.1,0,0.2,0,0.2-0.1c-0.5-0.2-1-0.4-1.8-0.3c-0.2,0.2,0.3,0.3,0.1,0.4c-0.3-0.1-0.1,0.3-0.3,0.2c-0.2-0.1-0.6-0.4-1-0.3
			c0.1,0.1,0,0.1-0.1,0c0,0,0,0,0,0c-0.1-0.2-0.1-0.5,0-0.5c0.1,0.1,0.4,0.4,0.6,0.3c0,0,0,0,0-0.1c-0.5-0.3-1.1-0.4-1.7-0.5
			c0.3-0.2,1,0,1.2-0.1c-6.1-0.4-9.4,2.6-10.9,6.9c0,0.1,0,0.1,0,0.2c0,0,0,0,0.1-0.1c0,0,0,0,0,0c0.2-0.6,0.7-1.4,1.1-1.6
			c-0.2,0.3-0.4,0.6-0.6,0.9c-0.1,0.2-0.3,0.5-0.5,0.7c0,0.1,0,0.1-0.1,0.1c0,0,0,0.1-0.1,0.1c-0.9,4.1,0.7,8,3.2,9.4
			c-0.4-0.4-0.6-1.1-0.7-1.8c-0.1-0.8-1-1.4-0.6-2.4c0.1-0.2,0.3-0.2,0.3-0.5c0-0.5-0.3-0.9,0.2-1.1c0.2,0,0.1,0.2,0.3,0.1
			c0-0.3,0.1-0.3,0.3-0.3c0.7,0.3,1.4,0.9,2.2,0.8c0.4-0.1,0.7-0.6,0.8-0.8c0.2-0.3,0.6-0.4,0.7-0.6
			C229.7,54.8,229.6,54.4,229.8,54.4z M234.2,45.9c0.1,0,0.1,0.1,0,0.2C234.2,46.1,234.2,46,234.2,45.9
			C234.1,46,234.2,46,234.2,45.9z"/>
		<path class="st0" d="M233.7,48.7c-0.1,0-0.1-0.2-0.2-0.2c0,0.2-0.1-0.1-0.3,0c-0.2,0.6,0,0.8,0.4,1c0-0.1,0-0.2,0.1-0.2
			c0.1,0.2,0.3-0.1,0.4,0.1c-0.1,0-0.2,0-0.1,0.1c0.3,0,0.2-0.3,0.1-0.4c-0.2-0.1-0.2,0.1-0.3,0.1c0.1-0.2,0-0.1-0.1-0.3
			C233.5,48.8,233.8,48.9,233.7,48.7z"/>
		<path class="st0" d="M234.2,49.5c0,0.2,0.1,0.3-0.1,0.4c0-0.2-0.1,0-0.2-0.1c0-0.1-0.1-0.4-0.2-0.3c0,0,0.1,0,0.1,0.1
			c-0.1,0-0.2,0-0.2,0.1c0.1,0,0.1,0.1,0.1,0.2c0.3,0,0.1,0.2,0.2,0.3c0.2,0,0.2-0.1,0.4,0c0-0.1-0.1-0.1-0.1-0.2
			c0.1,0,0.3,0,0.3,0.2c-0.1,0.2-0.3,0.1-0.5,0.1c-0.1,0.2-0.2,0.3,0,0.5c0-0.2,0-0.3,0.1-0.3c0.2,0.1,0.2,0.5,0.5,0.5
			c-0.1-0.4,0.1-0.1,0.2-0.3C234.4,50.1,234.6,49.8,234.2,49.5z"/>
		<path class="st0" d="M232.7,50.3c0.2-0.2,0.7-0.4,0.7-0.7C233.1,49.9,232.9,50,232.7,50.3z"/>
		<path class="st0" d="M235.2,51.3c-0.2,0.1-0.2,0.5-0.1,0.7c0.1-0.2,0.3-0.3,0.3-0.5c-0.2-0.1-0.2,0.3-0.3,0.1
			C235.2,51.5,235.3,51.3,235.2,51.3z"/>
		<path class="st0" d="M233.5,52.9c0-0.2-0.1-0.5,0.1-0.5c0.1,0.1,0.3,0.5,0.5,0.4c0-0.2-0.1-0.3-0.2-0.6c0.1-0.2,0.4-0.1,0.3-0.1
			c-0.2-0.2-0.6,0.2-0.6-0.3c0.4-0.3,0.9,0.3,1-0.3c-0.3,0.3-0.8-0.2-1.1,0.2C233.4,52.3,233.1,52.6,233.5,52.9z"/>
		<path class="st0" d="M234,53.9c0.2-0.2,0.5-0.3,0.8-0.4C234.4,53.4,234,53.6,234,53.9z"/>
		<path class="st0" d="M232.9,51.1c0-0.2,0.3-0.2,0.3-0.4c-0.2,0-0.3-0.2-0.5-0.3c-0.5,0.4-1.1,0.9-1.6,1.1
			c-0.1,0.4,0.3,0.4,0.3,0.8c0.4,0.1,1,0.1,1.3,0.1c0.1-0.5,0.2-0.7,0.6-0.9C233.1,51.5,233,51.4,232.9,51.1z"/>
	</g>
	<g>
		<path class="st0" d="M141.7,129.4h-1.8c-0.4,0-0.7,0.1-0.9,0.4c-0.2,0.2-0.3,0.5-0.3,0.9v6.7c0,0.3,0.1,0.6,0.3,0.9
			c0.2,0.3,0.5,0.4,0.9,0.4h1.8c1.4,0,2.4-0.5,3.2-1.4c0.7-0.8,1.1-1.9,1.1-3.2c0-1.3-0.4-2.4-1.1-3.2
			C144.1,129.8,143,129.4,141.7,129.4z M144.2,136.6c-0.6,0.7-1.4,1.1-2.5,1.1h-1.6c-0.2,0-0.3,0-0.4-0.1c-0.1-0.1-0.1-0.2-0.1-0.3
			v-6.6c0-0.1,0-0.2,0.1-0.3c0.1-0.1,0.2-0.1,0.4-0.1h1.6c1.1,0,1.9,0.4,2.5,1.1c0.6,0.7,0.9,1.6,0.9,2.6
			C145,135,144.7,135.9,144.2,136.6z"/>
		<path class="st0" d="M151.4,131.6c-0.9,0-1.6,0.4-2.1,1.1c-0.5,0.7-0.7,1.5-0.7,2.5c0,1,0.2,1.8,0.7,2.4c0.5,0.7,1.2,1.1,2.1,1.1
			c0.6,0,1.2-0.2,1.7-0.5c0.5-0.3,0.8-0.8,1.1-1.3c0.1-0.1,0.1-0.3,0-0.4c0-0.1-0.1-0.2-0.2-0.2c-0.1,0-0.2-0.1-0.4,0
			c-0.1,0.1-0.2,0.2-0.3,0.3c-0.2,0.4-0.4,0.7-0.7,0.9c-0.3,0.3-0.7,0.4-1.2,0.4c-0.6,0-1.1-0.3-1.4-0.8c-0.3-0.4-0.5-1-0.5-1.6h4.8
			v-0.3c0-1-0.2-1.8-0.7-2.5C153,132,152.3,131.6,151.4,131.6z M149.5,134.6c0.1-0.5,0.2-1,0.5-1.4c0.4-0.5,0.8-0.8,1.4-0.8
			c0.6,0,1.1,0.3,1.4,0.8c0.3,0.4,0.5,0.9,0.5,1.4H149.5z"/>
		<path class="st0" d="M157.7,129.2c-0.1,0-0.2,0-0.3,0.1c-0.1,0.1-0.1,0.2-0.1,0.3v8.7c0,0.1,0,0.2,0.1,0.3
			c0.1,0.1,0.2,0.1,0.3,0.1c0.1,0,0.2,0,0.3-0.1c0.1-0.1,0.1-0.2,0.1-0.3v-8.7c0-0.1,0-0.3-0.1-0.3
			C157.9,129.2,157.8,129.2,157.7,129.2z"/>
		<path class="st0" d="M163,130.1c0.1-0.1,0.2-0.1,0.4-0.1h0.4c0.1,0,0.3,0,0.3-0.1c0.1-0.1,0.1-0.2,0.1-0.3c0-0.1,0-0.2-0.1-0.3
			c-0.1-0.1-0.2-0.1-0.3-0.1h-0.5c-0.4,0-0.7,0.1-0.9,0.4c-0.2,0.2-0.3,0.5-0.3,0.9v1.4h-0.5c-0.1,0-0.3,0-0.3,0.1
			c-0.1,0.1-0.1,0.2-0.1,0.3c0,0.1,0,0.2,0.1,0.3c0.1,0.1,0.2,0.1,0.3,0.1h0.5v5.6c0,0.1,0,0.3,0.1,0.4c0.1,0.1,0.2,0.1,0.3,0.1
			c0.1,0,0.2,0,0.3-0.1c0.1-0.1,0.1-0.2,0.1-0.4v-5.6h0.8c0.1,0,0.3,0,0.3-0.1c0.1-0.1,0.1-0.2,0.1-0.3c0-0.1,0-0.2-0.1-0.3
			c-0.1-0.1-0.2-0.1-0.3-0.1h-0.8v-1.3C162.9,130.3,162.9,130.2,163,130.1z"/>
		<path class="st0" d="M169.1,137.9h-0.4c-0.2,0-0.3-0.1-0.4-0.2c-0.1-0.1-0.1-0.2-0.1-0.3v-4.8h0.9c0.3,0,0.4-0.1,0.4-0.4
			c0-0.3-0.1-0.4-0.4-0.4h-0.9v-1.6c0-0.1,0-0.3-0.2-0.3c-0.2-0.1-0.5-0.1-0.6,0c-0.1,0.1-0.1,0.2-0.1,0.3v1.6h-0.6
			c-0.1,0-0.4,0.1-0.4,0.4c0,0.4,0.2,0.4,0.4,0.4h0.6v4.8c0,0.3,0.1,0.6,0.3,0.9c0.2,0.3,0.5,0.4,0.9,0.4h0.6c0.1,0,0.2,0,0.3-0.1
			c0.1-0.1,0.1-0.2,0.1-0.3c0-0.1,0-0.2-0.1-0.3C169.3,138,169.2,137.9,169.1,137.9z"/>
		<path class="st0" d="M173.2,137c-0.2,0-0.4,0.1-0.6,0.2c-0.1,0.1-0.2,0.3-0.2,0.5c0,0.2,0.1,0.4,0.2,0.5c0.1,0.1,0.3,0.2,0.5,0.2
			c0,0.2-0.1,0.3-0.2,0.5c-0.1,0.2-0.3,0.4-0.5,0.6l-0.1,0l0.2,0.3l0.1,0c0.4-0.3,0.7-0.5,0.9-0.8c0.3-0.4,0.4-0.8,0.4-1.3
			c0-0.2-0.1-0.4-0.2-0.5C173.6,137.1,173.4,137,173.2,137z"/>
		<path class="st0" d="M188.4,129.4h-5.8c-0.1,0-0.4,0.1-0.4,0.4c0,0.4,0.2,0.4,0.4,0.4h2.5v8.1c0,0.1,0,0.2,0.1,0.3
			c0.1,0.1,0.2,0.1,0.3,0.1c0.1,0,0.2,0,0.3-0.1c0.1-0.1,0.1-0.2,0.1-0.3v-8.1h2.4c0.1,0,0.3,0,0.3-0.1c0.1-0.1,0.1-0.2,0.1-0.3
			c0-0.1,0-0.2-0.1-0.3C188.6,129.4,188.5,129.4,188.4,129.4z"/>
		<path class="st0" d="M194.5,131.6c-0.5,0-0.9,0.1-1.3,0.3c-0.3,0.1-0.5,0.3-0.8,0.6v-2.9c0-0.1,0-0.3-0.1-0.3
			c-0.1-0.1-0.2-0.1-0.3-0.1c-0.1,0-0.2,0-0.3,0.1c-0.1,0.1-0.1,0.2-0.1,0.3v8.6c0,0.2,0,0.3,0.1,0.4c0.1,0.1,0.2,0.1,0.3,0.1h0h0
			c0.1,0,0.2-0.1,0.3-0.1c0.1-0.1,0.1-0.2,0.1-0.4v-4.6c0.3-0.4,0.6-0.7,0.9-0.9c0.4-0.2,0.7-0.3,1.1-0.3c0.4,0,0.7,0.1,1,0.4
			c0.2,0.2,0.3,0.5,0.3,0.8v4.6c0,0.1,0,0.3,0.1,0.4c0.1,0.1,0.2,0.1,0.3,0.1c0.1,0,0.2,0,0.3-0.1c0.1-0.1,0.1-0.2,0.1-0.4v-4.6
			c0-0.5-0.2-1-0.6-1.4C195.7,131.8,195.2,131.6,194.5,131.6z"/>
		<path class="st0" d="M202.5,131.6c-0.9,0-1.6,0.4-2.1,1.1c-0.5,0.7-0.7,1.5-0.7,2.5c0,1,0.2,1.8,0.7,2.4c0.5,0.7,1.2,1.1,2.1,1.1
			c0.6,0,1.2-0.2,1.7-0.5c0.5-0.3,0.8-0.8,1.1-1.3c0.1-0.1,0.1-0.3,0-0.4c0-0.1-0.1-0.2-0.2-0.2c-0.1,0-0.2-0.1-0.4,0
			c-0.1,0.1-0.2,0.2-0.3,0.3c-0.2,0.4-0.4,0.7-0.7,0.9c-0.3,0.3-0.7,0.4-1.2,0.4c-0.6,0-1.1-0.3-1.4-0.8c-0.3-0.4-0.5-1-0.5-1.6h4.8
			v-0.3c0-1-0.2-1.8-0.7-2.5C204.1,132,203.4,131.6,202.5,131.6z M200.6,134.6c0.1-0.5,0.2-1,0.5-1.4c0.4-0.5,0.8-0.8,1.4-0.8
			c0.6,0,1.1,0.3,1.4,0.8c0.3,0.4,0.5,0.9,0.5,1.4H200.6z"/>
		<path class="st0" d="M219.9,129.2c-0.1,0-0.2,0-0.3,0.1c-0.1,0.1-0.1,0.2-0.1,0.3v7.4l-4.2-6.9l-0.4-0.6c-0.1-0.2-0.3-0.3-0.5-0.3
			c0,0-0.1,0-0.1,0c-0.2,0-0.4,0.2-0.4,0.6v8.5c0,0.1,0,0.3,0.1,0.4c0.1,0.1,0.2,0.1,0.3,0.1h0c0.1,0,0.2,0,0.3-0.1
			c0.1-0.1,0.1-0.2,0.1-0.4v-7.4l4,6.6l0.7,1c0.1,0.2,0.3,0.3,0.6,0.2c0.2,0,0.4-0.2,0.4-0.6v-8.6c0-0.1-0.1-0.2-0.2-0.3
			C220.2,129.2,220.1,129.2,219.9,129.2z"/>
		<path class="st0" d="M226.3,131.6c-0.9,0-1.6,0.4-2.1,1.1c-0.5,0.7-0.7,1.5-0.7,2.5c0,1,0.2,1.8,0.7,2.4c0.5,0.7,1.2,1.1,2.1,1.1
			c0.6,0,1.2-0.2,1.7-0.5c0.5-0.3,0.8-0.8,1.1-1.3c0.1-0.1,0.1-0.3,0-0.4c0-0.1-0.1-0.2-0.2-0.2c-0.1,0-0.2-0.1-0.4,0
			c-0.1,0.1-0.2,0.2-0.3,0.3c-0.2,0.4-0.4,0.7-0.7,0.9c-0.3,0.3-0.7,0.4-1.2,0.4c-0.6,0-1.1-0.3-1.4-0.8c-0.3-0.4-0.5-1-0.5-1.6h4.8
			v-0.3c0-1-0.2-1.8-0.7-2.5C227.9,132,227.2,131.6,226.3,131.6z M224.4,134.6c0.1-0.5,0.2-1,0.5-1.4c0.4-0.5,0.8-0.8,1.4-0.8
			c0.6,0,1.1,0.3,1.4,0.8c0.3,0.4,0.5,0.9,0.5,1.4H224.4z"/>
		<path class="st0" d="M234.4,137.9l-0.4,0c-0.2,0-0.3,0-0.4-0.1c-0.1-0.1-0.1-0.2-0.1-0.3l-0.2-4.8l0.9,0c0.3,0,0.4-0.2,0.4-0.4
			c0-0.3-0.2-0.4-0.4-0.4l-0.9,0l-0.1-1.6c0-0.1-0.1-0.3-0.2-0.3c-0.1-0.1-0.2-0.1-0.3-0.1c-0.1,0-0.2,0-0.3,0.1
			c-0.1,0.1-0.1,0.2-0.1,0.3l0.1,1.6l-0.6,0c-0.1,0-0.4,0.1-0.3,0.4c0,0.4,0.2,0.4,0.4,0.4l0.6,0l0.2,4.8c0,0.3,0.1,0.6,0.4,0.8
			c0.2,0.3,0.6,0.4,1,0.4l0.6,0c0.1,0,0.2-0.1,0.3-0.1c0.1-0.1,0.1-0.2,0.1-0.3c0-0.1-0.1-0.2-0.1-0.3
			C234.7,137.9,234.6,137.8,234.4,137.9z"/>
		<path class="st0" d="M240.3,131.6c-0.5,0-0.9,0.1-1.3,0.3c-0.3,0.1-0.5,0.3-0.8,0.6v-2.9c0-0.1,0-0.3-0.1-0.3
			c-0.1-0.1-0.2-0.1-0.3-0.1c-0.1,0-0.2,0-0.3,0.1c-0.1,0.1-0.1,0.2-0.1,0.3v8.6c0,0.2,0,0.3,0.1,0.4c0.1,0.1,0.2,0.1,0.3,0.1h0h0
			c0.1,0,0.2-0.1,0.3-0.1c0.1-0.1,0.1-0.2,0.1-0.4v-4.6c0.3-0.4,0.6-0.7,0.9-0.9c0.4-0.2,0.7-0.3,1.1-0.3c0.4,0,0.7,0.1,1,0.4
			c0.2,0.2,0.3,0.5,0.3,0.8v4.6c0,0.1,0,0.3,0.1,0.4c0.1,0.1,0.2,0.1,0.3,0.1c0.1,0,0.2,0,0.3-0.1c0.1-0.1,0.1-0.2,0.1-0.4v-4.6
			c0-0.5-0.2-1-0.6-1.4C241.5,131.8,240.9,131.6,240.3,131.6z"/>
		<path class="st0" d="M248.2,131.6c-0.9,0-1.6,0.4-2.1,1.1c-0.5,0.7-0.7,1.5-0.7,2.5c0,1,0.2,1.8,0.7,2.4c0.5,0.7,1.2,1.1,2.1,1.1
			c0.6,0,1.2-0.2,1.7-0.5c0.5-0.3,0.8-0.8,1.1-1.3c0.1-0.1,0.1-0.3,0-0.4c0-0.1-0.1-0.2-0.2-0.2c-0.1,0-0.2-0.1-0.4,0
			c-0.1,0.1-0.2,0.2-0.3,0.3c-0.2,0.4-0.4,0.7-0.7,0.9c-0.3,0.3-0.7,0.4-1.2,0.4c-0.6,0-1.1-0.3-1.4-0.8c-0.3-0.4-0.5-1-0.5-1.6h4.8
			v-0.3c0-1-0.2-1.8-0.7-2.5C249.9,132,249.1,131.6,248.2,131.6z M246.3,134.6c0.1-0.5,0.2-1,0.5-1.4c0.4-0.5,0.8-0.8,1.4-0.8
			c0.6,0,1.1,0.3,1.4,0.8c0.3,0.4,0.5,0.9,0.5,1.4H246.3z"/>
		<path class="st0" d="M256.6,131.6c-0.4,0-0.8,0.1-1.1,0.3c-0.2,0.1-0.4,0.3-0.6,0.5v-0.3c0-0.1-0.1-0.2-0.2-0.3
			c-0.1-0.1-0.2-0.1-0.3-0.1c-0.1,0-0.2,0-0.3,0.1c-0.1,0.1-0.1,0.2-0.1,0.3v6.1c0,0.1,0,0.3,0.1,0.3c0.1,0.1,0.2,0.1,0.3,0.1
			c0.1,0,0.2,0,0.3-0.1c0.1-0.1,0.1-0.2,0.1-0.3v-4.8c0.1-0.3,0.3-0.5,0.6-0.7c0.3-0.2,0.6-0.3,1-0.3c0.1,0,0.2,0,0.3-0.1
			c0.1-0.1,0.1-0.2,0.1-0.4C257,131.7,256.8,131.6,256.6,131.6z"/>
		<path class="st0" d="M260,129.2c-0.1,0-0.2,0-0.3,0.1c-0.1,0.1-0.1,0.2-0.1,0.3v8.7c0,0.1,0,0.2,0.1,0.3c0.1,0.1,0.2,0.1,0.3,0.1
			c0.1,0,0.2,0,0.3-0.1c0.1-0.1,0.1-0.2,0.1-0.3v-8.7c0-0.1,0-0.3-0.1-0.3C260.2,129.2,260.1,129.2,260,129.2z"/>
		<path class="st0" d="M269.1,137.8c-0.1,0-0.2,0-0.3-0.1c-0.1-0.1-0.1-0.1-0.1-0.3v-3.9c0-0.7-0.2-1.2-0.7-1.5
			c-0.4-0.3-1-0.4-1.8-0.4c-0.7,0-1.3,0.2-1.7,0.5c-0.4,0.3-0.7,0.8-0.8,1.5c0,0.1,0,0.3,0.1,0.4c0.1,0.1,0.2,0.1,0.3,0.1
			c0.1,0,0.2,0,0.3-0.1c0.1-0.1,0.2-0.2,0.2-0.3c0-0.4,0.2-0.7,0.4-0.9c0.3-0.2,0.7-0.3,1.2-0.3c0.6,0,1,0.1,1.2,0.3
			c0.3,0.2,0.4,0.5,0.4,0.8c0,0.3-0.1,0.5-0.3,0.7c-0.2,0.1-0.8,0.3-1.7,0.4c-1,0.1-1.7,0.4-2.1,0.8c-0.3,0.3-0.4,0.7-0.4,1.3
			c0,0.6,0.2,1.1,0.6,1.4c0.4,0.4,1,0.5,1.7,0.5c0.5,0,1-0.1,1.5-0.3c0.3-0.1,0.5-0.3,0.7-0.5c0,0.2,0.1,0.3,0.2,0.4
			c0.2,0.1,0.5,0.2,1,0.2c0.1,0,0.2,0,0.3-0.1c0.1-0.1,0.1-0.2,0.1-0.3c0-0.1,0-0.2-0.1-0.3C269.3,137.8,269.2,137.8,269.1,137.8z
			 M267.8,136.9c-0.2,0.3-0.4,0.6-0.8,0.7c-0.4,0.2-0.9,0.3-1.4,0.3c-0.5,0-0.8-0.1-1.1-0.3c-0.2-0.2-0.3-0.5-0.3-0.8
			c0-0.4,0.1-0.7,0.3-0.9c0.2-0.2,0.7-0.4,1.3-0.4c0.6-0.1,1.1-0.2,1.5-0.3c0.2-0.1,0.4-0.1,0.5-0.2V136.9z"/>
		<path class="st0" d="M275,131.6c-0.5,0-1,0.1-1.4,0.3c-0.3,0.2-0.6,0.4-0.8,0.7v-0.5c0-0.1,0-0.3-0.1-0.3
			c-0.1-0.1-0.2-0.1-0.3-0.1c-0.1,0-0.2,0-0.3,0.1c-0.1,0.1-0.1,0.2-0.1,0.3v6.1c0,0.2,0,0.3,0.1,0.4c0.1,0.1,0.2,0.1,0.3,0.1h0h0
			c0.1,0,0.2-0.1,0.3-0.1c0.1-0.1,0.1-0.2,0.1-0.4v-4.3c0.3-0.5,0.6-0.9,1-1.1c0.4-0.2,0.8-0.4,1.2-0.4c0.4,0,0.7,0.1,1,0.4
			c0.2,0.2,0.3,0.5,0.3,0.8v4.6c0,0.1,0,0.3,0.1,0.4c0.2,0.1,0.4,0.2,0.6,0c0.1-0.1,0.1-0.2,0.1-0.4v-4.6c0-0.5-0.2-1-0.6-1.4
			C276.3,131.8,275.7,131.6,275,131.6z"/>
		<path class="st0" d="M285.7,129.2c-0.1,0-0.2,0-0.3,0.1c-0.1,0.1-0.1,0.2-0.1,0.3v3c-0.2-0.3-0.5-0.5-0.8-0.7
			c-0.4-0.2-0.8-0.3-1.2-0.3c-1,0-1.7,0.4-2.2,1.1c-0.5,0.6-0.7,1.5-0.7,2.5c0,1,0.2,1.8,0.7,2.4c0.5,0.7,1.3,1.1,2.2,1.1
			c0.5,0,1-0.1,1.4-0.3c0.3-0.2,0.5-0.3,0.7-0.6v0.3c0,0.1,0,0.2,0.1,0.3c0.1,0.1,0.2,0.1,0.3,0.1c0.1,0,0.2,0,0.3-0.1
			c0.1-0.1,0.1-0.2,0.2-0.4v-8.5c0-0.2,0-0.3-0.1-0.4C285.9,129.2,285.8,129.2,285.7,129.2z M284.7,137.1c-0.4,0.6-0.9,0.8-1.5,0.8
			c-0.7,0-1.2-0.3-1.6-0.8c-0.3-0.5-0.5-1.1-0.5-1.9c0-0.8,0.2-1.4,0.5-1.9c0.4-0.6,0.9-0.8,1.6-0.8c0.7,0,1.2,0.3,1.5,0.8
			c0.3,0.5,0.5,1.1,0.5,1.9C285.2,136,285,136.6,284.7,137.1z"/>
		<path class="st0" d="M293.6,135.4c-0.4-0.3-1-0.6-1.8-0.8c-0.7-0.2-1.2-0.4-1.4-0.6c-0.2-0.2-0.3-0.4-0.3-0.7
			c0-0.3,0.1-0.5,0.4-0.6c0.3-0.2,0.6-0.2,1-0.2c0.5,0,0.9,0.1,1.2,0.3c0.2,0.2,0.4,0.4,0.4,0.8c0,0.1,0.1,0.2,0.2,0.3
			c0.1,0.1,0.2,0.1,0.3,0.1c0,0,0,0,0,0c0.1,0,0.2-0.1,0.3-0.1c0.1-0.1,0.1-0.2,0.1-0.4c0-0.5-0.3-0.9-0.6-1.3
			c-0.4-0.4-1.1-0.5-1.9-0.5c-0.7,0-1.2,0.2-1.6,0.5c-0.5,0.3-0.7,0.8-0.7,1.3c0,0.5,0.2,1,0.6,1.3c0.3,0.3,0.9,0.5,1.6,0.7
			c0.8,0.2,1.3,0.4,1.6,0.6c0.2,0.2,0.3,0.4,0.3,0.7c0,0.3-0.1,0.6-0.4,0.8c-0.3,0.2-0.7,0.3-1.2,0.3c-0.6,0-1.1-0.1-1.3-0.3
			c-0.3-0.2-0.4-0.5-0.4-0.9c0-0.1-0.1-0.2-0.2-0.3c-0.1-0.1-0.2-0.1-0.3-0.1c0,0,0,0,0,0c-0.1,0-0.2,0-0.3,0.1
			c-0.1,0.1-0.1,0.2-0.1,0.3c0,0.7,0.3,1.2,0.7,1.5c0.4,0.3,1.1,0.5,1.9,0.5c0.8,0,1.5-0.2,1.9-0.6c0.4-0.3,0.6-0.8,0.6-1.4
			C294.2,136.2,294,135.8,293.6,135.4z"/>
	</g>
</g>
</svg>
