<?xml version="1.0" encoding="utf-8"?>
<!-- Generator: Adobe Illustrator 15.0.0, SVG Export Plug-In . SVG Version: 6.00 Build 0)  -->
<!DOCTYPE svg PUBLIC "-//W3C//DTD SVG 1.1//EN" "http://www.w3.org/Graphics/SVG/1.1/DTD/svg11.dtd">
<svg version="1.1" id="Layer_1" xmlns="http://www.w3.org/2000/svg" xmlns:xlink="http://www.w3.org/1999/xlink" x="0px" y="0px"
	 width="500px" height="239.234px" viewBox="0 0 500 239.234" enable-background="new 0 0 500 239.234" xml:space="preserve">
<g>
	<defs>
		<path id="SVGID_1_" d="M266.259,188.652c0.054,0.138,0.106,0.279,0.16,0.422c0.052-0.148,0.104-0.287,0.163-0.422
			c0.057-0.135,0.12-0.268,0.195-0.405l3.799-6.94c0.065-0.12,0.139-0.194,0.213-0.221c0.07-0.026,0.176-0.038,0.312-0.038h1.118
			v11.286h-1.33v-8.294c0-0.11,0.002-0.228,0.007-0.354c0.005-0.126,0.013-0.254,0.024-0.386l-3.844,7.056
			c-0.134,0.236-0.312,0.356-0.548,0.356h-0.221c-0.235,0-0.419-0.12-0.55-0.356l-3.93-7.08c0.018,0.138,0.028,0.272,0.037,0.403
			c0.01,0.129,0.01,0.251,0.01,0.362v8.294h-1.332v-11.286h1.119c0.138,0,0.244,0.012,0.314,0.038
			c0.075,0.027,0.146,0.101,0.213,0.221l3.877,6.946C266.139,188.38,266.203,188.512,266.259,188.652z"/>
	</defs>
	<use xlink:href="#SVGID_1_"  overflow="visible" fill-rule="evenodd" clip-rule="evenodd" fill="#977A66"/>
	<clipPath id="SVGID_2_">
		<use xlink:href="#SVGID_1_"  overflow="visible"/>
	</clipPath>
	<g clip-path="url(#SVGID_2_)">
		<defs>
			<rect id="SVGID_3_" x="111.452" y="28.49" width="291.608" height="166.633"/>
		</defs>
		<use xlink:href="#SVGID_3_"  overflow="visible" fill="#977A66"/>
		<clipPath id="SVGID_4_">
			<use xlink:href="#SVGID_3_"  overflow="visible"/>
		</clipPath>
		<rect x="250.129" y="170.634" clip-path="url(#SVGID_4_)" fill="#977A66" width="32.505" height="32.116"/>
	</g>
</g>
<g>
	<g>
		<g enable-background="new    ">
			<g>
				<g>
					<defs>
						<path id="SVGID_5_" d="M279.775,192.334h-0.62c-0.136,0-0.243-0.021-0.329-0.063c-0.083-0.043-0.137-0.132-0.163-0.267
							l-0.155-0.741c-0.213,0.189-0.415,0.358-0.613,0.506c-0.198,0.151-0.403,0.277-0.624,0.379
							c-0.221,0.104-0.454,0.181-0.702,0.232c-0.25,0.053-0.521,0.08-0.826,0.08c-0.308,0-0.598-0.043-0.867-0.131
							c-0.268-0.087-0.499-0.218-0.697-0.392c-0.201-0.173-0.359-0.394-0.475-0.66c-0.118-0.266-0.178-0.581-0.178-0.944
							c0-0.317,0.088-0.62,0.262-0.913c0.17-0.292,0.451-0.551,0.832-0.779c0.383-0.226,0.885-0.412,1.506-0.556
							c0.624-0.146,1.384-0.218,2.277-0.218v-0.625c0-0.623-0.129-1.097-0.395-1.415c-0.263-0.321-0.65-0.479-1.17-0.479
							c-0.338,0-0.623,0.042-0.855,0.13c-0.234,0.087-0.432,0.183-0.604,0.291c-0.17,0.108-0.316,0.206-0.439,0.292
							c-0.12,0.085-0.242,0.13-0.365,0.13c-0.094,0-0.174-0.024-0.245-0.076c-0.071-0.049-0.124-0.109-0.167-0.185l-0.252-0.448
							c0.438-0.425,0.912-0.742,1.418-0.954c0.508-0.21,1.068-0.315,1.684-0.315c0.443,0,0.838,0.075,1.182,0.221
							c0.348,0.146,0.635,0.352,0.869,0.614c0.233,0.263,0.414,0.58,0.532,0.954c0.12,0.374,0.181,0.781,0.181,1.229V192.334
							L279.775,192.334z M276.156,191.476c0.248,0,0.471-0.024,0.678-0.073c0.198-0.051,0.395-0.122,0.57-0.213
							c0.183-0.094,0.356-0.204,0.52-0.336c0.162-0.13,0.324-0.282,0.48-0.45v-1.644c-0.642,0-1.188,0.038-1.637,0.122
							c-0.449,0.081-0.814,0.188-1.095,0.32c-0.283,0.131-0.488,0.288-0.612,0.467c-0.132,0.179-0.197,0.381-0.197,0.602
							c0,0.212,0.036,0.396,0.104,0.548c0.068,0.155,0.16,0.278,0.273,0.376c0.113,0.098,0.25,0.171,0.408,0.214
							C275.805,191.453,275.974,191.476,276.156,191.476z"/>
					</defs>
					<use xlink:href="#SVGID_5_"  overflow="visible" fill-rule="evenodd" clip-rule="evenodd" fill="#977A66"/>
					<clipPath id="SVGID_6_">
						<use xlink:href="#SVGID_5_"  overflow="visible"/>
					</clipPath>
					<g clip-path="url(#SVGID_6_)">
						<defs>
							<rect id="SVGID_7_" x="271.836" y="182.625" width="8.334" height="10.415"/>
						</defs>
						<use xlink:href="#SVGID_7_"  overflow="visible" fill="#977A66"/>
						<clipPath id="SVGID_8_">
							<use xlink:href="#SVGID_7_"  overflow="visible"/>
						</clipPath>
						<rect x="263.111" y="173.8" clip-path="url(#SVGID_8_)" fill="#977A66" width="27.078" height="29.075"/>
					</g>
				</g>
			</g>
		</g>
	</g>
</g>
<g>
	<defs>
		<path id="SVGID_9_" d="M281.105,192.334v-7.978h0.8c0.151,0,0.259,0.03,0.313,0.084c0.057,0.059,0.092,0.159,0.116,0.302
			l0.094,1.245c0.27-0.558,0.606-0.993,1.007-1.304c0.396-0.312,0.865-0.468,1.402-0.468c0.22,0,0.419,0.025,0.599,0.073
			c0.177,0.051,0.342,0.12,0.493,0.208l-0.179,1.048c-0.038,0.132-0.118,0.197-0.245,0.197c-0.073,0-0.185-0.025-0.334-0.073
			c-0.154-0.051-0.368-0.075-0.64-0.075c-0.483,0-0.89,0.141-1.214,0.425c-0.326,0.284-0.6,0.696-0.82,1.237v5.079H281.105z"/>
	</defs>
	<use xlink:href="#SVGID_9_"  overflow="visible" fill-rule="evenodd" clip-rule="evenodd" fill="#977A66"/>
	<clipPath id="SVGID_10_">
		<use xlink:href="#SVGID_9_"  overflow="visible"/>
	</clipPath>
	<g clip-path="url(#SVGID_10_)">
		<defs>
			<rect id="SVGID_11_" x="111.452" y="28.49" width="291.608" height="166.633"/>
		</defs>
		<use xlink:href="#SVGID_11_"  overflow="visible" fill="#977A66"/>
		<clipPath id="SVGID_12_">
			<use xlink:href="#SVGID_11_"  overflow="visible"/>
		</clipPath>
		<rect x="270.693" y="173.801" clip-path="url(#SVGID_12_)" fill="#977A66" width="25.65" height="28.947"/>
	</g>
</g>
<g>
	<defs>
		<path id="SVGID_13_" d="M292.044,185.774c-0.04,0.059-0.083,0.102-0.127,0.134c-0.04,0.031-0.101,0.047-0.179,0.047
			s-0.163-0.032-0.256-0.098c-0.09-0.064-0.208-0.138-0.346-0.218c-0.143-0.077-0.314-0.149-0.515-0.214
			c-0.2-0.066-0.445-0.1-0.737-0.1c-0.388,0-0.729,0.071-1.027,0.21c-0.299,0.138-0.548,0.338-0.749,0.602
			c-0.198,0.262-0.35,0.582-0.452,0.954c-0.104,0.373-0.151,0.792-0.151,1.253c0,0.482,0.054,0.913,0.16,1.286
			c0.111,0.376,0.266,0.69,0.464,0.946c0.198,0.255,0.438,0.45,0.724,0.582c0.288,0.134,0.602,0.202,0.961,0.202
			c0.338,0,0.619-0.041,0.835-0.122c0.224-0.081,0.403-0.171,0.549-0.271c0.146-0.102,0.267-0.189,0.36-0.273
			c0.096-0.082,0.189-0.122,0.281-0.122c0.122,0,0.209,0.044,0.27,0.134l0.39,0.513c-0.343,0.425-0.775,0.737-1.292,0.934
			c-0.518,0.198-1.063,0.295-1.636,0.295c-0.497,0-0.956-0.092-1.382-0.277c-0.428-0.183-0.795-0.449-1.109-0.799
			c-0.312-0.348-0.562-0.777-0.74-1.288c-0.178-0.509-0.267-1.088-0.267-1.74c0-0.594,0.08-1.143,0.245-1.647
			c0.162-0.502,0.405-0.937,0.72-1.302c0.313-0.364,0.706-0.649,1.17-0.854c0.465-0.206,0.998-0.307,1.598-0.307
			c0.555,0,1.042,0.092,1.47,0.271c0.433,0.181,0.81,0.438,1.137,0.768L292.044,185.774z"/>
	</defs>
	<use xlink:href="#SVGID_13_"  overflow="visible" fill-rule="evenodd" clip-rule="evenodd" fill="#977A66"/>
	<clipPath id="SVGID_14_">
		<use xlink:href="#SVGID_13_"  overflow="visible"/>
	</clipPath>
	<g clip-path="url(#SVGID_14_)">
		<defs>
			<rect id="SVGID_15_" x="111.452" y="28.49" width="291.608" height="166.633"/>
		</defs>
		<use xlink:href="#SVGID_15_"  overflow="visible" fill="#977A66"/>
		<clipPath id="SVGID_16_">
			<use xlink:href="#SVGID_15_"  overflow="visible"/>
		</clipPath>
		<rect x="275.657" y="173.818" clip-path="url(#SVGID_16_)" fill="#977A66" width="27.254" height="29.043"/>
	</g>
</g>
<g>
	<defs>
		<path id="SVGID_17_" d="M293.162,192.334v-11.601h1.395v4.692c0.337-0.362,0.714-0.65,1.128-0.868
			c0.412-0.218,0.887-0.327,1.424-0.327c0.433,0,0.813,0.071,1.147,0.215c0.33,0.146,0.606,0.351,0.829,0.615
			c0.221,0.267,0.39,0.583,0.506,0.958c0.113,0.375,0.172,0.783,0.172,1.237v5.079h-1.394v-5.079c0-0.604-0.14-1.075-0.409-1.406
			c-0.276-0.333-0.695-0.5-1.26-0.5c-0.409,0-0.795,0.1-1.154,0.299c-0.358,0.199-0.688,0.47-0.989,0.812v5.875H293.162z"/>
	</defs>
	<use xlink:href="#SVGID_17_"  overflow="visible" fill-rule="evenodd" clip-rule="evenodd" fill="#977A66"/>
	<clipPath id="SVGID_18_">
		<use xlink:href="#SVGID_17_"  overflow="visible"/>
	</clipPath>
	<g clip-path="url(#SVGID_18_)">
		<defs>
			<rect id="SVGID_19_" x="111.452" y="28.49" width="291.608" height="166.633"/>
		</defs>
		<use xlink:href="#SVGID_19_"  overflow="visible" fill="#977A66"/>
		<clipPath id="SVGID_20_">
			<use xlink:href="#SVGID_19_"  overflow="visible"/>
		</clipPath>
		<rect x="282.748" y="170.318" clip-path="url(#SVGID_20_)" fill="#977A66" width="27.429" height="32.43"/>
	</g>
</g>
<g>
	<defs>
		<path id="SVGID_21_" d="M311.367,180.923c0.472,0,0.918,0.068,1.33,0.211c0.41,0.142,0.769,0.35,1.069,0.619
			c0.299,0.271,0.537,0.6,0.711,0.988c0.169,0.389,0.254,0.831,0.254,1.323c0,0.42-0.062,0.81-0.188,1.167
			c-0.124,0.356-0.294,0.698-0.508,1.027c-0.216,0.328-0.461,0.645-0.742,0.952c-0.276,0.307-0.574,0.623-0.887,0.942l-2.95,3.041
			c0.205-0.059,0.417-0.106,0.633-0.139c0.212-0.034,0.419-0.05,0.62-0.05h3.756c0.152,0,0.271,0.044,0.359,0.132
			c0.089,0.091,0.134,0.205,0.134,0.347v0.851h-7.485v-0.481c0-0.098,0.021-0.2,0.061-0.306c0.038-0.104,0.103-0.201,0.191-0.291
			l3.592-3.631c0.299-0.305,0.571-0.598,0.813-0.878c0.245-0.279,0.459-0.563,0.633-0.847c0.172-0.282,0.308-0.569,0.401-0.862
			c0.096-0.291,0.145-0.602,0.145-0.934c0-0.33-0.053-0.62-0.16-0.868c-0.103-0.251-0.245-0.457-0.43-0.619
			c-0.186-0.164-0.396-0.285-0.643-0.369c-0.244-0.079-0.51-0.12-0.791-0.12c-0.282,0-0.541,0.041-0.781,0.125
			c-0.238,0.085-0.455,0.201-0.638,0.352c-0.188,0.149-0.343,0.328-0.473,0.531c-0.127,0.206-0.214,0.431-0.267,0.678
			c-0.043,0.152-0.107,0.262-0.189,0.331c-0.085,0.067-0.194,0.102-0.33,0.102c-0.024,0-0.052,0-0.08-0.004
			c-0.029-0.001-0.061-0.005-0.099-0.012l-0.729-0.126c0.073-0.514,0.217-0.968,0.424-1.367c0.207-0.395,0.472-0.728,0.793-0.995
			c0.323-0.266,0.69-0.472,1.105-0.61C310.438,180.992,310.886,180.923,311.367,180.923"/>
	</defs>
	<use xlink:href="#SVGID_21_"  overflow="visible" fill-rule="evenodd" clip-rule="evenodd" fill="#977A66"/>
	<clipPath id="SVGID_22_">
		<use xlink:href="#SVGID_21_"  overflow="visible"/>
	</clipPath>
	<g clip-path="url(#SVGID_22_)">
		<defs>
			<rect id="SVGID_23_" x="111.452" y="28.49" width="291.608" height="166.633"/>
		</defs>
		<use xlink:href="#SVGID_23_"  overflow="visible" fill="#977A66"/>
		<clipPath id="SVGID_24_">
			<use xlink:href="#SVGID_23_"  overflow="visible"/>
		</clipPath>
		<rect x="297.06" y="170.508" clip-path="url(#SVGID_24_)" fill="#977A66" width="28.316" height="32.24"/>
	</g>
</g>
<g>
	<defs>
		<path id="SVGID_25_" d="M323.446,181.049v0.629c0,0.18-0.021,0.327-0.059,0.44c-0.04,0.116-0.08,0.214-0.12,0.292l-4.642,9.428
			c-0.071,0.136-0.164,0.252-0.287,0.35c-0.116,0.097-0.28,0.146-0.483,0.146h-0.994l4.713-9.311
			c0.071-0.129,0.139-0.25,0.207-0.362c0.071-0.109,0.151-0.215,0.241-0.315h-5.858c-0.087,0-0.165-0.035-0.238-0.106
			c-0.071-0.071-0.104-0.15-0.104-0.24v-0.954h7.625V181.049z"/>
	</defs>
	<use xlink:href="#SVGID_25_"  overflow="visible" fill-rule="evenodd" clip-rule="evenodd" fill="#977A66"/>
	<clipPath id="SVGID_26_">
		<use xlink:href="#SVGID_25_"  overflow="visible"/>
	</clipPath>
	<g clip-path="url(#SVGID_26_)">
		<defs>
			<rect id="SVGID_27_" x="111.452" y="28.49" width="291.608" height="166.633"/>
		</defs>
		<use xlink:href="#SVGID_27_"  overflow="visible" fill="#977A66"/>
		<clipPath id="SVGID_28_">
			<use xlink:href="#SVGID_27_"  overflow="visible"/>
		</clipPath>
		<rect x="305.406" y="170.632" clip-path="url(#SVGID_28_)" fill="#977A66" width="28.454" height="32.116"/>
	</g>
</g>
<g>
	<defs>
		<rect id="SVGID_29_" x="326.282" y="187.019" width="3.866" height="1.188"/>
	</defs>
	<use xlink:href="#SVGID_29_"  overflow="visible" fill-rule="evenodd" clip-rule="evenodd" fill="#977A66"/>
	<clipPath id="SVGID_30_">
		<use xlink:href="#SVGID_29_"  overflow="visible"/>
	</clipPath>
	<g clip-path="url(#SVGID_30_)">
		<defs>
			<rect id="SVGID_31_" x="111.452" y="28.49" width="291.608" height="164.55"/>
		</defs>
		<use xlink:href="#SVGID_31_"  overflow="visible" fill="#977A66"/>
		<clipPath id="SVGID_32_">
			<use xlink:href="#SVGID_31_"  overflow="visible"/>
		</clipPath>
		<rect x="315.865" y="176.604" clip-path="url(#SVGID_32_)" fill="#977A66" width="24.698" height="22.017"/>
	</g>
</g>
<g>
	<defs>
		<path id="SVGID_33_" d="M337.241,180.923c0.477,0,0.913,0.067,1.314,0.203c0.401,0.139,0.746,0.332,1.036,0.584
			c0.294,0.252,0.52,0.555,0.68,0.914c0.163,0.357,0.243,0.752,0.243,1.19c0,0.358-0.047,0.675-0.139,0.956
			c-0.091,0.28-0.221,0.526-0.39,0.741c-0.169,0.211-0.372,0.392-0.615,0.541c-0.24,0.145-0.51,0.263-0.807,0.352
			c0.731,0.195,1.279,0.521,1.649,0.976c0.367,0.458,0.55,1.03,0.55,1.717c0,0.521-0.098,0.988-0.292,1.403
			c-0.195,0.415-0.463,0.77-0.802,1.058c-0.343,0.293-0.737,0.517-1.188,0.671c-0.45,0.155-0.937,0.232-1.453,0.232
			c-0.595,0-1.101-0.076-1.526-0.227c-0.423-0.148-0.779-0.354-1.071-0.616c-0.295-0.264-0.533-0.573-0.723-0.934
			c-0.187-0.36-0.345-0.75-0.475-1.169l0.595-0.251c0.109-0.05,0.219-0.072,0.328-0.072c0.103,0,0.196,0.022,0.276,0.067
			c0.082,0.045,0.143,0.116,0.185,0.208c0.012,0.022,0.022,0.043,0.031,0.069c0.012,0.022,0.022,0.049,0.033,0.073
			c0.074,0.154,0.163,0.324,0.264,0.517c0.104,0.192,0.247,0.37,0.423,0.54c0.179,0.168,0.399,0.309,0.662,0.424
			c0.265,0.117,0.591,0.173,0.982,0.173c0.393,0,0.735-0.063,1.029-0.191c0.297-0.13,0.539-0.296,0.735-0.5
			c0.196-0.206,0.346-0.436,0.443-0.686c0.099-0.253,0.149-0.502,0.149-0.749c0-0.304-0.042-0.583-0.12-0.835
			c-0.082-0.252-0.228-0.47-0.439-0.655c-0.214-0.181-0.503-0.325-0.875-0.433c-0.372-0.104-0.854-0.157-1.438-0.157v-1.023
			c0.473,0,0.88-0.051,1.219-0.151c0.334-0.1,0.608-0.235,0.824-0.409c0.212-0.175,0.368-0.38,0.466-0.623
			c0.096-0.242,0.146-0.509,0.146-0.804c0-0.326-0.05-0.61-0.156-0.85c-0.101-0.243-0.238-0.441-0.417-0.601
			c-0.178-0.159-0.388-0.274-0.628-0.354c-0.243-0.077-0.506-0.117-0.789-0.117c-0.281,0-0.544,0.042-0.784,0.125
			c-0.238,0.084-0.45,0.203-0.638,0.351c-0.185,0.15-0.339,0.328-0.466,0.535c-0.124,0.208-0.221,0.434-0.28,0.673
			c-0.043,0.153-0.107,0.263-0.189,0.33c-0.082,0.069-0.188,0.102-0.321,0.102c-0.026,0-0.053,0-0.084-0.004
			c-0.027-0.002-0.061-0.006-0.099-0.01l-0.724-0.127c0.073-0.512,0.214-0.968,0.423-1.364c0.205-0.397,0.473-0.729,0.796-0.997
			c0.318-0.267,0.688-0.47,1.101-0.61C336.314,180.992,336.762,180.923,337.241,180.923"/>
	</defs>
	<use xlink:href="#SVGID_33_"  overflow="visible" fill-rule="evenodd" clip-rule="evenodd" fill="#977A66"/>
	<clipPath id="SVGID_34_">
		<use xlink:href="#SVGID_33_"  overflow="visible"/>
	</clipPath>
	<g clip-path="url(#SVGID_34_)">
		<defs>
			<rect id="SVGID_35_" x="111.452" y="28.49" width="291.608" height="164.55"/>
		</defs>
		<use xlink:href="#SVGID_35_"  overflow="visible" fill="#977A66"/>
		<clipPath id="SVGID_36_">
			<use xlink:href="#SVGID_35_"  overflow="visible"/>
		</clipPath>
		<rect x="322.82" y="170.508" clip-path="url(#SVGID_36_)" fill="#977A66" width="28.358" height="32.367"/>
	</g>
</g>
<g>
	<defs>
		<path id="SVGID_37_" d="M342.932,191.262h2.413v-7.693c0-0.232,0.01-0.463,0.022-0.701l-2.003,1.724
			c-0.054,0.043-0.107,0.072-0.156,0.09c-0.053,0.018-0.104,0.027-0.149,0.027c-0.077,0-0.151-0.016-0.211-0.05
			c-0.062-0.034-0.112-0.076-0.143-0.123l-0.438-0.606l3.336-2.905h1.134v10.237h2.206v1.072h-6.012V191.262z"/>
	</defs>
	<use xlink:href="#SVGID_37_"  overflow="visible" fill-rule="evenodd" clip-rule="evenodd" fill="#977A66"/>
	<clipPath id="SVGID_38_">
		<use xlink:href="#SVGID_37_"  overflow="visible"/>
	</clipPath>
	<g clip-path="url(#SVGID_38_)">
		<defs>
			<rect id="SVGID_39_" x="111.452" y="28.49" width="291.608" height="164.55"/>
		</defs>
		<use xlink:href="#SVGID_39_"  overflow="visible" fill="#977A66"/>
		<clipPath id="SVGID_40_">
			<use xlink:href="#SVGID_39_"  overflow="visible"/>
		</clipPath>
		<rect x="331.854" y="170.61" clip-path="url(#SVGID_40_)" fill="#977A66" width="27.507" height="32.138"/>
	</g>
</g>
<g>
	<defs>
		<path id="SVGID_41_" d="M293.646,55.512c1.161,0,2.217-0.109,3.176-0.335c0.953-0.224,1.822-0.528,2.6-0.912
			c0.78-0.38,1.482-0.826,2.11-1.337c0.629-0.512,1.194-1.057,1.702-1.643l0.189,3.856c-0.367,0.482-0.815,0.95-1.339,1.401
			c-0.525,0.45-1.099,0.846-1.72,1.188c-0.624,0.34-1.279,0.612-1.966,0.816c-0.684,0.203-1.361,0.305-2.03,0.305
			c-0.08,0-0.18-0.011-0.303-0.037c-0.12-0.026-0.33-0.069-0.628-0.132c-0.299-0.063-0.725-0.146-1.284-0.252
			c-0.555-0.107-1.312-0.236-2.264-0.384v0.314c0,2.119-0.181,4.043-0.543,5.773c-0.363,1.728-0.848,3.205-1.451,4.429
			c-0.608,1.222-1.301,2.164-2.086,2.83c-0.784,0.663-1.6,0.995-2.439,0.995c-0.657,0-1.208-0.163-1.645-0.49
			c-0.437-0.328-0.786-0.769-1.045-1.322c-0.261-0.555-0.446-1.202-0.555-1.945c-0.112-0.742-0.163-1.526-0.163-2.355
			c0-0.481,0.071-1.025,0.223-1.629c0.149-0.607,0.354-1.239,0.606-1.904c0.254-0.663,0.542-1.338,0.855-2.025
			c0.316-0.688,0.642-1.353,0.977-2c0.784-1.503,1.68-3.053,2.683-4.652c0.127-0.874,0.258-1.773,0.392-2.694
			c0.137-0.92,0.308-1.823,0.513-2.709c0.207-0.888,0.528-1.817,0.958-2.79c0.431-0.974,0.894-1.753,1.384-2.341
			c0.488-0.587,1.081-1.053,1.765-1.398c0.687-0.346,1.514-0.52,2.48-0.52c0.702,0,1.363,0.098,1.97,0.291
			c0.612,0.191,1.146,0.504,1.611,0.936c0.459,0.433,0.819,0.991,1.085,1.672c0.265,0.684,0.396,1.521,0.396,2.514
			c0,1.056-0.116,1.879-0.344,2.476c-0.345,0.887-0.793,1.655-1.339,2.307c-0.546,0.653-1.196,1.261-1.949,1.828
			c-0.756,0.568-1.651,1.075-2.686,1.524L293.646,55.512z M285.266,66.483c0,0.093,0.02,0.244,0.06,0.451
			c0.04,0.208,0.107,0.414,0.201,0.623c0.091,0.208,0.211,0.393,0.363,0.554c0.151,0.16,0.332,0.241,0.55,0.241
			c0.196,0,0.361-0.105,0.486-0.319c0.129-0.215,0.229-0.5,0.312-0.858c0.08-0.356,0.139-0.76,0.172-1.208
			c0.035-0.452,0.062-0.914,0.082-1.386c0.021-0.474,0.031-0.934,0.04-1.384c0.005-0.451,0.021-0.854,0.045-1.212
			c0.035-0.623,0.062-1.151,0.082-1.582c0.019-0.434,0.031-0.794,0.045-1.081c0.011-0.324,0.024-0.605,0.035-0.843
			c-0.218,0.38-0.432,0.824-0.642,1.328c-0.205,0.502-0.403,1.027-0.586,1.57c-0.185,0.545-0.352,1.09-0.501,1.633
			c-0.151,0.545-0.278,1.05-0.39,1.521c-0.112,0.469-0.196,0.874-0.261,1.216C285.294,66.088,285.266,66.334,285.266,66.483z
			 M291.453,53.812c0.693-0.338,1.292-0.712,1.801-1.127c0.483-0.415,0.911-0.858,1.278-1.33c0.152-0.024,0.511-0.541,1.074-1.55
			c0.379-0.866,0.624-1.527,0.727-1.987c0.058-0.247,0.096-0.537,0.111-0.869c0.021-0.331-0.016-0.643-0.101-0.933
			c-0.087-0.293-0.235-0.542-0.447-0.749c-0.214-0.208-0.509-0.314-0.89-0.314c-0.43,0-0.802,0.116-1.125,0.346
			c-0.323,0.229-0.602,0.541-0.84,0.935c-0.236,0.391-0.433,0.858-0.588,1.396c-0.154,0.539-0.342,1.207-0.556,1.997
			c-0.214,0.792-0.341,1.522-0.381,2.189C291.476,52.484,291.453,53.151,291.453,53.812z"/>
	</defs>
	<use xlink:href="#SVGID_41_"  overflow="visible" fill-rule="evenodd" clip-rule="evenodd" fill="#977A66"/>
	<clipPath id="SVGID_42_">
		<use xlink:href="#SVGID_41_"  overflow="visible"/>
	</clipPath>
	<g clip-path="url(#SVGID_42_)">
		<defs>
			<rect id="SVGID_43_" x="111.452" y="28.49" width="291.608" height="164.55"/>
		</defs>
		<use xlink:href="#SVGID_43_"  overflow="visible" fill="#977A66"/>
		<clipPath id="SVGID_44_">
			<use xlink:href="#SVGID_43_"  overflow="visible"/>
		</clipPath>
		<rect x="271.549" y="31.197" clip-path="url(#SVGID_44_)" fill="#977A66" width="42.289" height="51.605"/>
	</g>
</g>
<g>
	<defs>
		<path id="SVGID_45_" d="M307.115,58.854c-1.078,0-2.017-0.202-2.823-0.602c-0.809-0.401-1.479-0.942-2.021-1.619
			c-0.537-0.679-0.94-1.465-1.21-2.356c-0.27-0.893-0.401-1.829-0.401-2.807c0-0.641,0.118-1.405,0.358-2.292
			c0.241-0.887,0.49-1.673,0.747-2.362c0.258-0.686,0.581-1.34,0.974-1.964c0.39-0.625,0.847-1.174,1.366-1.651
			c0.523-0.473,1.107-0.852,1.756-1.13c0.65-0.283,1.365-0.423,2.159-0.423c0.646,0,1.245,0.106,1.798,0.313
			c0.557,0.207,1.036,0.5,1.448,0.876c0.408,0.378,0.729,0.832,0.96,1.365c0.229,0.533,0.346,1.128,0.346,1.79
			c0,0.703-0.231,1.491-0.699,2.365c-0.471,0.872-1.015,1.623-1.641,2.246c-0.624,0.624-1.363,1.179-2.228,1.666
			c-0.86,0.487-1.792,0.868-2.797,1.139c0.169,0.307,0.341,0.562,0.51,0.767c0.17,0.206,0.339,0.364,0.513,0.476
			c0.174,0.114,0.356,0.194,0.549,0.238c0.191,0.044,0.394,0.069,0.614,0.069c0.695,0,1.424-0.137,2.188-0.409
			c0.769-0.271,1.513-0.613,2.241-1.021c0.723-0.406,1.411-0.852,2.057-1.334c0.645-0.482,1.192-0.937,1.643-1.369l2.232,2.278
			c-1.016,1.089-2.094,2.049-3.235,2.887c-0.497,0.356-1.029,0.709-1.598,1.058c-0.574,0.343-1.172,0.653-1.798,0.921
			c-0.633,0.269-1.281,0.485-1.959,0.645C308.49,58.773,307.811,58.854,307.115,58.854 M304.81,50.568
			c0.416,0,0.871-0.104,1.361-0.316c0.494-0.209,0.949-0.478,1.375-0.808c0.421-0.328,0.831-0.771,1.238-1.326
			c0.403-0.556,0.604-1.016,0.604-1.377c0-0.511-0.091-0.93-0.282-1.26c-0.192-0.329-0.426-0.491-0.702-0.491
			c-0.499,0-0.927,0.088-1.279,0.27c-0.35,0.181-0.648,0.417-0.882,0.708c-0.241,0.287-0.428,0.616-0.575,0.984
			c-0.145,0.368-0.312,0.826-0.504,1.371c-0.191,0.543-0.296,0.99-0.32,1.342C304.82,50.019,304.81,50.318,304.81,50.568"/>
	</defs>
	<use xlink:href="#SVGID_45_"  overflow="visible" fill-rule="evenodd" clip-rule="evenodd" fill="#977A66"/>
	<clipPath id="SVGID_46_">
		<use xlink:href="#SVGID_45_"  overflow="visible"/>
	</clipPath>
	<g clip-path="url(#SVGID_46_)">
		<defs>
			<rect id="SVGID_47_" x="111.452" y="28.49" width="291.608" height="164.55"/>
		</defs>
		<use xlink:href="#SVGID_47_"  overflow="visible" fill="#977A66"/>
		<clipPath id="SVGID_48_">
			<use xlink:href="#SVGID_47_"  overflow="visible"/>
		</clipPath>
		<rect x="290.248" y="31.233" clip-path="url(#SVGID_48_)" fill="#977A66" width="37.92" height="38.036"/>
	</g>
</g>
<g>
	<defs>
		<path id="SVGID_49_" d="M314.353,55.217c0-0.765,0.049-1.649,0.139-2.652c0.093-1.002,0.209-2.105,0.348-3.306
			c0.138-1.2,0.294-2.282,0.468-3.244c0.171-0.963,0.341-1.787,0.501-2.471c0.123-0.534,0.37-0.98,0.735-1.34
			c0.363-0.36,0.854-0.54,1.478-0.54c0.626,0,1.054,0.192,1.297,0.574c0.242,0.385,0.363,0.896,0.363,1.532
			c0,0.175-0.019,0.409-0.052,0.703c-0.038,0.298-0.075,0.622-0.129,0.975c-0.054,0.354-0.107,0.719-0.165,1.097
			c-0.061,0.378-0.111,0.805-0.165,1.288c-0.054,0.482-0.096,0.84-0.129,1.078c-0.033,0.237-0.052,0.397-0.052,0.478h0.346
			c0.069-0.126,0.179-0.331,0.327-0.617c0.152-0.285,0.323-0.693,0.52-1.226c0.198-0.535,0.405-1.007,0.633-1.418
			c0.223-0.414,0.435-0.808,0.628-1.184c0.196-0.376,0.375-0.71,0.54-0.999c0.158-0.291,0.28-0.505,0.36-0.645
			c0.37-0.625,0.789-1.055,1.262-1.288c0.477-0.232,0.998-0.348,1.575-0.348s1.036,0.245,1.375,0.731
			c0.341,0.485,0.513,1.162,0.513,2.02c0,0.126-0.029,0.342-0.078,0.643c-0.054,0.301-0.121,0.661-0.201,1.078
			c-0.082,0.417-0.169,0.958-0.268,1.619c-0.1,0.661-0.188,1.254-0.267,1.774c-0.083,0.522-0.147,1.038-0.201,1.547
			c-0.053,0.511-0.075,0.98-0.075,1.411c0,0.72,0.089,1.309,0.268,1.772c0.176,0.464,0.456,0.698,0.838,0.698
			c0.138,0,0.334-0.053,0.588-0.156c0.379-0.141,0.621-0.262,0.727-0.366c0.506-0.393,0.773-0.586,0.795-0.574
			c0.033,0.012,0.422-0.221,1.156-0.697c0.925-0.59,2.026-1.314,3.305-2.173l-0.018,3.896l-0.864,0.661
			c-0.069,0.06-0.61,0.359-1.625,0.905c-1.466,0.789-2.382,1.263-2.749,1.426c-0.9,0.407-1.462,0.639-1.678,0.695
			c-0.577,0.187-1.184,0.279-1.816,0.279c-0.635,0-1.168-0.461-1.6-1.383c-0.435-0.921-0.65-2.271-0.65-4.044
			c0-0.695,0.049-1.446,0.138-2.253c0.094-0.803,0.209-1.671,0.348-2.6h-0.276l-4.53,9.045c-0.245,0.487-0.503,0.812-0.777,0.975
			c-0.29,0.172-0.624,0.26-1.005,0.26c-0.473,0-0.854-0.102-1.144-0.305c-0.289-0.201-0.508-0.476-0.664-0.818
			c-0.155-0.342-0.258-0.729-0.312-1.165C314.382,56.131,314.353,55.682,314.353,55.217"/>
	</defs>
	<use xlink:href="#SVGID_49_"  overflow="visible" fill-rule="evenodd" clip-rule="evenodd" fill="#977A66"/>
	<clipPath id="SVGID_50_">
		<use xlink:href="#SVGID_49_"  overflow="visible"/>
	</clipPath>
	<g clip-path="url(#SVGID_50_)">
		<defs>
			<rect id="SVGID_51_" x="111.452" y="28.49" width="291.608" height="164.55"/>
		</defs>
		<use xlink:href="#SVGID_51_"  overflow="visible" fill="#977A66"/>
		<clipPath id="SVGID_52_">
			<use xlink:href="#SVGID_51_"  overflow="visible"/>
		</clipPath>
		<rect x="303.94" y="31.252" clip-path="url(#SVGID_52_)" fill="#977A66" width="40.128" height="38.018"/>
	</g>
</g>
<g>
	<defs>
		<path id="SVGID_53_" d="M271.311,64.091c-1.721,0-3.266-0.353-4.645-1.051c-1.377-0.703-2.551-1.683-3.518-2.94
			c-0.97-1.261-1.714-2.758-2.233-4.5c-0.519-1.743-0.777-3.653-0.777-5.735c0-1.121,0.08-2.269,0.241-3.446
			c0.161-1.18,0.409-2.356,0.736-3.528c0.328-1.174,0.738-2.323,1.227-3.45c0.492-1.125,1.062-2.19,1.713-3.194
			c0.65-1.004,1.382-1.929,2.188-2.774c0.807-0.847,1.695-1.577,2.669-2.189c0.977-0.615,2.025-1.093,3.15-1.436
			c1.123-0.344,2.331-0.516,3.621-0.516c1.731,0,3.278,0.314,4.645,0.943c1.365,0.628,2.521,1.512,3.462,2.642
			c0.937,1.131,1.658,2.479,2.159,4.048c0.502,1.568,0.753,3.297,0.753,5.187c0,1.55-0.155,3.166-0.461,4.848
			c-0.305,1.682-0.751,3.334-1.337,4.959c-0.59,1.623-1.323,3.171-2.199,4.64c-0.873,1.469-1.883,2.757-3.025,3.867
			c-1.139,1.111-2.414,1.991-3.815,2.644C274.465,63.763,272.945,64.091,271.311,64.091 M271.725,60.053
			c0.922,0,1.78-0.181,2.578-0.543c0.793-0.362,1.523-0.859,2.188-1.489c0.662-0.631,1.266-1.372,1.816-2.22
			c0.546-0.848,1.033-1.754,1.462-2.726c0.423-0.97,0.8-1.975,1.114-3.017c0.316-1.042,0.581-2.069,0.786-3.086
			c0.21-1.017,0.36-1.995,0.457-2.937c0.101-0.942,0.149-1.797,0.149-2.569c0-1.122-0.123-2.176-0.363-3.163
			c-0.243-0.989-0.608-1.85-1.099-2.58c-0.49-0.73-1.105-1.306-1.85-1.727s-1.61-0.631-2.603-0.631c-1.062,0-2.09,0.261-3.08,0.779
			c-0.99,0.521-1.924,1.223-2.801,2.105c-0.877,0.881-1.678,1.905-2.406,3.069c-0.724,1.162-1.348,2.387-1.865,3.672
			c-0.519,1.285-0.922,2.595-1.211,3.927c-0.289,1.333-0.434,2.606-0.434,3.825c0,1.32,0.166,2.548,0.495,3.689
			c0.325,1.14,0.802,2.125,1.415,2.954c0.617,0.83,1.369,1.483,2.25,1.955C269.607,59.817,270.605,60.053,271.725,60.053"/>
	</defs>
	<use xlink:href="#SVGID_53_"  overflow="visible" fill-rule="evenodd" clip-rule="evenodd" fill="#977A66"/>
	<clipPath id="SVGID_54_">
		<use xlink:href="#SVGID_53_"  overflow="visible"/>
	</clipPath>
	<g clip-path="url(#SVGID_54_)">
		<defs>
			<rect id="SVGID_55_" x="111.452" y="28.49" width="291.608" height="164.55"/>
		</defs>
		<use xlink:href="#SVGID_55_"  overflow="visible" fill="#977A66"/>
		<clipPath id="SVGID_56_">
			<use xlink:href="#SVGID_55_"  overflow="visible"/>
		</clipPath>
		<rect x="249.721" y="18.917" clip-path="url(#SVGID_56_)" fill="#977A66" width="47.395" height="55.587"/>
	</g>
</g>
<g>
	<defs>
		<path id="SVGID_57_" d="M281.34,94.126c-0.943,0.988-2.002,1.853-3.18,2.594c-1.182,0.743-2.412,1.364-3.697,1.864
			c-1.283,0.501-2.59,0.877-3.912,1.13c-1.326,0.255-2.609,0.38-3.852,0.38c-1.349,0-2.617-0.156-3.805-0.469
			c-1.19-0.315-2.229-0.796-3.123-1.441c-0.891-0.647-1.597-1.465-2.115-2.455c-0.52-0.99-0.783-2.167-0.783-3.527
			c0-1.184,0.209-2.322,0.627-3.416c0.418-1.09,1.062-2.058,1.94-2.903c0.873-0.845,1.994-1.527,3.36-2.043
			c1.37-0.518,3.008-0.8,4.92-0.847c-1.253,0-2.35-0.181-3.286-0.549c-0.934-0.364-1.711-0.856-2.327-1.478
			c-0.617-0.621-1.08-1.345-1.384-2.175c-0.31-0.83-0.466-1.711-0.466-2.638c0-0.871,0.149-1.664,0.445-2.381
			c0.299-0.719,0.709-1.366,1.231-1.939c0.522-0.574,1.139-1.074,1.851-1.503c0.713-0.429,1.484-0.788,2.315-1.07
			c0.833-0.285,1.704-0.501,2.616-0.645c0.912-0.146,1.834-0.218,2.763-0.218c1.358-0.002,2.689,0.146,3.993,0.441
			c1.301,0.292,2.457,0.736,3.469,1.326c1.012,0.592,1.825,1.328,2.442,2.215c0.615,0.885,0.925,1.92,0.925,3.101
			c0,0.418-0.143,0.831-0.428,1.238c-0.283,0.407-0.624,0.771-1.019,1.091c-0.395,0.321-0.812,0.576-1.247,0.769
			c-0.438,0.193-0.799,0.287-1.09,0.287c-0.243,0-0.365-0.213-0.365-0.645c0-0.385,0.06-0.876,0.182-1.483
			c0.123-0.604,0.326-1.361,0.617-2.267c-0.312-0.255-0.772-0.512-1.379-0.767c-0.602-0.256-1.285-0.488-2.045-0.697
			c-0.763-0.209-1.571-0.38-2.434-0.515c-0.857-0.131-1.707-0.2-2.543-0.2c-0.781,0-1.521,0.071-2.232,0.209
			c-0.709,0.141-1.332,0.371-1.871,0.692c-0.542,0.32-0.972,0.741-1.291,1.266c-0.32,0.522-0.48,1.167-0.48,1.935
			c0,0.628,0.117,1.157,0.343,1.586c0.229,0.429,0.534,0.795,0.91,1.096c0.382,0.303,0.814,0.549,1.31,0.74
			c0.485,0.191,0.996,0.363,1.52,0.513c0.525,0.15,1.04,0.297,1.549,0.436c0.51,0.138,0.973,0.303,1.4,0.488
			c0.426,0.186,0.783,0.412,1.079,0.673c0.288,0.263,0.481,0.594,0.577,0.989c0.022,0.251,0.047,0.506,0.068,0.763
			c0.023,0.259,0.039,0.509,0.039,0.749c0,0.704-0.127,1.215-0.373,1.532c-0.244,0.32-0.724,0.478-1.439,0.48
			c-0.307,0-0.682-0.021-1.136-0.056c-0.45-0.032-0.878-0.05-1.292-0.05c-0.912,0-1.808,0.118-2.689,0.351
			c-0.877,0.232-1.666,0.576-2.365,1.033c-0.695,0.46-1.256,1.023-1.684,1.697c-0.431,0.671-0.644,1.454-0.644,2.347
			c0,0.848,0.124,1.554,0.366,2.117c0.244,0.565,0.578,1.021,1.001,1.365c0.426,0.346,0.927,0.59,1.503,0.736
			c0.578,0.146,1.202,0.22,1.869,0.217c0.824,0,1.688-0.077,2.598-0.235c0.906-0.159,1.809-0.376,2.709-0.655
			c0.898-0.277,1.778-0.604,2.632-0.984c0.854-0.376,1.645-0.783,2.38-1.219c0.73-0.437,1.375-0.895,1.932-1.375
			c0.557-0.48,0.989-0.963,1.29-1.45L281.34,94.126z"/>
	</defs>
	<use xlink:href="#SVGID_57_"  overflow="visible" fill-rule="evenodd" clip-rule="evenodd" fill="#977A66"/>
	<clipPath id="SVGID_58_">
		<use xlink:href="#SVGID_57_"  overflow="visible"/>
	</clipPath>
	<g clip-path="url(#SVGID_58_)">
		<defs>
			<rect id="SVGID_59_" x="111.452" y="28.49" width="291.608" height="164.55"/>
		</defs>
		<use xlink:href="#SVGID_59_"  overflow="visible" fill="#977A66"/>
		<clipPath id="SVGID_60_">
			<use xlink:href="#SVGID_59_"  overflow="visible"/>
		</clipPath>
		<rect x="246.461" y="57.984" clip-path="url(#SVGID_60_)" fill="#977A66" width="46.263" height="52.526"/>
	</g>
</g>
<g>
	<defs>
		<path id="SVGID_61_" d="M299.938,94.792c-0.815,0.678-1.622,1.281-2.418,1.813c-0.334,0.219-0.684,0.439-1.056,0.654
			c-0.368,0.216-0.731,0.407-1.088,0.574c-0.356,0.167-0.706,0.301-1.043,0.406c-0.336,0.106-0.646,0.157-0.922,0.157
			c-0.17,0-0.413-0.037-0.738-0.111c-0.327-0.072-0.679-0.225-1.061-0.451c-0.385-0.229-0.771-0.557-1.151-0.988
			c-0.386-0.431-0.718-1.005-1.003-1.717c-0.426,0.444-0.883,0.865-1.361,1.265c-0.478,0.401-0.977,0.746-1.488,1.044
			c-0.518,0.295-1.039,0.532-1.562,0.711c-0.525,0.179-1.054,0.267-1.586,0.267c-0.749,0-1.402-0.155-1.947-0.467
			c-0.547-0.314-1.004-0.731-1.367-1.254c-0.365-0.519-0.633-1.111-0.812-1.77c-0.181-0.663-0.268-1.345-0.268-2.05
			c0-0.753,0.092-1.514,0.283-2.286c0.189-0.772,0.463-1.521,0.828-2.244c0.363-0.725,0.768-1.481,1.211-2.268
			c0.443-0.789,1.029-1.507,1.762-2.156c0.731-0.647,1.484-1.137,2.255-1.465c0.773-0.331,1.598-0.536,2.474-0.619
			c0.036-1.508,0.194-2.834,0.473-3.981c0.287-1.149,0.593-2.384,0.916-3.708c0.327-1.323,0.748-2.542,1.263-3.654
			c0.518-1.112,1.083-2.077,1.696-2.888c0.614-0.812,1.27-1.449,1.965-1.907c0.693-0.457,1.415-0.687,2.157-0.687
			c0.539,0,1,0.143,1.384,0.428c0.379,0.284,0.687,0.663,0.923,1.133c0.24,0.47,0.407,1.015,0.512,1.637
			c0.105,0.623,0.158,1.263,0.158,1.924c0,0.413-0.004,0.838-0.011,1.275c-0.033,1.666-0.287,3.215-0.767,4.652
			c-0.475,1.432-0.947,2.852-1.415,4.252c-0.466,1.401-1.029,2.789-1.685,4.16c-1.01,2.1-1.651,3.525-1.923,4.276
			c-0.061,0.165-0.118,0.364-0.181,0.6c-0.06,0.233-0.118,0.488-0.172,0.765c-0.053,0.275-0.098,0.558-0.136,0.845
			c-0.033,0.286-0.051,0.565-0.051,0.834c0,0.338,0.02,0.663,0.058,0.967c0.04,0.305,0.104,0.578,0.196,0.82
			c0.089,0.238,0.212,0.429,0.363,0.57c0.149,0.14,0.336,0.211,0.563,0.211c0.219,0,0.457-0.045,0.718-0.134
			c0.259-0.088,0.53-0.206,0.819-0.358c0.29-0.152,0.578-0.326,0.874-0.519c0.292-0.194,0.579-0.389,0.855-0.588
			c0.635-0.468,1.297-1.001,1.987-1.597L299.938,94.792z M287.952,84.525c-0.762,0.372-1.441,0.868-2.034,1.481
			c-0.595,0.614-1.089,1.426-1.486,2.431c-0.396,1.007-0.699,1.871-0.908,2.595c-0.205,0.726-0.312,1.382-0.312,1.966
			c0,0.181,0.029,0.363,0.082,0.545c0.049,0.181,0.147,0.346,0.285,0.49c0.139,0.146,0.332,0.262,0.589,0.354
			c0.251,0.091,0.581,0.134,0.984,0.134c0.208,0,0.41-0.046,0.615-0.139c0.2-0.092,0.395-0.213,0.577-0.362
			c0.188-0.148,0.363-0.32,0.528-0.509c0.167-0.191,0.323-0.389,0.461-0.596c0.321-0.472,0.615-1.007,0.88-1.605
			c-0.035-0.163-0.062-0.423-0.087-0.779c-0.026-0.356-0.04-0.901-0.053-1.632c-0.014-0.73-0.024-1.33-0.036-1.798
			c-0.011-0.468-0.022-0.893-0.026-1.279c-0.005-0.387-0.016-0.704-0.027-0.947C287.971,84.628,287.962,84.513,287.952,84.525z
			 M296.104,72.652c0.073-0.812,0.106-1.457,0.106-1.933c0-0.626-0.056-1.061-0.167-1.303c-0.108-0.243-0.273-0.367-0.485-0.367
			c-0.374,0-0.713,0.236-1.017,0.706c-0.305,0.47-0.552,1.076-0.735,1.816c-0.185,0.743-0.387,1.548-0.604,2.418
			c-0.216,0.871-0.376,1.723-0.477,2.56c-0.098,0.833-0.181,1.587-0.238,2.256c-0.062,0.668-0.105,1.147-0.13,1.428
			c-0.049,0.576-0.091,1.131-0.122,1.666c-0.029,0.534-0.052,1.023-0.064,1.463c-0.014,0.441-0.016,0.826-0.016,1.155v0.759v0.175
			c0.637-1.544,1.229-3.084,1.767-4.618c0.226-0.652,0.448-1.336,0.669-2.044c0.218-0.708,0.435-1.415,0.652-2.112
			c0.217-0.7,0.395-1.391,0.546-2.077C295.938,73.917,296.043,73.268,296.104,72.652z"/>
	</defs>
	<use xlink:href="#SVGID_61_"  overflow="visible" fill-rule="evenodd" clip-rule="evenodd" fill="#977A66"/>
	<clipPath id="SVGID_62_">
		<use xlink:href="#SVGID_61_"  overflow="visible"/>
	</clipPath>
	<g clip-path="url(#SVGID_62_)">
		<defs>
			<rect id="SVGID_63_" x="111.452" y="28.49" width="291.608" height="164.55"/>
		</defs>
		<use xlink:href="#SVGID_63_"  overflow="visible" fill="#977A66"/>
		<clipPath id="SVGID_64_">
			<use xlink:href="#SVGID_63_"  overflow="visible"/>
		</clipPath>
		<rect x="268.652" y="54.599" clip-path="url(#SVGID_64_)" fill="#977A66" width="41.705" height="54.234"/>
	</g>
</g>
<g>
	<defs>
		<path id="SVGID_65_" d="M311.953,82.194c0,0.316-0.014,0.74-0.031,1.28c-0.022,0.539-0.089,1.129-0.205,1.767
			c-0.118,0.639-0.266,1.409-0.431,2.317c-0.167,0.905-0.305,1.653-0.412,2.247c-0.111,0.592-0.207,1.111-0.287,1.554
			c-0.082,0.446-0.122,0.77-0.122,0.969c0,0.328,0.004,0.627,0.013,0.899c0.012,0.274,0.04,0.515,0.092,0.718
			c0.051,0.203,0.125,0.36,0.231,0.47c0.104,0.112,0.257,0.167,0.457,0.167c0.252,0,0.562-0.063,0.925-0.194
			c0.36-0.127,0.748-0.298,1.158-0.516c0.408-0.214,0.827-0.459,1.253-0.732c0.425-0.275,0.831-0.563,1.221-0.864
			c0.383-0.303,0.735-0.604,1.054-0.901c0.316-0.297,0.573-0.572,0.769-0.83c0,0.384,0.003,0.735,0.007,1.049
			c0.009,0.314,0.012,0.615,0.012,0.9s0.002,0.579,0.011,0.881c0.002,0.303,0.007,0.641,0.007,1.013
			c-0.254,0.251-0.566,0.52-0.942,0.808c-0.375,0.284-0.789,0.571-1.243,0.858c-0.457,0.287-0.94,0.562-1.455,0.823
			c-0.513,0.266-1.025,0.497-1.547,0.698c-0.517,0.199-1.025,0.359-1.521,0.48c-0.493,0.12-0.954,0.181-1.373,0.181
			c-0.433,0-0.805-0.086-1.107-0.259c-0.305-0.171-0.57-0.41-0.791-0.717c-0.221-0.31-0.407-0.677-0.56-1.107
			c-0.155-0.43-0.289-0.905-0.4-1.432c-0.415,0.538-0.854,1.034-1.317,1.487c-0.459,0.452-0.934,0.842-1.41,1.174
			c-0.479,0.333-0.963,0.591-1.453,0.783c-0.492,0.189-0.967,0.282-1.428,0.282c-0.379,0-0.738-0.063-1.07-0.189
			c-0.332-0.127-0.626-0.341-0.887-0.642c-0.258-0.303-0.463-0.7-0.61-1.193c-0.149-0.494-0.223-1.104-0.223-1.834
			c0.007-1.517,0.122-2.683,0.341-3.496c0.346-1.184,0.669-2.948,0.965-5.291c0.031-0.173,0.076-0.407,0.127-0.704
			c0.056-0.297,0.136-0.621,0.245-0.966c0.111-0.348,0.247-0.702,0.408-1.062c0.158-0.359,0.35-0.684,0.57-0.974
			c0.218-0.291,0.477-0.528,0.769-0.714c0.294-0.186,0.626-0.285,0.994-0.294c0.612,0.028,1.047,0.127,1.314,0.295
			c0.268,0.169,0.4,0.381,0.4,0.631c-0.106,0.783-0.223,1.534-0.35,2.256c-0.131,0.722-0.261,1.449-0.39,2.181
			c-0.132,0.732-0.274,1.548-0.437,2.445c-0.158,0.895-0.285,1.612-0.381,2.156c-0.099,0.54-0.179,0.979-0.236,1.311
			c-0.059,0.333-0.09,0.506-0.09,0.519c0,0.215,0.021,0.422,0.061,0.62s0.101,0.372,0.185,0.528
			c0.081,0.155,0.186,0.281,0.312,0.377c0.125,0.095,0.276,0.145,0.45,0.142c0.252,0,0.515-0.067,0.782-0.202
			c0.263-0.138,0.512-0.335,0.744-0.594c0.245-0.235,0.461-0.544,0.642-0.922c0.185-0.364,0.325-0.79,0.414-1.276l1.905-9.479
			c0.058-0.28,0.281-0.514,0.675-0.706c0.395-0.191,0.848-0.286,1.347-0.286c0.565,0,1.018,0.103,1.35,0.31
			C311.786,81.604,311.953,81.871,311.953,82.194"/>
	</defs>
	<use xlink:href="#SVGID_65_"  overflow="visible" fill-rule="evenodd" clip-rule="evenodd" fill="#977A66"/>
	<clipPath id="SVGID_66_">
		<use xlink:href="#SVGID_65_"  overflow="visible"/>
	</clipPath>
	<g clip-path="url(#SVGID_66_)">
		<defs>
			<rect id="SVGID_67_" x="111.452" y="28.49" width="291.608" height="164.55"/>
		</defs>
		<use xlink:href="#SVGID_67_"  overflow="visible" fill="#977A66"/>
		<clipPath id="SVGID_68_">
			<use xlink:href="#SVGID_67_"  overflow="visible"/>
		</clipPath>
		<rect x="287.919" y="70.667" clip-path="url(#SVGID_68_)" fill="#977A66" width="40.169" height="38.194"/>
	</g>
</g>
<g>
	<defs>
		<path id="SVGID_69_" d="M321.133,98.406c-1.069,0-2.005-0.197-2.812-0.592c-0.809-0.393-1.482-0.921-2.027-1.583
			c-0.547-0.659-0.959-1.425-1.237-2.297c-0.28-0.868-0.421-1.771-0.421-2.713c0-0.671,0.118-1.479,0.348-2.418
			c0.233-0.937,0.483-1.757,0.755-2.461c0.272-0.701,0.608-1.37,1.008-2.009c0.4-0.639,0.862-1.195,1.39-1.678
			c0.526-0.481,1.117-0.865,1.766-1.149c0.648-0.285,1.361-0.427,2.139-0.427c0.699,0,1.344,0.101,1.938,0.304
			c0.598,0.202,1.107,0.483,1.531,0.843c0.421,0.36,0.753,0.785,0.991,1.277c0.243,0.495,0.358,1.025,0.358,1.593
			c0,0.393-0.056,0.781-0.167,1.166c-0.111,0.382-0.33,0.832-0.655,1.348c-0.325,0.517-0.639,0.867-0.942,1.054
			c-0.308,0.185-0.652,0.276-1.04,0.276c-0.582,0-0.958-0.145-1.13-0.433c-0.281-0.453-0.368-0.853-0.266-1.201
			c0.038-0.184,0.139-0.613,0.311-1.287c0.024-0.094,0.028-0.301,0.02-0.626c-0.002-0.278-0.031-0.509-0.089-0.696
			c-0.056-0.185-0.183-0.278-0.379-0.278c-0.471,0-0.871,0.114-1.203,0.339c-0.332,0.226-0.62,0.523-0.854,0.89
			c-0.234,0.364-0.468,0.88-0.697,1.548s-0.391,1.227-0.49,1.68c-0.096,0.452-0.156,0.882-0.181,1.294
			c-0.022,0.412-0.033,0.758-0.033,1.037c0,0.417,0.037,0.853,0.113,1.304s0.223,0.866,0.448,1.242
			c0.225,0.379,0.515,0.692,0.871,0.94c0.354,0.25,0.813,0.374,1.375,0.374c0.555,0,1.165-0.17,1.833-0.515
			c0.669-0.342,1.34-0.773,2.017-1.295c0.673-0.522,1.315-1.097,1.928-1.726c0.61-0.624,1.132-1.215,1.568-1.773l1.199,2.018
			c-0.867,1.241-1.801,2.349-2.803,3.324c-0.426,0.417-0.892,0.824-1.391,1.218c-0.502,0.393-1.027,0.745-1.575,1.052
			c-0.546,0.307-1.117,0.558-1.712,0.749C322.343,98.308,321.741,98.406,321.133,98.406"/>
	</defs>
	<use xlink:href="#SVGID_69_"  overflow="visible" fill-rule="evenodd" clip-rule="evenodd" fill="#977A66"/>
	<clipPath id="SVGID_70_">
		<use xlink:href="#SVGID_69_"  overflow="visible"/>
	</clipPath>
	<g clip-path="url(#SVGID_70_)">
		<defs>
			<rect id="SVGID_71_" x="111.452" y="28.49" width="291.608" height="164.55"/>
		</defs>
		<use xlink:href="#SVGID_71_"  overflow="visible" fill="#977A66"/>
		<clipPath id="SVGID_72_">
			<use xlink:href="#SVGID_71_"  overflow="visible"/>
		</clipPath>
		<rect x="304.221" y="70.663" clip-path="url(#SVGID_72_)" fill="#977A66" width="36.607" height="38.158"/>
	</g>
</g>
<g>
	<defs>
		<path id="SVGID_73_" d="M346.94,94.083c-0.263,0.373-0.619,0.815-1.061,1.32c-0.445,0.504-0.944,0.984-1.495,1.442
			c-0.557,0.459-1.147,0.847-1.78,1.164c-0.635,0.317-1.271,0.474-1.905,0.474c-0.767,0-1.403-0.243-1.916-0.731
			c-0.511-0.486-0.954-1.195-1.326-2.125c-0.276,0.322-0.621,0.649-1.024,0.98c-0.408,0.333-0.856,0.635-1.335,0.907
			c-0.483,0.268-0.985,0.49-1.509,0.663c-0.521,0.173-1.047,0.256-1.566,0.256c-0.557,0-1.097-0.111-1.62-0.339
			c-0.523-0.23-0.989-0.556-1.393-0.982c-0.401-0.427-0.727-0.948-0.967-1.562c-0.245-0.614-0.365-1.309-0.365-2.079
			c0-0.866,0.12-1.757,0.365-2.671c0.24-0.912,0.619-1.902,1.128-2.963c0.51-1.065,1.056-1.983,1.642-2.758
			c0.586-0.773,1.228-1.45,1.925-2.028c0.693-0.58,1.427-1.038,2.2-1.379c0.771-0.342,1.555-0.513,2.357-0.513
			c0.265,0,0.472,0.051,0.626,0.159c0.149,0.104,0.276,0.227,0.374,0.358c0.098,0.134,0.194,0.269,0.287,0.396
			c0.092,0.129,0.208,0.222,0.348,0.283c0.137,0.057,0.279,0.095,0.426,0.112c0.143,0.018,0.292,0.025,0.446,0.025
			c0.124,0,0.256-0.001,0.39-0.008c0.134-0.005,0.263-0.009,0.39-0.009c0.176,0,0.339,0.017,0.488,0.052
			c0.149,0.037,0.283,0.111,0.398,0.23c0.116,0.116,0.203,0.28,0.268,0.491c0.064,0.211,0.096,0.498,0.096,0.86
			c0,0.555-0.056,1.172-0.172,1.847c-0.115,0.676-0.247,1.37-0.394,2.077c-0.149,0.709-0.316,1.518-0.509,2.425
			c-0.193,0.91-0.285,1.674-0.285,2.296c0,0.532,0.052,0.946,0.149,1.245c0.099,0.299,0.31,0.45,0.631,0.45
			c0.238,0,0.494-0.061,0.76-0.181c0.265-0.119,0.535-0.278,0.802-0.473c0.272-0.198,0.546-0.418,0.813-0.666
			c0.274-0.247,0.53-0.504,0.771-0.766c0.565-0.623,1.134-1.323,1.711-2.106L346.94,94.083z M332.104,92.727
			c0,0.298,0.021,0.59,0.062,0.87c0.04,0.281,0.109,0.531,0.217,0.752c0.103,0.223,0.242,0.401,0.414,0.54
			c0.174,0.138,0.393,0.205,0.66,0.205c0.428,0,0.812-0.187,1.16-0.56c0.346-0.372,0.646-0.825,0.898-1.349
			c0.254-0.525,0.459-1.068,0.615-1.629c0.158-0.56,0.256-1.027,0.303-1.403l1.288-5.654c-0.473,0-0.932,0.118-1.384,0.354
			c-0.448,0.237-0.871,0.556-1.271,0.956c-0.398,0.405-0.762,0.865-1.099,1.382c-0.334,0.519-0.664,1.157-0.982,1.914
			c-0.325,0.761-0.555,1.428-0.684,2.002C332.172,91.681,332.104,92.22,332.104,92.727z"/>
	</defs>
	<use xlink:href="#SVGID_73_"  overflow="visible" fill-rule="evenodd" clip-rule="evenodd" fill="#977A66"/>
	<clipPath id="SVGID_74_">
		<use xlink:href="#SVGID_73_"  overflow="visible"/>
	</clipPath>
	<g clip-path="url(#SVGID_74_)">
		<defs>
			<rect id="SVGID_75_" x="111.452" y="28.49" width="291.608" height="164.55"/>
		</defs>
		<use xlink:href="#SVGID_75_"  overflow="visible" fill="#977A66"/>
		<clipPath id="SVGID_76_">
			<use xlink:href="#SVGID_75_"  overflow="visible"/>
		</clipPath>
		<rect x="317.263" y="70.744" clip-path="url(#SVGID_76_)" fill="#977A66" width="40.093" height="38.154"/>
	</g>
</g>
<g>
	<defs>
		<path id="SVGID_77_" d="M359.934,94.492c-1.11,0.649-2.095,1.219-2.962,1.707c-0.866,0.486-1.635,0.893-2.311,1.218
			c-0.675,0.326-1.274,0.57-1.803,0.732c-0.523,0.162-1,0.243-1.428,0.243c-0.869,0-1.638-0.266-2.307-0.799
			c-0.662-0.533-1.219-1.3-1.667-2.304c-0.447-1.001-0.786-2.217-1.007-3.644c-0.228-1.428-0.336-3.032-0.336-4.819
			c0-0.695,0.024-1.438,0.08-2.227c0.058-0.788,0.14-1.571,0.24-2.348c-0.348-0.053-0.619-0.1-0.809-0.145
			c-0.191-0.044-0.396-0.091-0.61-0.137c-0.217-0.044-0.488-0.093-0.818-0.144c-0.329-0.053-0.809-0.118-1.435-0.193
			c-0.283-0.039-0.495-0.112-0.645-0.224c-0.153-0.107-0.263-0.238-0.332-0.387c-0.07-0.147-0.111-0.302-0.122-0.463
			c-0.011-0.163-0.018-0.301-0.018-0.416c0-0.184,0.113-0.324,0.339-0.42c0.229-0.095,0.517-0.168,0.868-0.216
			c0.356-0.048,0.74-0.077,1.166-0.083c0.423-0.006,0.829-0.002,1.217,0.008c0.39,0.012,0.735,0.023,1.042,0.026
			c0.308,0.005,0.52-0.002,0.636-0.026c0.31-1.561,0.701-3.071,1.183-4.537c0.478-1.464,1.01-2.764,1.603-3.902
			c0.593-1.142,1.239-2.053,1.94-2.743c0.704-0.689,1.438-1.034,2.211-1.034c0.494,0,0.949,0.139,1.359,0.417
			c0.407,0.277,0.757,0.648,1.045,1.111c0.289,0.463,0.512,1.005,0.668,1.625c0.156,0.621,0.234,1.266,0.234,1.938
			c0,0.556-0.078,1.143-0.243,1.762c-0.16,0.618-0.379,1.247-0.655,1.89c-0.278,0.64-0.602,1.29-0.979,1.947
			c-0.374,0.659-0.769,1.312-1.185,1.959c0.104-0.039,0.278-0.047,0.521-0.023c0.24,0.023,0.521,0.042,0.837,0.05
			c0.319,0.008,0.66,0.018,1.03,0.026c0.369,0.01,0.724,0.02,1.073,0.03c0.346,0.012,0.667,0.024,0.968,0.035
			c0.298,0.013,0.548,0.022,0.741,0.034c0.23,0.013,0.401,0.143,0.504,0.389c0.104,0.244,0.156,0.555,0.156,0.93
			c0.002,0.433-0.116,0.785-0.348,1.057c-0.229,0.272-0.483,0.41-0.76,0.41l-6.646,0.001c-0.339,0.464-0.678,0.922-1.019,1.368
			c-0.341,0.445-0.657,0.848-0.942,1.21c-0.05,0.717-0.09,1.425-0.123,2.121c-0.014,0.301-0.022,0.612-0.033,0.93
			c-0.014,0.32-0.024,0.636-0.036,0.948c-0.011,0.313-0.02,0.614-0.024,0.907c-0.007,0.288-0.009,0.554-0.009,0.799
			c0,0.625,0.056,1.154,0.176,1.583c0.112,0.427,0.283,0.779,0.506,1.051c0.219,0.272,0.486,0.47,0.805,0.592
			s0.673,0.183,1.069,0.183c0.241,0,0.542-0.059,0.907-0.174s0.76-0.277,1.194-0.48c0.433-0.204,0.889-0.443,1.366-0.722
			c0.477-0.279,0.951-0.583,1.424-0.914c0.463-0.331,0.911-0.679,1.337-1.046c0.426-0.366,0.812-0.74,1.16-1.122L359.934,94.492z
			 M354.39,72.465c0-0.128-0.009-0.269-0.029-0.425c-0.018-0.155-0.054-0.303-0.111-0.441c-0.058-0.138-0.146-0.252-0.27-0.346
			c-0.123-0.091-0.29-0.138-0.51-0.138c-0.304,0-0.606,0.264-0.914,0.795c-0.308,0.529-0.6,1.207-0.885,2.028
			c-0.283,0.824-0.55,1.731-0.798,2.722c-0.247,0.991-0.475,1.952-0.684,2.884c0.174,0.016,0.348,0.033,0.521,0.045
			c0.174,0.013,0.352,0.028,0.537,0.044c0.348-0.583,0.708-1.216,1.083-1.9c0.376-0.681,0.715-1.351,1.016-2.009
			c0.301-0.661,0.551-1.278,0.744-1.849C354.291,73.301,354.39,72.831,354.39,72.465z"/>
	</defs>
	<use xlink:href="#SVGID_77_"  overflow="visible" fill-rule="evenodd" clip-rule="evenodd" fill="#977A66"/>
	<clipPath id="SVGID_78_">
		<use xlink:href="#SVGID_77_"  overflow="visible"/>
	</clipPath>
	<g clip-path="url(#SVGID_78_)">
		<defs>
			<rect id="SVGID_79_" x="111.452" y="28.49" width="291.608" height="164.55"/>
		</defs>
		<use xlink:href="#SVGID_79_"  overflow="visible" fill="#977A66"/>
		<clipPath id="SVGID_80_">
			<use xlink:href="#SVGID_79_"  overflow="visible"/>
		</clipPath>
		<rect x="331.231" y="56.802" clip-path="url(#SVGID_80_)" fill="#977A66" width="39.116" height="52.004"/>
	</g>
</g>
<g>
	<defs>
		<path id="SVGID_81_" d="M369.116,94.68c-0.417,0.381-0.932,0.792-1.547,1.228c-0.617,0.434-1.285,0.836-1.996,1.198
			c-0.718,0.369-1.446,0.673-2.19,0.916c-0.744,0.244-1.448,0.367-2.117,0.367c-0.6,0-1.105-0.084-1.515-0.253
			c-0.408-0.166-0.74-0.4-0.994-0.702c-0.256-0.304-0.433-0.671-0.544-1.104c-0.109-0.436-0.167-0.916-0.167-1.436
			c0-0.73,0.083-1.583,0.243-2.559c0.329-2.014,0.546-3.147,0.64-3.395c0.158-0.494,0.47-1.592,0.94-3.293
			c0.437-1.385,0.708-2.287,0.811-2.705c0.056-0.293,0.212-0.558,0.475-0.792c0.238-0.211,0.506-0.384,0.805-0.519
			c0.303-0.137,0.615-0.236,0.936-0.299c0.323-0.065,0.615-0.098,0.874-0.098c0.479,0,0.8,0.087,0.969,0.269
			c0.172,0.181,0.256,0.422,0.256,0.722c0,0.256-0.058,0.617-0.178,1.083c-0.118,0.466-0.252,0.996-0.403,1.593
			c-0.151,0.596-0.372,1.362-0.671,2.298c-0.299,0.938-0.501,1.735-0.605,2.396c-0.109,0.661-0.248,1.318-0.417,1.971
			c-0.16,0.651-0.245,1.245-0.245,1.778c0,0.522,0.058,0.937,0.174,1.243c0.113,0.307,0.352,0.462,0.706,0.462
			c0.415,0,0.88-0.146,1.384-0.438c0.508-0.289,1.021-0.641,1.542-1.052c0.517-0.413,1.027-0.841,1.52-1.279
			c0.497-0.441,0.934-0.82,1.312-1.131L369.116,94.68z M361.377,76.427c0-0.269,0.059-0.573,0.172-0.914
			c0.116-0.339,0.306-0.659,0.563-0.957c0.257-0.3,0.604-0.552,1.036-0.756c0.433-0.207,0.972-0.309,1.616-0.309
			c0.405,0,0.786,0.047,1.141,0.141c0.358,0.094,0.67,0.238,0.936,0.431c0.268,0.191,0.475,0.446,0.631,0.763
			c0.158,0.316,0.236,0.69,0.236,1.124c0,0.397-0.062,0.783-0.189,1.159c-0.127,0.375-0.33,0.708-0.606,1
			c-0.271,0.293-0.624,0.531-1.047,0.712c-0.419,0.181-0.925,0.271-1.511,0.271c-1.017,0-1.763-0.241-2.249-0.728
			C361.62,77.881,361.377,77.235,361.377,76.427z"/>
	</defs>
	<use xlink:href="#SVGID_81_"  overflow="visible" fill-rule="evenodd" clip-rule="evenodd" fill="#977A66"/>
	<clipPath id="SVGID_82_">
		<use xlink:href="#SVGID_81_"  overflow="visible"/>
	</clipPath>
	<g clip-path="url(#SVGID_82_)">
		<defs>
			<rect id="SVGID_83_" x="111.452" y="28.49" width="291.608" height="164.55"/>
		</defs>
		<use xlink:href="#SVGID_83_"  overflow="visible" fill="#977A66"/>
		<clipPath id="SVGID_84_">
			<use xlink:href="#SVGID_83_"  overflow="visible"/>
		</clipPath>
		<rect x="347.631" y="63.077" clip-path="url(#SVGID_84_)" fill="#977A66" width="31.899" height="45.725"/>
	</g>
</g>
<g>
	<defs>
		<path id="SVGID_85_" d="M378.517,84.971c0.339,0.671,0.586,1.381,0.758,2.129c0.165,0.748,0.247,1.591,0.247,2.53
			c0.003,0.686-0.073,1.375-0.221,2.071c-0.149,0.696-0.365,1.37-0.65,2.018c-0.278,0.651-0.626,1.26-1.036,1.827
			c-0.408,0.57-0.876,1.062-1.401,1.479c-0.523,0.418-1.094,0.75-1.718,0.992c-0.622,0.244-1.286,0.368-1.988,0.368
			c-1.014,0-1.883-0.224-2.603-0.669c-0.722-0.445-1.314-1.03-1.773-1.747c-0.463-0.721-0.8-1.532-1.014-2.438
			c-0.216-0.903-0.321-1.82-0.321-2.748c0-1.529,0.188-2.85,0.57-3.956c0.377-1.107,0.923-2.071,1.632-2.889
			c0.711-0.817,1.577-1.462,2.603-1.931c1.027-0.47,2.177-0.706,3.458-0.706c1.094,0,2.123,0.17,3.079,0.512
			c0.956,0.342,1.854,0.8,2.689,1.372c0.836,0.576,1.616,1.296,2.336,2.166c0.722,0.869,1.393,1.698,2.014,2.487l-0.323,2.453
			c-0.316-0.418-0.735-0.871-1.266-1.356c-0.532-0.485-1.092-1.025-1.687-1.619c-0.593-0.59-1.181-1.09-1.756-1.503
			c-0.577-0.411-1.071-0.756-1.486-1.033L378.517,84.971z M373.181,95.043c0.39,0,0.772-0.202,1.141-0.601
			c0.367-0.4,0.69-0.907,0.965-1.515c0.278-0.608,0.501-1.345,0.668-2.209c0.167-0.865,0.248-1.631,0.248-2.304
			c0-0.534-0.043-1.03-0.123-1.489c-0.078-0.458-0.198-0.855-0.361-1.19c-0.162-0.338-0.369-0.603-0.621-0.802
			c-0.254-0.195-0.562-0.295-0.918-0.295c-0.475,0-0.925,0.204-1.351,0.609c-0.426,0.407-0.8,0.925-1.121,1.558
			c-0.325,0.633-0.577,1.33-0.76,2.097c-0.185,0.765-0.278,1.629-0.278,2.591c0,0.488,0.047,0.946,0.141,1.375
			c0.091,0.427,0.236,0.802,0.432,1.121c0.198,0.32,0.455,0.574,0.78,0.766C372.34,94.948,372.728,95.043,373.181,95.043z"/>
	</defs>
	<use xlink:href="#SVGID_85_"  overflow="visible" fill-rule="evenodd" clip-rule="evenodd" fill="#977A66"/>
	<clipPath id="SVGID_86_">
		<use xlink:href="#SVGID_85_"  overflow="visible"/>
	</clipPath>
	<g clip-path="url(#SVGID_86_)">
		<defs>
			<rect id="SVGID_87_" x="111.452" y="28.49" width="291.608" height="164.55"/>
		</defs>
		<use xlink:href="#SVGID_87_"  overflow="visible" fill="#977A66"/>
		<clipPath id="SVGID_88_">
			<use xlink:href="#SVGID_87_"  overflow="visible"/>
		</clipPath>
		<rect x="356.382" y="70.887" clip-path="url(#SVGID_88_)" fill="#977A66" width="39.212" height="37.913"/>
	</g>
</g>
<g>
	<defs>
		<path id="SVGID_89_" d="M382.812,94.744c0-0.767,0.045-1.649,0.139-2.655c0.091-1.003,0.202-2.103,0.343-3.305
			c0.139-1.198,0.29-2.282,0.468-3.245c0.17-0.961,0.337-1.786,0.499-2.469c0.127-0.533,0.37-0.98,0.733-1.34
			c0.365-0.359,0.855-0.539,1.479-0.539c0.624-0.001,1.054,0.19,1.297,0.574c0.243,0.383,0.363,0.893,0.363,1.529
			c0,0.175-0.016,0.41-0.054,0.705c-0.031,0.297-0.078,0.622-0.127,0.974c-0.051,0.356-0.106,0.721-0.165,1.099
			c-0.058,0.376-0.111,0.806-0.162,1.285c-0.054,0.482-0.094,0.843-0.132,1.081c-0.031,0.238-0.049,0.397-0.049,0.478h0.346
			c0.068-0.127,0.178-0.333,0.327-0.618c0.149-0.284,0.323-0.691,0.521-1.226c0.193-0.533,0.403-1.007,0.628-1.418
			c0.226-0.413,0.435-0.808,0.631-1.183c0.196-0.376,0.374-0.711,0.532-1.001c0.163-0.288,0.288-0.504,0.368-0.642
			c0.367-0.626,0.786-1.056,1.264-1.29c0.47-0.232,0.996-0.349,1.568-0.349c0.577,0,1.036,0.242,1.377,0.729
			c0.339,0.488,0.511,1.161,0.511,2.02c0,0.128-0.025,0.341-0.078,0.643c-0.049,0.303-0.118,0.661-0.198,1.078
			c-0.081,0.419-0.167,0.959-0.268,1.619c-0.096,0.661-0.185,1.253-0.266,1.776c-0.082,0.52-0.146,1.037-0.2,1.548
			c-0.049,0.509-0.078,0.978-0.078,1.407c0,0.72,0.092,1.31,0.271,1.776c0.177,0.463,0.459,0.696,0.841,0.696
			c0.14,0,0.332-0.053,0.588-0.157c0.379-0.14,0.619-0.262,0.727-0.366c0.504-0.395,0.767-0.588,0.793-0.576
			c0.033,0.012,0.419-0.22,1.159-0.696c0.92-0.591,2.021-1.316,3.304-2.176l-0.018,3.898l-0.866,0.661
			c-0.069,0.06-0.608,0.36-1.625,0.907c-1.462,0.79-2.38,1.264-2.747,1.428c-0.9,0.405-1.462,0.639-1.678,0.696
			c-0.577,0.185-1.184,0.278-1.818,0.278c-0.633,0-1.165-0.459-1.6-1.383c-0.433-0.921-0.648-2.27-0.648-4.043
			c0-0.696,0.042-1.447,0.138-2.252c0.092-0.805,0.207-1.674,0.344-2.601h-0.274l-4.528,9.047c-0.242,0.489-0.503,0.812-0.779,0.975
			c-0.29,0.175-0.622,0.26-1.003,0.26c-0.473,0-0.854-0.099-1.143-0.303c-0.29-0.201-0.509-0.474-0.664-0.818
			c-0.156-0.341-0.259-0.73-0.312-1.165C382.837,95.658,382.812,95.208,382.812,94.744"/>
	</defs>
	<use xlink:href="#SVGID_89_"  overflow="visible" fill-rule="evenodd" clip-rule="evenodd" fill="#977A66"/>
	<clipPath id="SVGID_90_">
		<use xlink:href="#SVGID_89_"  overflow="visible"/>
	</clipPath>
	<g clip-path="url(#SVGID_90_)">
		<defs>
			<rect id="SVGID_91_" x="111.452" y="28.49" width="291.608" height="164.55"/>
		</defs>
		<use xlink:href="#SVGID_91_"  overflow="visible" fill="#977A66"/>
		<clipPath id="SVGID_92_">
			<use xlink:href="#SVGID_91_"  overflow="visible"/>
		</clipPath>
		<rect x="372.398" y="70.772" clip-path="url(#SVGID_92_)" fill="#977A66" width="40.128" height="38.019"/>
	</g>
</g>
<g>
	<defs>
		<path id="SVGID_93_" d="M270.307,144.492c1.142,0,2.187,0.171,3.133,0.509c0.945,0.34,1.759,0.818,2.43,1.438
			c0.675,0.621,1.196,1.365,1.572,2.238c0.379,0.873,0.566,1.843,0.566,2.909c0,0.919-0.136,1.768-0.4,2.548
			c-0.27,0.779-0.629,1.526-1.081,2.238c-0.45,0.711-0.976,1.398-1.582,2.066c-0.604,0.666-1.239,1.343-1.901,2.031l-5.578,5.731
			c0.547-0.158,1.086-0.284,1.61-0.37c0.524-0.085,1.024-0.128,1.504-0.128h6.351c0.457,0,0.82,0.128,1.088,0.387
			c0.267,0.258,0.402,0.599,0.402,1.025v2.546h-16.979v-1.41c0-0.287,0.058-0.585,0.18-0.896c0.117-0.309,0.311-0.596,0.574-0.861
			l7.512-7.575c0.627-0.641,1.188-1.255,1.688-1.841c0.494-0.586,0.909-1.167,1.248-1.739c0.336-0.572,0.593-1.156,0.769-1.748
			c0.177-0.589,0.265-1.212,0.265-1.867c0-0.597-0.086-1.122-0.256-1.577c-0.172-0.451-0.416-0.834-0.737-1.143
			c-0.316-0.312-0.697-0.543-1.134-0.698c-0.439-0.155-0.937-0.232-1.48-0.232c-1.018,0-1.853,0.258-2.511,0.775
			c-0.655,0.517-1.115,1.21-1.377,2.083c-0.125,0.435-0.316,0.749-0.563,0.937c-0.252,0.189-0.57,0.286-0.961,0.286
			c-0.172,0-0.357-0.019-0.562-0.053l-2.224-0.395c0.17-1.193,0.499-2.241,0.992-3.143c0.487-0.901,1.1-1.651,1.838-2.256
			c0.737-0.602,1.58-1.055,2.533-1.36C268.188,144.644,269.213,144.492,270.307,144.492"/>
	</defs>
	<use xlink:href="#SVGID_93_"  overflow="visible" fill-rule="evenodd" clip-rule="evenodd" fill="#977A66"/>
	<clipPath id="SVGID_94_">
		<use xlink:href="#SVGID_93_"  overflow="visible"/>
	</clipPath>
	<g clip-path="url(#SVGID_94_)">
		<defs>
			<rect id="SVGID_95_" x="111.452" y="28.49" width="291.608" height="164.55"/>
		</defs>
		<use xlink:href="#SVGID_95_"  overflow="visible" fill="#977A66"/>
		<clipPath id="SVGID_96_">
			<use xlink:href="#SVGID_95_"  overflow="visible"/>
		</clipPath>
		<rect x="251.025" y="134.078" clip-path="url(#SVGID_96_)" fill="#977A66" width="37.808" height="45.997"/>
	</g>
</g>
<g>
	<defs>
		<path id="SVGID_97_" d="M297.142,157.215c0,2.168-0.231,4.054-0.695,5.655c-0.461,1.601-1.101,2.925-1.914,3.968
			c-0.815,1.046-1.78,1.823-2.892,2.332c-1.114,0.511-2.315,0.767-3.604,0.767c-1.29,0-2.486-0.256-3.588-0.767
			c-1.098-0.509-2.057-1.286-2.865-2.332c-0.809-1.045-1.443-2.367-1.9-3.968c-0.455-1.601-0.682-3.487-0.682-5.655
			c0-2.181,0.227-4.067,0.682-5.665c0.457-1.595,1.092-2.915,1.9-3.958c0.809-1.046,1.768-1.821,2.865-2.333
			c1.102-0.509,2.298-0.768,3.588-0.768c1.288,0,2.489,0.259,3.604,0.768c1.111,0.512,2.076,1.287,2.892,2.333
			c0.813,1.043,1.453,2.363,1.914,3.958C296.91,153.148,297.142,155.035,297.142,157.215 M292.774,157.215
			c0-1.803-0.129-3.293-0.393-4.477c-0.26-1.182-0.61-2.121-1.051-2.821c-0.439-0.7-0.943-1.192-1.514-1.472
			c-0.572-0.28-1.167-0.424-1.78-0.424c-0.605,0-1.188,0.144-1.754,0.424c-0.565,0.28-1.062,0.772-1.497,1.472
			c-0.437,0.7-0.78,1.639-1.038,2.821c-0.256,1.184-0.386,2.674-0.386,4.477s0.13,3.295,0.386,4.475
			c0.258,1.182,0.602,2.124,1.038,2.825c0.43,0.698,0.932,1.19,1.497,1.469c0.566,0.282,1.148,0.422,1.754,0.422
			c0.617,0,1.21-0.14,1.78-0.422c0.57-0.279,1.074-0.771,1.514-1.469c0.44-0.702,0.791-1.643,1.051-2.825
			C292.646,160.51,292.774,159.016,292.774,157.215"/>
	</defs>
	<use xlink:href="#SVGID_97_"  overflow="visible" fill-rule="evenodd" clip-rule="evenodd" fill="#977A66"/>
	<clipPath id="SVGID_98_">
		<use xlink:href="#SVGID_97_"  overflow="visible"/>
	</clipPath>
	<g clip-path="url(#SVGID_98_)">
		<defs>
			<rect id="SVGID_99_" x="111.452" y="28.49" width="291.608" height="164.55"/>
		</defs>
		<use xlink:href="#SVGID_99_"  overflow="visible" fill="#977A66"/>
		<clipPath id="SVGID_100_">
			<use xlink:href="#SVGID_99_"  overflow="visible"/>
		</clipPath>
		<rect x="268.586" y="134.078" clip-path="url(#SVGID_100_)" fill="#977A66" width="38.969" height="46.273"/>
	</g>
</g>
<g>
	<defs>
		<path id="SVGID_101_" d="M300.888,166.477h5.016v-14.511c0-0.564,0.016-1.154,0.049-1.774l-3.559,2.994
			c-0.146,0.126-0.299,0.213-0.452,0.26c-0.153,0.044-0.306,0.067-0.452,0.067c-0.232,0-0.439-0.047-0.624-0.144
			c-0.188-0.1-0.33-0.21-0.421-0.338l-1.333-1.841l7.545-6.457h3.474v21.743h4.45v3.184h-13.692V166.477L300.888,166.477z"/>
	</defs>
	<use xlink:href="#SVGID_101_"  overflow="visible" fill-rule="evenodd" clip-rule="evenodd" fill="#977A66"/>
	<clipPath id="SVGID_102_">
		<use xlink:href="#SVGID_101_"  overflow="visible"/>
	</clipPath>
	<g clip-path="url(#SVGID_102_)">
		<defs>
			<rect id="SVGID_103_" x="111.452" y="28.49" width="291.608" height="164.55"/>
		</defs>
		<use xlink:href="#SVGID_103_"  overflow="visible" fill="#977A66"/>
		<clipPath id="SVGID_104_">
			<use xlink:href="#SVGID_103_"  overflow="visible"/>
		</clipPath>
		<rect x="288.694" y="134.319" clip-path="url(#SVGID_104_)" fill="#977A66" width="36.298" height="45.755"/>
	</g>
</g>
<g>
	<defs>
		<path id="SVGID_105_" d="M333.182,144.769v1.843c0,0.552-0.061,0.994-0.179,1.332c-0.123,0.34-0.238,0.625-0.35,0.852
			l-9.365,19.42c-0.191,0.4-0.466,0.743-0.82,1.023c-0.354,0.283-0.831,0.423-1.439,0.423h-3.062l9.584-19.023
			c0.398-0.778,0.844-1.452,1.334-2.014h-11.843c-0.261,0-0.49-0.098-0.682-0.293c-0.196-0.195-0.292-0.425-0.292-0.688v-2.876
			H333.182z"/>
	</defs>
	<use xlink:href="#SVGID_105_"  overflow="visible" fill-rule="evenodd" clip-rule="evenodd" fill="#977A66"/>
	<clipPath id="SVGID_106_">
		<use xlink:href="#SVGID_105_"  overflow="visible"/>
	</clipPath>
	<g clip-path="url(#SVGID_106_)">
		<defs>
			<rect id="SVGID_107_" x="111.452" y="28.49" width="291.608" height="164.55"/>
		</defs>
		<use xlink:href="#SVGID_107_"  overflow="visible" fill="#977A66"/>
		<clipPath id="SVGID_108_">
			<use xlink:href="#SVGID_107_"  overflow="visible"/>
		</clipPath>
		<rect x="305.653" y="134.354" clip-path="url(#SVGID_108_)" fill="#977A66" width="37.94" height="45.723"/>
	</g>
</g>
<g>
	<defs>
		<path id="SVGID_109_" d="M339.333,133.046c-4.106-1.266-5.31-2.307-6.827-4.172c-0.927-1.142-1.996-2.49-2.491-3.897
			c1.141-1.264,2.313-2.502,3.51-3.718c0.443-0.45,0.918-0.871,1.375-1.309c0.833-0.641,1.539-1.162,1.854-1.397
			c0.419-0.307,3.477-2.868,1.812-3.112c-1.586-0.23-2.601,0.646-3.975,1.504c-2.618,1.629-4.878,4.043-6.973,6.406
			c-0.018,0.013-0.035,0.025-0.051,0.038c0.062-0.592,0.12-1.184,0.171-1.776c0.005-0.012,0.007-0.022,0.009-0.035
			c0.526-2.979,0.928-5.985,1.237-8.994c0.109-1.051,1.007-5.498-0.043-6.288c-0.218-0.161-1.147,0.34-1.346,0.427
			c-0.207,0.092-0.367,0.21-0.508,0.338c-0.071,0.022-0.138,0.045-0.209,0.067c0.028,0.021,0.051,0.051,0.075,0.078
			c-0.604,0.719-0.49,1.837-0.579,2.892c-0.236,2.791-0.325,5.596-0.421,8.395c-0.045,1.201-0.13,2.398-0.232,3.596
			c-0.325,1.604-0.777,2.982-1.613,4.325l-0.278-0.285c-0.447,0.427-0.998,0.885-1.642,1.365c-0.646,0.482-1.333,0.929-2.057,1.336
			c-0.725,0.409-1.474,0.749-2.239,1.019c-0.77,0.275-1.5,0.412-2.19,0.412c-0.221,0-0.424-0.024-0.615-0.069
			c-0.191-0.044-0.372-0.125-0.546-0.236c-0.174-0.115-0.346-0.274-0.511-0.478c-0.171-0.204-0.341-0.458-0.515-0.765
			c1.005-0.275,1.938-0.653,2.799-1.142c0.862-0.49,1.603-1.043,2.229-1.666c0.621-0.625,1.17-1.373,1.635-2.246
			c0.469-0.872,0.702-1.659,0.702-2.366c0-0.658-0.115-1.254-0.348-1.788c-0.227-0.533-0.548-0.988-0.96-1.364
			c-0.408-0.375-0.887-0.669-1.441-0.877c-0.553-0.208-1.152-0.313-1.806-0.313c-0.788,0-1.506,0.14-2.156,0.421
			c-0.648,0.281-1.232,0.661-1.754,1.133c-0.521,0.474-0.979,1.023-1.368,1.649c-0.39,0.622-0.713,1.277-0.969,1.964
			c-0.259,0.688-0.506,1.473-0.751,2.362c-0.241,0.885-0.361,1.649-0.361,2.291c0,0.277,0.033,0.541,0.056,0.812
			c-0.606,0.448-1.25,0.864-1.93,1.247c-0.727,0.409-1.473,0.749-2.234,1.019c-0.773,0.275-1.5,0.412-2.19,0.412
			c-0.224,0-0.429-0.024-0.62-0.069c-0.189-0.044-0.372-0.125-0.546-0.236c-0.174-0.115-0.343-0.274-0.51-0.478
			s-0.339-0.458-0.513-0.765c1.005-0.275,1.938-0.653,2.801-1.142c0.857-0.49,1.598-1.043,2.224-1.666
			c0.622-0.625,1.17-1.373,1.638-2.246c0.468-0.872,0.702-1.659,0.702-2.366c0-0.658-0.116-1.254-0.348-1.788
			c-0.231-0.533-0.551-0.988-0.96-1.364c-0.408-0.375-0.887-0.669-1.444-0.877c-0.557-0.208-1.154-0.313-1.798-0.313
			c-0.791,0-1.514,0.14-2.162,0.421s-1.234,0.661-1.756,1.133c-0.521,0.474-0.976,1.023-1.365,1.649
			c-0.393,0.622-0.713,1.277-0.974,1.964c-0.261,0.688-0.506,1.473-0.744,2.362c-0.245,0.885-0.363,1.649-0.363,2.291
			c0,0.649,0.08,1.271,0.198,1.88c-0.071,0.038-0.146,0.085-0.219,0.118c-0.352,0.159-0.692,0.236-1.029,0.236
			s-0.648-0.057-0.942-0.173c-0.294-0.111-0.548-0.299-0.763-0.554c-0.214-0.255-0.383-0.58-0.51-0.972
			c-0.127-0.391-0.189-0.863-0.189-1.422c0-0.226,0.076-0.696,0.221-1.409c0.153-0.714,0.426-1.627,0.84-2.744
			c0.408-1.118,0.65-2.276,0.718-3.479c0.073-1.201,0.261-2.429,0.562-3.672c0.299-1.247,0.546-2.488,0.742-3.726
			c0.195-1.237,0.294-2.37,0.294-3.403c0-0.37-0.052-0.676-0.149-0.916c-0.103-0.24-0.247-0.432-0.435-0.576
			c-0.188-0.143-0.41-0.242-0.666-0.301c-0.259-0.059-0.542-0.087-0.855-0.087c-0.399,0-0.794,0.029-1.175,0.082
			c-0.383,0.056-0.722,0.166-1.027,0.338c-0.301,0.173-0.543,0.415-0.739,0.725c-0.196,0.313-0.31,0.724-0.348,1.236
			c-0.058,0.468-0.136,1.119-0.234,1.951c-0.1,0.828-0.285,2.36-0.553,4.598c-0.271,2.237-0.403,3.355-0.403,3.351
			c0,0-0.195,1.027-0.579,3.079c-0.386,2.053-0.773,3.717-1.172,4.995c-0.396,1.275-0.845,2.397-1.342,3.364
			c-0.499,0.968-1.047,1.741-1.655,2.323c-0.599,0.58-1.272,0.871-2.003,0.871c-0.426,0-0.777-0.161-1.067-0.47
			c-0.29-0.313-0.521-0.767-0.695-1.358c-0.181-0.588-0.31-1.309-0.384-2.148c-0.07-0.84-0.108-1.782-0.108-2.826
			c0-1.021,0.044-2.142,0.138-3.357c0.092-1.22,0.212-2.448,0.354-3.699c0.143-1.247,0.301-2.462,0.468-3.643
			c0.16-1.185,0.32-2.239,0.464-3.174c0.145-0.934,0.263-1.7,0.356-2.296c0.096-0.597,0.138-0.936,0.138-1.019
			c0-0.241-0.033-0.464-0.104-0.659c-0.068-0.199-0.188-0.365-0.352-0.506c-0.172-0.139-0.393-0.248-0.678-0.33
			c-0.281-0.079-0.645-0.122-1.081-0.122c-0.464,0-0.876,0.053-1.229,0.161c-0.354,0.104-0.666,0.286-0.932,0.545
			c-0.268,0.265-0.497,0.608-0.688,1.043c-0.194,0.438-0.356,0.983-0.495,1.632c-0.753,4.023-1.613,7.614-2.582,10.774
			c-0.279,0.893-0.568,1.782-0.881,2.661c-0.313,0.879-0.641,1.715-0.998,2.515c-0.35,0.795-0.717,1.535-1.096,2.221
			c-0.383,0.681-0.777,1.273-1.194,1.765c-0.417,0.497-0.845,0.887-1.292,1.169c-0.441,0.284-0.9,0.425-1.375,0.425
			c-0.473,0-0.881-0.153-1.229-0.46c-0.343-0.304-0.633-0.728-0.861-1.265c-0.23-0.533-0.404-1.167-0.511-1.892
			c-0.114-0.722-0.167-1.505-0.167-2.342c0-1.022,0.096-2.137,0.285-3.332c0.191-1.197,0.432-2.414,0.717-3.65
			c0.289-1.239,0.602-2.457,0.937-3.664c0.335-1.198,0.646-2.313,0.936-3.339c0.283-1.025,0.524-1.93,0.716-2.713
			c0.189-0.783,0.285-1.375,0.285-1.777c0-0.353-0.035-0.634-0.113-0.84c-0.072-0.208-0.186-0.365-0.328-0.48
			c-0.141-0.112-0.32-0.185-0.528-0.219c-0.207-0.038-0.435-0.054-0.688-0.054c-0.312,0-0.621,0.016-0.926,0.054
			c-0.305,0.034-0.609,0.14-0.908,0.321c-0.301,0.179-0.594,0.458-0.883,0.834c-0.287,0.378-0.576,0.903-0.861,1.576
			c-0.49,1.207-0.918,2.45-1.303,3.723c-0.378,1.275-0.699,2.563-0.956,3.86c-0.261,1.3-0.46,2.596-0.596,3.888
			c-0.141,1.294-0.208,2.554-0.208,3.785c0,2.008,0.156,3.761,0.475,5.261c0.316,1.504,0.739,2.753,1.26,3.749
			c0.525,0.999,1.132,1.75,1.827,2.254c0.691,0.505,1.419,0.755,2.179,0.755c1.326,0,2.531-0.23,3.623-0.686
			c1.092-0.458,2.059-1.229,2.904-2.307c0.848-1.078,1.582-2.506,2.215-4.285c0.628-1.78,1.149-3.993,1.566-6.64
			c-0.039,0.385-0.083,0.818-0.139,1.306c-0.062,0.489-0.085,1.007-0.085,1.566c0,1.518,0.104,2.95,0.325,4.296
			c0.215,1.347,0.562,2.518,1.043,3.515c0.477,0.995,1.094,1.784,1.856,2.363c0.771,0.583,1.693,0.871,2.785,0.871
			c0.862,0,1.698-0.15,2.507-0.452c0.809-0.303,1.584-0.734,2.328-1.292c0.74-0.557,1.439-1.228,2.1-2.022
			c0.661-0.788,1.278-1.678,1.854-2.665c0.069,0.518,0.191,0.962,0.361,1.339c0.174,0.377,0.388,0.682,0.648,0.917
			c0.256,0.238,0.555,0.415,0.887,0.527c0.334,0.114,0.688,0.169,1.071,0.169c0.796,0,1.646-0.263,2.554-0.79
			c0.27-0.157,0.537-0.339,0.805-0.53c0.176,0.317,0.36,0.628,0.584,0.909c0.539,0.677,1.21,1.218,2.021,1.619
			c0.807,0.401,1.745,0.602,2.825,0.602c0.688,0,1.373-0.079,2.05-0.239c0.671-0.163,1.328-0.376,1.955-0.643
			c0.628-0.27,1.229-0.58,1.798-0.926c0.572-0.346,1.103-0.699,1.6-1.057c0.085-0.062,0.163-0.134,0.25-0.2
			c0.165,0.292,0.332,0.584,0.539,0.845c0.541,0.677,1.214,1.218,2.019,1.619c0.809,0.401,1.752,0.602,2.83,0.602
			c0.693,0,1.377-0.079,2.05-0.239c0.675-0.163,1.323-0.376,1.954-0.643c0.626-0.27,1.226-0.58,1.799-0.926
			c0.567-0.346,1.104-0.699,1.597-1.057c0.761-0.555,1.479-1.188,2.182-1.855c-0.143,1.694-0.252,3.391-0.258,5.091
			c0-0.112,2.061-0.409,2.061-0.833c0.007-2.14,0.167-4.28,0.368-6.416c0.831,1.195,1.951,2.346,2.431,2.826
			c3.63,3.648,7.22,4.513,9.016,4.513C340.202,134.616,340.777,133.496,339.333,133.046z M300.109,124.968
			c0.025-0.355,0.13-0.8,0.321-1.344c0.196-0.545,0.361-1,0.504-1.371c0.146-0.371,0.341-0.696,0.574-0.986
			c0.236-0.29,0.533-0.521,0.885-0.707c0.353-0.181,0.78-0.273,1.277-0.273c0.278,0,0.512,0.167,0.704,0.497
			c0.191,0.325,0.282,0.749,0.282,1.257c0,0.363-0.202,0.821-0.605,1.378c-0.406,0.556-0.82,0.998-1.241,1.324
			c-0.421,0.33-0.876,0.602-1.37,0.81c-0.49,0.21-0.945,0.315-1.364,0.315C300.076,125.62,300.088,125.321,300.109,124.968z
			 M313.154,124.968c0.016-0.355,0.127-0.8,0.32-1.344c0.188-0.545,0.356-1,0.501-1.371c0.144-0.371,0.337-0.696,0.568-0.986
			c0.241-0.29,0.539-0.521,0.89-0.707c0.352-0.181,0.779-0.273,1.274-0.273c0.278,0,0.51,0.167,0.702,0.497
			c0.193,0.325,0.289,0.749,0.289,1.257c0,0.363-0.202,0.821-0.608,1.378c-0.407,0.556-0.817,0.998-1.241,1.324
			c-0.423,0.33-0.878,0.602-1.37,0.81c-0.492,0.21-0.947,0.315-1.361,0.315C313.118,125.62,313.127,125.321,313.154,124.968z
			 M324.938,127.257c0.105-0.124,0.212-0.249,0.312-0.376c-0.024,0.209-0.04,0.42-0.064,0.63L324.938,127.257z"/>
	</defs>
	<use xlink:href="#SVGID_109_"  overflow="visible" fill-rule="evenodd" clip-rule="evenodd" fill="#977A66"/>
	<clipPath id="SVGID_110_">
		<use xlink:href="#SVGID_109_"  overflow="visible"/>
	</clipPath>
	<g clip-path="url(#SVGID_110_)">
		<defs>
			<rect id="SVGID_111_" x="111.452" y="28.49" width="291.608" height="164.55"/>
		</defs>
		<use xlink:href="#SVGID_111_"  overflow="visible" fill="#977A66"/>
		<clipPath id="SVGID_112_">
			<use xlink:href="#SVGID_111_"  overflow="visible"/>
		</clipPath>
		<rect x="249.595" y="95.157" clip-path="url(#SVGID_112_)" fill="#977A66" width="100.982" height="51.081"/>
	</g>
</g>
<path fill-rule="evenodd" clip-rule="evenodd" fill="#977A66" d="M111.452,77.9l122.577-49.41l6.754,16.754l-4.141,1.638
	l2.336,12.45c0,0,4.382,0.129,4.844,2.951c0.466,2.826-2.722,3.735-2.722,3.735l10.115,29.029l-11.531,2.133l-1.765-30.414
	c0,0-4.523-0.35-4.849-3.204c-0.318-2.852,4.103-3.912,4.103-3.912l-2.228-11.989l-23.518,9.463l8.208,23.995
	c0,0,1.146,0.866,2.699,3.047c0.824,1.159,2.375,3.421,2.375,3.421l6.841-1.186l13.227,71.434l-114.511,21.488l-13.226-71.504
	l33.207-6.082c0,0,1.165-2.74,2.245-4.465c1.08-1.726,2.07-3.218,2.07-3.218l0.104-13.838l-39.787,15.864L111.452,77.9z"/>
<g>
	<defs>
		<path id="SVGID_113_" d="M219.002,142.678c-17.053,22.34-43.701,31.563-61.953,18.823c-18.247-12.745-18.515-40.166-4.402-64.495
			c14.056-24.231,44.318-32.45,62.568-19.71C233.461,90.04,236.082,120.307,219.002,142.678"/>
	</defs>
	<clipPath id="SVGID_114_">
		<use xlink:href="#SVGID_113_"  overflow="visible"/>
	</clipPath>
	<g clip-path="url(#SVGID_114_)">
		<defs>
			<rect id="SVGID_115_" x="111.452" y="28.49" width="291.608" height="164.55"/>
		</defs>
		<clipPath id="SVGID_116_">
			<use xlink:href="#SVGID_115_"  overflow="visible"/>
		</clipPath>
		<rect x="132.236" y="60.927" clip-path="url(#SVGID_116_)" fill="#FFFFFF" width="108.645" height="116.768"/>
	</g>
</g>
<g>
	<defs>
		<path id="SVGID_117_" d="M190.885,131.976c-1.217,0.482-2.438,0.962-3.822,1.28c-0.381,0.064-0.746,0.149-1.129,0.214
			c-0.221,0.073-0.495,0.097-0.78,0.106c-0.106,0.024-0.304-0.045-0.353,0.036c-0.133,0.023-0.354-0.045-0.426,0.037
			c-0.225,0.021-0.542-0.048-0.705,0.032h-0.955c-0.166-0.081-0.484-0.011-0.708-0.032c-0.072-0.082-0.292-0.014-0.423-0.037
			c-1.135-0.083-2.119-0.313-3.042-0.605c-0.083-0.058-0.191-0.093-0.318-0.106c-0.13-0.014-0.239-0.047-0.316-0.107v-0.035
			c-0.408-0.1-0.725-0.292-1.099-0.425c-0.287-0.09-0.494-0.266-0.777-0.356v-0.036v-0.034c-1.029-0.485-1.854-1.172-2.689-1.852
			c-0.033-0.108-0.135-0.148-0.212-0.214v-0.036c-0.309-0.138-0.41-0.487-0.708-0.639c-0.09-0.075-0.154-0.175-0.21-0.285
			c-0.109-0.118-0.18-0.272-0.317-0.356c-0.086-0.093-0.131-0.224-0.249-0.284c-0.555-0.663-0.978-1.461-1.417-2.241
			c-0.136-0.218-0.256-0.454-0.352-0.71c-0.028-0.091-0.036-0.203-0.106-0.25c-0.419-0.907-0.772-1.878-0.99-2.987
			c-0.091-0.524-0.188-1.046-0.283-1.565c-0.056-0.167-0.071-0.378-0.07-0.605c0.009-0.434-0.072-0.779-0.069-1.21
			c-0.023-0.155,0.047-0.401-0.036-0.499v-0.923c0.058-0.407,0.048-0.875,0.069-1.317c0.082-0.05,0.014-0.248,0.036-0.355
			c0.078-1.048,0.263-1.989,0.496-2.882c0.067-0.145,0.111-0.314,0.138-0.497c-0.004-0.112,0.018-0.2,0.074-0.25h0.034
			c-0.002-0.24,0.108-0.361,0.142-0.568c-0.002-0.052-0.006-0.101,0.038-0.107c0.058-0.083,0.09-0.191,0.103-0.321
			c0.088-0.315,0.195-0.605,0.319-0.888h0.034c0.016-0.223,0.156-0.316,0.179-0.534c0.003-0.066,0.021-0.118,0.071-0.142h0.033
			c0.013-0.131,0.087-0.197,0.107-0.319c-0.006-0.042,0.006-0.065,0.033-0.072h0.038c0.003-0.101,0.064-0.147,0.067-0.25
			c0-0.048-0.003-0.099,0.037-0.104h0.038c0.112-0.32,0.285-0.59,0.422-0.892c-0.008-0.041,0.008-0.062,0.034-0.071h0.035
			c0.668-1.416,1.534-2.632,2.441-3.804c0.033-0.028,0.052-0.069,0.072-0.109h0.032c0.116-0.213,0.308-0.354,0.425-0.568
			c0.154-0.021,0.138-0.219,0.248-0.285c0.158-0.114,0.254-0.291,0.39-0.427c0.097-0.067,0.179-0.15,0.249-0.248
			c0.164-0.11,0.255-0.29,0.387-0.429c0.213-0.185,0.416-0.387,0.602-0.602c0.049-0.107,0.158-0.148,0.247-0.214h0.038
			c0.172-0.192,0.395-0.337,0.565-0.535c0.214-0.259,0.517-0.429,0.742-0.674c0.03-0.027,0.079-0.039,0.14-0.038v-0.034
			c0.301-0.22,0.6-0.446,0.883-0.675c0.007-0.091,0.141-0.051,0.143-0.143h0.074c0.225-0.13,0.434-0.274,0.635-0.427
			c0.009-0.028,0.037-0.034,0.037-0.071c0.598-0.338,1.148-0.718,1.766-1.034c0.121-0.056,0.266-0.083,0.355-0.177v-0.036
			c0.297-0.125,0.578-0.269,0.885-0.391c0.072-0.067,0.166-0.114,0.279-0.14c0.12,0,0.188-0.051,0.248-0.108
			c0.124,0.007,0.15-0.085,0.248-0.105c0.359-0.128,0.738-0.229,1.025-0.427c0.123,0.004,0.23-0.008,0.287-0.072
			c0.23-0.048,0.441-0.119,0.633-0.215c0.012-0.046,0.09-0.026,0.143-0.033c0.26-0.061,0.514-0.125,0.742-0.212
			c0.348-0.069,0.629-0.198,0.99-0.248c0.327-0.063,0.659-0.121,0.991-0.181c0.327,0.035,0.464-0.127,0.777-0.106
			c0.107-0.022,0.307,0.047,0.353-0.037c0.121-0.022,0.33,0.047,0.39-0.035c0.214-0.021,0.517,0.047,0.671-0.034h1.204
			c0.13,0.082,0.41,0.013,0.602,0.034c0.07,0.082,0.294,0.013,0.423,0.035c0.766,0.052,1.447,0.183,2.088,0.359v0.034
			c0.387,0.049,0.672,0.201,1.027,0.284c0.002,0.042,0.064,0.031,0.102,0.037v0.034c0.142-0.021,0.145,0.094,0.285,0.069
			c0.007,0.043,0.062,0.033,0.105,0.037v0.037c0.33,0.093,0.581,0.269,0.919,0.355c1.869,0.918,3.351,2.226,4.601,3.77
			c-0.01,0.09,0.051,0.112,0.104,0.143c0.034,0.144,0.138,0.217,0.213,0.322c0.113,0.219,0.27,0.392,0.389,0.604
			c0.051,0.138,0.123,0.254,0.215,0.354c0.056,0.132,0.133,0.244,0.211,0.358c0.021,0.158,0.107,0.244,0.174,0.356
			c0.083,0.096,0.139,0.215,0.179,0.354c0.042,0.115,0.064,0.245,0.141,0.322c0.104,0.049,0.051,0.258,0.14,0.319
			c0.029,0.091,0.039,0.201,0.109,0.25c0.067,0.046,0.078,0.157,0.105,0.249c0.011,0.119,0.037,0.224,0.106,0.285
			c0.05,0.008,0.009,0.106,0.069,0.106c0.026,0.246,0.151,0.394,0.176,0.64c0.027,0.133,0.035,0.273,0.107,0.356
			c0.062,0.104,0.082,0.253,0.106,0.393c0,0.114,0.019,0.218,0.071,0.282c0.039,0.198,0.056,0.419,0.141,0.57
			c0.055,0.171,0.092,0.359,0.107,0.57c-0.004,0.156,0.011,0.295,0.068,0.39c0.006,0.222,0.017,0.436,0.071,0.606
			c0.023,0.085-0.044,0.259,0.036,0.285c0.02,0.108-0.047,0.307,0.033,0.354c0.021,0.122-0.045,0.331,0.035,0.392
			c0.023,0.155-0.045,0.404,0.036,0.499v0.427v1.458c0.007,0.479-0.071,0.877-0.071,1.352c-0.029,0.56-0.096,1.087-0.209,1.566
			c-0.055,0.1-0.064,0.243-0.074,0.39c-0.004,0.222-0.042,0.407-0.105,0.569h-0.037c0.022,0.137-0.061,0.171-0.031,0.32
			c-0.037,0.275-0.088,0.528-0.178,0.748h-0.036c-0.03,0.383-0.184,0.641-0.247,0.995v0.108h-0.035
			c-0.027,0.244-0.15,0.395-0.179,0.641h-0.031h-0.038c0.023,0.141-0.094,0.141-0.068,0.285c-0.078-0.005-0.019,0.126-0.039,0.177
			c-0.138,0.096-0.15,0.324-0.21,0.496v0.074c-0.052,0.065-0.038,0.198-0.106,0.248c-0.322,0.669-0.605,1.383-0.955,2.028
			c-0.033,0.144-0.145,0.207-0.176,0.356h-0.036c-0.166,0.485-0.493,0.811-0.672,1.281c0.005,0.04-0.008,0.063-0.034,0.072
			c-0.653,0.932-1.299,1.868-1.981,2.773c-0.12-0.002-0.134,0.106-0.179,0.178c-0.197,0.24-0.423,0.453-0.602,0.713
			c-0.104,0.032-0.146,0.134-0.211,0.211c-0.365,0.378-0.744,0.745-1.096,1.14c-0.025,0.079-0.106,0.105-0.177,0.142
			c-0.216,0.159-0.415,0.342-0.602,0.532c-0.233,0.18-0.42,0.409-0.672,0.569c-0.05,0.019-0.086,0.056-0.106,0.109
			c-0.275,0.181-0.553,0.368-0.777,0.602c-0.82,0.506-1.598,1.05-2.439,1.529c-0.16,0.053-0.303,0.125-0.426,0.216
			c-0.143,0.101-0.31,0.185-0.494,0.248C191.094,131.856,190.913,131.838,190.885,131.976"/>
	</defs>
	<use xlink:href="#SVGID_117_"  overflow="visible" fill-rule="evenodd" clip-rule="evenodd" fill="#967964"/>
	<clipPath id="SVGID_118_">
		<use xlink:href="#SVGID_117_"  overflow="visible"/>
	</clipPath>
	<g clip-path="url(#SVGID_118_)">
		<defs>
			<rect id="SVGID_119_" x="111.452" y="28.49" width="291.608" height="164.55"/>
		</defs>
		<use xlink:href="#SVGID_119_"  overflow="visible" fill="#967964"/>
		<clipPath id="SVGID_120_">
			<use xlink:href="#SVGID_119_"  overflow="visible"/>
		</clipPath>
		<rect x="157.906" y="84.386" clip-path="url(#SVGID_120_)" fill="#967964" width="57.041" height="59.709"/>
	</g>
</g>
</svg>
