<?xml version="1.0" encoding="utf-8"?>
<!-- Generator: Adobe Illustrator 15.0.0, SVG Export Plug-In . SVG Version: 6.00 Build 0)  -->
<!DOCTYPE svg PUBLIC "-//W3C//DTD SVG 1.1//EN" "http://www.w3.org/Graphics/SVG/1.1/DTD/svg11.dtd">
<svg version="1.1" id="Layer_1" xmlns="http://www.w3.org/2000/svg" xmlns:xlink="http://www.w3.org/1999/xlink" x="0px" y="0px"
	 width="209px" height="100px" viewBox="0 0 209 100" enable-background="new 0 0 209 100" xml:space="preserve">
<g>
	<g>
		<defs>
			<path id="SVGID_1_" d="M109.322,87.894c0.026,0.066,0.052,0.134,0.077,0.202c0.025-0.07,0.051-0.138,0.079-0.202
				c0.026-0.064,0.058-0.129,0.094-0.194l1.823-3.332c0.031-0.058,0.066-0.093,0.102-0.105s0.085-0.019,0.15-0.019h0.537v5.419
				h-0.639V85.68c0-0.053,0.001-0.109,0.004-0.17c0.002-0.061,0.006-0.122,0.011-0.186l-1.845,3.388
				c-0.063,0.113-0.15,0.171-0.264,0.171h-0.105c-0.113,0-0.201-0.058-0.264-0.171l-1.887-3.399
				c0.008,0.066,0.014,0.131,0.018,0.193s0.005,0.121,0.005,0.174v3.982h-0.64v-5.419h0.537c0.066,0,0.117,0.006,0.151,0.019
				c0.035,0.013,0.069,0.048,0.103,0.105l1.86,3.335C109.264,87.763,109.295,87.826,109.322,87.894z"/>
		</defs>
		<use xlink:href="#SVGID_1_"  overflow="visible" fill-rule="evenodd" clip-rule="evenodd" fill="#977A66"/>
		<clipPath id="SVGID_2_">
			<use xlink:href="#SVGID_1_"  overflow="visible"/>
		</clipPath>
		<g clip-path="url(#SVGID_2_)">
			<defs>
				<rect id="SVGID_3_" x="35" y="11" width="140" height="80"/>
			</defs>
			<use xlink:href="#SVGID_3_"  overflow="visible" fill="#977A66"/>
			<clipPath id="SVGID_4_">
				<use xlink:href="#SVGID_3_"  overflow="visible"/>
			</clipPath>
			<rect x="101.579" y="79.243" clip-path="url(#SVGID_4_)" fill="#977A66" width="15.605" height="15.419"/>
		</g>
	</g>
	<g>
		<g>
			<g enable-background="new    ">
				<g>
					<g>
						<defs>
							<path id="SVGID_5_" d="M115.811,89.661h-0.297c-0.064,0-0.117-0.01-0.158-0.03c-0.039-0.021-0.065-0.063-0.078-0.128
								l-0.074-0.355c-0.102,0.091-0.199,0.172-0.295,0.243c-0.095,0.072-0.194,0.133-0.3,0.182
								c-0.105,0.05-0.218,0.087-0.337,0.111c-0.119,0.025-0.251,0.038-0.396,0.038c-0.147,0-0.286-0.021-0.416-0.062
								c-0.129-0.042-0.24-0.104-0.336-0.188c-0.096-0.083-0.171-0.188-0.227-0.316c-0.057-0.128-0.086-0.279-0.086-0.453
								c0-0.152,0.042-0.298,0.125-0.438c0.082-0.141,0.217-0.265,0.4-0.374c0.184-0.108,0.425-0.197,0.723-0.267
								c0.299-0.07,0.664-0.104,1.094-0.104v-0.301c0-0.299-0.062-0.526-0.189-0.679c-0.126-0.154-0.312-0.23-0.562-0.23
								c-0.163,0-0.3,0.021-0.411,0.062s-0.208,0.088-0.289,0.14c-0.082,0.052-0.152,0.099-0.211,0.14s-0.117,0.062-0.176,0.062
								c-0.045,0-0.084-0.012-0.117-0.036c-0.035-0.023-0.061-0.053-0.081-0.089l-0.12-0.215c0.21-0.204,0.438-0.356,0.68-0.458
								c0.244-0.101,0.514-0.151,0.809-0.151c0.213,0,0.402,0.036,0.567,0.106c0.166,0.07,0.305,0.169,0.417,0.295
								c0.113,0.126,0.199,0.278,0.256,0.458c0.058,0.179,0.087,0.375,0.087,0.59L115.811,89.661L115.811,89.661z M114.075,89.249
								c0.118,0,0.226-0.012,0.324-0.035c0.097-0.024,0.189-0.059,0.275-0.103c0.087-0.045,0.17-0.098,0.248-0.161
								c0.079-0.062,0.156-0.135,0.231-0.216v-0.789c-0.308,0-0.57,0.019-0.786,0.059c-0.215,0.039-0.391,0.09-0.525,0.153
								c-0.136,0.063-0.234,0.139-0.295,0.225c-0.062,0.086-0.093,0.183-0.093,0.289c0,0.102,0.017,0.189,0.049,0.263
								c0.032,0.074,0.077,0.134,0.132,0.181s0.119,0.082,0.195,0.103C113.906,89.238,113.987,89.249,114.075,89.249z"/>
						</defs>
						<use xlink:href="#SVGID_5_"  overflow="visible" fill-rule="evenodd" clip-rule="evenodd" fill="#977A66"/>
						<clipPath id="SVGID_6_">
							<use xlink:href="#SVGID_5_"  overflow="visible"/>
						</clipPath>
						<g clip-path="url(#SVGID_6_)">
							<defs>
								<rect id="SVGID_7_" x="112" y="85" width="4" height="5"/>
							</defs>
							<use xlink:href="#SVGID_7_"  overflow="visible" fill="#977A66"/>
							<clipPath id="SVGID_8_">
								<use xlink:href="#SVGID_7_"  overflow="visible"/>
							</clipPath>
							<rect x="107.811" y="80.763" clip-path="url(#SVGID_8_)" fill="#977A66" width="13.001" height="13.959"/>
						</g>
					</g>
				</g>
			</g>
		</g>
	</g>
	<g>
		<defs>
			<path id="SVGID_9_" d="M116.451,89.661v-3.83h0.384c0.072,0,0.123,0.015,0.15,0.041c0.027,0.028,0.045,0.076,0.056,0.145
				l0.045,0.598c0.13-0.268,0.292-0.477,0.483-0.626s0.416-0.225,0.674-0.225c0.105,0,0.201,0.012,0.287,0.035
				c0.084,0.024,0.164,0.058,0.236,0.1l-0.086,0.503c-0.018,0.063-0.057,0.095-0.117,0.095c-0.035,0-0.089-0.012-0.161-0.035
				c-0.073-0.024-0.175-0.036-0.306-0.036c-0.232,0-0.428,0.067-0.584,0.204s-0.287,0.334-0.393,0.594v2.438H116.451z"/>
		</defs>
		<use xlink:href="#SVGID_9_"  overflow="visible" fill-rule="evenodd" clip-rule="evenodd" fill="#977A66"/>
		<clipPath id="SVGID_10_">
			<use xlink:href="#SVGID_9_"  overflow="visible"/>
		</clipPath>
		<g clip-path="url(#SVGID_10_)">
			<defs>
				<rect id="SVGID_11_" x="35" y="11" width="140" height="80"/>
			</defs>
			<use xlink:href="#SVGID_11_"  overflow="visible" fill="#977A66"/>
			<clipPath id="SVGID_12_">
				<use xlink:href="#SVGID_11_"  overflow="visible"/>
			</clipPath>
			<rect x="111.451" y="80.764" clip-path="url(#SVGID_12_)" fill="#977A66" width="12.315" height="13.897"/>
		</g>
	</g>
	<g>
		<defs>
			<path id="SVGID_13_" d="M121.702,86.512c-0.02,0.028-0.04,0.049-0.061,0.064c-0.02,0.015-0.049,0.022-0.086,0.022
				s-0.078-0.016-0.123-0.047c-0.043-0.031-0.099-0.066-0.166-0.104c-0.068-0.037-0.15-0.072-0.246-0.104
				c-0.098-0.031-0.215-0.048-0.355-0.048c-0.186,0-0.35,0.034-0.492,0.101c-0.144,0.066-0.264,0.163-0.359,0.289
				s-0.169,0.279-0.218,0.458c-0.05,0.179-0.073,0.38-0.073,0.602c0,0.231,0.025,0.438,0.078,0.617
				c0.053,0.181,0.127,0.331,0.223,0.454c0.095,0.122,0.211,0.216,0.348,0.279c0.137,0.064,0.289,0.097,0.461,0.097
				c0.162,0,0.297-0.02,0.401-0.059c0.105-0.039,0.192-0.082,0.263-0.13c0.07-0.049,0.129-0.091,0.174-0.131
				c0.045-0.039,0.09-0.059,0.135-0.059c0.058,0,0.1,0.021,0.129,0.064l0.188,0.246c-0.166,0.204-0.373,0.354-0.621,0.448
				s-0.51,0.142-0.785,0.142c-0.238,0-0.459-0.044-0.663-0.133c-0.205-0.088-0.382-0.216-0.532-0.384
				c-0.15-0.167-0.27-0.373-0.355-0.618c-0.086-0.244-0.129-0.522-0.129-0.835c0-0.285,0.039-0.549,0.117-0.791
				c0.079-0.241,0.195-0.45,0.347-0.625s0.339-0.312,0.562-0.41s0.479-0.147,0.767-0.147c0.267,0,0.501,0.044,0.707,0.13
				c0.206,0.087,0.388,0.21,0.545,0.369L121.702,86.512z"/>
		</defs>
		<use xlink:href="#SVGID_13_"  overflow="visible" fill-rule="evenodd" clip-rule="evenodd" fill="#977A66"/>
		<clipPath id="SVGID_14_">
			<use xlink:href="#SVGID_13_"  overflow="visible"/>
		</clipPath>
		<g clip-path="url(#SVGID_14_)">
			<defs>
				<rect id="SVGID_15_" x="35" y="11" width="140" height="80"/>
			</defs>
			<use xlink:href="#SVGID_15_"  overflow="visible" fill="#977A66"/>
			<clipPath id="SVGID_16_">
				<use xlink:href="#SVGID_15_"  overflow="visible"/>
			</clipPath>
			<rect x="113.834" y="80.771" clip-path="url(#SVGID_16_)" fill="#977A66" width="13.085" height="13.943"/>
		</g>
	</g>
	<g>
		<defs>
			<path id="SVGID_17_" d="M122.239,89.661v-5.569h0.67v2.253c0.162-0.174,0.342-0.312,0.541-0.417
				c0.197-0.104,0.426-0.157,0.684-0.157c0.207,0,0.391,0.034,0.551,0.104c0.158,0.07,0.291,0.168,0.398,0.295
				c0.105,0.128,0.188,0.28,0.242,0.46s0.083,0.376,0.083,0.594v2.438h-0.669v-2.438c0-0.29-0.066-0.516-0.197-0.675
				c-0.132-0.16-0.333-0.24-0.604-0.24c-0.197,0-0.383,0.048-0.555,0.144s-0.33,0.226-0.475,0.39v2.82H122.239z"/>
		</defs>
		<use xlink:href="#SVGID_17_"  overflow="visible" fill-rule="evenodd" clip-rule="evenodd" fill="#977A66"/>
		<clipPath id="SVGID_18_">
			<use xlink:href="#SVGID_17_"  overflow="visible"/>
		</clipPath>
		<g clip-path="url(#SVGID_18_)">
			<defs>
				<rect id="SVGID_19_" x="35" y="11" width="140" height="80"/>
			</defs>
			<use xlink:href="#SVGID_19_"  overflow="visible" fill="#977A66"/>
			<clipPath id="SVGID_20_">
				<use xlink:href="#SVGID_19_"  overflow="visible"/>
			</clipPath>
			<rect x="117.239" y="79.092" clip-path="url(#SVGID_20_)" fill="#977A66" width="13.168" height="15.569"/>
		</g>
	</g>
	<g>
		<defs>
			<path id="SVGID_21_" d="M130.979,84.183c0.227,0,0.44,0.033,0.639,0.102c0.197,0.068,0.369,0.168,0.513,0.297
				c0.144,0.13,0.258,0.288,0.341,0.475c0.082,0.187,0.123,0.398,0.123,0.635c0,0.202-0.029,0.389-0.09,0.561
				c-0.061,0.171-0.142,0.335-0.244,0.493c-0.104,0.157-0.222,0.31-0.355,0.457s-0.276,0.299-0.426,0.452l-1.418,1.46
				c0.1-0.028,0.201-0.051,0.305-0.066c0.102-0.017,0.201-0.024,0.297-0.024h1.804c0.073,0,0.13,0.021,0.173,0.063
				c0.043,0.044,0.064,0.099,0.064,0.167v0.408h-3.594v-0.23c0-0.048,0.01-0.097,0.028-0.147c0.019-0.05,0.05-0.097,0.093-0.14
				l1.725-1.743c0.143-0.146,0.273-0.287,0.391-0.422c0.117-0.134,0.219-0.271,0.303-0.406s0.148-0.273,0.193-0.414
				c0.046-0.14,0.068-0.289,0.068-0.448c0-0.158-0.025-0.298-0.075-0.417c-0.05-0.12-0.119-0.219-0.207-0.297
				c-0.089-0.078-0.19-0.137-0.308-0.177c-0.119-0.038-0.245-0.058-0.381-0.058c-0.135,0-0.26,0.02-0.375,0.06
				c-0.115,0.041-0.218,0.097-0.307,0.169c-0.09,0.071-0.164,0.157-0.227,0.255c-0.061,0.099-0.104,0.207-0.129,0.325
				c-0.02,0.073-0.051,0.126-0.09,0.159c-0.041,0.032-0.094,0.049-0.158,0.049c-0.013,0-0.025,0-0.039-0.002
				c-0.014-0.001-0.029-0.003-0.047-0.006l-0.35-0.061c0.035-0.247,0.103-0.465,0.203-0.656c0.1-0.189,0.227-0.35,0.381-0.478
				s0.331-0.227,0.531-0.293C130.533,84.216,130.749,84.183,130.979,84.183"/>
		</defs>
		<use xlink:href="#SVGID_21_"  overflow="visible" fill-rule="evenodd" clip-rule="evenodd" fill="#977A66"/>
		<clipPath id="SVGID_22_">
			<use xlink:href="#SVGID_21_"  overflow="visible"/>
		</clipPath>
		<g clip-path="url(#SVGID_22_)">
			<defs>
				<rect id="SVGID_23_" x="35" y="11" width="140" height="80"/>
			</defs>
			<use xlink:href="#SVGID_23_"  overflow="visible" fill="#977A66"/>
			<clipPath id="SVGID_24_">
				<use xlink:href="#SVGID_23_"  overflow="visible"/>
			</clipPath>
			<rect x="124.11" y="79.183" clip-path="url(#SVGID_24_)" fill="#977A66" width="13.594" height="15.479"/>
		</g>
	</g>
	<g>
		<defs>
			<path id="SVGID_25_" d="M136.778,84.243v0.302c0,0.087-0.01,0.157-0.028,0.212c-0.019,0.056-0.038,0.103-0.058,0.14l-2.229,4.526
				c-0.033,0.065-0.078,0.121-0.137,0.168c-0.057,0.047-0.135,0.07-0.232,0.07h-0.478l2.263-4.47c0.033-0.062,0.066-0.12,0.1-0.174
				c0.034-0.053,0.072-0.104,0.115-0.151h-2.812c-0.042,0-0.08-0.017-0.114-0.051s-0.051-0.072-0.051-0.115v-0.458L136.778,84.243
				L136.778,84.243z"/>
		</defs>
		<use xlink:href="#SVGID_25_"  overflow="visible" fill-rule="evenodd" clip-rule="evenodd" fill="#977A66"/>
		<clipPath id="SVGID_26_">
			<use xlink:href="#SVGID_25_"  overflow="visible"/>
		</clipPath>
		<g clip-path="url(#SVGID_26_)">
			<defs>
				<rect id="SVGID_27_" x="35" y="11" width="140" height="80"/>
			</defs>
			<use xlink:href="#SVGID_27_"  overflow="visible" fill="#977A66"/>
			<clipPath id="SVGID_28_">
				<use xlink:href="#SVGID_27_"  overflow="visible"/>
			</clipPath>
			<rect x="128.117" y="79.242" clip-path="url(#SVGID_28_)" fill="#977A66" width="13.661" height="15.419"/>
		</g>
	</g>
	<g>
		<defs>
			<rect id="SVGID_29_" x="138.139" y="87.109" width="1.857" height="0.57"/>
		</defs>
		<use xlink:href="#SVGID_29_"  overflow="visible" fill-rule="evenodd" clip-rule="evenodd" fill="#977A66"/>
		<clipPath id="SVGID_30_">
			<use xlink:href="#SVGID_29_"  overflow="visible"/>
		</clipPath>
		<g clip-path="url(#SVGID_30_)">
			<defs>
				<rect id="SVGID_31_" x="35" y="11" width="140" height="79"/>
			</defs>
			<use xlink:href="#SVGID_31_"  overflow="visible" fill="#977A66"/>
			<clipPath id="SVGID_32_">
				<use xlink:href="#SVGID_31_"  overflow="visible"/>
			</clipPath>
			<rect x="133.139" y="82.109" clip-path="url(#SVGID_32_)" fill="#977A66" width="11.857" height="10.57"/>
		</g>
	</g>
	<g>
		<defs>
			<path id="SVGID_33_" d="M143.401,84.183c0.229,0,0.438,0.032,0.632,0.098c0.192,0.066,0.358,0.159,0.497,0.28
				c0.141,0.121,0.248,0.267,0.326,0.438s0.116,0.361,0.116,0.571c0,0.172-0.022,0.324-0.065,0.459
				c-0.045,0.135-0.106,0.253-0.188,0.355c-0.082,0.102-0.18,0.188-0.296,0.26c-0.115,0.069-0.244,0.126-0.388,0.169
				c0.352,0.094,0.615,0.25,0.792,0.469c0.177,0.22,0.265,0.494,0.265,0.824c0,0.25-0.047,0.475-0.141,0.674
				s-0.223,0.369-0.385,0.508c-0.164,0.141-0.354,0.248-0.57,0.322s-0.449,0.111-0.697,0.111c-0.285,0-0.529-0.036-0.732-0.108
				c-0.203-0.071-0.375-0.17-0.516-0.296c-0.141-0.127-0.255-0.275-0.346-0.448c-0.09-0.173-0.166-0.36-0.229-0.562l0.285-0.121
				c0.053-0.023,0.105-0.034,0.158-0.034c0.049,0,0.094,0.011,0.133,0.032s0.068,0.056,0.088,0.1
				c0.006,0.011,0.011,0.021,0.016,0.033c0.006,0.011,0.011,0.023,0.016,0.035c0.035,0.073,0.078,0.155,0.127,0.248
				c0.051,0.092,0.118,0.178,0.203,0.259c0.086,0.081,0.191,0.148,0.318,0.204c0.126,0.056,0.283,0.083,0.471,0.083
				c0.188,0,0.354-0.03,0.495-0.092c0.142-0.062,0.259-0.143,0.353-0.24c0.095-0.099,0.166-0.209,0.213-0.329
				c0.047-0.122,0.071-0.241,0.071-0.359c0-0.146-0.02-0.28-0.058-0.401c-0.039-0.121-0.109-0.226-0.211-0.314
				c-0.102-0.087-0.242-0.156-0.42-0.208c-0.18-0.05-0.41-0.075-0.69-0.075v-0.491c0.228,0,0.423-0.024,0.585-0.072
				c0.161-0.048,0.293-0.113,0.396-0.196c0.102-0.084,0.177-0.183,0.223-0.299c0.047-0.116,0.07-0.244,0.07-0.386
				c0-0.156-0.024-0.293-0.074-0.408c-0.049-0.116-0.115-0.212-0.201-0.288c-0.085-0.076-0.186-0.132-0.302-0.17
				c-0.116-0.037-0.243-0.057-0.378-0.057s-0.261,0.021-0.377,0.061c-0.114,0.04-0.217,0.097-0.306,0.168
				c-0.089,0.072-0.163,0.157-0.224,0.257s-0.105,0.208-0.135,0.323c-0.021,0.073-0.051,0.126-0.091,0.158
				c-0.04,0.033-0.091,0.049-0.154,0.049c-0.013,0-0.026,0-0.04-0.002c-0.014-0.001-0.029-0.003-0.047-0.005l-0.349-0.061
				c0.035-0.246,0.103-0.465,0.203-0.655c0.1-0.19,0.227-0.35,0.382-0.479c0.153-0.128,0.33-0.226,0.529-0.293
				C142.956,84.216,143.17,84.183,143.401,84.183"/>
		</defs>
		<use xlink:href="#SVGID_33_"  overflow="visible" fill-rule="evenodd" clip-rule="evenodd" fill="#977A66"/>
		<clipPath id="SVGID_34_">
			<use xlink:href="#SVGID_33_"  overflow="visible"/>
		</clipPath>
		<g clip-path="url(#SVGID_34_)">
			<defs>
				<rect id="SVGID_35_" x="35" y="11" width="140" height="79"/>
			</defs>
			<use xlink:href="#SVGID_35_"  overflow="visible" fill="#977A66"/>
			<clipPath id="SVGID_36_">
				<use xlink:href="#SVGID_35_"  overflow="visible"/>
			</clipPath>
			<rect x="136.477" y="79.183" clip-path="url(#SVGID_36_)" fill="#977A66" width="13.615" height="15.539"/>
		</g>
	</g>
	<g>
		<defs>
			<path id="SVGID_37_" d="M146.133,89.146h1.158v-3.693c0-0.111,0.004-0.223,0.011-0.337l-0.962,0.828
				c-0.025,0.021-0.051,0.034-0.075,0.043c-0.025,0.009-0.05,0.014-0.071,0.014c-0.038,0-0.072-0.008-0.102-0.024
				c-0.03-0.017-0.053-0.036-0.068-0.059l-0.21-0.291l1.601-1.396h0.545v4.915h1.061v0.515h-2.887V89.146z"/>
		</defs>
		<use xlink:href="#SVGID_37_"  overflow="visible" fill-rule="evenodd" clip-rule="evenodd" fill="#977A66"/>
		<clipPath id="SVGID_38_">
			<use xlink:href="#SVGID_37_"  overflow="visible"/>
		</clipPath>
		<g clip-path="url(#SVGID_38_)">
			<defs>
				<rect id="SVGID_39_" x="35" y="11" width="140" height="79"/>
			</defs>
			<use xlink:href="#SVGID_39_"  overflow="visible" fill="#977A66"/>
			<clipPath id="SVGID_40_">
				<use xlink:href="#SVGID_39_"  overflow="visible"/>
			</clipPath>
			<rect x="140.814" y="79.231" clip-path="url(#SVGID_40_)" fill="#977A66" width="13.206" height="15.43"/>
		</g>
	</g>
	<g>
		<defs>
			<path id="SVGID_41_" d="M122.471,23.974c0.557,0,1.064-0.053,1.523-0.161c0.459-0.107,0.875-0.254,1.249-0.438
				c0.374-0.183,0.711-0.396,1.013-0.642c0.302-0.246,0.574-0.508,0.818-0.789l0.091,1.852c-0.177,0.231-0.392,0.456-0.644,0.673
				c-0.252,0.216-0.527,0.406-0.826,0.57c-0.299,0.163-0.613,0.294-0.942,0.392s-0.654,0.146-0.976,0.146
				c-0.038,0-0.086-0.006-0.145-0.018c-0.059-0.013-0.158-0.033-0.303-0.063c-0.143-0.03-0.348-0.07-0.615-0.121
				c-0.268-0.052-0.631-0.113-1.088-0.185v0.15c0,1.018-0.087,1.941-0.261,2.772c-0.174,0.829-0.406,1.538-0.696,2.126
				c-0.292,0.587-0.625,1.039-1.001,1.358c-0.376,0.318-0.768,0.478-1.172,0.478c-0.315,0-0.579-0.078-0.789-0.235
				s-0.378-0.369-0.502-0.635c-0.125-0.267-0.214-0.577-0.267-0.934s-0.078-0.732-0.078-1.131c0-0.23,0.035-0.492,0.107-0.782
				c0.072-0.291,0.17-0.595,0.291-0.914c0.122-0.318,0.259-0.643,0.41-0.973c0.152-0.33,0.309-0.649,0.47-0.96
				c0.376-0.722,0.806-1.466,1.287-2.233c0.062-0.42,0.124-0.852,0.188-1.294c0.065-0.441,0.146-0.875,0.246-1.301
				s0.253-0.872,0.46-1.339c0.207-0.468,0.429-0.842,0.664-1.124s0.519-0.506,0.848-0.672s0.726-0.249,1.191-0.249
				c0.337,0,0.653,0.047,0.945,0.14c0.294,0.092,0.55,0.242,0.772,0.449c0.221,0.208,0.395,0.476,0.521,0.803
				c0.127,0.328,0.19,0.73,0.19,1.207c0,0.507-0.056,0.902-0.165,1.188c-0.166,0.426-0.381,0.795-0.643,1.107
				c-0.263,0.313-0.574,0.605-0.937,0.878s-0.792,0.516-1.289,0.731L122.471,23.974z M118.448,29.24c0,0.045,0.01,0.117,0.028,0.217
				c0.02,0.1,0.052,0.198,0.097,0.299c0.044,0.1,0.102,0.188,0.174,0.266s0.16,0.116,0.266,0.116c0.094,0,0.172-0.051,0.232-0.153
				c0.062-0.104,0.11-0.24,0.149-0.412c0.038-0.171,0.066-0.365,0.083-0.58c0.017-0.217,0.029-0.438,0.039-0.665
				c0.01-0.228,0.016-0.448,0.02-0.664c0.002-0.217,0.01-0.41,0.021-0.582c0.018-0.299,0.03-0.553,0.039-0.76
				c0.009-0.208,0.016-0.381,0.021-0.519c0.006-0.156,0.012-0.291,0.018-0.405c-0.105,0.183-0.208,0.396-0.309,0.638
				c-0.099,0.241-0.193,0.493-0.281,0.754c-0.089,0.262-0.169,0.523-0.24,0.784c-0.072,0.262-0.135,0.504-0.188,0.729
				s-0.094,0.42-0.125,0.584C118.462,29.051,118.448,29.169,118.448,29.24z M121.418,23.157c0.332-0.162,0.62-0.342,0.864-0.541
				c0.232-0.199,0.438-0.412,0.614-0.639c0.072-0.012,0.244-0.26,0.516-0.744c0.182-0.416,0.299-0.733,0.349-0.954
				c0.028-0.118,0.046-0.258,0.054-0.417c0.009-0.159-0.008-0.309-0.049-0.448c-0.041-0.141-0.113-0.26-0.215-0.359
				c-0.104-0.1-0.244-0.15-0.427-0.15c-0.206,0-0.385,0.056-0.54,0.166s-0.289,0.26-0.403,0.449
				c-0.113,0.188-0.208,0.412-0.282,0.67c-0.074,0.259-0.164,0.579-0.266,0.959c-0.104,0.38-0.164,0.73-0.185,1.051
				S121.418,22.84,121.418,23.157z"/>
		</defs>
		<use xlink:href="#SVGID_41_"  overflow="visible" fill-rule="evenodd" clip-rule="evenodd" fill="#F2E5D3"/>
		<clipPath id="SVGID_42_">
			<use xlink:href="#SVGID_41_"  overflow="visible"/>
		</clipPath>
		<g clip-path="url(#SVGID_42_)">
			<defs>
				<rect id="SVGID_43_" x="35" y="11" width="140" height="79"/>
			</defs>
			<use xlink:href="#SVGID_43_"  overflow="visible" fill="#F2E5D3"/>
			<clipPath id="SVGID_44_">
				<use xlink:href="#SVGID_43_"  overflow="visible"/>
			</clipPath>
			<rect x="111.862" y="12.3" clip-path="url(#SVGID_44_)" fill="#F2E5D3" width="20.304" height="24.775"/>
		</g>
	</g>
	<g>
		<defs>
			<path id="SVGID_45_" d="M128.938,25.578c-0.518,0-0.969-0.097-1.356-0.289s-0.71-0.452-0.97-0.777
				c-0.258-0.326-0.451-0.703-0.581-1.131c-0.129-0.429-0.192-0.878-0.192-1.348c0-0.308,0.057-0.675,0.172-1.101
				c0.116-0.426,0.236-0.804,0.359-1.134c0.124-0.329,0.279-0.644,0.467-0.943s0.406-0.563,0.656-0.792
				c0.251-0.228,0.531-0.409,0.843-0.543c0.312-0.136,0.656-0.203,1.036-0.203c0.311,0,0.599,0.051,0.864,0.15
				c0.267,0.1,0.497,0.24,0.694,0.421c0.196,0.182,0.351,0.399,0.461,0.655c0.111,0.256,0.166,0.542,0.166,0.859
				c0,0.337-0.111,0.716-0.336,1.135c-0.226,0.419-0.487,0.779-0.787,1.078c-0.299,0.3-0.655,0.566-1.069,0.8
				c-0.413,0.234-0.86,0.417-1.343,0.547c0.082,0.147,0.164,0.271,0.245,0.368c0.081,0.099,0.163,0.175,0.246,0.229
				c0.083,0.055,0.171,0.093,0.263,0.114s0.189,0.033,0.296,0.033c0.333,0,0.683-0.065,1.05-0.196
				c0.369-0.13,0.727-0.294,1.076-0.49c0.348-0.195,0.678-0.409,0.988-0.641c0.309-0.231,0.572-0.45,0.788-0.657l1.071,1.094
				c-0.487,0.522-1.005,0.983-1.553,1.386c-0.238,0.171-0.494,0.341-0.768,0.508c-0.275,0.165-0.562,0.313-0.863,0.442
				c-0.303,0.129-0.615,0.232-0.939,0.31S129.271,25.578,128.938,25.578 M127.831,21.6c0.199,0,0.418-0.05,0.653-0.151
				c0.237-0.101,0.456-0.229,0.659-0.388c0.203-0.157,0.4-0.37,0.596-0.637c0.194-0.267,0.291-0.487,0.291-0.661
				c0-0.245-0.045-0.446-0.137-0.604s-0.205-0.236-0.338-0.236c-0.238,0-0.443,0.043-0.613,0.13c-0.168,0.087-0.311,0.2-0.424,0.34
				c-0.114,0.138-0.206,0.296-0.275,0.473s-0.15,0.396-0.242,0.658c-0.092,0.261-0.143,0.476-0.154,0.645
				C127.835,21.336,127.831,21.479,127.831,21.6"/>
		</defs>
		<use xlink:href="#SVGID_45_"  overflow="visible" fill-rule="evenodd" clip-rule="evenodd" fill="#F2E5D3"/>
		<clipPath id="SVGID_46_">
			<use xlink:href="#SVGID_45_"  overflow="visible"/>
		</clipPath>
		<g clip-path="url(#SVGID_46_)">
			<defs>
				<rect id="SVGID_47_" x="35" y="11" width="140" height="79"/>
			</defs>
			<use xlink:href="#SVGID_47_"  overflow="visible" fill="#F2E5D3"/>
			<clipPath id="SVGID_48_">
				<use xlink:href="#SVGID_47_"  overflow="visible"/>
			</clipPath>
			<rect x="120.838" y="12.317" clip-path="url(#SVGID_48_)" fill="#F2E5D3" width="18.207" height="18.261"/>
		</g>
	</g>
	<g>
		<defs>
			<path id="SVGID_49_" d="M132.413,23.832c0-0.367,0.022-0.792,0.066-1.273c0.045-0.481,0.1-1.011,0.167-1.587
				c0.065-0.576,0.141-1.096,0.224-1.558s0.164-0.857,0.241-1.186c0.06-0.257,0.178-0.471,0.353-0.644s0.41-0.259,0.71-0.259
				s0.506,0.092,0.622,0.275c0.117,0.185,0.175,0.43,0.175,0.735c0,0.084-0.009,0.196-0.024,0.338
				c-0.018,0.143-0.037,0.298-0.062,0.468s-0.052,0.345-0.079,0.526c-0.028,0.182-0.054,0.387-0.079,0.618s-0.046,0.403-0.062,0.518
				c-0.016,0.114-0.024,0.19-0.024,0.229h0.166c0.033-0.061,0.086-0.159,0.157-0.296c0.072-0.137,0.155-0.333,0.25-0.589
				c0.094-0.257,0.194-0.483,0.303-0.681c0.107-0.198,0.209-0.388,0.303-0.568s0.18-0.341,0.258-0.479
				c0.076-0.14,0.135-0.242,0.174-0.31c0.178-0.301,0.379-0.507,0.605-0.618c0.229-0.111,0.479-0.167,0.756-0.167
				c0.277,0,0.498,0.117,0.66,0.351c0.164,0.233,0.246,0.558,0.246,0.97c0,0.061-0.014,0.164-0.038,0.309s-0.057,0.317-0.096,0.518
				s-0.081,0.46-0.128,0.777c-0.048,0.317-0.091,0.602-0.129,0.852c-0.039,0.251-0.07,0.498-0.096,0.743s-0.037,0.471-0.037,0.677
				c0,0.346,0.043,0.629,0.129,0.852c0.085,0.223,0.219,0.335,0.402,0.335c0.066,0,0.16-0.025,0.282-0.075
				c0.183-0.067,0.299-0.126,0.349-0.176c0.243-0.188,0.371-0.281,0.382-0.275c0.017,0.006,0.202-0.106,0.556-0.335
				c0.443-0.283,0.973-0.631,1.586-1.043l-0.008,1.87l-0.416,0.317c-0.032,0.028-0.293,0.173-0.779,0.435
				c-0.703,0.379-1.144,0.606-1.32,0.685c-0.432,0.195-0.701,0.307-0.806,0.334c-0.276,0.09-0.567,0.134-0.872,0.134
				s-0.561-0.222-0.768-0.664c-0.208-0.442-0.312-1.09-0.312-1.941c0-0.334,0.022-0.694,0.066-1.082
				c0.044-0.386,0.101-0.803,0.166-1.248h-0.132l-2.176,4.343c-0.117,0.233-0.241,0.39-0.374,0.468
				c-0.139,0.083-0.299,0.125-0.481,0.125c-0.228,0-0.41-0.049-0.549-0.146c-0.139-0.097-0.244-0.229-0.318-0.393
				c-0.075-0.164-0.125-0.351-0.15-0.56C132.426,24.271,132.413,24.055,132.413,23.832"/>
		</defs>
		<use xlink:href="#SVGID_49_"  overflow="visible" fill-rule="evenodd" clip-rule="evenodd" fill="#F2E5D3"/>
		<clipPath id="SVGID_50_">
			<use xlink:href="#SVGID_49_"  overflow="visible"/>
		</clipPath>
		<g clip-path="url(#SVGID_50_)">
			<defs>
				<rect id="SVGID_51_" x="35" y="11" width="140" height="79"/>
			</defs>
			<use xlink:href="#SVGID_51_"  overflow="visible" fill="#F2E5D3"/>
			<clipPath id="SVGID_52_">
				<use xlink:href="#SVGID_51_"  overflow="visible"/>
			</clipPath>
			<rect x="127.413" y="12.326" clip-path="url(#SVGID_52_)" fill="#F2E5D3" width="19.266" height="18.252"/>
		</g>
	</g>
	<g>
		<defs>
			<path id="SVGID_53_" d="M111.748,28.092c-0.825,0-1.567-0.169-2.229-0.505c-0.66-0.337-1.225-0.808-1.689-1.411
				c-0.465-0.605-0.822-1.324-1.071-2.16c-0.249-0.837-0.374-1.754-0.374-2.753c0-0.538,0.039-1.09,0.116-1.655
				c0.077-0.566,0.196-1.131,0.354-1.693c0.157-0.563,0.354-1.115,0.589-1.656c0.236-0.54,0.51-1.052,0.822-1.533
				c0.312-0.482,0.663-0.926,1.051-1.332c0.387-0.406,0.814-0.757,1.282-1.051c0.468-0.295,0.972-0.524,1.512-0.689
				s1.119-0.248,1.739-0.248c0.83,0,1.573,0.151,2.229,0.453c0.656,0.302,1.211,0.726,1.662,1.269
				c0.45,0.543,0.797,1.19,1.037,1.943s0.361,1.583,0.361,2.49c0,0.744-0.074,1.52-0.221,2.327s-0.361,1.601-0.643,2.381
				c-0.283,0.779-0.635,1.522-1.055,2.228c-0.421,0.705-0.905,1.323-1.453,1.856s-1.158,0.956-1.831,1.27
				C113.263,27.935,112.534,28.092,111.748,28.092 M111.947,26.153c0.442,0,0.854-0.087,1.237-0.261
				c0.381-0.174,0.732-0.412,1.051-0.715c0.317-0.303,0.608-0.658,0.871-1.065s0.497-0.843,0.702-1.309
				c0.204-0.466,0.384-0.948,0.535-1.448s0.278-0.993,0.378-1.481s0.173-0.958,0.22-1.41s0.071-0.862,0.071-1.233
				c0-0.538-0.059-1.045-0.175-1.519c-0.116-0.475-0.292-0.888-0.526-1.238c-0.236-0.351-0.532-0.627-0.889-0.829
				c-0.357-0.202-0.773-0.303-1.25-0.303c-0.51,0-1.002,0.125-1.479,0.374c-0.476,0.25-0.924,0.587-1.345,1.011
				c-0.421,0.423-0.806,0.915-1.154,1.474c-0.349,0.558-0.647,1.146-0.896,1.763s-0.442,1.246-0.581,1.886s-0.208,1.251-0.208,1.836
				c0,0.634,0.079,1.224,0.237,1.771c0.157,0.547,0.385,1.02,0.68,1.418c0.297,0.398,0.657,0.712,1.08,0.938
				C110.93,26.04,111.41,26.153,111.947,26.153"/>
		</defs>
		<use xlink:href="#SVGID_53_"  overflow="visible" fill-rule="evenodd" clip-rule="evenodd" fill="#F2E5D3"/>
		<clipPath id="SVGID_54_">
			<use xlink:href="#SVGID_53_"  overflow="visible"/>
		</clipPath>
		<g clip-path="url(#SVGID_54_)">
			<defs>
				<rect id="SVGID_55_" x="35" y="11" width="140" height="79"/>
			</defs>
			<use xlink:href="#SVGID_55_"  overflow="visible" fill="#F2E5D3"/>
			<clipPath id="SVGID_56_">
				<use xlink:href="#SVGID_55_"  overflow="visible"/>
			</clipPath>
			<rect x="101.383" y="6.404" clip-path="url(#SVGID_56_)" fill="#F2E5D3" width="22.754" height="26.688"/>
		</g>
	</g>
	<g>
		<defs>
			<path id="SVGID_57_" d="M116.563,42.512c-0.453,0.475-0.961,0.89-1.527,1.246s-1.157,0.654-1.773,0.895
				c-0.617,0.24-1.243,0.421-1.879,0.543c-0.637,0.122-1.253,0.183-1.85,0.183c-0.646,0-1.256-0.075-1.826-0.226
				c-0.571-0.151-1.07-0.382-1.499-0.691c-0.428-0.311-0.767-0.703-1.017-1.179c-0.249-0.476-0.375-1.04-0.375-1.693
				c0-0.568,0.101-1.115,0.301-1.64c0.2-0.523,0.51-0.988,0.932-1.394c0.419-0.406,0.957-0.733,1.613-0.981
				c0.657-0.248,1.443-0.384,2.361-0.406c-0.602,0-1.127-0.087-1.577-0.264c-0.448-0.175-0.821-0.411-1.117-0.71
				c-0.296-0.298-0.519-0.646-0.665-1.044c-0.148-0.398-0.223-0.821-0.223-1.267c0-0.418,0.071-0.799,0.214-1.144
				c0.144-0.345,0.341-0.655,0.591-0.931c0.251-0.275,0.547-0.516,0.889-0.722s0.712-0.378,1.111-0.514
				c0.399-0.137,0.818-0.24,1.256-0.31c0.438-0.07,0.881-0.104,1.326-0.104c0.653-0.001,1.292,0.07,1.918,0.212
				c0.624,0.141,1.18,0.354,1.665,0.637c0.485,0.284,0.876,0.638,1.172,1.063c0.296,0.425,0.444,0.922,0.444,1.488
				c0,0.201-0.068,0.399-0.205,0.595s-0.3,0.37-0.489,0.523c-0.19,0.154-0.39,0.277-0.599,0.369
				c-0.209,0.093-0.384,0.138-0.523,0.138c-0.117,0-0.176-0.103-0.176-0.31c0-0.185,0.029-0.421,0.088-0.712
				c0.059-0.29,0.157-0.653,0.297-1.088c-0.15-0.123-0.371-0.246-0.662-0.368c-0.289-0.123-0.617-0.234-0.982-0.335
				s-0.755-0.183-1.168-0.247c-0.412-0.063-0.82-0.096-1.221-0.096c-0.375,0-0.731,0.034-1.072,0.101
				c-0.34,0.067-0.64,0.178-0.898,0.332c-0.26,0.153-0.466,0.355-0.619,0.607c-0.154,0.251-0.23,0.561-0.23,0.929
				c0,0.302,0.056,0.556,0.164,0.762c0.109,0.206,0.256,0.382,0.438,0.526c0.183,0.146,0.391,0.264,0.627,0.355
				c0.234,0.092,0.479,0.174,0.73,0.246s0.5,0.143,0.744,0.209s0.467,0.146,0.672,0.234s0.377,0.197,0.518,0.323
				c0.139,0.126,0.232,0.285,0.277,0.475c0.011,0.12,0.022,0.243,0.033,0.366c0.012,0.124,0.018,0.244,0.018,0.359
				c0,0.338-0.06,0.583-0.178,0.735c-0.117,0.153-0.348,0.229-0.691,0.23c-0.146,0-0.328-0.01-0.545-0.026
				c-0.217-0.016-0.422-0.024-0.62-0.024c-0.438,0-0.868,0.057-1.291,0.168c-0.422,0.111-0.801,0.276-1.136,0.496
				c-0.334,0.221-0.604,0.491-0.809,0.814c-0.207,0.322-0.309,0.698-0.309,1.127c0,0.407,0.059,0.746,0.176,1.017
				c0.117,0.271,0.277,0.49,0.48,0.655c0.204,0.166,0.444,0.283,0.721,0.354c0.278,0.07,0.577,0.105,0.897,0.104
				c0.396,0,0.812-0.037,1.247-0.113s0.868-0.181,1.301-0.314c0.432-0.133,0.854-0.29,1.264-0.473
				c0.41-0.181,0.79-0.376,1.143-0.585c0.351-0.21,0.66-0.43,0.928-0.66s0.475-0.463,0.619-0.696L116.563,42.512z"/>
		</defs>
		<use xlink:href="#SVGID_57_"  overflow="visible" fill-rule="evenodd" clip-rule="evenodd" fill="#F2E5D3"/>
		<clipPath id="SVGID_58_">
			<use xlink:href="#SVGID_57_"  overflow="visible"/>
		</clipPath>
		<g clip-path="url(#SVGID_58_)">
			<defs>
				<rect id="SVGID_59_" x="35" y="11" width="140" height="79"/>
			</defs>
			<use xlink:href="#SVGID_59_"  overflow="visible" fill="#F2E5D3"/>
			<clipPath id="SVGID_60_">
				<use xlink:href="#SVGID_59_"  overflow="visible"/>
			</clipPath>
			<rect x="99.817" y="25.16" clip-path="url(#SVGID_60_)" fill="#F2E5D3" width="22.211" height="25.218"/>
		</g>
	</g>
	<g>
		<defs>
			<path id="SVGID_61_" d="M125.493,42.832c-0.393,0.325-0.779,0.615-1.161,0.87c-0.161,0.105-0.329,0.211-0.507,0.314
				c-0.177,0.104-0.352,0.195-0.522,0.275c-0.172,0.08-0.339,0.145-0.501,0.195c-0.161,0.051-0.31,0.075-0.443,0.075
				c-0.08,0-0.197-0.018-0.354-0.053s-0.326-0.108-0.51-0.217c-0.185-0.109-0.369-0.268-0.553-0.475
				c-0.185-0.207-0.345-0.482-0.48-0.824c-0.205,0.213-0.424,0.415-0.654,0.607c-0.229,0.192-0.469,0.358-0.715,0.501
				c-0.248,0.142-0.498,0.256-0.75,0.342s-0.506,0.128-0.762,0.128c-0.359,0-0.672-0.074-0.935-0.225s-0.481-0.351-0.656-0.602
				c-0.175-0.249-0.304-0.533-0.39-0.85c-0.087-0.318-0.129-0.646-0.129-0.984c0-0.361,0.045-0.727,0.136-1.098
				c0.091-0.37,0.224-0.729,0.398-1.077c0.174-0.348,0.368-0.711,0.581-1.089c0.213-0.379,0.494-0.724,0.846-1.035
				c0.352-0.311,0.713-0.546,1.083-0.703c0.371-0.159,0.767-0.258,1.188-0.298c0.017-0.724,0.093-1.36,0.228-1.911
				c0.137-0.552,0.283-1.145,0.439-1.78c0.156-0.635,0.358-1.22,0.605-1.754c0.248-0.534,0.52-0.997,0.814-1.387
				s0.609-0.695,0.943-0.915c0.333-0.22,0.679-0.33,1.035-0.33c0.26,0,0.481,0.068,0.664,0.205s0.33,0.318,0.444,0.544
				s0.195,0.487,0.245,0.786c0.051,0.299,0.075,0.606,0.075,0.924c0.001,0.198-0.001,0.402-0.005,0.612
				c-0.016,0.8-0.138,1.544-0.367,2.233c-0.229,0.688-0.455,1.369-0.68,2.042c-0.223,0.673-0.494,1.339-0.81,1.997
				c-0.483,1.008-0.792,1.692-0.923,2.053c-0.029,0.079-0.057,0.175-0.086,0.288c-0.029,0.112-0.057,0.234-0.082,0.367
				c-0.026,0.132-0.048,0.268-0.065,0.405c-0.017,0.138-0.025,0.271-0.025,0.4c0,0.163,0.01,0.318,0.028,0.465
				c0.02,0.146,0.05,0.277,0.094,0.394c0.043,0.114,0.102,0.206,0.174,0.273s0.163,0.102,0.271,0.102
				c0.104,0,0.22-0.021,0.344-0.064c0.125-0.042,0.256-0.099,0.395-0.172s0.277-0.156,0.419-0.249
				c0.141-0.093,0.278-0.187,0.411-0.282c0.305-0.225,0.623-0.48,0.954-0.767L125.493,42.832z M119.737,37.902
				c-0.365,0.179-0.691,0.417-0.976,0.711c-0.286,0.295-0.522,0.685-0.714,1.167c-0.19,0.483-0.336,0.898-0.436,1.246
				c-0.1,0.349-0.149,0.663-0.149,0.943c0,0.087,0.013,0.175,0.038,0.262c0.023,0.087,0.07,0.166,0.137,0.235
				c0.066,0.07,0.16,0.126,0.283,0.17c0.121,0.044,0.279,0.064,0.473,0.064c0.1,0,0.197-0.021,0.295-0.066
				c0.097-0.044,0.189-0.103,0.278-0.174s0.173-0.153,0.253-0.244c0.08-0.092,0.154-0.187,0.221-0.286
				c0.154-0.227,0.296-0.483,0.424-0.771c-0.018-0.078-0.031-0.203-0.043-0.374s-0.02-0.433-0.025-0.783s-0.012-0.639-0.018-0.863
				c-0.005-0.225-0.01-0.429-0.013-0.614s-0.007-0.338-0.013-0.455C119.747,37.952,119.742,37.896,119.737,37.902z M123.651,32.202
				c0.035-0.39,0.051-0.699,0.051-0.928c0-0.301-0.026-0.51-0.08-0.626c-0.053-0.116-0.131-0.176-0.232-0.176
				c-0.18,0-0.343,0.113-0.488,0.339c-0.146,0.226-0.265,0.517-0.354,0.872c-0.089,0.356-0.186,0.743-0.289,1.161
				c-0.104,0.418-0.182,0.827-0.229,1.229c-0.047,0.4-0.086,0.762-0.114,1.083c-0.029,0.321-0.05,0.551-0.062,0.686
				c-0.023,0.276-0.043,0.543-0.059,0.8c-0.014,0.257-0.024,0.491-0.031,0.702c-0.006,0.212-0.008,0.396-0.008,0.555v0.364v0.084
				c0.307-0.741,0.591-1.48,0.85-2.217c0.107-0.313,0.215-0.642,0.32-0.981s0.209-0.679,0.313-1.014
				c0.104-0.336,0.19-0.668,0.263-0.997C123.572,32.81,123.622,32.498,123.651,32.202z"/>
		</defs>
		<use xlink:href="#SVGID_61_"  overflow="visible" fill-rule="evenodd" clip-rule="evenodd" fill="#F2E5D3"/>
		<clipPath id="SVGID_62_">
			<use xlink:href="#SVGID_61_"  overflow="visible"/>
		</clipPath>
		<g clip-path="url(#SVGID_62_)">
			<defs>
				<rect id="SVGID_63_" x="35" y="11" width="140" height="79"/>
			</defs>
			<use xlink:href="#SVGID_63_"  overflow="visible" fill="#F2E5D3"/>
			<clipPath id="SVGID_64_">
				<use xlink:href="#SVGID_63_"  overflow="visible"/>
			</clipPath>
			<rect x="110.471" y="23.535" clip-path="url(#SVGID_64_)" fill="#F2E5D3" width="20.022" height="26.037"/>
		</g>
	</g>
	<g>
		<defs>
			<path id="SVGID_65_" d="M131.26,36.783c0,0.151-0.006,0.355-0.015,0.614c-0.011,0.259-0.044,0.542-0.1,0.849
				c-0.057,0.307-0.126,0.677-0.206,1.112c-0.08,0.435-0.146,0.794-0.198,1.079c-0.053,0.284-0.099,0.533-0.138,0.746
				c-0.039,0.214-0.059,0.369-0.059,0.465c0,0.157,0.002,0.301,0.007,0.432c0.005,0.132,0.019,0.247,0.044,0.345
				c0.023,0.098,0.061,0.173,0.11,0.226c0.051,0.054,0.124,0.08,0.22,0.08c0.121,0,0.27-0.03,0.443-0.093
				c0.175-0.062,0.36-0.144,0.557-0.248c0.196-0.103,0.396-0.221,0.602-0.352c0.205-0.132,0.399-0.271,0.586-0.415
				c0.185-0.146,0.354-0.29,0.506-0.433c0.151-0.143,0.275-0.274,0.369-0.398c0,0.185,0.002,0.353,0.004,0.504
				c0.004,0.15,0.005,0.295,0.005,0.432s0.001,0.278,0.005,0.423c0.002,0.146,0.004,0.308,0.004,0.486
				c-0.122,0.121-0.272,0.25-0.452,0.388c-0.181,0.137-0.379,0.274-0.598,0.412s-0.451,0.27-0.698,0.396
				c-0.246,0.127-0.492,0.238-0.742,0.335c-0.249,0.096-0.492,0.173-0.73,0.23c-0.236,0.058-0.458,0.087-0.66,0.087
				c-0.207,0-0.385-0.041-0.531-0.124c-0.146-0.082-0.273-0.197-0.38-0.345c-0.105-0.148-0.195-0.325-0.269-0.531
				c-0.074-0.206-0.139-0.435-0.192-0.688c-0.199,0.258-0.41,0.496-0.632,0.714c-0.221,0.217-0.447,0.404-0.678,0.563
				c-0.229,0.16-0.462,0.284-0.697,0.376c-0.236,0.091-0.465,0.136-0.686,0.136c-0.183,0-0.354-0.03-0.514-0.091
				c-0.159-0.062-0.301-0.164-0.426-0.309c-0.124-0.146-0.223-0.336-0.293-0.572c-0.072-0.237-0.107-0.53-0.107-0.881
				c0.004-0.729,0.06-1.288,0.164-1.679c0.166-0.568,0.32-1.415,0.463-2.54c0.016-0.083,0.036-0.195,0.062-0.338
				c0.026-0.143,0.065-0.298,0.118-0.464c0.053-0.167,0.117-0.337,0.195-0.51c0.076-0.172,0.168-0.328,0.273-0.468
				s0.229-0.253,0.369-0.343c0.141-0.089,0.301-0.137,0.478-0.142c0.294,0.014,0.503,0.062,0.632,0.143
				c0.127,0.081,0.191,0.183,0.191,0.303c-0.051,0.376-0.106,0.736-0.168,1.083c-0.062,0.347-0.125,0.695-0.188,1.047
				s-0.132,0.743-0.209,1.174c-0.076,0.43-0.138,0.774-0.184,1.035c-0.047,0.259-0.085,0.47-0.113,0.629
				c-0.027,0.16-0.043,0.243-0.043,0.249c0,0.104,0.01,0.203,0.029,0.298s0.049,0.179,0.088,0.254
				c0.039,0.074,0.09,0.135,0.15,0.181s0.133,0.069,0.217,0.068c0.121,0,0.247-0.032,0.375-0.097
				c0.127-0.066,0.247-0.161,0.357-0.285c0.117-0.113,0.221-0.262,0.309-0.443c0.088-0.175,0.156-0.379,0.199-0.612l0.914-4.551
				c0.027-0.135,0.135-0.247,0.324-0.339s0.406-0.138,0.646-0.138c0.271,0,0.488,0.05,0.648,0.149
				C131.18,36.5,131.26,36.628,131.26,36.783"/>
		</defs>
		<use xlink:href="#SVGID_65_"  overflow="visible" fill-rule="evenodd" clip-rule="evenodd" fill="#F2E5D3"/>
		<clipPath id="SVGID_66_">
			<use xlink:href="#SVGID_65_"  overflow="visible"/>
		</clipPath>
		<g clip-path="url(#SVGID_66_)">
			<defs>
				<rect id="SVGID_67_" x="35" y="11" width="140" height="79"/>
			</defs>
			<use xlink:href="#SVGID_67_"  overflow="visible" fill="#F2E5D3"/>
			<clipPath id="SVGID_68_">
				<use xlink:href="#SVGID_67_"  overflow="visible"/>
			</clipPath>
			<rect x="119.721" y="31.249" clip-path="url(#SVGID_68_)" fill="#F2E5D3" width="19.285" height="18.337"/>
		</g>
	</g>
	<g>
		<defs>
			<path id="SVGID_69_" d="M135.667,44.566c-0.513,0-0.963-0.095-1.35-0.284c-0.388-0.188-0.712-0.442-0.975-0.76
				c-0.262-0.316-0.46-0.685-0.593-1.103c-0.135-0.417-0.202-0.851-0.202-1.303c0-0.322,0.056-0.71,0.167-1.161
				c0.111-0.45,0.231-0.844,0.362-1.182c0.131-0.337,0.292-0.658,0.483-0.965c0.192-0.307,0.414-0.574,0.668-0.806
				c0.253-0.231,0.535-0.415,0.847-0.552s0.653-0.205,1.026-0.205c0.336,0,0.646,0.049,0.932,0.146
				c0.287,0.097,0.531,0.231,0.734,0.404s0.361,0.377,0.477,0.613c0.116,0.237,0.173,0.492,0.173,0.765
				c0,0.188-0.026,0.375-0.081,0.56c-0.053,0.184-0.158,0.399-0.314,0.647c-0.155,0.248-0.307,0.416-0.453,0.506
				c-0.146,0.089-0.312,0.133-0.498,0.133c-0.279,0-0.461-0.069-0.543-0.208c-0.135-0.217-0.176-0.409-0.127-0.576
				c0.017-0.089,0.066-0.295,0.148-0.618c0.012-0.045,0.014-0.145,0.009-0.301c-0.001-0.134-0.015-0.244-0.042-0.334
				c-0.027-0.089-0.088-0.134-0.182-0.134c-0.227,0-0.419,0.055-0.578,0.163c-0.16,0.108-0.297,0.251-0.41,0.427
				c-0.112,0.175-0.225,0.423-0.334,0.743c-0.11,0.32-0.188,0.589-0.235,0.807c-0.046,0.217-0.075,0.424-0.087,0.621
				c-0.011,0.198-0.016,0.364-0.016,0.498c0,0.2,0.018,0.409,0.054,0.626s0.107,0.416,0.215,0.597
				c0.108,0.182,0.247,0.332,0.418,0.451c0.171,0.12,0.392,0.18,0.661,0.18c0.266,0,0.56-0.082,0.88-0.247
				c0.321-0.164,0.644-0.371,0.968-0.622s0.632-0.526,0.926-0.828c0.293-0.3,0.544-0.584,0.754-0.852l0.574,0.969
				c-0.415,0.596-0.863,1.128-1.346,1.596c-0.204,0.2-0.427,0.396-0.668,0.585c-0.24,0.188-0.492,0.357-0.756,0.505
				c-0.262,0.147-0.535,0.268-0.82,0.359S135.959,44.566,135.667,44.566"/>
		</defs>
		<use xlink:href="#SVGID_69_"  overflow="visible" fill-rule="evenodd" clip-rule="evenodd" fill="#F2E5D3"/>
		<clipPath id="SVGID_70_">
			<use xlink:href="#SVGID_69_"  overflow="visible"/>
		</clipPath>
		<g clip-path="url(#SVGID_70_)">
			<defs>
				<rect id="SVGID_71_" x="35" y="11" width="140" height="79"/>
			</defs>
			<use xlink:href="#SVGID_71_"  overflow="visible" fill="#F2E5D3"/>
			<clipPath id="SVGID_72_">
				<use xlink:href="#SVGID_71_"  overflow="visible"/>
			</clipPath>
			<rect x="127.548" y="31.247" clip-path="url(#SVGID_72_)" fill="#F2E5D3" width="17.575" height="18.319"/>
		</g>
	</g>
	<g>
		<defs>
			<path id="SVGID_73_" d="M148.058,42.491c-0.127,0.18-0.298,0.392-0.51,0.634c-0.214,0.242-0.453,0.473-0.718,0.692
				c-0.267,0.221-0.551,0.406-0.855,0.559s-0.609,0.228-0.914,0.228c-0.367,0-0.674-0.116-0.92-0.351
				c-0.245-0.233-0.457-0.574-0.637-1.021c-0.133,0.154-0.298,0.312-0.492,0.471c-0.196,0.16-0.41,0.305-0.641,0.436
				c-0.231,0.129-0.473,0.235-0.725,0.318c-0.25,0.083-0.502,0.123-0.752,0.123c-0.267,0-0.525-0.054-0.777-0.163
				c-0.251-0.11-0.475-0.267-0.668-0.472s-0.35-0.455-0.465-0.75c-0.117-0.295-0.176-0.628-0.176-0.998
				c0-0.416,0.059-0.844,0.176-1.282c0.116-0.438,0.297-0.913,0.541-1.423c0.246-0.511,0.508-0.952,0.789-1.324
				c0.281-0.371,0.59-0.696,0.924-0.974c0.333-0.278,0.686-0.498,1.056-0.662s0.747-0.246,1.132-0.246
				c0.127,0,0.228,0.024,0.301,0.076c0.072,0.05,0.133,0.108,0.18,0.172c0.047,0.064,0.094,0.129,0.138,0.19s0.1,0.106,0.167,0.136
				c0.066,0.027,0.135,0.046,0.205,0.054c0.068,0.009,0.14,0.013,0.213,0.013c0.061,0,0.123-0.001,0.188-0.004
				s0.127-0.005,0.188-0.005c0.084,0,0.162,0.009,0.234,0.025c0.072,0.018,0.137,0.054,0.191,0.11
				c0.056,0.056,0.098,0.135,0.129,0.235c0.03,0.102,0.046,0.239,0.046,0.413c0,0.267-0.027,0.562-0.083,0.887
				c-0.055,0.324-0.118,0.657-0.189,0.997c-0.071,0.341-0.152,0.729-0.244,1.164c-0.092,0.437-0.137,0.804-0.136,1.103
				c0,0.255,0.023,0.454,0.07,0.598c0.048,0.144,0.148,0.216,0.304,0.216c0.115,0,0.237-0.029,0.365-0.087
				c0.127-0.058,0.256-0.134,0.385-0.228c0.131-0.095,0.262-0.2,0.391-0.319c0.131-0.119,0.254-0.242,0.369-0.368
				c0.271-0.299,0.545-0.635,0.822-1.011L148.058,42.491z M140.935,41.84c0,0.144,0.01,0.283,0.029,0.418s0.054,0.255,0.104,0.361
				c0.049,0.106,0.116,0.192,0.199,0.259s0.188,0.099,0.316,0.099c0.205,0,0.391-0.09,0.557-0.27
				c0.166-0.179,0.311-0.396,0.432-0.647c0.122-0.252,0.221-0.513,0.296-0.782c0.075-0.269,0.123-0.493,0.146-0.673l0.617-2.715
				c-0.227,0-0.447,0.057-0.664,0.17c-0.215,0.113-0.418,0.267-0.609,0.459c-0.191,0.194-0.366,0.415-0.527,0.663
				c-0.16,0.249-0.318,0.556-0.473,0.919c-0.155,0.365-0.265,0.686-0.328,0.961C140.967,41.338,140.935,41.597,140.935,41.84z"/>
		</defs>
		<use xlink:href="#SVGID_73_"  overflow="visible" fill-rule="evenodd" clip-rule="evenodd" fill="#F2E5D3"/>
		<clipPath id="SVGID_74_">
			<use xlink:href="#SVGID_73_"  overflow="visible"/>
		</clipPath>
		<g clip-path="url(#SVGID_74_)">
			<defs>
				<rect id="SVGID_75_" x="35" y="11" width="140" height="79"/>
			</defs>
			<use xlink:href="#SVGID_75_"  overflow="visible" fill="#F2E5D3"/>
			<clipPath id="SVGID_76_">
				<use xlink:href="#SVGID_75_"  overflow="visible"/>
			</clipPath>
			<rect x="133.809" y="31.286" clip-path="url(#SVGID_76_)" fill="#F2E5D3" width="19.249" height="18.317"/>
		</g>
	</g>
	<g>
		<defs>
			<path id="SVGID_77_" d="M154.295,42.688c-0.533,0.312-1.006,0.585-1.422,0.819c-0.416,0.233-0.785,0.429-1.109,0.585
				s-0.612,0.273-0.865,0.352c-0.252,0.077-0.48,0.116-0.686,0.116c-0.418,0-0.787-0.128-1.107-0.384
				c-0.318-0.256-0.586-0.624-0.801-1.106c-0.215-0.48-0.377-1.064-0.483-1.749c-0.108-0.686-0.162-1.456-0.162-2.313
				c0-0.334,0.013-0.69,0.04-1.069c0.027-0.378,0.066-0.754,0.115-1.127c-0.167-0.025-0.297-0.048-0.389-0.069
				s-0.189-0.044-0.293-0.065s-0.234-0.045-0.393-0.069c-0.158-0.025-0.389-0.057-0.689-0.093c-0.135-0.019-0.236-0.054-0.31-0.107
				c-0.072-0.052-0.125-0.114-0.159-0.186c-0.033-0.071-0.053-0.146-0.059-0.223c-0.005-0.078-0.008-0.145-0.008-0.2
				c0-0.088,0.055-0.155,0.162-0.201c0.109-0.046,0.248-0.081,0.418-0.104c0.17-0.023,0.355-0.037,0.559-0.04
				s0.398-0.001,0.585,0.004c0.187,0.006,0.353,0.011,0.501,0.013c0.146,0.003,0.248-0.001,0.305-0.013
				c0.148-0.749,0.337-1.475,0.566-2.178s0.486-1.327,0.771-1.874c0.284-0.548,0.595-0.985,0.932-1.316s0.69-0.496,1.061-0.496
				c0.238,0,0.456,0.066,0.652,0.2c0.196,0.133,0.364,0.312,0.503,0.533c0.139,0.223,0.245,0.482,0.32,0.78
				c0.074,0.298,0.112,0.607,0.112,0.931c0,0.267-0.038,0.549-0.116,0.846c-0.077,0.297-0.183,0.599-0.315,0.907
				c-0.133,0.308-0.288,0.619-0.469,0.935c-0.18,0.316-0.369,0.63-0.569,0.94c0.051-0.019,0.134-0.022,0.25-0.011
				c0.115,0.011,0.25,0.02,0.402,0.023s0.317,0.009,0.494,0.013c0.178,0.005,0.349,0.01,0.516,0.015
				c0.166,0.006,0.32,0.012,0.465,0.017c0.144,0.006,0.263,0.011,0.356,0.017c0.11,0.006,0.191,0.068,0.241,0.187
				c0.051,0.117,0.075,0.267,0.075,0.446c0.001,0.208-0.056,0.377-0.167,0.508c-0.11,0.131-0.232,0.196-0.365,0.196l-3.191,0.001
				c-0.162,0.223-0.324,0.442-0.488,0.656s-0.315,0.407-0.453,0.581c-0.023,0.345-0.042,0.685-0.059,1.019
				c-0.006,0.145-0.011,0.294-0.017,0.446c-0.005,0.153-0.011,0.305-0.016,0.455c-0.006,0.15-0.01,0.295-0.013,0.436
				c-0.003,0.139-0.004,0.266-0.004,0.384c0,0.3,0.027,0.554,0.084,0.76c0.055,0.205,0.137,0.374,0.242,0.505
				s0.234,0.226,0.387,0.284c0.153,0.059,0.324,0.088,0.514,0.088c0.115,0,0.261-0.028,0.436-0.084
				c0.176-0.056,0.365-0.133,0.573-0.23s0.427-0.213,0.656-0.347s0.457-0.279,0.683-0.438c0.224-0.159,0.438-0.326,0.643-0.502
				c0.205-0.176,0.391-0.355,0.558-0.539L154.295,42.688z M151.633,32.112c0-0.062-0.004-0.129-0.013-0.204
				c-0.009-0.074-0.026-0.146-0.054-0.212c-0.028-0.066-0.071-0.121-0.13-0.166c-0.059-0.044-0.14-0.066-0.245-0.066
				c-0.146,0-0.291,0.127-0.438,0.382c-0.147,0.254-0.288,0.579-0.425,0.974c-0.136,0.396-0.264,0.831-0.383,1.307
				s-0.229,0.938-0.328,1.385c0.083,0.008,0.166,0.016,0.25,0.021c0.083,0.006,0.169,0.014,0.258,0.021
				c0.167-0.28,0.34-0.584,0.521-0.912c0.181-0.327,0.343-0.648,0.487-0.965c0.145-0.317,0.264-0.613,0.357-0.888
				C151.586,32.514,151.633,32.288,151.633,32.112z"/>
		</defs>
		<use xlink:href="#SVGID_77_"  overflow="visible" fill-rule="evenodd" clip-rule="evenodd" fill="#F2E5D3"/>
		<clipPath id="SVGID_78_">
			<use xlink:href="#SVGID_77_"  overflow="visible"/>
		</clipPath>
		<g clip-path="url(#SVGID_78_)">
			<defs>
				<rect id="SVGID_79_" x="35" y="11" width="140" height="79"/>
			</defs>
			<use xlink:href="#SVGID_79_"  overflow="visible" fill="#F2E5D3"/>
			<clipPath id="SVGID_80_">
				<use xlink:href="#SVGID_79_"  overflow="visible"/>
			</clipPath>
			<rect x="140.516" y="24.593" clip-path="url(#SVGID_80_)" fill="#F2E5D3" width="18.779" height="24.967"/>
		</g>
	</g>
	<g>
		<defs>
			<path id="SVGID_81_" d="M158.704,42.777c-0.199,0.184-0.447,0.381-0.742,0.59c-0.297,0.208-0.617,0.401-0.959,0.575
				c-0.344,0.177-0.693,0.323-1.051,0.439c-0.357,0.117-0.696,0.176-1.018,0.176c-0.287,0-0.529-0.04-0.727-0.121
				c-0.195-0.08-0.355-0.192-0.477-0.337c-0.123-0.146-0.209-0.322-0.262-0.53c-0.053-0.209-0.08-0.439-0.08-0.689
				c0-0.351,0.039-0.76,0.116-1.229c0.159-0.967,0.262-1.511,0.308-1.63c0.075-0.237,0.226-0.765,0.451-1.581
				c0.211-0.665,0.34-1.098,0.389-1.299c0.027-0.141,0.104-0.268,0.229-0.38c0.115-0.102,0.243-0.185,0.387-0.249
				c0.145-0.065,0.295-0.113,0.449-0.144c0.155-0.031,0.295-0.047,0.42-0.047c0.229,0,0.384,0.042,0.465,0.129
				c0.082,0.087,0.123,0.202,0.123,0.347c0,0.123-0.028,0.296-0.086,0.52c-0.057,0.224-0.121,0.479-0.193,0.765
				s-0.18,0.654-0.322,1.104c-0.143,0.45-0.24,0.833-0.292,1.15s-0.118,0.633-0.198,0.946c-0.078,0.312-0.118,0.598-0.118,0.854
				c0,0.251,0.027,0.45,0.083,0.597c0.055,0.147,0.169,0.222,0.34,0.222c0.199,0,0.422-0.07,0.664-0.21
				c0.244-0.139,0.49-0.308,0.74-0.505c0.248-0.198,0.492-0.403,0.729-0.614c0.238-0.212,0.448-0.394,0.631-0.543L158.704,42.777z
				 M154.989,34.015c0-0.129,0.027-0.275,0.082-0.438c0.056-0.163,0.146-0.316,0.271-0.46s0.29-0.265,0.498-0.362
				c0.207-0.1,0.466-0.148,0.775-0.148c0.194,0,0.377,0.022,0.548,0.067c0.172,0.045,0.322,0.114,0.449,0.207
				c0.127,0.092,0.229,0.214,0.303,0.366c0.076,0.151,0.113,0.331,0.113,0.539c0,0.191-0.03,0.376-0.092,0.557
				c-0.061,0.18-0.157,0.34-0.29,0.48c-0.132,0.141-0.3,0.255-0.503,0.342c-0.201,0.087-0.443,0.131-0.726,0.131
				c-0.487,0-0.847-0.116-1.079-0.35C155.105,34.713,154.989,34.402,154.989,34.015z"/>
		</defs>
		<use xlink:href="#SVGID_81_"  overflow="visible" fill-rule="evenodd" clip-rule="evenodd" fill="#F2E5D3"/>
		<clipPath id="SVGID_82_">
			<use xlink:href="#SVGID_81_"  overflow="visible"/>
		</clipPath>
		<g clip-path="url(#SVGID_82_)">
			<defs>
				<rect id="SVGID_83_" x="35" y="11" width="140" height="79"/>
			</defs>
			<use xlink:href="#SVGID_83_"  overflow="visible" fill="#F2E5D3"/>
			<clipPath id="SVGID_84_">
				<use xlink:href="#SVGID_83_"  overflow="visible"/>
			</clipPath>
			<rect x="148.389" y="27.605" clip-path="url(#SVGID_84_)" fill="#F2E5D3" width="15.314" height="21.952"/>
		</g>
	</g>
	<g>
		<defs>
			<path id="SVGID_85_" d="M163.217,38.116c0.162,0.322,0.282,0.663,0.363,1.022c0.079,0.359,0.119,0.764,0.119,1.215
				c0.001,0.329-0.035,0.66-0.106,0.994s-0.176,0.657-0.312,0.969c-0.135,0.312-0.301,0.604-0.498,0.877
				c-0.195,0.273-0.42,0.51-0.672,0.71c-0.252,0.201-0.526,0.36-0.826,0.477c-0.298,0.117-0.616,0.177-0.954,0.177
				c-0.487,0-0.903-0.107-1.249-0.321c-0.347-0.214-0.631-0.494-0.852-0.839c-0.222-0.346-0.384-0.735-0.486-1.17
				c-0.104-0.434-0.154-0.874-0.154-1.319c0-0.734,0.09-1.368,0.273-1.899c0.182-0.531,0.443-0.994,0.783-1.387
				c0.341-0.393,0.757-0.702,1.25-0.928c0.492-0.226,1.045-0.339,1.66-0.339c0.525,0,1.019,0.082,1.479,0.246
				c0.459,0.164,0.89,0.384,1.291,0.658c0.4,0.276,0.775,0.622,1.121,1.04c0.346,0.417,0.669,0.815,0.968,1.194l-0.157,1.178
				c-0.149-0.201-0.352-0.418-0.606-0.651s-0.524-0.492-0.81-0.777c-0.285-0.283-0.566-0.523-0.844-0.722
				c-0.276-0.197-0.514-0.363-0.714-0.496L163.217,38.116z M160.655,42.952c0.188,0,0.371-0.097,0.548-0.288
				c0.177-0.192,0.332-0.436,0.464-0.728c0.133-0.292,0.24-0.646,0.32-1.061s0.12-0.783,0.12-1.106c0-0.256-0.021-0.494-0.06-0.715
				c-0.038-0.22-0.096-0.41-0.174-0.571c-0.078-0.162-0.178-0.289-0.299-0.385c-0.122-0.094-0.27-0.142-0.44-0.142
				c-0.228,0-0.443,0.098-0.647,0.292c-0.205,0.195-0.385,0.444-0.539,0.748c-0.156,0.304-0.277,0.639-0.365,1.007
				c-0.088,0.367-0.133,0.782-0.133,1.244c0,0.234,0.022,0.454,0.066,0.66c0.045,0.205,0.113,0.385,0.208,0.538
				s0.219,0.275,0.374,0.367C160.252,42.906,160.438,42.952,160.655,42.952z"/>
		</defs>
		<use xlink:href="#SVGID_85_"  overflow="visible" fill-rule="evenodd" clip-rule="evenodd" fill="#F2E5D3"/>
		<clipPath id="SVGID_86_">
			<use xlink:href="#SVGID_85_"  overflow="visible"/>
		</clipPath>
		<g clip-path="url(#SVGID_86_)">
			<defs>
				<rect id="SVGID_87_" x="35" y="11" width="140" height="79"/>
			</defs>
			<use xlink:href="#SVGID_87_"  overflow="visible" fill="#F2E5D3"/>
			<clipPath id="SVGID_88_">
				<use xlink:href="#SVGID_87_"  overflow="visible"/>
			</clipPath>
			<rect x="152.59" y="31.354" clip-path="url(#SVGID_88_)" fill="#F2E5D3" width="18.825" height="18.202"/>
		</g>
	</g>
	<g>
		<defs>
			<path id="SVGID_89_" d="M165.28,42.809c0-0.368,0.021-0.792,0.065-1.274c0.044-0.481,0.099-1.01,0.165-1.587
				c0.066-0.575,0.141-1.096,0.225-1.558c0.082-0.462,0.162-0.857,0.24-1.186c0.061-0.256,0.178-0.471,0.352-0.644
				c0.175-0.173,0.411-0.259,0.711-0.259c0.299-0.001,0.506,0.092,0.622,0.275s0.175,0.429,0.175,0.734
				c0,0.084-0.008,0.196-0.025,0.338c-0.016,0.143-0.037,0.299-0.062,0.468c-0.024,0.171-0.052,0.346-0.078,0.527
				c-0.028,0.181-0.055,0.387-0.079,0.617c-0.025,0.231-0.045,0.404-0.062,0.519c-0.016,0.114-0.024,0.19-0.024,0.229h0.167
				c0.032-0.062,0.084-0.16,0.156-0.297s0.155-0.332,0.25-0.589c0.094-0.256,0.193-0.483,0.302-0.681
				c0.108-0.198,0.209-0.388,0.303-0.568c0.095-0.181,0.18-0.341,0.257-0.48c0.078-0.139,0.137-0.242,0.176-0.309
				c0.176-0.301,0.378-0.507,0.605-0.619c0.227-0.111,0.479-0.167,0.755-0.167s0.497,0.116,0.66,0.35
				c0.163,0.234,0.245,0.558,0.245,0.97c0,0.062-0.012,0.164-0.037,0.309c-0.024,0.146-0.057,0.317-0.096,0.518
				c-0.038,0.201-0.08,0.46-0.128,0.777c-0.046,0.317-0.089,0.602-0.128,0.853c-0.039,0.25-0.07,0.498-0.096,0.743
				c-0.024,0.244-0.037,0.47-0.037,0.676c0,0.346,0.044,0.629,0.13,0.853c0.085,0.223,0.22,0.334,0.403,0.334
				c0.066,0,0.16-0.025,0.281-0.075c0.184-0.067,0.299-0.126,0.35-0.176c0.242-0.189,0.369-0.282,0.381-0.276
				c0.017,0.006,0.202-0.105,0.557-0.334c0.442-0.284,0.971-0.632,1.586-1.045l-0.008,1.871l-0.416,0.317
				c-0.033,0.028-0.293,0.173-0.78,0.436c-0.702,0.379-1.143,0.606-1.319,0.686c-0.432,0.194-0.701,0.307-0.806,0.334
				c-0.276,0.089-0.567,0.134-0.872,0.134s-0.561-0.221-0.768-0.664c-0.208-0.442-0.312-1.09-0.312-1.941
				c0-0.334,0.021-0.694,0.066-1.081c0.044-0.387,0.1-0.804,0.165-1.249h-0.132l-2.174,4.344c-0.116,0.234-0.241,0.39-0.374,0.468
				c-0.139,0.084-0.299,0.125-0.481,0.125c-0.227,0-0.41-0.048-0.549-0.146c-0.139-0.097-0.244-0.228-0.319-0.393
				c-0.075-0.164-0.124-0.351-0.149-0.56C165.292,43.247,165.28,43.031,165.28,42.809"/>
		</defs>
		<use xlink:href="#SVGID_89_"  overflow="visible" fill-rule="evenodd" clip-rule="evenodd" fill="#F2E5D3"/>
		<clipPath id="SVGID_90_">
			<use xlink:href="#SVGID_89_"  overflow="visible"/>
		</clipPath>
		<g clip-path="url(#SVGID_90_)">
			<defs>
				<rect id="SVGID_91_" x="35" y="11" width="140" height="79"/>
			</defs>
			<use xlink:href="#SVGID_91_"  overflow="visible" fill="#F2E5D3"/>
			<clipPath id="SVGID_92_">
				<use xlink:href="#SVGID_91_"  overflow="visible"/>
			</clipPath>
			<rect x="160.28" y="31.3" clip-path="url(#SVGID_92_)" fill="#F2E5D3" width="19.266" height="18.253"/>
		</g>
	</g>
	<g>
		<defs>
			<path id="SVGID_93_" d="M111.266,66.692c0.548,0,1.049,0.082,1.504,0.244c0.454,0.163,0.844,0.393,1.166,0.69
				c0.324,0.298,0.575,0.655,0.756,1.074s0.271,0.885,0.271,1.396c0,0.441-0.064,0.849-0.193,1.224
				c-0.129,0.374-0.301,0.732-0.518,1.074s-0.469,0.672-0.76,0.992c-0.291,0.319-0.595,0.645-0.912,0.975l-2.679,2.752
				c0.263-0.076,0.521-0.137,0.772-0.178s0.492-0.062,0.723-0.062h3.048c0.22,0,0.394,0.062,0.522,0.186s0.193,0.288,0.193,0.492
				v1.223h-8.151v-0.677c0-0.138,0.028-0.281,0.087-0.431c0.057-0.148,0.148-0.286,0.275-0.413l3.606-3.637
				c0.302-0.308,0.571-0.603,0.81-0.884s0.438-0.56,0.6-0.835c0.161-0.274,0.285-0.555,0.369-0.839
				c0.085-0.283,0.127-0.582,0.127-0.896c0-0.286-0.041-0.538-0.123-0.757c-0.082-0.217-0.199-0.4-0.354-0.549
				c-0.152-0.149-0.335-0.261-0.545-0.335c-0.211-0.074-0.449-0.111-0.711-0.111c-0.488,0-0.889,0.124-1.205,0.372
				c-0.314,0.248-0.535,0.581-0.66,1c-0.061,0.209-0.152,0.359-0.271,0.45c-0.121,0.091-0.274,0.137-0.461,0.137
				c-0.082,0-0.172-0.009-0.27-0.025l-1.068-0.189c0.082-0.573,0.24-1.076,0.477-1.509c0.234-0.433,0.529-0.793,0.883-1.083
				c0.354-0.289,0.759-0.507,1.217-0.653C110.249,66.766,110.741,66.692,111.266,66.692"/>
		</defs>
		<use xlink:href="#SVGID_93_"  overflow="visible" fill-rule="evenodd" clip-rule="evenodd" fill="#977A66"/>
		<clipPath id="SVGID_94_">
			<use xlink:href="#SVGID_93_"  overflow="visible"/>
		</clipPath>
		<g clip-path="url(#SVGID_94_)">
			<defs>
				<rect id="SVGID_95_" x="35" y="11" width="140" height="79"/>
			</defs>
			<use xlink:href="#SVGID_95_"  overflow="visible" fill="#977A66"/>
			<clipPath id="SVGID_96_">
				<use xlink:href="#SVGID_95_"  overflow="visible"/>
			</clipPath>
			<rect x="102.009" y="61.692" clip-path="url(#SVGID_96_)" fill="#977A66" width="18.151" height="22.083"/>
		</g>
	</g>
	<g>
		<defs>
			<path id="SVGID_97_" d="M124.149,72.801c0,1.041-0.111,1.946-0.333,2.715s-0.528,1.404-0.92,1.905
				c-0.392,0.502-0.854,0.875-1.388,1.119c-0.535,0.245-1.111,0.368-1.73,0.368s-1.193-0.123-1.722-0.368
				c-0.528-0.244-0.987-0.617-1.376-1.119s-0.693-1.137-0.912-1.905s-0.328-1.674-0.328-2.715c0-1.047,0.109-1.953,0.328-2.72
				c0.219-0.766,0.523-1.399,0.912-1.9c0.389-0.502,0.848-0.874,1.376-1.12c0.528-0.244,1.103-0.368,1.722-0.368
				s1.195,0.124,1.73,0.368c0.533,0.246,0.996,0.618,1.388,1.12c0.392,0.501,0.698,1.135,0.92,1.9
				C124.038,70.848,124.149,71.754,124.149,72.801 M122.053,72.801c0-0.865-0.062-1.581-0.188-2.149
				c-0.126-0.567-0.294-1.019-0.505-1.354s-0.453-0.572-0.728-0.707s-0.56-0.203-0.854-0.203c-0.29,0-0.57,0.068-0.842,0.203
				s-0.511,0.371-0.719,0.707c-0.209,0.336-0.374,0.787-0.498,1.354c-0.123,0.568-0.186,1.284-0.186,2.149s0.062,1.582,0.186,2.148
				c0.124,0.567,0.289,1.02,0.498,1.356c0.207,0.335,0.447,0.571,0.719,0.705c0.271,0.136,0.552,0.203,0.842,0.203
				c0.296,0,0.581-0.067,0.854-0.203c0.274-0.134,0.517-0.37,0.728-0.705c0.211-0.337,0.379-0.789,0.505-1.356
				C121.991,74.383,122.053,73.665,122.053,72.801"/>
		</defs>
		<use xlink:href="#SVGID_97_"  overflow="visible" fill-rule="evenodd" clip-rule="evenodd" fill="#977A66"/>
		<clipPath id="SVGID_98_">
			<use xlink:href="#SVGID_97_"  overflow="visible"/>
		</clipPath>
		<g clip-path="url(#SVGID_98_)">
			<defs>
				<rect id="SVGID_99_" x="35" y="11" width="140" height="79"/>
			</defs>
			<use xlink:href="#SVGID_99_"  overflow="visible" fill="#977A66"/>
			<clipPath id="SVGID_100_">
				<use xlink:href="#SVGID_99_"  overflow="visible"/>
			</clipPath>
			<rect x="110.44" y="61.692" clip-path="url(#SVGID_100_)" fill="#977A66" width="18.709" height="22.216"/>
		</g>
	</g>
	<g>
		<defs>
			<path id="SVGID_101_" d="M125.948,77.247h2.408V70.28c0-0.271,0.008-0.554,0.023-0.852l-1.709,1.438
				c-0.07,0.061-0.144,0.103-0.217,0.125c-0.074,0.021-0.146,0.032-0.218,0.032c-0.11,0-0.21-0.022-0.3-0.069
				c-0.09-0.048-0.157-0.101-0.201-0.162l-0.641-0.884l3.623-3.1h1.668v10.438h2.136v1.528h-6.573V77.247L125.948,77.247z"/>
		</defs>
		<use xlink:href="#SVGID_101_"  overflow="visible" fill-rule="evenodd" clip-rule="evenodd" fill="#977A66"/>
		<clipPath id="SVGID_102_">
			<use xlink:href="#SVGID_101_"  overflow="visible"/>
		</clipPath>
		<g clip-path="url(#SVGID_102_)">
			<defs>
				<rect id="SVGID_103_" x="35" y="11" width="140" height="79"/>
			</defs>
			<use xlink:href="#SVGID_103_"  overflow="visible" fill="#977A66"/>
			<clipPath id="SVGID_104_">
				<use xlink:href="#SVGID_103_"  overflow="visible"/>
			</clipPath>
			<rect x="120.094" y="61.809" clip-path="url(#SVGID_104_)" fill="#977A66" width="17.427" height="21.967"/>
		</g>
	</g>
	<g>
		<defs>
			<path id="SVGID_105_" d="M141.452,66.825v0.885c0,0.265-0.029,0.478-0.086,0.64c-0.058,0.163-0.114,0.3-0.168,0.409l-4.495,9.323
				c-0.093,0.192-0.225,0.356-0.394,0.491c-0.171,0.136-0.4,0.203-0.691,0.203h-1.471l4.602-9.133
				c0.191-0.374,0.405-0.697,0.641-0.967h-5.686c-0.126,0-0.235-0.047-0.328-0.141c-0.094-0.094-0.14-0.204-0.14-0.33v-1.381
				H141.452z"/>
		</defs>
		<use xlink:href="#SVGID_105_"  overflow="visible" fill-rule="evenodd" clip-rule="evenodd" fill="#977A66"/>
		<clipPath id="SVGID_106_">
			<use xlink:href="#SVGID_105_"  overflow="visible"/>
		</clipPath>
		<g clip-path="url(#SVGID_106_)">
			<defs>
				<rect id="SVGID_107_" x="35" y="11" width="140" height="79"/>
			</defs>
			<use xlink:href="#SVGID_107_"  overflow="visible" fill="#977A66"/>
			<clipPath id="SVGID_108_">
				<use xlink:href="#SVGID_107_"  overflow="visible"/>
			</clipPath>
			<rect x="128.236" y="61.825" clip-path="url(#SVGID_108_)" fill="#977A66" width="18.216" height="21.951"/>
		</g>
	</g>
	<g>
		<defs>
			<path id="SVGID_109_" d="M144.405,61.197c-1.971-0.607-2.549-1.107-3.277-2.003c-0.445-0.548-0.959-1.195-1.195-1.871
				c0.547-0.606,1.109-1.201,1.685-1.785c0.213-0.216,0.44-0.418,0.659-0.628c0.401-0.308,0.739-0.558,0.891-0.671
				c0.201-0.147,1.668-1.377,0.869-1.494c-0.762-0.11-1.248,0.31-1.908,0.722c-1.257,0.782-2.342,1.941-3.347,3.076
				c-0.009,0.006-0.017,0.012-0.024,0.018c0.029-0.284,0.057-0.568,0.082-0.853c0.002-0.006,0.003-0.011,0.004-0.017
				c0.253-1.431,0.446-2.874,0.595-4.318c0.052-0.505,0.483-2.64-0.021-3.019c-0.104-0.077-0.551,0.163-0.646,0.205
				c-0.1,0.044-0.177,0.101-0.244,0.162c-0.033,0.011-0.066,0.021-0.101,0.032c0.014,0.01,0.024,0.024,0.036,0.037
				c-0.289,0.345-0.235,0.882-0.277,1.389c-0.113,1.34-0.156,2.687-0.203,4.03c-0.021,0.576-0.062,1.151-0.111,1.727
				c-0.155,0.77-0.373,1.432-0.773,2.076l-0.135-0.137c-0.215,0.205-0.479,0.425-0.787,0.655c-0.311,0.231-0.641,0.446-0.988,0.642
				c-0.348,0.196-0.707,0.359-1.075,0.489c-0.368,0.132-0.72,0.197-1.051,0.197c-0.106,0-0.204-0.012-0.296-0.033
				s-0.179-0.06-0.263-0.113c-0.083-0.056-0.165-0.132-0.245-0.229c-0.081-0.098-0.163-0.22-0.246-0.367
				c0.481-0.132,0.931-0.313,1.344-0.548c0.414-0.235,0.769-0.501,1.069-0.8c0.298-0.3,0.562-0.659,0.786-1.078
				c0.224-0.419,0.337-0.797,0.337-1.136c0-0.316-0.057-0.603-0.167-0.858c-0.109-0.256-0.264-0.475-0.462-0.655
				c-0.195-0.18-0.427-0.321-0.692-0.421s-0.553-0.15-0.865-0.15c-0.379,0-0.725,0.067-1.036,0.202s-0.591,0.317-0.843,0.544
				c-0.25,0.228-0.469,0.491-0.656,0.792c-0.188,0.299-0.343,0.613-0.465,0.943c-0.125,0.33-0.244,0.707-0.361,1.134
				c-0.115,0.425-0.173,0.792-0.173,1.1c0,0.133,0.017,0.26,0.027,0.39c-0.292,0.215-0.601,0.415-0.927,0.599
				c-0.349,0.196-0.707,0.359-1.074,0.489c-0.371,0.132-0.72,0.197-1.051,0.197c-0.107,0-0.205-0.012-0.297-0.033
				s-0.179-0.06-0.262-0.113c-0.084-0.056-0.166-0.132-0.246-0.229s-0.162-0.22-0.246-0.367c0.482-0.132,0.932-0.313,1.344-0.548
				c0.412-0.235,0.769-0.501,1.068-0.8c0.299-0.3,0.562-0.659,0.787-1.078c0.225-0.419,0.337-0.797,0.337-1.136
				c0-0.316-0.056-0.603-0.167-0.858s-0.264-0.475-0.461-0.655c-0.196-0.18-0.426-0.321-0.694-0.421
				c-0.267-0.1-0.553-0.15-0.862-0.15c-0.381,0-0.727,0.067-1.038,0.202s-0.593,0.317-0.842,0.544
				c-0.251,0.228-0.47,0.491-0.656,0.792c-0.188,0.299-0.343,0.613-0.468,0.943s-0.242,0.707-0.357,1.134
				c-0.117,0.425-0.175,0.792-0.175,1.1c0,0.312,0.039,0.61,0.096,0.902c-0.035,0.019-0.069,0.041-0.104,0.057
				c-0.17,0.076-0.333,0.113-0.494,0.113c-0.162,0-0.312-0.027-0.453-0.083c-0.142-0.053-0.264-0.144-0.365-0.266
				c-0.104-0.122-0.185-0.278-0.246-0.467c-0.061-0.188-0.09-0.414-0.09-0.683c0-0.108,0.035-0.334,0.105-0.677
				c0.073-0.343,0.205-0.781,0.403-1.317c0.196-0.536,0.312-1.093,0.345-1.67c0.035-0.576,0.125-1.166,0.27-1.763
				c0.144-0.599,0.262-1.194,0.355-1.789c0.095-0.594,0.142-1.138,0.142-1.634c0-0.178-0.024-0.324-0.072-0.439
				s-0.118-0.207-0.208-0.276c-0.09-0.068-0.197-0.116-0.32-0.145s-0.26-0.042-0.41-0.042c-0.191,0-0.381,0.014-0.564,0.039
				c-0.184,0.027-0.347,0.08-0.492,0.163c-0.145,0.083-0.262,0.199-0.355,0.348c-0.095,0.15-0.149,0.348-0.167,0.594
				c-0.028,0.225-0.065,0.537-0.112,0.937c-0.049,0.397-0.138,1.134-0.266,2.208c-0.13,1.074-0.193,1.61-0.193,1.608
				c0,0-0.094,0.493-0.278,1.479s-0.371,1.784-0.562,2.397c-0.19,0.612-0.405,1.151-0.644,1.615
				c-0.24,0.465-0.504,0.836-0.795,1.115c-0.288,0.278-0.61,0.418-0.962,0.418c-0.204,0-0.374-0.077-0.513-0.226
				c-0.139-0.15-0.25-0.368-0.334-0.652c-0.086-0.282-0.147-0.628-0.184-1.031c-0.035-0.403-0.053-0.855-0.053-1.356
				c0-0.49,0.021-1.028,0.066-1.611c0.044-0.586,0.102-1.176,0.17-1.776c0.069-0.599,0.145-1.182,0.225-1.749
				c0.078-0.568,0.154-1.075,0.223-1.523c0.07-0.448,0.127-0.816,0.172-1.103c0.045-0.287,0.066-0.449,0.066-0.489
				c0-0.116-0.017-0.223-0.051-0.316c-0.033-0.096-0.09-0.176-0.169-0.243c-0.083-0.066-0.188-0.119-0.325-0.158
				c-0.135-0.038-0.309-0.059-0.52-0.059c-0.223,0-0.42,0.025-0.59,0.077c-0.17,0.05-0.319,0.138-0.447,0.262
				c-0.129,0.127-0.238,0.292-0.33,0.501c-0.094,0.21-0.172,0.472-0.238,0.783c-0.361,1.932-0.774,3.655-1.239,5.173
				c-0.134,0.429-0.273,0.855-0.423,1.277c-0.15,0.422-0.309,0.823-0.479,1.207c-0.168,0.382-0.345,0.737-0.527,1.066
				c-0.184,0.327-0.373,0.611-0.572,0.848c-0.201,0.238-0.406,0.426-0.621,0.562c-0.212,0.136-0.433,0.204-0.66,0.204
				c-0.227,0-0.422-0.073-0.59-0.221c-0.165-0.146-0.304-0.35-0.414-0.607c-0.11-0.256-0.193-0.561-0.245-0.908
				c-0.054-0.347-0.079-0.723-0.079-1.124c0-0.491,0.045-1.026,0.137-1.6c0.092-0.575,0.207-1.159,0.344-1.753
				c0.14-0.595,0.289-1.18,0.449-1.759c0.161-0.575,0.311-1.11,0.449-1.603c0.137-0.492,0.252-0.927,0.344-1.303
				s0.138-0.66,0.138-0.854c0-0.17-0.018-0.305-0.055-0.403c-0.035-0.1-0.089-0.176-0.157-0.23
				c-0.068-0.054-0.154-0.089-0.254-0.105c-0.1-0.018-0.209-0.025-0.331-0.025c-0.149,0-0.298,0.008-0.444,0.025
				c-0.146,0.017-0.292,0.067-0.436,0.154c-0.145,0.086-0.285,0.22-0.424,0.4c-0.139,0.182-0.277,0.434-0.414,0.757
				c-0.234,0.579-0.441,1.176-0.625,1.787c-0.182,0.612-0.336,1.23-0.459,1.854c-0.125,0.624-0.221,1.246-0.286,1.866
				c-0.067,0.622-0.1,1.227-0.1,1.817c0,0.964,0.075,1.806,0.228,2.526c0.151,0.722,0.354,1.321,0.605,1.8
				c0.252,0.479,0.543,0.84,0.876,1.082s0.682,0.362,1.047,0.362c0.636,0,1.216-0.11,1.739-0.329c0.523-0.22,0.988-0.59,1.395-1.107
				c0.407-0.518,0.76-1.203,1.062-2.058c0.302-0.854,0.552-1.917,0.752-3.188c-0.018,0.185-0.039,0.393-0.066,0.627
				c-0.029,0.234-0.041,0.483-0.041,0.752c0,0.729,0.051,1.416,0.157,2.062c0.103,0.646,0.27,1.209,0.501,1.688
				c0.229,0.478,0.525,0.856,0.891,1.135c0.369,0.279,0.813,0.418,1.338,0.418c0.414,0,0.814-0.072,1.203-0.217
				c0.389-0.146,0.76-0.353,1.117-0.62c0.355-0.268,0.691-0.59,1.008-0.971c0.318-0.378,0.613-0.806,0.891-1.279
				c0.033,0.249,0.092,0.462,0.173,0.643c0.083,0.182,0.187,0.327,0.312,0.44c0.123,0.114,0.266,0.199,0.426,0.253
				c0.16,0.055,0.331,0.081,0.514,0.081c0.383,0,0.791-0.126,1.227-0.379c0.129-0.075,0.258-0.163,0.386-0.255
				c0.085,0.152,0.173,0.302,0.28,0.437c0.259,0.325,0.582,0.585,0.971,0.777c0.387,0.192,0.838,0.289,1.356,0.289
				c0.331,0,0.659-0.038,0.984-0.115c0.322-0.078,0.638-0.181,0.938-0.309c0.301-0.13,0.59-0.278,0.863-0.444
				c0.274-0.166,0.529-0.336,0.768-0.508c0.041-0.029,0.078-0.064,0.119-0.096c0.08,0.141,0.16,0.28,0.26,0.405
				c0.26,0.325,0.583,0.585,0.97,0.777c0.388,0.192,0.84,0.289,1.358,0.289c0.332,0,0.66-0.038,0.983-0.115
				c0.324-0.078,0.636-0.181,0.938-0.309c0.301-0.13,0.588-0.278,0.863-0.444c0.273-0.166,0.53-0.336,0.768-0.508
				c0.364-0.267,0.71-0.57,1.048-0.891c-0.069,0.813-0.122,1.628-0.125,2.444c0-0.054,0.989-0.196,0.989-0.399
				c0.004-1.027,0.08-2.055,0.177-3.08c0.399,0.573,0.938,1.126,1.167,1.356c1.742,1.752,3.466,2.167,4.328,2.167
				C144.823,61.951,145.099,61.413,144.405,61.197z M125.575,57.319c0.012-0.171,0.062-0.385,0.154-0.646
				c0.094-0.262,0.173-0.48,0.242-0.658s0.162-0.334,0.274-0.474c0.114-0.139,0.256-0.25,0.426-0.339
				c0.169-0.087,0.374-0.131,0.612-0.131c0.133,0,0.246,0.08,0.338,0.238c0.092,0.156,0.137,0.359,0.137,0.604
				c0,0.175-0.098,0.395-0.291,0.662c-0.195,0.267-0.394,0.479-0.597,0.636c-0.202,0.158-0.421,0.289-0.657,0.389
				c-0.236,0.101-0.454,0.151-0.655,0.151C125.558,57.632,125.563,57.488,125.575,57.319z M131.836,57.319
				c0.009-0.171,0.062-0.385,0.154-0.646c0.09-0.262,0.172-0.48,0.24-0.658c0.069-0.178,0.162-0.334,0.273-0.474
				c0.115-0.139,0.258-0.25,0.427-0.339c0.169-0.087,0.374-0.131,0.612-0.131c0.134,0,0.245,0.08,0.337,0.238
				c0.093,0.156,0.139,0.359,0.139,0.604c0,0.175-0.098,0.395-0.292,0.662c-0.195,0.267-0.393,0.479-0.596,0.636
				c-0.203,0.158-0.422,0.289-0.658,0.389c-0.236,0.101-0.455,0.151-0.654,0.151C131.819,57.632,131.825,57.488,131.836,57.319z
				 M137.495,58.418c0.051-0.06,0.102-0.119,0.149-0.181c-0.011,0.101-0.02,0.202-0.03,0.303L137.495,58.418z"/>
		</defs>
		<use xlink:href="#SVGID_109_"  overflow="visible" fill-rule="evenodd" clip-rule="evenodd" fill="#F2E5D3"/>
		<clipPath id="SVGID_110_">
			<use xlink:href="#SVGID_109_"  overflow="visible"/>
		</clipPath>
		<g clip-path="url(#SVGID_110_)">
			<defs>
				<rect id="SVGID_111_" x="35" y="11" width="140" height="79"/>
			</defs>
			<use xlink:href="#SVGID_111_"  overflow="visible" fill="#F2E5D3"/>
			<clipPath id="SVGID_112_">
				<use xlink:href="#SVGID_111_"  overflow="visible"/>
			</clipPath>
			<rect x="101.322" y="43.007" clip-path="url(#SVGID_112_)" fill="#F2E5D3" width="48.481" height="24.523"/>
		</g>
	</g>
	<g>
		<defs>
			<path id="SVGID_113_" d="M35,34.722L93.849,11l3.243,8.044l-1.988,0.786l1.121,5.978c0,0,2.104,0.062,2.326,1.417
				c0.224,1.356-1.307,1.793-1.307,1.793l4.855,13.937l-5.535,1.024l-0.848-14.602c0,0-2.172-0.168-2.327-1.538
				c-0.154-1.369,1.969-1.878,1.969-1.878l-1.069-5.756l-11.291,4.543l3.941,11.52c0,0,0.551,0.416,1.295,1.463
				c0.396,0.557,1.141,1.643,1.141,1.643l3.284-0.569l6.351,34.295L44.033,83.415l-6.349-34.329l15.942-2.92
				c0,0,0.56-1.315,1.078-2.144s0.993-1.545,0.993-1.545l0.051-6.644L36.647,43.45L35,34.722z"/>
		</defs>
		<use xlink:href="#SVGID_113_"  overflow="visible" fill-rule="evenodd" clip-rule="evenodd" fill="#977A66"/>
		<clipPath id="SVGID_114_">
			<use xlink:href="#SVGID_113_"  overflow="visible"/>
		</clipPath>
		<g clip-path="url(#SVGID_114_)">
			<defs>
				<rect id="SVGID_115_" x="35" y="11" width="140" height="79"/>
			</defs>
			<clipPath id="SVGID_116_">
				<use xlink:href="#SVGID_115_"  overflow="visible"/>
			</clipPath>
			<rect x="30" y="6" clip-path="url(#SVGID_116_)" fill="#967964" width="77.1" height="82.415"/>
		</g>
	</g>
	<g>
		<defs>
			<path id="SVGID_117_" d="M86.635,65.821c-8.188,10.726-20.981,15.153-29.744,9.037c-8.76-6.119-8.889-19.283-2.113-30.964
				c6.748-11.634,21.277-15.579,30.038-9.463C93.577,40.55,94.834,55.081,86.635,65.821"/>
		</defs>
		<clipPath id="SVGID_118_">
			<use xlink:href="#SVGID_117_"  overflow="visible"/>
		</clipPath>
		<g clip-path="url(#SVGID_118_)">
			<defs>
				<rect id="SVGID_119_" x="35" y="11" width="140" height="79"/>
			</defs>
			<clipPath id="SVGID_120_">
				<use xlink:href="#SVGID_119_"  overflow="visible"/>
			</clipPath>
			<rect x="44.979" y="26.573" clip-path="url(#SVGID_120_)" fill="#FFFFFF" width="52.159" height="56.06"/>
		</g>
	</g>
	<g>
		<defs>
			<path id="SVGID_121_" d="M73.135,60.684c-0.584,0.231-1.17,0.462-1.834,0.614c-0.184,0.031-0.359,0.071-0.543,0.103
				c-0.106,0.035-0.237,0.047-0.374,0.051c-0.052,0.012-0.146-0.021-0.169,0.018c-0.064,0.011-0.17-0.021-0.205,0.018
				c-0.107,0.01-0.26-0.023-0.339,0.016h-0.458c-0.08-0.039-0.232-0.006-0.34-0.016c-0.035-0.039-0.141-0.007-0.203-0.018
				c-0.545-0.04-1.018-0.15-1.461-0.291c-0.039-0.027-0.092-0.044-0.152-0.051c-0.062-0.007-0.114-0.022-0.152-0.052v-0.017
				c-0.195-0.048-0.348-0.141-0.527-0.204c-0.138-0.044-0.236-0.128-0.373-0.171v-0.018v-0.017
				c-0.494-0.232-0.891-0.562-1.291-0.889c-0.016-0.052-0.064-0.071-0.102-0.103v-0.018c-0.148-0.066-0.197-0.233-0.34-0.307
				c-0.043-0.036-0.074-0.084-0.102-0.137c-0.052-0.057-0.086-0.131-0.152-0.171c-0.041-0.045-0.062-0.107-0.119-0.137
				c-0.266-0.318-0.469-0.701-0.68-1.076c-0.065-0.104-0.123-0.218-0.17-0.341c-0.013-0.044-0.017-0.098-0.051-0.12
				c-0.201-0.436-0.37-0.902-0.475-1.435c-0.045-0.251-0.091-0.502-0.136-0.751c-0.027-0.08-0.035-0.182-0.034-0.291
				c0.004-0.208-0.035-0.374-0.034-0.581c-0.011-0.074,0.022-0.192-0.017-0.239v-0.443c0.027-0.195,0.023-0.42,0.033-0.632
				c0.039-0.024,0.007-0.119,0.018-0.171c0.037-0.503,0.125-0.955,0.237-1.384c0.032-0.069,0.054-0.15,0.067-0.238
				c-0.002-0.054,0.008-0.096,0.034-0.12h0.018c-0.002-0.115,0.052-0.174,0.067-0.272c-0.001-0.025-0.002-0.049,0.018-0.052
				c0.028-0.04,0.044-0.092,0.051-0.154c0.041-0.151,0.094-0.291,0.152-0.427h0.017c0.008-0.106,0.076-0.151,0.086-0.256
				c0.002-0.032,0.011-0.057,0.034-0.068h0.016c0.006-0.062,0.042-0.095,0.052-0.153c-0.003-0.02,0.003-0.031,0.017-0.034h0.018
				c0.002-0.049,0.031-0.071,0.033-0.12c-0.001-0.023-0.002-0.048,0.018-0.051h0.018c0.055-0.153,0.137-0.283,0.203-0.428
				c-0.004-0.02,0.003-0.03,0.016-0.034h0.018c0.32-0.68,0.736-1.264,1.172-1.826c0.016-0.014,0.025-0.033,0.034-0.053h0.017
				c0.056-0.103,0.147-0.17,0.203-0.272c0.074-0.011,0.066-0.105,0.119-0.137c0.076-0.055,0.122-0.14,0.188-0.205
				c0.046-0.032,0.086-0.072,0.119-0.119c0.078-0.053,0.123-0.139,0.186-0.206c0.104-0.089,0.2-0.186,0.289-0.289
				c0.023-0.052,0.076-0.071,0.119-0.103h0.018c0.082-0.093,0.189-0.162,0.271-0.257c0.103-0.125,0.248-0.206,0.356-0.324
				c0.015-0.013,0.038-0.019,0.067-0.018v-0.017c0.145-0.105,0.287-0.214,0.424-0.324c0.003-0.044,0.067-0.024,0.068-0.068h0.035
				c0.107-0.062,0.209-0.132,0.305-0.205c0.004-0.014,0.018-0.017,0.018-0.034c0.287-0.162,0.552-0.345,0.849-0.496
				c0.058-0.026,0.128-0.04,0.17-0.085v-0.018c0.144-0.06,0.278-0.129,0.425-0.188c0.035-0.032,0.08-0.055,0.135-0.067
				c0.058,0,0.09-0.024,0.119-0.052c0.06,0.003,0.072-0.041,0.119-0.051c0.172-0.062,0.354-0.11,0.492-0.205
				c0.06,0.002,0.109-0.004,0.137-0.034c0.111-0.023,0.214-0.058,0.305-0.104c0.006-0.022,0.043-0.013,0.068-0.016
				c0.124-0.029,0.246-0.061,0.356-0.103c0.167-0.033,0.302-0.095,0.476-0.119c0.156-0.03,0.316-0.058,0.476-0.087
				c0.157,0.017,0.223-0.061,0.373-0.051c0.052-0.011,0.147,0.022,0.17-0.018c0.058-0.011,0.158,0.022,0.187-0.017
				c0.103-0.011,0.248,0.022,0.322-0.017h0.578c0.062,0.039,0.197,0.006,0.289,0.017c0.033,0.039,0.141,0.006,0.203,0.017
				c0.367,0.024,0.693,0.088,1.002,0.172v0.017c0.186,0.023,0.322,0.097,0.492,0.137c0.002,0.02,0.031,0.015,0.051,0.018v0.017
				c0.067-0.011,0.068,0.045,0.136,0.033c0.003,0.021,0.03,0.016,0.051,0.018v0.018c0.158,0.045,0.279,0.129,0.441,0.171
				c0.897,0.44,1.608,1.068,2.208,1.81c-0.004,0.043,0.025,0.054,0.051,0.068c0.016,0.069,0.065,0.104,0.102,0.154
				c0.054,0.105,0.129,0.188,0.187,0.29c0.024,0.066,0.06,0.122,0.103,0.17c0.027,0.063,0.064,0.117,0.102,0.172
				c0.01,0.076,0.053,0.117,0.084,0.171c0.039,0.046,0.066,0.104,0.086,0.17c0.02,0.055,0.03,0.117,0.067,0.154
				c0.05,0.023,0.023,0.124,0.067,0.153c0.014,0.044,0.018,0.097,0.052,0.12c0.033,0.022,0.038,0.075,0.051,0.119
				c0.005,0.058,0.018,0.107,0.051,0.137c0.024,0.004,0.005,0.051,0.033,0.051c0.013,0.118,0.073,0.189,0.086,0.308
				c0.011,0.063,0.017,0.131,0.051,0.171c0.03,0.05,0.039,0.121,0.051,0.188c0.001,0.055,0.009,0.104,0.034,0.136
				c0.019,0.095,0.026,0.201,0.067,0.273c0.026,0.082,0.044,0.172,0.051,0.273c-0.001,0.075,0.007,0.142,0.034,0.188
				c0.002,0.106,0.008,0.209,0.034,0.291c0.011,0.041-0.021,0.124,0.017,0.137c0.01,0.052-0.021,0.147,0.017,0.17
				c0.011,0.059-0.021,0.159,0.017,0.188c0.012,0.074-0.021,0.193,0.018,0.239v0.205v0.7c0.003,0.229-0.034,0.421-0.034,0.648
				c-0.015,0.27-0.046,0.522-0.102,0.752c-0.025,0.048-0.029,0.117-0.034,0.188c-0.002,0.106-0.021,0.195-0.051,0.273H79.45
				c0.01,0.065-0.029,0.082-0.016,0.153c-0.018,0.132-0.042,0.254-0.085,0.359h-0.018c-0.015,0.184-0.089,0.308-0.119,0.478v0.052
				h-0.017c-0.013,0.117-0.072,0.189-0.086,0.308h-0.016h-0.018c0.012,0.067-0.045,0.067-0.033,0.137
				c-0.037-0.003-0.008,0.061-0.018,0.085c-0.066,0.046-0.072,0.155-0.102,0.238v0.035c-0.025,0.031-0.018,0.096-0.051,0.119
				c-0.155,0.321-0.291,0.664-0.459,0.974c-0.016,0.069-0.069,0.1-0.084,0.171h-0.017c-0.08,0.233-0.237,0.39-0.323,0.615
				c0.002,0.02-0.004,0.03-0.017,0.034c-0.313,0.448-0.624,0.897-0.951,1.332c-0.058-0.001-0.063,0.051-0.085,0.085
				c-0.096,0.115-0.203,0.218-0.289,0.343c-0.051,0.016-0.07,0.064-0.102,0.102c-0.176,0.182-0.357,0.357-0.526,0.547
				c-0.013,0.038-0.051,0.051-0.085,0.068c-0.104,0.076-0.199,0.164-0.289,0.256c-0.111,0.086-0.201,0.196-0.322,0.273
				c-0.024,0.009-0.041,0.026-0.051,0.052c-0.133,0.087-0.266,0.177-0.373,0.289c-0.394,0.243-0.768,0.504-1.172,0.734
				c-0.077,0.025-0.145,0.06-0.204,0.104c-0.069,0.049-0.148,0.089-0.237,0.119C73.237,60.626,73.149,60.617,73.135,60.684"/>
		</defs>
		<use xlink:href="#SVGID_121_"  overflow="visible" fill-rule="evenodd" clip-rule="evenodd" fill="#967964"/>
		<clipPath id="SVGID_122_">
			<use xlink:href="#SVGID_121_"  overflow="visible"/>
		</clipPath>
		<g clip-path="url(#SVGID_122_)">
			<defs>
				<rect id="SVGID_123_" x="35" y="11" width="140" height="79"/>
			</defs>
			<use xlink:href="#SVGID_123_"  overflow="visible" fill="#967964"/>
			<clipPath id="SVGID_124_">
				<use xlink:href="#SVGID_123_"  overflow="visible"/>
			</clipPath>
			<rect x="57.303" y="37.836" clip-path="url(#SVGID_124_)" fill="#967964" width="27.385" height="28.666"/>
		</g>
	</g>
</g>
</svg>
