<?xml version="1.0" encoding="UTF-8"?>
<svg width="194px" height="53px" viewBox="0 0 194 53" version="1.1" xmlns="http://www.w3.org/2000/svg" xmlns:xlink="http://www.w3.org/1999/xlink">
    <!-- Generator: Sketch 48.2 (47327) - http://www.bohemiancoding.com/sketch -->
    <title>twitter</title>
    <desc>Created with Sketch.</desc>
    <defs>
        <polygon id="path-1" points="0 53 194 53 194 0 0 0"></polygon>
    </defs>
    <g id="share-widget" stroke="none" stroke-width="1" fill="none" fill-rule="evenodd" transform="translate(-624.000000, -156.000000)">
        <g id="twitter" transform="translate(624.000000, 156.000000)">
            <polygon id="Fill-1" fill="#3CABDC" points="0 53 194 53 194 0 0 0"></polygon>
            <polygon id="Fill-2" fill="#2D82B7" points="0 53 52.9867841 53 52.9867841 0 0 0"></polygon>
            <g id="Group-28">
                <path d="M61.5852145,30.3451073 C62.1095273,30.6135266 62.9141573,30.881946 63.7452806,30.881946 C64.6396463,30.881946 65.1126815,30.5113734 65.1126815,29.9484621 C65.1126815,29.4116234 64.7037432,29.1051637 63.6683643,28.7341637 C62.2368665,28.2357927 61.30447,27.4433573 61.30447,26.1905911 C61.30447,24.720696 62.531285,23.5957282 64.5631573,23.5957282 C65.5340119,23.5957282 66.2501881,23.8000347 66.7608269,24.0304137 L66.3266771,25.6024621 C65.9814084,25.4366234 65.3682145,25.1934218 64.5246991,25.1934218 C63.6811837,25.1934218 63.2722454,25.5772444 63.2722454,26.0247524 C63.2722454,26.5744137 63.7581,26.8167605 64.8699678,27.2386234 C66.3903467,27.8015347 67.1060956,28.5935427 67.1060956,29.8082685 C67.1060956,31.2525185 65.9942278,32.4796395 63.6299062,32.4796395 C62.6458048,32.4796395 61.6749502,32.2240427 61.1890956,31.9560508 L61.5852145,30.3451073 Z" id="Fill-3" fill="#FFFFFF"></path>
                <polygon id="Fill-5" fill="#FFFFFF" points="70.3759784 23.7363919 70.3759784 27.0471823 73.5838154 27.0471823 73.5838154 23.7363919 75.5263793 23.7363919 75.5263793 32.3518839 73.5838154 32.3518839 73.5838154 28.7474565 70.3759784 28.7474565 70.3759784 32.3518839 68.4205952 32.3518839 68.4205952 23.7363919"></polygon>
                <path d="M81.415604,28.683429 L80.8788991,26.8553565 C80.7254938,26.3437355 80.5720885,25.7047435 80.4447493,25.19355 L80.4191106,25.19355 C80.2909167,25.7047435 80.1631502,26.3569855 80.0225643,26.8553565 L79.5114982,28.683429 L81.415604,28.683429 Z M79.2303264,30.1405016 L78.6167053,32.3519694 L76.5980797,32.3519694 L79.2303264,23.7364774 L81.7860841,23.7364774 L84.4572163,32.3519694 L82.3612471,32.3519694 L81.6967758,30.1405016 L79.2303264,30.1405016 Z" id="Fill-7" fill="#FFFFFF"></path>
                <path d="M87.5352784,27.5585468 L88.3018775,27.5585468 C89.2731595,27.5585468 89.8483225,27.072571 89.8483225,26.3186032 C89.8483225,25.5257403 89.3116176,25.1295226 88.4168247,25.1167 C87.9442167,25.1167 87.6758643,25.1551677 87.5352784,25.1808129 L87.5352784,27.5585468 Z M85.6051066,23.8511113 C86.2315471,23.7489581 87.1643709,23.67245 88.1997498,23.67245 C89.4778423,23.67245 90.3722079,23.8639339 90.9854018,24.3499097 C91.4968952,24.75895 91.778067,25.3594742 91.778067,26.1523371 C91.778067,27.2516597 90.9982211,28.0060548 90.2572608,28.2744742 L90.2572608,28.3125145 C90.8576352,28.5552887 91.1900846,29.1305952 91.4075868,29.9230306 C91.6755119,30.8949823 91.9438643,32.01995 92.110089,32.3520548 L90.1166749,32.3520548 C89.976089,32.1088532 89.7714062,31.4061758 89.5163004,30.345321 C89.2859789,29.2712161 88.9150714,28.9771516 88.1228335,28.964329 L87.5352784,28.964329 L87.5352784,32.3520548 L85.6051066,32.3520548 L85.6051066,23.8511113 Z" id="Fill-9" fill="#FFFFFF"></path>
                <polygon id="Fill-11" fill="#FFFFFF" points="98.3065515 28.7089032 95.1371727 28.7089032 95.1371727 30.7541048 98.6770317 30.7541048 98.6770317 32.3517984 93.1817894 32.3517984 93.1817894 23.7363065 98.4979877 23.7363065 98.4979877 25.334 95.1371727 25.334 95.1371727 27.1236048 98.3065515 27.1236048"></polygon>
                <path d="M104.246797,28.0698685 C104.246797,29.7568927 105.039035,30.9459734 106.342767,30.9459734 C107.65889,30.9459734 108.413097,29.6932073 108.413097,28.0185782 C108.413097,26.4717476 107.672137,25.1424734 106.329947,25.1424734 C105.013824,25.1424734 104.246797,26.3952395 104.246797,28.0698685 M110.470608,27.9544653 C110.470608,30.7797073 108.758366,32.492804 106.240639,32.492804 C103.684881,32.492804 102.189714,30.5621508 102.189714,28.1079089 C102.189714,25.5258685 103.837859,23.5956427 106.381225,23.5956427 C109.026718,23.5956427 110.470608,25.5771589 110.470608,27.9544653" id="Fill-13" fill="#FFFFFF"></path>
                <path d="M111.746478,32.3519694 L111.746478,23.7364774 L114.021492,23.7364774 L115.81065,26.8933968 C116.321716,27.8016629 116.832782,28.8749129 117.216509,29.8468645 L117.254967,29.8468645 C117.126774,28.7090742 117.088743,27.5456387 117.088743,26.2544048 L117.088743,23.7364774 L118.877474,23.7364774 L118.877474,32.3519694 L116.832782,32.3519694 L114.992774,29.0287839 C114.48128,28.1076952 113.918937,26.9959774 113.497606,25.9859855 L113.459148,25.9988081 C113.509998,27.1365984 113.535637,28.3508968 113.535637,29.7571065 L113.535637,32.3519694 L111.746478,32.3519694 Z" id="Fill-15" fill="#FFFFFF"></path>
                <polygon id="Fill-17" fill="#FFFFFF" points="124.306269 25.372596 121.993225 25.372596 121.993225 23.7364347 128.613155 23.7364347 128.613155 25.372596 126.261652 25.372596 126.261652 32.3519266 124.306269 32.3519266"></polygon>
                <path d="M131.397439,32.3519694 L129.352748,23.7364774 L131.435897,23.7364774 L132.087549,27.2896145 C132.278985,28.312429 132.45803,29.4245742 132.599043,30.2939452 L132.624254,30.2939452 C132.76484,29.3608887 132.969523,28.3252516 133.186598,27.2643968 L133.915166,23.7364774 L135.985496,23.7364774 L136.676034,27.36655 C136.86747,28.3765419 137.008056,29.2972032 137.135822,30.2559048 L137.161034,30.2559048 C137.289228,29.2972032 137.480664,28.2867839 137.659708,27.2643968 L138.362637,23.7364774 L140.343659,23.7364774 L138.119496,32.3519694 L136.011135,32.3519694 L135.282567,28.6449613 C135.116342,27.7755903 134.975756,26.9703323 134.873629,25.9859855 L134.84799,25.9859855 C134.695012,26.9575097 134.554426,27.7755903 134.349743,28.6449613 L133.531867,32.3519694 L131.397439,32.3519694 Z" id="Fill-19" fill="#FFFFFF"></path>
                <mask id="mask-2" fill="white">
                    <use xlink:href="#path-1"></use>
                </mask>
                <g id="Clip-22"></g>
                <polygon id="Fill-21" fill="#FFFFFF" mask="url(#mask-2)" points="141.349938 32.3517984 143.305322 32.3517984 143.305322 23.7363065 141.349938 23.7363065"></polygon>
                <polygon id="Fill-23" fill="#FFFFFF" mask="url(#mask-2)" points="146.652591 25.372596 144.339547 25.372596 144.339547 23.7364347 150.959476 23.7364347 150.959476 25.372596 148.607974 25.372596 148.607974 32.3519266 146.652591 32.3519266"></polygon>
                <polygon id="Fill-24" fill="#FFFFFF" mask="url(#mask-2)" points="153.93524 25.372596 151.621768 25.372596 151.621768 23.7364347 158.241698 23.7364347 158.241698 25.372596 155.890196 25.372596 155.890196 32.3519266 153.93524 32.3519266"></polygon>
                <polygon id="Fill-25" fill="#FFFFFF" mask="url(#mask-2)" points="164.400258 28.7089032 161.230879 28.7089032 161.230879 30.7541048 164.770738 30.7541048 164.770738 32.3517984 159.275496 32.3517984 159.275496 23.7363065 164.591694 23.7363065 164.591694 25.334 161.230879 25.334 161.230879 27.1236048 164.400258 27.1236048"></polygon>
                <path d="M168.027801,27.5585468 L168.7944,27.5585468 C169.765682,27.5585468 170.340845,27.072571 170.340845,26.3186032 C170.340845,25.5257403 169.804141,25.1295226 168.909348,25.1167 C168.43674,25.1167 168.168387,25.1551677 168.027801,25.1808129 L168.027801,27.5585468 Z M166.09763,23.8511113 C166.72407,23.7489581 167.656894,23.67245 168.692273,23.67245 C169.970365,23.67245 170.864731,23.8639339 171.477925,24.3499097 C171.989418,24.75895 172.27059,25.3594742 172.27059,26.1523371 C172.27059,27.2516597 171.490744,28.0060548 170.749784,28.2744742 L170.749784,28.3125145 C171.350158,28.5552887 171.682607,29.1305952 171.90011,29.9230306 C172.168035,30.8949823 172.436387,32.01995 172.602612,32.3520548 L170.609198,32.3520548 C170.468612,32.1088532 170.263929,31.4061758 170.008823,30.345321 C169.778502,29.2712161 169.407594,28.9771516 168.615356,28.964329 L168.027801,28.964329 L168.027801,32.3520548 L166.09763,32.3520548 L166.09763,23.8511113 Z" id="Fill-26" fill="#FFFFFF" mask="url(#mask-2)"></path>
                <path d="M42.6701291,15.9403484 C41.4813449,16.4677839 40.1942789,16.8328 38.8486709,16.9922274 C40.2246181,16.1685903 41.2736709,14.8632516 41.7783273,13.3065903 C40.4904066,14.0699613 39.0661731,14.6247516 37.5406665,14.9213806 C36.3343626,13.6339935 34.6011819,12.8227516 32.6906665,12.8227516 C29.0183405,12.8227516 26.0382612,15.8035742 26.0382612,19.4763887 C26.0382612,20.0012597 26.0989396,20.5056145 26.2079044,20.9924452 C20.672922,20.7133403 15.7746357,18.0697516 12.4877458,14.0391871 C11.9125828,15.0201145 11.5856885,16.1685903 11.5856885,17.3875903 C11.5856885,19.6948 12.7637899,21.7348726 14.5456841,22.9213887 C13.4560366,22.8936065 12.4373229,22.5867194 11.5374022,22.0900581 L11.5374022,22.1712677 C11.5374022,25.3978565 13.8333537,28.0897435 16.8719749,28.7060823 C16.3168956,28.8526871 15.7237855,28.9313323 15.1208471,28.9313323 C14.6952436,28.9313323 14.2794683,28.8932919 13.863693,28.8150742 C14.7153273,31.4586629 17.16853,33.3773484 20.0802392,33.4384694 C17.8018075,35.2203806 14.930693,36.2799532 11.8138736,36.2799532 C11.278878,36.2799532 10.7545652,36.2496065 10.2298251,36.19105 C13.1795652,38.0819532 16.6745564,39.1799935 20.4349088,39.1799935 C32.6701555,39.1799935 39.3631555,29.0403242 39.3631555,20.2495903 L39.3426445,19.3879129 C40.6502216,18.4471629 41.7783273,17.2790258 42.6701291,15.9403484" id="Fill-27" fill="#FFFFFF" mask="url(#mask-2)"></path>
            </g>
        </g>
    </g>
</svg>