<?xml version="1.0" encoding="UTF-8"?>
<svg width="134px" height="40px" viewBox="0 0 134 40" version="1.1" xmlns="http://www.w3.org/2000/svg" xmlns:xlink="http://www.w3.org/1999/xlink">
    <!-- Generator: Sketch 48.2 (47327) - http://www.bohemiancoding.com/sketch -->
    <title>facebook-twitter</title>
    <desc>Created with Sketch.</desc>
    <defs></defs>
    <g id="main-page-design-1b" stroke="none" stroke-width="1" fill="none" fill-rule="evenodd" transform="translate(-1056.000000, -2247.000000)">
        <g id="Group-5" transform="translate(899.000000, 2247.000000)">
            <g id="facebook-twitter" transform="translate(157.000000, 0.000000)">
                <polygon id="Fill-1" fill="#3CABDC" points="0 40 134 40 134 0 0 0"></polygon>
                <polygon id="Fill-2" fill="#2D82B7" points="0 40 39.9423077 40 39.9423077 0 0 0"></polygon>
                <polygon id="Fill-3" fill="#FFFFFF" points="48.5230428 17.0117097 53.8308601 17.0117097 53.8308601 18.6242903 50.4940668 18.6242903 50.4940668 20.6110645 53.6114995 20.6110645 53.6114995 22.2107419 50.4940668 22.2107419 50.4940668 25.706871 48.5230428 25.706871"></polygon>
                <g id="Group-20" transform="translate(7.408654, 9.677419)" fill="#FFFFFF">
                    <path d="M50.5457019,11.7077097 C50.5457019,13.4106129 51.344226,14.6102903 52.6584567,14.6102903 C53.98525,14.6102903 54.7454423,13.3460968 54.7454423,11.6560968 C54.7454423,10.095129 53.9981346,8.75319355 52.6455721,8.75319355 C51.3184567,8.75319355 50.5457019,10.0177097 50.5457019,11.7077097 M56.8195433,11.5915806 C56.8195433,14.442871 55.0930048,16.1712581 52.5550577,16.1712581 C49.9787788,16.1712581 48.471601,14.2235161 48.471601,11.7464194 C48.471601,9.14029032 50.1333942,7.19222581 52.6971106,7.19222581 C55.3635817,7.19222581 56.8195433,9.19190323 56.8195433,11.5915806" id="Fill-4"></path>
                    <polygon id="Fill-6" points="59.0754462 7.33429032 61.0464702 7.33429032 61.0464702 14.3781613 64.4989029 14.3781613 64.4989029 16.0294516 59.0754462 16.0294516"></polygon>
                    <polygon id="Fill-8" points="66.6256697 7.33429032 68.5966938 7.33429032 68.5966938 14.3781613 72.0491264 14.3781613 72.0491264 16.0294516 66.6256697 16.0294516"></polygon>
                    <path d="M75.3608591,11.7077097 C75.3608591,13.4106129 76.1593832,14.6102903 77.4736139,14.6102903 C78.8004072,14.6102903 79.5605995,13.3460968 79.5605995,11.6560968 C79.5605995,10.095129 78.8132918,8.75319355 77.4607293,8.75319355 C76.1336139,8.75319355 75.3608591,10.0177097 75.3608591,11.7077097 M81.6347005,11.5915806 C81.6347005,14.442871 79.908162,16.1712581 77.370537,16.1712581 C74.7939361,16.1712581 73.2867582,14.2235161 73.2867582,11.7464194 C73.2867582,9.14029032 74.9485514,7.19222581 77.5122678,7.19222581 C80.1787389,7.19222581 81.6347005,9.19190323 81.6347005,11.5915806" id="Fill-10"></path>
                    <path d="M85.2048663,16.0294839 L83.14365,7.33432258 L85.2435202,7.33432258 L85.9003135,10.9207742 C86.0939048,11.9527097 86.2739673,13.0752903 86.4156981,13.9527097 L86.4414673,13.9527097 C86.5831981,13.0107742 86.7893519,11.9656129 87.0083904,10.8949677 L87.7428135,7.33432258 L89.8294769,7.33432258 L90.5252462,10.997871 C90.7185154,12.0172258 90.8602462,12.9459355 90.9890923,13.9136774 L91.0148615,13.9136774 C91.1437077,12.9459355 91.3366548,11.9269032 91.5173615,10.8949677 L92.2256933,7.33432258 L94.2224865,7.33432258 L91.9808856,16.0294839 L89.8555683,16.0294839 L89.1211452,12.2881935 C88.9536452,11.4110968 88.8119144,10.5981935 88.7088375,9.60464516 L88.6830683,9.60464516 C88.5284529,10.5852903 88.3867221,11.4110968 88.1805683,12.2881935 L87.356275,16.0294839 L85.2048663,16.0294839 Z" id="Fill-12"></path>
                    <path d="M101.735602,7.33429032 L101.735602,12.3397742 C101.735602,13.8362258 102.302525,14.5975161 103.307203,14.5975161 C104.33765,14.5975161 104.904574,13.8749355 104.904574,12.3397742 L104.904574,7.33429032 L106.862713,7.33429032 L106.862713,12.2107419 C106.862713,14.8942903 105.51015,16.1713871 103.24278,16.1713871 C101.052718,16.1713871 99.7645784,14.9588065 99.7645784,12.1849355 L99.7645784,7.33429032 L101.735602,7.33429032 Z" id="Fill-14"></path>
                    <path d="M109.595347,14.0039032 C110.123616,14.274871 110.935025,14.5458387 111.772525,14.5458387 C112.674125,14.5458387 113.150856,14.1719677 113.150856,13.6042258 C113.150856,13.0622903 112.738549,12.7526129 111.695217,12.3784194 C110.25214,11.8751935 109.311885,11.0755161 109.311885,9.81132258 C109.311885,8.32745161 110.548486,7.19229032 112.596818,7.19229032 C113.575726,7.19229032 114.297587,7.39841935 114.81265,7.631 L114.374573,9.21777419 C114.02701,9.05003226 113.408549,8.80487097 112.558164,8.80487097 C111.708101,8.80487097 111.295472,9.19196774 111.295472,9.64325806 C111.295472,10.1980968 111.785409,10.4432581 112.906049,10.8690645 C114.438996,11.4368065 115.160212,12.2364839 115.160212,13.4619677 C115.160212,14.9200323 114.039573,16.1587419 111.656241,16.1587419 C110.664448,16.1587419 109.685217,15.9003548 109.195924,15.6293871 L109.595347,14.0039032 Z" id="Fill-16"></path>
                    <path d="M24.7566288,2.35303226 C23.860826,2.75109677 22.8902923,3.02658065 21.875951,3.14690323 C22.9131625,2.52529032 23.7039558,1.54012903 24.084374,0.365290323 C23.1138404,0.941419355 22.0402298,1.36012903 20.8902779,1.584 C19.9809462,0.612387097 18.674124,0.000129032258 17.2339462,0.000129032258 C14.4660087,0.000129032258 12.2192538,2.24980645 12.2192538,5.02174194 C12.2192538,5.41787097 12.2653163,5.79851613 12.3474558,6.16593548 C8.17509519,5.95529032 4.48268654,3.96012903 2.00465288,0.918193548 C1.57108558,1.65851613 1.32466731,2.52529032 1.32466731,3.44529032 C1.32466731,5.18658065 2.21306154,6.72625806 3.55596058,7.62174194 C2.73456635,7.60077419 1.96664327,7.36916129 1.28859038,6.99432258 L1.28859038,7.0556129 C1.28859038,9.49077419 3.01931635,11.5223871 5.30955673,11.9875484 C4.89112885,12.0981935 4.44403269,12.1575484 3.98952788,12.1575484 C3.66870096,12.1575484 3.35560481,12.1288387 3.04218654,12.0698065 C3.68384038,14.0649677 5.53310481,15.5130323 7.72832115,15.5591613 C6.01080192,16.904 3.84650865,17.7036774 1.49667692,17.7036774 C1.09338846,17.7036774 0.698475,17.6807742 0.302595192,17.6365806 C2.52615769,19.0636774 5.16073942,19.8923871 7.99567692,19.8923871 C17.2188067,19.8923871 22.2637779,12.2398065 22.2637779,5.60529032 L22.2486385,4.95496774 C23.2339894,4.24496774 24.084374,3.36335484 24.7566288,2.35303226" id="Fill-18"></path>
                </g>
            </g>
        </g>
    </g>
</svg>